G04 #@! TF.FileFunction,Copper,L2,Bot,Signal*
%FSLAX46Y46*%
G04 Gerber Fmt 4.6, Leading zero omitted, Abs format (unit mm)*
G04 Created by KiCad (PCBNEW (2015-05-05 BZR 5645)-product) date Thursday, September 03, 2015 'pmt' 04:49:33 pm*
%MOMM*%
G01*
G04 APERTURE LIST*
%ADD10C,0.100000*%
%ADD11R,3.500120X3.500120*%
%ADD12R,2.032000X1.727200*%
%ADD13O,2.032000X1.727200*%
%ADD14R,2.032000X2.032000*%
%ADD15O,2.032000X2.032000*%
%ADD16O,3.962400X1.981200*%
%ADD17C,0.600000*%
%ADD18C,0.250000*%
%ADD19C,3.000000*%
%ADD20C,0.254000*%
G04 APERTURE END LIST*
D10*
D11*
X144200000Y-73800140D03*
X144200000Y-67800660D03*
X139501000Y-70800400D03*
D12*
X160900000Y-72300000D03*
D13*
X160900000Y-74840000D03*
X160900000Y-77380000D03*
X160900000Y-79920000D03*
D14*
X160050000Y-104550000D03*
D15*
X160050000Y-107090000D03*
D14*
X155550000Y-107100000D03*
D15*
X155550000Y-104560000D03*
D16*
X103000000Y-120750000D03*
X103000000Y-115750000D03*
X103000000Y-105750000D03*
X103000000Y-100750000D03*
X103000000Y-90150000D03*
X103000000Y-85150000D03*
D17*
X150100000Y-96950000D03*
X150300000Y-91100000D03*
X159150000Y-83050000D03*
X123900000Y-132900000D03*
X160300000Y-120300000D03*
X160300000Y-124100000D03*
X148100000Y-132300000D03*
X130700000Y-86800000D03*
X114350000Y-122750000D03*
X114350000Y-119300000D03*
X134300000Y-135000000D03*
X108350000Y-83000000D03*
X107800000Y-95100000D03*
X108150000Y-107550000D03*
X123850000Y-82950000D03*
X126400000Y-77350000D03*
X137650000Y-78350000D03*
X144800000Y-79850000D03*
X143450000Y-90000000D03*
X146250000Y-93100000D03*
X148900000Y-93550000D03*
X153600000Y-100400000D03*
X153550000Y-102400000D03*
X153550000Y-103450000D03*
X153500000Y-115450000D03*
X153500000Y-116400000D03*
X152600000Y-120900000D03*
X146150000Y-126850000D03*
X144150000Y-126850000D03*
X127200000Y-126900000D03*
X121650000Y-121100000D03*
X119650000Y-116450000D03*
X159050000Y-112450000D03*
X124900000Y-94900000D03*
X157850000Y-99200000D03*
X158000000Y-95250000D03*
X158100000Y-91450000D03*
X133150000Y-96850000D03*
X137150000Y-96950000D03*
X141250000Y-96900000D03*
X152250000Y-69650000D03*
X156100000Y-74900000D03*
X143450000Y-87400000D03*
X156900000Y-77500000D03*
X143350000Y-88600000D03*
X130600000Y-90850000D03*
X130650000Y-79150000D03*
X136000000Y-77500000D03*
X131050000Y-97750000D03*
X127900000Y-78950000D03*
X125000000Y-91950000D03*
X133000000Y-77650000D03*
X128200000Y-93050000D03*
X155750000Y-85000000D03*
X156900000Y-117400000D03*
X152250000Y-90050000D03*
X154650000Y-110050000D03*
X142300000Y-97750000D03*
D18*
X150100000Y-91300000D02*
X150100000Y-96950000D01*
X150300000Y-91100000D02*
X150100000Y-91300000D01*
D19*
X108350000Y-83000000D02*
X108300000Y-82950000D01*
X108300000Y-82950000D02*
X108250000Y-82950000D01*
D18*
X156100000Y-79050000D02*
X156100000Y-74900000D01*
X153150000Y-82000000D02*
X156100000Y-79050000D01*
X148850000Y-82000000D02*
X153150000Y-82000000D01*
X143450000Y-87400000D02*
X148850000Y-82000000D01*
X156900000Y-79450000D02*
X156900000Y-77500000D01*
X153650000Y-82700000D02*
X156900000Y-79450000D01*
X149250000Y-82700000D02*
X153650000Y-82700000D01*
X143350000Y-88600000D02*
X149250000Y-82700000D01*
X130600000Y-90850000D02*
X131850000Y-90850000D01*
X131850000Y-90850000D02*
X131850000Y-79650000D01*
X131850000Y-79650000D02*
X131400000Y-79200000D01*
X131400000Y-79200000D02*
X130950000Y-79200000D01*
X130950000Y-79200000D02*
X130900000Y-79150000D01*
X130900000Y-79150000D02*
X130650000Y-79150000D01*
X136000000Y-77500000D02*
X135850000Y-77650000D01*
X135850000Y-77650000D02*
X135850000Y-97400000D01*
X135850000Y-97400000D02*
X135500000Y-97750000D01*
X135500000Y-97750000D02*
X131050000Y-97750000D01*
X125650000Y-81200000D02*
X127900000Y-78950000D01*
X125650000Y-91300000D02*
X125650000Y-81200000D01*
X125000000Y-91950000D02*
X125650000Y-91300000D01*
X133000000Y-77650000D02*
X134350000Y-79000000D01*
X134350000Y-79000000D02*
X134350000Y-92900000D01*
X134350000Y-92900000D02*
X134200000Y-93050000D01*
X134200000Y-93050000D02*
X128200000Y-93050000D01*
X155750000Y-85000000D02*
X155785000Y-85035000D01*
X152250000Y-90050000D02*
X152250000Y-97400000D01*
X157650000Y-116650000D02*
X156900000Y-117400000D01*
X157650000Y-102800000D02*
X157650000Y-116650000D01*
X152250000Y-97400000D02*
X157650000Y-102800000D01*
X152250000Y-90050000D02*
X152250000Y-88570000D01*
X152250000Y-88570000D02*
X155785000Y-85035000D01*
X155785000Y-85035000D02*
X160900000Y-79920000D01*
X152250000Y-90050000D02*
X152250000Y-90000000D01*
X154650000Y-110050000D02*
X142350000Y-97750000D01*
X142350000Y-97750000D02*
X142300000Y-97750000D01*
D20*
G36*
X162090000Y-134190000D02*
X153700000Y-134190000D01*
X153635413Y-134202847D01*
X153635413Y-127277675D01*
X153273084Y-126400771D01*
X152602758Y-125729274D01*
X151726487Y-125365415D01*
X150777675Y-125364587D01*
X149900771Y-125726916D01*
X149229274Y-126397242D01*
X148865415Y-127273513D01*
X148864587Y-128222325D01*
X149226916Y-129099229D01*
X149897242Y-129770726D01*
X150773513Y-130134585D01*
X151722325Y-130135413D01*
X152599229Y-129773084D01*
X153270726Y-129102758D01*
X153634585Y-128226487D01*
X153635413Y-127277675D01*
X153635413Y-134202847D01*
X153428295Y-134244046D01*
X153197954Y-134397954D01*
X153044046Y-134628295D01*
X152990000Y-134900000D01*
X152990000Y-142190000D01*
X139374000Y-142190000D01*
X139374000Y-73026710D01*
X139374000Y-70927400D01*
X139374000Y-70673400D01*
X139374000Y-68574090D01*
X139215250Y-68415340D01*
X137877249Y-68415340D01*
X137624630Y-68415340D01*
X137391241Y-68512013D01*
X137212613Y-68690642D01*
X137115940Y-68924031D01*
X137115940Y-70514650D01*
X137274690Y-70673400D01*
X139374000Y-70673400D01*
X139374000Y-70927400D01*
X137274690Y-70927400D01*
X137115940Y-71086150D01*
X137115940Y-72676769D01*
X137212613Y-72910158D01*
X137391241Y-73088787D01*
X137624630Y-73185460D01*
X137877249Y-73185460D01*
X139215250Y-73185460D01*
X139374000Y-73026710D01*
X139374000Y-142190000D01*
X136935162Y-142190000D01*
X136935162Y-77314833D01*
X136793117Y-76971057D01*
X136530327Y-76707808D01*
X136186799Y-76565162D01*
X135814833Y-76564838D01*
X135471057Y-76706883D01*
X135207808Y-76969673D01*
X135065162Y-77313201D01*
X135064838Y-77685167D01*
X135090000Y-77746063D01*
X135090000Y-78899453D01*
X135052148Y-78709161D01*
X135052148Y-78709160D01*
X134887401Y-78462599D01*
X133935122Y-77510320D01*
X133935162Y-77464833D01*
X133793117Y-77121057D01*
X133530327Y-76857808D01*
X133186799Y-76715162D01*
X132814833Y-76714838D01*
X132471057Y-76856883D01*
X132207808Y-77119673D01*
X132065162Y-77463201D01*
X132064838Y-77835167D01*
X132206883Y-78178943D01*
X132469673Y-78442192D01*
X132813201Y-78584838D01*
X132860076Y-78584878D01*
X133590000Y-79314802D01*
X133590000Y-92290000D01*
X132610000Y-92290000D01*
X132610000Y-90850000D01*
X132610000Y-79650000D01*
X132552148Y-79359161D01*
X132387401Y-79112599D01*
X131937401Y-78662599D01*
X131690839Y-78497852D01*
X131400000Y-78440000D01*
X131262375Y-78440000D01*
X131180327Y-78357808D01*
X130836799Y-78215162D01*
X130464833Y-78214838D01*
X130121057Y-78356883D01*
X129857808Y-78619673D01*
X129715162Y-78963201D01*
X129714838Y-79335167D01*
X129856883Y-79678943D01*
X130119673Y-79942192D01*
X130463201Y-80084838D01*
X130835167Y-80085162D01*
X131090000Y-79979867D01*
X131090000Y-90041062D01*
X130786799Y-89915162D01*
X130414833Y-89914838D01*
X130071057Y-90056883D01*
X129807808Y-90319673D01*
X129665162Y-90663201D01*
X129664838Y-91035167D01*
X129806883Y-91378943D01*
X130069673Y-91642192D01*
X130413201Y-91784838D01*
X130785167Y-91785162D01*
X131128943Y-91643117D01*
X131162117Y-91610000D01*
X131850000Y-91610000D01*
X132140839Y-91552148D01*
X132387401Y-91387401D01*
X132552148Y-91140839D01*
X132610000Y-90850000D01*
X132610000Y-92290000D01*
X128835162Y-92290000D01*
X128835162Y-78764833D01*
X128693117Y-78421057D01*
X128430327Y-78157808D01*
X128086799Y-78015162D01*
X127714833Y-78014838D01*
X127371057Y-78156883D01*
X127107808Y-78419673D01*
X126965162Y-78763201D01*
X126965121Y-78810076D01*
X125112599Y-80662599D01*
X124947852Y-80909161D01*
X124890000Y-81200000D01*
X124890000Y-90985198D01*
X124860320Y-91014877D01*
X124814833Y-91014838D01*
X124471057Y-91156883D01*
X124207808Y-91419673D01*
X124065162Y-91763201D01*
X124064838Y-92135167D01*
X124206883Y-92478943D01*
X124469673Y-92742192D01*
X124813201Y-92884838D01*
X125185167Y-92885162D01*
X125528943Y-92743117D01*
X125792192Y-92480327D01*
X125934838Y-92136799D01*
X125934878Y-92089923D01*
X126187401Y-91837401D01*
X126352148Y-91590839D01*
X126410000Y-91300000D01*
X126410000Y-81514802D01*
X128039679Y-79885122D01*
X128085167Y-79885162D01*
X128428943Y-79743117D01*
X128692192Y-79480327D01*
X128834838Y-79136799D01*
X128835162Y-78764833D01*
X128835162Y-92290000D01*
X128762462Y-92290000D01*
X128730327Y-92257808D01*
X128386799Y-92115162D01*
X128014833Y-92114838D01*
X127671057Y-92256883D01*
X127407808Y-92519673D01*
X127265162Y-92863201D01*
X127264838Y-93235167D01*
X127406883Y-93578943D01*
X127669673Y-93842192D01*
X128013201Y-93984838D01*
X128385167Y-93985162D01*
X128728943Y-93843117D01*
X128762117Y-93810000D01*
X134200000Y-93810000D01*
X134490839Y-93752148D01*
X134737401Y-93587401D01*
X134887401Y-93437401D01*
X135052148Y-93190839D01*
X135090000Y-93000545D01*
X135090000Y-96990000D01*
X131612462Y-96990000D01*
X131580327Y-96957808D01*
X131236799Y-96815162D01*
X130864833Y-96814838D01*
X130521057Y-96956883D01*
X130257808Y-97219673D01*
X130115162Y-97563201D01*
X130114838Y-97935167D01*
X130256883Y-98278943D01*
X130519673Y-98542192D01*
X130863201Y-98684838D01*
X131235167Y-98685162D01*
X131578943Y-98543117D01*
X131612117Y-98510000D01*
X135500000Y-98510000D01*
X135790839Y-98452148D01*
X136037401Y-98287401D01*
X136387401Y-97937401D01*
X136552148Y-97690839D01*
X136610000Y-97400000D01*
X136610000Y-78212201D01*
X136792192Y-78030327D01*
X136934838Y-77686799D01*
X136935162Y-77314833D01*
X136935162Y-142190000D01*
X123135413Y-142190000D01*
X123135413Y-127277675D01*
X123135413Y-76977675D01*
X122773084Y-76100771D01*
X122102758Y-75429274D01*
X121226487Y-75065415D01*
X120277675Y-75064587D01*
X119400771Y-75426916D01*
X118729274Y-76097242D01*
X118365415Y-76973513D01*
X118364587Y-77922325D01*
X118726916Y-78799229D01*
X119397242Y-79470726D01*
X120273513Y-79834585D01*
X121222325Y-79835413D01*
X122099229Y-79473084D01*
X122770726Y-78802758D01*
X123134585Y-77926487D01*
X123135413Y-76977675D01*
X123135413Y-127277675D01*
X122773084Y-126400771D01*
X122102758Y-125729274D01*
X121226487Y-125365415D01*
X120277675Y-125364587D01*
X119400771Y-125726916D01*
X118729274Y-126397242D01*
X118365415Y-127273513D01*
X118364587Y-128222325D01*
X118726916Y-129099229D01*
X119397242Y-129770726D01*
X120273513Y-130134585D01*
X121222325Y-130135413D01*
X122099229Y-129773084D01*
X122770726Y-129102758D01*
X123134585Y-128226487D01*
X123135413Y-127277675D01*
X123135413Y-142190000D01*
X119010000Y-142190000D01*
X119010000Y-134900000D01*
X118955954Y-134628295D01*
X118802046Y-134397954D01*
X118571705Y-134244046D01*
X118300000Y-134190000D01*
X111010000Y-134190000D01*
X111010000Y-129000000D01*
X110955954Y-128728295D01*
X110802046Y-128497954D01*
X110571705Y-128344046D01*
X110300000Y-128290000D01*
X105667454Y-128290000D01*
X105667454Y-120750000D01*
X105667454Y-115750000D01*
X105667454Y-105750000D01*
X105667454Y-100750000D01*
X105667454Y-90150000D01*
X105667454Y-85150000D01*
X105543713Y-84527910D01*
X105191327Y-84000527D01*
X104663944Y-83648141D01*
X104041854Y-83524400D01*
X101958146Y-83524400D01*
X101336056Y-83648141D01*
X100808673Y-84000527D01*
X100456287Y-84527910D01*
X100332546Y-85150000D01*
X100456287Y-85772090D01*
X100808673Y-86299473D01*
X101336056Y-86651859D01*
X101958146Y-86775600D01*
X104041854Y-86775600D01*
X104663944Y-86651859D01*
X105191327Y-86299473D01*
X105543713Y-85772090D01*
X105667454Y-85150000D01*
X105667454Y-90150000D01*
X105543713Y-89527910D01*
X105191327Y-89000527D01*
X104663944Y-88648141D01*
X104041854Y-88524400D01*
X101958146Y-88524400D01*
X101336056Y-88648141D01*
X100808673Y-89000527D01*
X100456287Y-89527910D01*
X100332546Y-90150000D01*
X100456287Y-90772090D01*
X100808673Y-91299473D01*
X101336056Y-91651859D01*
X101958146Y-91775600D01*
X104041854Y-91775600D01*
X104663944Y-91651859D01*
X105191327Y-91299473D01*
X105543713Y-90772090D01*
X105667454Y-90150000D01*
X105667454Y-100750000D01*
X105543713Y-100127910D01*
X105191327Y-99600527D01*
X104663944Y-99248141D01*
X104041854Y-99124400D01*
X101958146Y-99124400D01*
X101336056Y-99248141D01*
X100808673Y-99600527D01*
X100456287Y-100127910D01*
X100332546Y-100750000D01*
X100456287Y-101372090D01*
X100808673Y-101899473D01*
X101336056Y-102251859D01*
X101958146Y-102375600D01*
X104041854Y-102375600D01*
X104663944Y-102251859D01*
X105191327Y-101899473D01*
X105543713Y-101372090D01*
X105667454Y-100750000D01*
X105667454Y-105750000D01*
X105543713Y-105127910D01*
X105191327Y-104600527D01*
X104663944Y-104248141D01*
X104041854Y-104124400D01*
X101958146Y-104124400D01*
X101336056Y-104248141D01*
X100808673Y-104600527D01*
X100456287Y-105127910D01*
X100332546Y-105750000D01*
X100456287Y-106372090D01*
X100808673Y-106899473D01*
X101336056Y-107251859D01*
X101958146Y-107375600D01*
X104041854Y-107375600D01*
X104663944Y-107251859D01*
X105191327Y-106899473D01*
X105543713Y-106372090D01*
X105667454Y-105750000D01*
X105667454Y-115750000D01*
X105543713Y-115127910D01*
X105191327Y-114600527D01*
X104663944Y-114248141D01*
X104041854Y-114124400D01*
X101958146Y-114124400D01*
X101336056Y-114248141D01*
X100808673Y-114600527D01*
X100456287Y-115127910D01*
X100332546Y-115750000D01*
X100456287Y-116372090D01*
X100808673Y-116899473D01*
X101336056Y-117251859D01*
X101958146Y-117375600D01*
X104041854Y-117375600D01*
X104663944Y-117251859D01*
X105191327Y-116899473D01*
X105543713Y-116372090D01*
X105667454Y-115750000D01*
X105667454Y-120750000D01*
X105543713Y-120127910D01*
X105191327Y-119600527D01*
X104663944Y-119248141D01*
X104041854Y-119124400D01*
X101958146Y-119124400D01*
X101336056Y-119248141D01*
X100808673Y-119600527D01*
X100456287Y-120127910D01*
X100332546Y-120750000D01*
X100456287Y-121372090D01*
X100808673Y-121899473D01*
X101336056Y-122251859D01*
X101958146Y-122375600D01*
X104041854Y-122375600D01*
X104663944Y-122251859D01*
X105191327Y-121899473D01*
X105543713Y-121372090D01*
X105667454Y-120750000D01*
X105667454Y-128290000D01*
X96160000Y-128290000D01*
X96160000Y-76860000D01*
X110300000Y-76860000D01*
X110571705Y-76805954D01*
X110802046Y-76652046D01*
X110955954Y-76421705D01*
X111010000Y-76150000D01*
X111010000Y-71010000D01*
X118300000Y-71010000D01*
X118571705Y-70955954D01*
X118802046Y-70802046D01*
X118955954Y-70571705D01*
X119010000Y-70300000D01*
X119010000Y-63010000D01*
X152990000Y-63010000D01*
X152990000Y-70300000D01*
X153044046Y-70571705D01*
X153197954Y-70802046D01*
X153428295Y-70955954D01*
X153700000Y-71010000D01*
X159412374Y-71010000D01*
X159345673Y-71076701D01*
X159249000Y-71310090D01*
X159249000Y-71562709D01*
X159249000Y-72014250D01*
X159407750Y-72173000D01*
X160773000Y-72173000D01*
X160773000Y-72153000D01*
X161027000Y-72153000D01*
X161027000Y-72173000D01*
X161047000Y-72173000D01*
X161047000Y-72427000D01*
X161027000Y-72427000D01*
X161027000Y-72447000D01*
X160773000Y-72447000D01*
X160773000Y-72427000D01*
X159407750Y-72427000D01*
X159249000Y-72585750D01*
X159249000Y-73037291D01*
X159249000Y-73289910D01*
X159345673Y-73523299D01*
X159524302Y-73701927D01*
X159677780Y-73765499D01*
X159655585Y-73780330D01*
X159330729Y-74266511D01*
X159216655Y-74840000D01*
X159330729Y-75413489D01*
X159655585Y-75899670D01*
X159970365Y-76110000D01*
X159655585Y-76320330D01*
X159330729Y-76806511D01*
X159216655Y-77380000D01*
X159330729Y-77953489D01*
X159655585Y-78439670D01*
X159970365Y-78650000D01*
X159655585Y-78860330D01*
X159330729Y-79346511D01*
X159216655Y-79920000D01*
X159317618Y-80427579D01*
X157835162Y-81910035D01*
X157835162Y-77314833D01*
X157693117Y-76971057D01*
X157430327Y-76707808D01*
X157086799Y-76565162D01*
X156860000Y-76564964D01*
X156860000Y-75462462D01*
X156892192Y-75430327D01*
X157034838Y-75086799D01*
X157035162Y-74714833D01*
X156893117Y-74371057D01*
X156630327Y-74107808D01*
X156286799Y-73965162D01*
X155914833Y-73964838D01*
X155571057Y-74106883D01*
X155307808Y-74369673D01*
X155165162Y-74713201D01*
X155164838Y-75085167D01*
X155306883Y-75428943D01*
X155340000Y-75462117D01*
X155340000Y-78735198D01*
X153635413Y-80439785D01*
X153635413Y-76977675D01*
X153273084Y-76100771D01*
X152602758Y-75429274D01*
X151726487Y-75065415D01*
X150777675Y-75064587D01*
X149900771Y-75426916D01*
X149229274Y-76097242D01*
X148865415Y-76973513D01*
X148864587Y-77922325D01*
X149226916Y-78799229D01*
X149897242Y-79470726D01*
X150773513Y-79834585D01*
X151722325Y-79835413D01*
X152599229Y-79473084D01*
X153270726Y-78802758D01*
X153634585Y-77926487D01*
X153635413Y-76977675D01*
X153635413Y-80439785D01*
X152835198Y-81240000D01*
X148850000Y-81240000D01*
X148559160Y-81297852D01*
X148312599Y-81462599D01*
X146597500Y-83177697D01*
X146597500Y-75550200D01*
X146597500Y-72050080D01*
X146585060Y-71985963D01*
X146585060Y-69677029D01*
X146585060Y-68086410D01*
X146585060Y-67514910D01*
X146585060Y-65924291D01*
X146488387Y-65690902D01*
X146309759Y-65512273D01*
X146076370Y-65415600D01*
X145823751Y-65415600D01*
X144485750Y-65415600D01*
X144327000Y-65574350D01*
X144327000Y-67673660D01*
X146426310Y-67673660D01*
X146585060Y-67514910D01*
X146585060Y-68086410D01*
X146426310Y-67927660D01*
X144327000Y-67927660D01*
X144327000Y-70026970D01*
X144485750Y-70185720D01*
X145823751Y-70185720D01*
X146076370Y-70185720D01*
X146309759Y-70089047D01*
X146488387Y-69910418D01*
X146585060Y-69677029D01*
X146585060Y-71985963D01*
X146550523Y-71807957D01*
X146410733Y-71595153D01*
X146199700Y-71452703D01*
X145950060Y-71402640D01*
X144073000Y-71402640D01*
X144073000Y-70026970D01*
X144073000Y-67927660D01*
X144073000Y-67673660D01*
X144073000Y-65574350D01*
X143914250Y-65415600D01*
X142576249Y-65415600D01*
X142323630Y-65415600D01*
X142090241Y-65512273D01*
X141911613Y-65690902D01*
X141814940Y-65924291D01*
X141814940Y-67514910D01*
X141973690Y-67673660D01*
X144073000Y-67673660D01*
X144073000Y-67927660D01*
X141973690Y-67927660D01*
X141814940Y-68086410D01*
X141814940Y-68752332D01*
X141789387Y-68690642D01*
X141610759Y-68512013D01*
X141377370Y-68415340D01*
X141124751Y-68415340D01*
X139786750Y-68415340D01*
X139628000Y-68574090D01*
X139628000Y-70673400D01*
X141727310Y-70673400D01*
X141886060Y-70514650D01*
X141886060Y-69848727D01*
X141911613Y-69910418D01*
X142090241Y-70089047D01*
X142323630Y-70185720D01*
X142576249Y-70185720D01*
X143914250Y-70185720D01*
X144073000Y-70026970D01*
X144073000Y-71402640D01*
X142449940Y-71402640D01*
X142207817Y-71449617D01*
X141995013Y-71589407D01*
X141886060Y-71750815D01*
X141886060Y-71086150D01*
X141727310Y-70927400D01*
X139628000Y-70927400D01*
X139628000Y-73026710D01*
X139786750Y-73185460D01*
X141124751Y-73185460D01*
X141377370Y-73185460D01*
X141610759Y-73088787D01*
X141789387Y-72910158D01*
X141802500Y-72878500D01*
X141802500Y-75550200D01*
X141849477Y-75792323D01*
X141989267Y-76005127D01*
X142200300Y-76147577D01*
X142449940Y-76197640D01*
X145950060Y-76197640D01*
X146192183Y-76150663D01*
X146404987Y-76010873D01*
X146547437Y-75799840D01*
X146597500Y-75550200D01*
X146597500Y-83177697D01*
X143310320Y-86464877D01*
X143264833Y-86464838D01*
X142921057Y-86606883D01*
X142657808Y-86869673D01*
X142515162Y-87213201D01*
X142514838Y-87585167D01*
X142656883Y-87928943D01*
X142677796Y-87949893D01*
X142557808Y-88069673D01*
X142415162Y-88413201D01*
X142414838Y-88785167D01*
X142556883Y-89128943D01*
X142819673Y-89392192D01*
X143163201Y-89534838D01*
X143535167Y-89535162D01*
X143878943Y-89393117D01*
X144142192Y-89130327D01*
X144284838Y-88786799D01*
X144284878Y-88739923D01*
X149564802Y-83460000D01*
X153650000Y-83460000D01*
X153940839Y-83402148D01*
X154187401Y-83237401D01*
X157437401Y-79987401D01*
X157602148Y-79740839D01*
X157660000Y-79450000D01*
X157660000Y-78062462D01*
X157692192Y-78030327D01*
X157834838Y-77686799D01*
X157835162Y-77314833D01*
X157835162Y-81910035D01*
X155680259Y-84064938D01*
X155564833Y-84064838D01*
X155221057Y-84206883D01*
X154957808Y-84469673D01*
X154815162Y-84813201D01*
X154815060Y-84930137D01*
X151712599Y-88032599D01*
X151547852Y-88279161D01*
X151490000Y-88570000D01*
X151490000Y-89487537D01*
X151457808Y-89519673D01*
X151315162Y-89863201D01*
X151314838Y-90235167D01*
X151456883Y-90578943D01*
X151490000Y-90612117D01*
X151490000Y-97400000D01*
X151547852Y-97690839D01*
X151712599Y-97937401D01*
X156890000Y-103114802D01*
X156890000Y-103602423D01*
X156749778Y-103392567D01*
X156214155Y-103034675D01*
X155582345Y-102909000D01*
X155517655Y-102909000D01*
X154885845Y-103034675D01*
X154350222Y-103392567D01*
X153992330Y-103928190D01*
X153866655Y-104560000D01*
X153992330Y-105191810D01*
X154219169Y-105531298D01*
X154079073Y-105623327D01*
X153936623Y-105834360D01*
X153886560Y-106084000D01*
X153886560Y-108116000D01*
X153909611Y-108234809D01*
X151235162Y-105560360D01*
X151235162Y-90914833D01*
X151093117Y-90571057D01*
X150830327Y-90307808D01*
X150486799Y-90165162D01*
X150114833Y-90164838D01*
X149771057Y-90306883D01*
X149507808Y-90569673D01*
X149365162Y-90913201D01*
X149364934Y-91174648D01*
X149340000Y-91300000D01*
X149340000Y-96387537D01*
X149307808Y-96419673D01*
X149165162Y-96763201D01*
X149164838Y-97135167D01*
X149306883Y-97478943D01*
X149569673Y-97742192D01*
X149913201Y-97884838D01*
X150285167Y-97885162D01*
X150628943Y-97743117D01*
X150892192Y-97480327D01*
X151034838Y-97136799D01*
X151035162Y-96764833D01*
X150893117Y-96421057D01*
X150860000Y-96387882D01*
X150860000Y-91862114D01*
X151092192Y-91630327D01*
X151234838Y-91286799D01*
X151235162Y-90914833D01*
X151235162Y-105560360D01*
X143232012Y-97557210D01*
X143093117Y-97221057D01*
X142830327Y-96957808D01*
X142486799Y-96815162D01*
X142114833Y-96814838D01*
X141771057Y-96956883D01*
X141507808Y-97219673D01*
X141365162Y-97563201D01*
X141364838Y-97935167D01*
X141506883Y-98278943D01*
X141769673Y-98542192D01*
X142113201Y-98684838D01*
X142210120Y-98684922D01*
X153714877Y-110189679D01*
X153714838Y-110235167D01*
X153856883Y-110578943D01*
X154119673Y-110842192D01*
X154463201Y-110984838D01*
X154835167Y-110985162D01*
X155178943Y-110843117D01*
X155442192Y-110580327D01*
X155584838Y-110236799D01*
X155585162Y-109864833D01*
X155443117Y-109521057D01*
X155180327Y-109257808D01*
X154836799Y-109115162D01*
X154789923Y-109115121D01*
X154414221Y-108739419D01*
X154534000Y-108763440D01*
X156566000Y-108763440D01*
X156808123Y-108716463D01*
X156890000Y-108662678D01*
X156890000Y-116335198D01*
X156760320Y-116464877D01*
X156714833Y-116464838D01*
X156371057Y-116606883D01*
X156107808Y-116869673D01*
X155965162Y-117213201D01*
X155964838Y-117585167D01*
X156106883Y-117928943D01*
X156369673Y-118192192D01*
X156713201Y-118334838D01*
X157085167Y-118335162D01*
X157428943Y-118193117D01*
X157692192Y-117930327D01*
X157834838Y-117586799D01*
X157834878Y-117539923D01*
X158187401Y-117187401D01*
X158352148Y-116940840D01*
X158352148Y-116940839D01*
X158410000Y-116650000D01*
X158410000Y-107307909D01*
X158492330Y-107721810D01*
X158850222Y-108257433D01*
X159385845Y-108615325D01*
X160017655Y-108741000D01*
X160082345Y-108741000D01*
X160714155Y-108615325D01*
X161249778Y-108257433D01*
X161607670Y-107721810D01*
X161733345Y-107090000D01*
X161607670Y-106458190D01*
X161380830Y-106118701D01*
X161520927Y-106026673D01*
X161663377Y-105815640D01*
X161713440Y-105566000D01*
X161713440Y-103534000D01*
X161666463Y-103291877D01*
X161526673Y-103079073D01*
X161315640Y-102936623D01*
X161066000Y-102886560D01*
X159034000Y-102886560D01*
X158791877Y-102933537D01*
X158579073Y-103073327D01*
X158436623Y-103284360D01*
X158410000Y-103417116D01*
X158410000Y-102800000D01*
X158352148Y-102509161D01*
X158352148Y-102509160D01*
X158187401Y-102262599D01*
X153010000Y-97085198D01*
X153010000Y-90612462D01*
X153042192Y-90580327D01*
X153184838Y-90236799D01*
X153185162Y-89864833D01*
X153043117Y-89521057D01*
X153010000Y-89487882D01*
X153010000Y-88884802D01*
X155976872Y-85917929D01*
X156278943Y-85793117D01*
X156542192Y-85530327D01*
X156668388Y-85226413D01*
X160515863Y-81378938D01*
X160715255Y-81418600D01*
X161084745Y-81418600D01*
X161658234Y-81304526D01*
X162090000Y-81016028D01*
X162090000Y-134190000D01*
X162090000Y-134190000D01*
G37*
X162090000Y-134190000D02*
X153700000Y-134190000D01*
X153635413Y-134202847D01*
X153635413Y-127277675D01*
X153273084Y-126400771D01*
X152602758Y-125729274D01*
X151726487Y-125365415D01*
X150777675Y-125364587D01*
X149900771Y-125726916D01*
X149229274Y-126397242D01*
X148865415Y-127273513D01*
X148864587Y-128222325D01*
X149226916Y-129099229D01*
X149897242Y-129770726D01*
X150773513Y-130134585D01*
X151722325Y-130135413D01*
X152599229Y-129773084D01*
X153270726Y-129102758D01*
X153634585Y-128226487D01*
X153635413Y-127277675D01*
X153635413Y-134202847D01*
X153428295Y-134244046D01*
X153197954Y-134397954D01*
X153044046Y-134628295D01*
X152990000Y-134900000D01*
X152990000Y-142190000D01*
X139374000Y-142190000D01*
X139374000Y-73026710D01*
X139374000Y-70927400D01*
X139374000Y-70673400D01*
X139374000Y-68574090D01*
X139215250Y-68415340D01*
X137877249Y-68415340D01*
X137624630Y-68415340D01*
X137391241Y-68512013D01*
X137212613Y-68690642D01*
X137115940Y-68924031D01*
X137115940Y-70514650D01*
X137274690Y-70673400D01*
X139374000Y-70673400D01*
X139374000Y-70927400D01*
X137274690Y-70927400D01*
X137115940Y-71086150D01*
X137115940Y-72676769D01*
X137212613Y-72910158D01*
X137391241Y-73088787D01*
X137624630Y-73185460D01*
X137877249Y-73185460D01*
X139215250Y-73185460D01*
X139374000Y-73026710D01*
X139374000Y-142190000D01*
X136935162Y-142190000D01*
X136935162Y-77314833D01*
X136793117Y-76971057D01*
X136530327Y-76707808D01*
X136186799Y-76565162D01*
X135814833Y-76564838D01*
X135471057Y-76706883D01*
X135207808Y-76969673D01*
X135065162Y-77313201D01*
X135064838Y-77685167D01*
X135090000Y-77746063D01*
X135090000Y-78899453D01*
X135052148Y-78709161D01*
X135052148Y-78709160D01*
X134887401Y-78462599D01*
X133935122Y-77510320D01*
X133935162Y-77464833D01*
X133793117Y-77121057D01*
X133530327Y-76857808D01*
X133186799Y-76715162D01*
X132814833Y-76714838D01*
X132471057Y-76856883D01*
X132207808Y-77119673D01*
X132065162Y-77463201D01*
X132064838Y-77835167D01*
X132206883Y-78178943D01*
X132469673Y-78442192D01*
X132813201Y-78584838D01*
X132860076Y-78584878D01*
X133590000Y-79314802D01*
X133590000Y-92290000D01*
X132610000Y-92290000D01*
X132610000Y-90850000D01*
X132610000Y-79650000D01*
X132552148Y-79359161D01*
X132387401Y-79112599D01*
X131937401Y-78662599D01*
X131690839Y-78497852D01*
X131400000Y-78440000D01*
X131262375Y-78440000D01*
X131180327Y-78357808D01*
X130836799Y-78215162D01*
X130464833Y-78214838D01*
X130121057Y-78356883D01*
X129857808Y-78619673D01*
X129715162Y-78963201D01*
X129714838Y-79335167D01*
X129856883Y-79678943D01*
X130119673Y-79942192D01*
X130463201Y-80084838D01*
X130835167Y-80085162D01*
X131090000Y-79979867D01*
X131090000Y-90041062D01*
X130786799Y-89915162D01*
X130414833Y-89914838D01*
X130071057Y-90056883D01*
X129807808Y-90319673D01*
X129665162Y-90663201D01*
X129664838Y-91035167D01*
X129806883Y-91378943D01*
X130069673Y-91642192D01*
X130413201Y-91784838D01*
X130785167Y-91785162D01*
X131128943Y-91643117D01*
X131162117Y-91610000D01*
X131850000Y-91610000D01*
X132140839Y-91552148D01*
X132387401Y-91387401D01*
X132552148Y-91140839D01*
X132610000Y-90850000D01*
X132610000Y-92290000D01*
X128835162Y-92290000D01*
X128835162Y-78764833D01*
X128693117Y-78421057D01*
X128430327Y-78157808D01*
X128086799Y-78015162D01*
X127714833Y-78014838D01*
X127371057Y-78156883D01*
X127107808Y-78419673D01*
X126965162Y-78763201D01*
X126965121Y-78810076D01*
X125112599Y-80662599D01*
X124947852Y-80909161D01*
X124890000Y-81200000D01*
X124890000Y-90985198D01*
X124860320Y-91014877D01*
X124814833Y-91014838D01*
X124471057Y-91156883D01*
X124207808Y-91419673D01*
X124065162Y-91763201D01*
X124064838Y-92135167D01*
X124206883Y-92478943D01*
X124469673Y-92742192D01*
X124813201Y-92884838D01*
X125185167Y-92885162D01*
X125528943Y-92743117D01*
X125792192Y-92480327D01*
X125934838Y-92136799D01*
X125934878Y-92089923D01*
X126187401Y-91837401D01*
X126352148Y-91590839D01*
X126410000Y-91300000D01*
X126410000Y-81514802D01*
X128039679Y-79885122D01*
X128085167Y-79885162D01*
X128428943Y-79743117D01*
X128692192Y-79480327D01*
X128834838Y-79136799D01*
X128835162Y-78764833D01*
X128835162Y-92290000D01*
X128762462Y-92290000D01*
X128730327Y-92257808D01*
X128386799Y-92115162D01*
X128014833Y-92114838D01*
X127671057Y-92256883D01*
X127407808Y-92519673D01*
X127265162Y-92863201D01*
X127264838Y-93235167D01*
X127406883Y-93578943D01*
X127669673Y-93842192D01*
X128013201Y-93984838D01*
X128385167Y-93985162D01*
X128728943Y-93843117D01*
X128762117Y-93810000D01*
X134200000Y-93810000D01*
X134490839Y-93752148D01*
X134737401Y-93587401D01*
X134887401Y-93437401D01*
X135052148Y-93190839D01*
X135090000Y-93000545D01*
X135090000Y-96990000D01*
X131612462Y-96990000D01*
X131580327Y-96957808D01*
X131236799Y-96815162D01*
X130864833Y-96814838D01*
X130521057Y-96956883D01*
X130257808Y-97219673D01*
X130115162Y-97563201D01*
X130114838Y-97935167D01*
X130256883Y-98278943D01*
X130519673Y-98542192D01*
X130863201Y-98684838D01*
X131235167Y-98685162D01*
X131578943Y-98543117D01*
X131612117Y-98510000D01*
X135500000Y-98510000D01*
X135790839Y-98452148D01*
X136037401Y-98287401D01*
X136387401Y-97937401D01*
X136552148Y-97690839D01*
X136610000Y-97400000D01*
X136610000Y-78212201D01*
X136792192Y-78030327D01*
X136934838Y-77686799D01*
X136935162Y-77314833D01*
X136935162Y-142190000D01*
X123135413Y-142190000D01*
X123135413Y-127277675D01*
X123135413Y-76977675D01*
X122773084Y-76100771D01*
X122102758Y-75429274D01*
X121226487Y-75065415D01*
X120277675Y-75064587D01*
X119400771Y-75426916D01*
X118729274Y-76097242D01*
X118365415Y-76973513D01*
X118364587Y-77922325D01*
X118726916Y-78799229D01*
X119397242Y-79470726D01*
X120273513Y-79834585D01*
X121222325Y-79835413D01*
X122099229Y-79473084D01*
X122770726Y-78802758D01*
X123134585Y-77926487D01*
X123135413Y-76977675D01*
X123135413Y-127277675D01*
X122773084Y-126400771D01*
X122102758Y-125729274D01*
X121226487Y-125365415D01*
X120277675Y-125364587D01*
X119400771Y-125726916D01*
X118729274Y-126397242D01*
X118365415Y-127273513D01*
X118364587Y-128222325D01*
X118726916Y-129099229D01*
X119397242Y-129770726D01*
X120273513Y-130134585D01*
X121222325Y-130135413D01*
X122099229Y-129773084D01*
X122770726Y-129102758D01*
X123134585Y-128226487D01*
X123135413Y-127277675D01*
X123135413Y-142190000D01*
X119010000Y-142190000D01*
X119010000Y-134900000D01*
X118955954Y-134628295D01*
X118802046Y-134397954D01*
X118571705Y-134244046D01*
X118300000Y-134190000D01*
X111010000Y-134190000D01*
X111010000Y-129000000D01*
X110955954Y-128728295D01*
X110802046Y-128497954D01*
X110571705Y-128344046D01*
X110300000Y-128290000D01*
X105667454Y-128290000D01*
X105667454Y-120750000D01*
X105667454Y-115750000D01*
X105667454Y-105750000D01*
X105667454Y-100750000D01*
X105667454Y-90150000D01*
X105667454Y-85150000D01*
X105543713Y-84527910D01*
X105191327Y-84000527D01*
X104663944Y-83648141D01*
X104041854Y-83524400D01*
X101958146Y-83524400D01*
X101336056Y-83648141D01*
X100808673Y-84000527D01*
X100456287Y-84527910D01*
X100332546Y-85150000D01*
X100456287Y-85772090D01*
X100808673Y-86299473D01*
X101336056Y-86651859D01*
X101958146Y-86775600D01*
X104041854Y-86775600D01*
X104663944Y-86651859D01*
X105191327Y-86299473D01*
X105543713Y-85772090D01*
X105667454Y-85150000D01*
X105667454Y-90150000D01*
X105543713Y-89527910D01*
X105191327Y-89000527D01*
X104663944Y-88648141D01*
X104041854Y-88524400D01*
X101958146Y-88524400D01*
X101336056Y-88648141D01*
X100808673Y-89000527D01*
X100456287Y-89527910D01*
X100332546Y-90150000D01*
X100456287Y-90772090D01*
X100808673Y-91299473D01*
X101336056Y-91651859D01*
X101958146Y-91775600D01*
X104041854Y-91775600D01*
X104663944Y-91651859D01*
X105191327Y-91299473D01*
X105543713Y-90772090D01*
X105667454Y-90150000D01*
X105667454Y-100750000D01*
X105543713Y-100127910D01*
X105191327Y-99600527D01*
X104663944Y-99248141D01*
X104041854Y-99124400D01*
X101958146Y-99124400D01*
X101336056Y-99248141D01*
X100808673Y-99600527D01*
X100456287Y-100127910D01*
X100332546Y-100750000D01*
X100456287Y-101372090D01*
X100808673Y-101899473D01*
X101336056Y-102251859D01*
X101958146Y-102375600D01*
X104041854Y-102375600D01*
X104663944Y-102251859D01*
X105191327Y-101899473D01*
X105543713Y-101372090D01*
X105667454Y-100750000D01*
X105667454Y-105750000D01*
X105543713Y-105127910D01*
X105191327Y-104600527D01*
X104663944Y-104248141D01*
X104041854Y-104124400D01*
X101958146Y-104124400D01*
X101336056Y-104248141D01*
X100808673Y-104600527D01*
X100456287Y-105127910D01*
X100332546Y-105750000D01*
X100456287Y-106372090D01*
X100808673Y-106899473D01*
X101336056Y-107251859D01*
X101958146Y-107375600D01*
X104041854Y-107375600D01*
X104663944Y-107251859D01*
X105191327Y-106899473D01*
X105543713Y-106372090D01*
X105667454Y-105750000D01*
X105667454Y-115750000D01*
X105543713Y-115127910D01*
X105191327Y-114600527D01*
X104663944Y-114248141D01*
X104041854Y-114124400D01*
X101958146Y-114124400D01*
X101336056Y-114248141D01*
X100808673Y-114600527D01*
X100456287Y-115127910D01*
X100332546Y-115750000D01*
X100456287Y-116372090D01*
X100808673Y-116899473D01*
X101336056Y-117251859D01*
X101958146Y-117375600D01*
X104041854Y-117375600D01*
X104663944Y-117251859D01*
X105191327Y-116899473D01*
X105543713Y-116372090D01*
X105667454Y-115750000D01*
X105667454Y-120750000D01*
X105543713Y-120127910D01*
X105191327Y-119600527D01*
X104663944Y-119248141D01*
X104041854Y-119124400D01*
X101958146Y-119124400D01*
X101336056Y-119248141D01*
X100808673Y-119600527D01*
X100456287Y-120127910D01*
X100332546Y-120750000D01*
X100456287Y-121372090D01*
X100808673Y-121899473D01*
X101336056Y-122251859D01*
X101958146Y-122375600D01*
X104041854Y-122375600D01*
X104663944Y-122251859D01*
X105191327Y-121899473D01*
X105543713Y-121372090D01*
X105667454Y-120750000D01*
X105667454Y-128290000D01*
X96160000Y-128290000D01*
X96160000Y-76860000D01*
X110300000Y-76860000D01*
X110571705Y-76805954D01*
X110802046Y-76652046D01*
X110955954Y-76421705D01*
X111010000Y-76150000D01*
X111010000Y-71010000D01*
X118300000Y-71010000D01*
X118571705Y-70955954D01*
X118802046Y-70802046D01*
X118955954Y-70571705D01*
X119010000Y-70300000D01*
X119010000Y-63010000D01*
X152990000Y-63010000D01*
X152990000Y-70300000D01*
X153044046Y-70571705D01*
X153197954Y-70802046D01*
X153428295Y-70955954D01*
X153700000Y-71010000D01*
X159412374Y-71010000D01*
X159345673Y-71076701D01*
X159249000Y-71310090D01*
X159249000Y-71562709D01*
X159249000Y-72014250D01*
X159407750Y-72173000D01*
X160773000Y-72173000D01*
X160773000Y-72153000D01*
X161027000Y-72153000D01*
X161027000Y-72173000D01*
X161047000Y-72173000D01*
X161047000Y-72427000D01*
X161027000Y-72427000D01*
X161027000Y-72447000D01*
X160773000Y-72447000D01*
X160773000Y-72427000D01*
X159407750Y-72427000D01*
X159249000Y-72585750D01*
X159249000Y-73037291D01*
X159249000Y-73289910D01*
X159345673Y-73523299D01*
X159524302Y-73701927D01*
X159677780Y-73765499D01*
X159655585Y-73780330D01*
X159330729Y-74266511D01*
X159216655Y-74840000D01*
X159330729Y-75413489D01*
X159655585Y-75899670D01*
X159970365Y-76110000D01*
X159655585Y-76320330D01*
X159330729Y-76806511D01*
X159216655Y-77380000D01*
X159330729Y-77953489D01*
X159655585Y-78439670D01*
X159970365Y-78650000D01*
X159655585Y-78860330D01*
X159330729Y-79346511D01*
X159216655Y-79920000D01*
X159317618Y-80427579D01*
X157835162Y-81910035D01*
X157835162Y-77314833D01*
X157693117Y-76971057D01*
X157430327Y-76707808D01*
X157086799Y-76565162D01*
X156860000Y-76564964D01*
X156860000Y-75462462D01*
X156892192Y-75430327D01*
X157034838Y-75086799D01*
X157035162Y-74714833D01*
X156893117Y-74371057D01*
X156630327Y-74107808D01*
X156286799Y-73965162D01*
X155914833Y-73964838D01*
X155571057Y-74106883D01*
X155307808Y-74369673D01*
X155165162Y-74713201D01*
X155164838Y-75085167D01*
X155306883Y-75428943D01*
X155340000Y-75462117D01*
X155340000Y-78735198D01*
X153635413Y-80439785D01*
X153635413Y-76977675D01*
X153273084Y-76100771D01*
X152602758Y-75429274D01*
X151726487Y-75065415D01*
X150777675Y-75064587D01*
X149900771Y-75426916D01*
X149229274Y-76097242D01*
X148865415Y-76973513D01*
X148864587Y-77922325D01*
X149226916Y-78799229D01*
X149897242Y-79470726D01*
X150773513Y-79834585D01*
X151722325Y-79835413D01*
X152599229Y-79473084D01*
X153270726Y-78802758D01*
X153634585Y-77926487D01*
X153635413Y-76977675D01*
X153635413Y-80439785D01*
X152835198Y-81240000D01*
X148850000Y-81240000D01*
X148559160Y-81297852D01*
X148312599Y-81462599D01*
X146597500Y-83177697D01*
X146597500Y-75550200D01*
X146597500Y-72050080D01*
X146585060Y-71985963D01*
X146585060Y-69677029D01*
X146585060Y-68086410D01*
X146585060Y-67514910D01*
X146585060Y-65924291D01*
X146488387Y-65690902D01*
X146309759Y-65512273D01*
X146076370Y-65415600D01*
X145823751Y-65415600D01*
X144485750Y-65415600D01*
X144327000Y-65574350D01*
X144327000Y-67673660D01*
X146426310Y-67673660D01*
X146585060Y-67514910D01*
X146585060Y-68086410D01*
X146426310Y-67927660D01*
X144327000Y-67927660D01*
X144327000Y-70026970D01*
X144485750Y-70185720D01*
X145823751Y-70185720D01*
X146076370Y-70185720D01*
X146309759Y-70089047D01*
X146488387Y-69910418D01*
X146585060Y-69677029D01*
X146585060Y-71985963D01*
X146550523Y-71807957D01*
X146410733Y-71595153D01*
X146199700Y-71452703D01*
X145950060Y-71402640D01*
X144073000Y-71402640D01*
X144073000Y-70026970D01*
X144073000Y-67927660D01*
X144073000Y-67673660D01*
X144073000Y-65574350D01*
X143914250Y-65415600D01*
X142576249Y-65415600D01*
X142323630Y-65415600D01*
X142090241Y-65512273D01*
X141911613Y-65690902D01*
X141814940Y-65924291D01*
X141814940Y-67514910D01*
X141973690Y-67673660D01*
X144073000Y-67673660D01*
X144073000Y-67927660D01*
X141973690Y-67927660D01*
X141814940Y-68086410D01*
X141814940Y-68752332D01*
X141789387Y-68690642D01*
X141610759Y-68512013D01*
X141377370Y-68415340D01*
X141124751Y-68415340D01*
X139786750Y-68415340D01*
X139628000Y-68574090D01*
X139628000Y-70673400D01*
X141727310Y-70673400D01*
X141886060Y-70514650D01*
X141886060Y-69848727D01*
X141911613Y-69910418D01*
X142090241Y-70089047D01*
X142323630Y-70185720D01*
X142576249Y-70185720D01*
X143914250Y-70185720D01*
X144073000Y-70026970D01*
X144073000Y-71402640D01*
X142449940Y-71402640D01*
X142207817Y-71449617D01*
X141995013Y-71589407D01*
X141886060Y-71750815D01*
X141886060Y-71086150D01*
X141727310Y-70927400D01*
X139628000Y-70927400D01*
X139628000Y-73026710D01*
X139786750Y-73185460D01*
X141124751Y-73185460D01*
X141377370Y-73185460D01*
X141610759Y-73088787D01*
X141789387Y-72910158D01*
X141802500Y-72878500D01*
X141802500Y-75550200D01*
X141849477Y-75792323D01*
X141989267Y-76005127D01*
X142200300Y-76147577D01*
X142449940Y-76197640D01*
X145950060Y-76197640D01*
X146192183Y-76150663D01*
X146404987Y-76010873D01*
X146547437Y-75799840D01*
X146597500Y-75550200D01*
X146597500Y-83177697D01*
X143310320Y-86464877D01*
X143264833Y-86464838D01*
X142921057Y-86606883D01*
X142657808Y-86869673D01*
X142515162Y-87213201D01*
X142514838Y-87585167D01*
X142656883Y-87928943D01*
X142677796Y-87949893D01*
X142557808Y-88069673D01*
X142415162Y-88413201D01*
X142414838Y-88785167D01*
X142556883Y-89128943D01*
X142819673Y-89392192D01*
X143163201Y-89534838D01*
X143535167Y-89535162D01*
X143878943Y-89393117D01*
X144142192Y-89130327D01*
X144284838Y-88786799D01*
X144284878Y-88739923D01*
X149564802Y-83460000D01*
X153650000Y-83460000D01*
X153940839Y-83402148D01*
X154187401Y-83237401D01*
X157437401Y-79987401D01*
X157602148Y-79740839D01*
X157660000Y-79450000D01*
X157660000Y-78062462D01*
X157692192Y-78030327D01*
X157834838Y-77686799D01*
X157835162Y-77314833D01*
X157835162Y-81910035D01*
X155680259Y-84064938D01*
X155564833Y-84064838D01*
X155221057Y-84206883D01*
X154957808Y-84469673D01*
X154815162Y-84813201D01*
X154815060Y-84930137D01*
X151712599Y-88032599D01*
X151547852Y-88279161D01*
X151490000Y-88570000D01*
X151490000Y-89487537D01*
X151457808Y-89519673D01*
X151315162Y-89863201D01*
X151314838Y-90235167D01*
X151456883Y-90578943D01*
X151490000Y-90612117D01*
X151490000Y-97400000D01*
X151547852Y-97690839D01*
X151712599Y-97937401D01*
X156890000Y-103114802D01*
X156890000Y-103602423D01*
X156749778Y-103392567D01*
X156214155Y-103034675D01*
X155582345Y-102909000D01*
X155517655Y-102909000D01*
X154885845Y-103034675D01*
X154350222Y-103392567D01*
X153992330Y-103928190D01*
X153866655Y-104560000D01*
X153992330Y-105191810D01*
X154219169Y-105531298D01*
X154079073Y-105623327D01*
X153936623Y-105834360D01*
X153886560Y-106084000D01*
X153886560Y-108116000D01*
X153909611Y-108234809D01*
X151235162Y-105560360D01*
X151235162Y-90914833D01*
X151093117Y-90571057D01*
X150830327Y-90307808D01*
X150486799Y-90165162D01*
X150114833Y-90164838D01*
X149771057Y-90306883D01*
X149507808Y-90569673D01*
X149365162Y-90913201D01*
X149364934Y-91174648D01*
X149340000Y-91300000D01*
X149340000Y-96387537D01*
X149307808Y-96419673D01*
X149165162Y-96763201D01*
X149164838Y-97135167D01*
X149306883Y-97478943D01*
X149569673Y-97742192D01*
X149913201Y-97884838D01*
X150285167Y-97885162D01*
X150628943Y-97743117D01*
X150892192Y-97480327D01*
X151034838Y-97136799D01*
X151035162Y-96764833D01*
X150893117Y-96421057D01*
X150860000Y-96387882D01*
X150860000Y-91862114D01*
X151092192Y-91630327D01*
X151234838Y-91286799D01*
X151235162Y-90914833D01*
X151235162Y-105560360D01*
X143232012Y-97557210D01*
X143093117Y-97221057D01*
X142830327Y-96957808D01*
X142486799Y-96815162D01*
X142114833Y-96814838D01*
X141771057Y-96956883D01*
X141507808Y-97219673D01*
X141365162Y-97563201D01*
X141364838Y-97935167D01*
X141506883Y-98278943D01*
X141769673Y-98542192D01*
X142113201Y-98684838D01*
X142210120Y-98684922D01*
X153714877Y-110189679D01*
X153714838Y-110235167D01*
X153856883Y-110578943D01*
X154119673Y-110842192D01*
X154463201Y-110984838D01*
X154835167Y-110985162D01*
X155178943Y-110843117D01*
X155442192Y-110580327D01*
X155584838Y-110236799D01*
X155585162Y-109864833D01*
X155443117Y-109521057D01*
X155180327Y-109257808D01*
X154836799Y-109115162D01*
X154789923Y-109115121D01*
X154414221Y-108739419D01*
X154534000Y-108763440D01*
X156566000Y-108763440D01*
X156808123Y-108716463D01*
X156890000Y-108662678D01*
X156890000Y-116335198D01*
X156760320Y-116464877D01*
X156714833Y-116464838D01*
X156371057Y-116606883D01*
X156107808Y-116869673D01*
X155965162Y-117213201D01*
X155964838Y-117585167D01*
X156106883Y-117928943D01*
X156369673Y-118192192D01*
X156713201Y-118334838D01*
X157085167Y-118335162D01*
X157428943Y-118193117D01*
X157692192Y-117930327D01*
X157834838Y-117586799D01*
X157834878Y-117539923D01*
X158187401Y-117187401D01*
X158352148Y-116940840D01*
X158352148Y-116940839D01*
X158410000Y-116650000D01*
X158410000Y-107307909D01*
X158492330Y-107721810D01*
X158850222Y-108257433D01*
X159385845Y-108615325D01*
X160017655Y-108741000D01*
X160082345Y-108741000D01*
X160714155Y-108615325D01*
X161249778Y-108257433D01*
X161607670Y-107721810D01*
X161733345Y-107090000D01*
X161607670Y-106458190D01*
X161380830Y-106118701D01*
X161520927Y-106026673D01*
X161663377Y-105815640D01*
X161713440Y-105566000D01*
X161713440Y-103534000D01*
X161666463Y-103291877D01*
X161526673Y-103079073D01*
X161315640Y-102936623D01*
X161066000Y-102886560D01*
X159034000Y-102886560D01*
X158791877Y-102933537D01*
X158579073Y-103073327D01*
X158436623Y-103284360D01*
X158410000Y-103417116D01*
X158410000Y-102800000D01*
X158352148Y-102509161D01*
X158352148Y-102509160D01*
X158187401Y-102262599D01*
X153010000Y-97085198D01*
X153010000Y-90612462D01*
X153042192Y-90580327D01*
X153184838Y-90236799D01*
X153185162Y-89864833D01*
X153043117Y-89521057D01*
X153010000Y-89487882D01*
X153010000Y-88884802D01*
X155976872Y-85917929D01*
X156278943Y-85793117D01*
X156542192Y-85530327D01*
X156668388Y-85226413D01*
X160515863Y-81378938D01*
X160715255Y-81418600D01*
X161084745Y-81418600D01*
X161658234Y-81304526D01*
X162090000Y-81016028D01*
X162090000Y-134190000D01*
M02*
