M48
INCH,TZ
T1C0.016
T2C0.039
T3C0.040
T4C0.052
T5C0.138
%
G90
G05
T1
X42441Y-37441
X42579Y-42343
X42657Y-32677
X45020Y-46969
X45020Y-48327
X47106Y-45846
X47894Y-47677
X48760Y-32657
X48780Y-52323
X49173Y-37362
X49213Y-36201
X49764Y-30453
X50079Y-49961
X50354Y-31083
X50472Y-36634
X51417Y-35768
X51437Y-31161
X51457Y-34173
X51594Y-38484
X52362Y-30571
X52421Y-38130
X52874Y-53150
X53543Y-30512
X53996Y-38169
X54193Y-30846
X55610Y-38150
X56024Y-38484
X56437Y-34882
X56476Y-34409
X56476Y-35433
X56752Y-49941
X57008Y-31437
X57539Y-49941
X57579Y-36654
X58307Y-52087
X58622Y-36831
X59094Y-38169
X59173Y-35866
X59941Y-27421
X59941Y-35453
X60079Y-47598
X60433Y-45453
X60433Y-45827
X60453Y-40315
X60453Y-40728
X60472Y-39528
X60886Y-43327
X61319Y-33465
X61457Y-29488
X61772Y-30512
X61772Y-46220
X62146Y-39055
X62205Y-37500
X62244Y-36004
X62618Y-44272
X62657Y-32697
X63110Y-47362
X63110Y-48858
T3
X61240Y-41165
X61240Y-42165
X63012Y-41161
X63012Y-42161
X63346Y-28465
X63346Y-29465
X63346Y-30465
X63346Y-31465
T4
X40551Y-33524
X40551Y-35492
X40551Y-39665
X40551Y-41634
X40551Y-45571
X40551Y-47539
T5
X47539Y-30492
X47539Y-50295
X59547Y-30492
X59547Y-50295
T2
X54922Y-27481G85X54922Y-28268
G05
X57165Y-26693G85X56378Y-26693
G05
X57165Y-29055G85X56378Y-29055
G05
T0
M30
