G04 #@! TF.FileFunction,Legend,Top*
%FSLAX46Y46*%
G04 Gerber Fmt 4.6, Leading zero omitted, Abs format (unit mm)*
G04 Created by KiCad (PCBNEW (2015-05-05 BZR 5645)-product) date Thursday, September 03, 2015 'pmt' 04:49:33 pm*
%MOMM*%
G01*
G04 APERTURE LIST*
%ADD10C,0.100000*%
%ADD11C,0.300000*%
%ADD12C,0.200000*%
%ADD13C,0.150000*%
G04 APERTURE END LIST*
D10*
D11*
X156814286Y-78235714D02*
X156742857Y-78307143D01*
X156528571Y-78378571D01*
X156385714Y-78378571D01*
X156171429Y-78307143D01*
X156028571Y-78164286D01*
X155957143Y-78021429D01*
X155885714Y-77735714D01*
X155885714Y-77521429D01*
X155957143Y-77235714D01*
X156028571Y-77092857D01*
X156171429Y-76950000D01*
X156385714Y-76878571D01*
X156528571Y-76878571D01*
X156742857Y-76950000D01*
X156814286Y-77021429D01*
X157457143Y-78378571D02*
X157457143Y-76878571D01*
X158314286Y-78378571D02*
X157671429Y-77521429D01*
X158314286Y-76878571D02*
X157457143Y-77735714D01*
X155364286Y-75578571D02*
X155364286Y-74078571D01*
X155721429Y-74078571D01*
X155935714Y-74150000D01*
X156078572Y-74292857D01*
X156150000Y-74435714D01*
X156221429Y-74721429D01*
X156221429Y-74935714D01*
X156150000Y-75221429D01*
X156078572Y-75364286D01*
X155935714Y-75507143D01*
X155721429Y-75578571D01*
X155364286Y-75578571D01*
X156864286Y-75578571D02*
X156864286Y-74078571D01*
X157864286Y-74078571D02*
X158150000Y-74078571D01*
X158292858Y-74150000D01*
X158435715Y-74292857D01*
X158507143Y-74578571D01*
X158507143Y-75078571D01*
X158435715Y-75364286D01*
X158292858Y-75507143D01*
X158150000Y-75578571D01*
X157864286Y-75578571D01*
X157721429Y-75507143D01*
X157578572Y-75364286D01*
X157507143Y-75078571D01*
X157507143Y-74578571D01*
X157578572Y-74292857D01*
X157721429Y-74150000D01*
X157864286Y-74078571D01*
X138007143Y-68542856D02*
X138007143Y-67399999D01*
X138578571Y-67971428D02*
X137435714Y-67971428D01*
X138578571Y-65899999D02*
X138578571Y-66757142D01*
X138578571Y-66328570D02*
X137078571Y-66328570D01*
X137292857Y-66471427D01*
X137435714Y-66614285D01*
X137507143Y-66757142D01*
X137221429Y-65328571D02*
X137150000Y-65257142D01*
X137078571Y-65114285D01*
X137078571Y-64757142D01*
X137150000Y-64614285D01*
X137221429Y-64542856D01*
X137364286Y-64471428D01*
X137507143Y-64471428D01*
X137721429Y-64542856D01*
X138578571Y-65399999D01*
X138578571Y-64471428D01*
X137078571Y-64042857D02*
X138578571Y-63542857D01*
X137078571Y-63042857D01*
D12*
X97314286Y-78392857D02*
X97261905Y-78445238D01*
X97104762Y-78497619D01*
X97000000Y-78497619D01*
X96842858Y-78445238D01*
X96738096Y-78340476D01*
X96685715Y-78235714D01*
X96633334Y-78026190D01*
X96633334Y-77869048D01*
X96685715Y-77659524D01*
X96738096Y-77554762D01*
X96842858Y-77450000D01*
X97000000Y-77397619D01*
X97104762Y-77397619D01*
X97261905Y-77450000D01*
X97314286Y-77502381D01*
X97942858Y-78497619D02*
X97838096Y-78445238D01*
X97785715Y-78392857D01*
X97733334Y-78288095D01*
X97733334Y-77973810D01*
X97785715Y-77869048D01*
X97838096Y-77816667D01*
X97942858Y-77764286D01*
X98100000Y-77764286D01*
X98204762Y-77816667D01*
X98257143Y-77869048D01*
X98309524Y-77973810D01*
X98309524Y-78288095D01*
X98257143Y-78392857D01*
X98204762Y-78445238D01*
X98100000Y-78497619D01*
X97942858Y-78497619D01*
X98623810Y-77764286D02*
X99042858Y-77764286D01*
X98780953Y-77397619D02*
X98780953Y-78340476D01*
X98833334Y-78445238D01*
X98938096Y-78497619D01*
X99042858Y-78497619D01*
X99252381Y-77764286D02*
X99671429Y-77764286D01*
X99409524Y-77397619D02*
X99409524Y-78340476D01*
X99461905Y-78445238D01*
X99566667Y-78497619D01*
X99671429Y-78497619D01*
X100509523Y-78497619D02*
X100509523Y-77921429D01*
X100457142Y-77816667D01*
X100352380Y-77764286D01*
X100142857Y-77764286D01*
X100038095Y-77816667D01*
X100509523Y-78445238D02*
X100404761Y-78497619D01*
X100142857Y-78497619D01*
X100038095Y-78445238D01*
X99985714Y-78340476D01*
X99985714Y-78235714D01*
X100038095Y-78130952D01*
X100142857Y-78078571D01*
X100404761Y-78078571D01*
X100509523Y-78026190D01*
X101033333Y-78497619D02*
X101033333Y-77764286D01*
X101033333Y-77869048D02*
X101085714Y-77816667D01*
X101190476Y-77764286D01*
X101347618Y-77764286D01*
X101452380Y-77816667D01*
X101504761Y-77921429D01*
X101504761Y-78497619D01*
X101504761Y-77921429D02*
X101557142Y-77816667D01*
X101661904Y-77764286D01*
X101819047Y-77764286D01*
X101923809Y-77816667D01*
X101976190Y-77921429D01*
X101976190Y-78497619D01*
X102971428Y-78497619D02*
X102971428Y-77921429D01*
X102919047Y-77816667D01*
X102814285Y-77764286D01*
X102604762Y-77764286D01*
X102500000Y-77816667D01*
X102971428Y-78445238D02*
X102866666Y-78497619D01*
X102604762Y-78497619D01*
X102500000Y-78445238D01*
X102447619Y-78340476D01*
X102447619Y-78235714D01*
X102500000Y-78130952D01*
X102604762Y-78078571D01*
X102866666Y-78078571D01*
X102971428Y-78026190D01*
X103338095Y-77764286D02*
X103757143Y-77764286D01*
X103495238Y-77397619D02*
X103495238Y-78340476D01*
X103547619Y-78445238D01*
X103652381Y-78497619D01*
X103757143Y-78497619D01*
X104123809Y-78497619D02*
X104123809Y-77764286D01*
X104123809Y-77397619D02*
X104071428Y-77450000D01*
X104123809Y-77502381D01*
X104176190Y-77450000D01*
X104123809Y-77397619D01*
X104123809Y-77502381D01*
X104804762Y-78497619D02*
X104700000Y-78445238D01*
X104647619Y-78392857D01*
X104595238Y-78288095D01*
X104595238Y-77973810D01*
X104647619Y-77869048D01*
X104700000Y-77816667D01*
X104804762Y-77764286D01*
X104961904Y-77764286D01*
X105066666Y-77816667D01*
X105119047Y-77869048D01*
X105171428Y-77973810D01*
X105171428Y-78288095D01*
X105119047Y-78392857D01*
X105066666Y-78445238D01*
X104961904Y-78497619D01*
X104804762Y-78497619D01*
X105642857Y-77764286D02*
X105642857Y-78497619D01*
X105642857Y-77869048D02*
X105695238Y-77816667D01*
X105800000Y-77764286D01*
X105957142Y-77764286D01*
X106061904Y-77816667D01*
X106114285Y-77921429D01*
X106114285Y-78497619D01*
D10*
X97100001Y-80416667D02*
X96866667Y-80083333D01*
X96700001Y-80416667D02*
X96700001Y-79716667D01*
X96966667Y-79716667D01*
X97033334Y-79750000D01*
X97066667Y-79783333D01*
X97100001Y-79850000D01*
X97100001Y-79950000D01*
X97066667Y-80016667D01*
X97033334Y-80050000D01*
X96966667Y-80083333D01*
X96700001Y-80083333D01*
X97666667Y-80383333D02*
X97600001Y-80416667D01*
X97466667Y-80416667D01*
X97400001Y-80383333D01*
X97366667Y-80316667D01*
X97366667Y-80050000D01*
X97400001Y-79983333D01*
X97466667Y-79950000D01*
X97600001Y-79950000D01*
X97666667Y-79983333D01*
X97700001Y-80050000D01*
X97700001Y-80116667D01*
X97366667Y-80183333D01*
X97933334Y-79950000D02*
X98100001Y-80416667D01*
X98266667Y-79950000D01*
X99033333Y-79783333D02*
X99066667Y-79750000D01*
X99133333Y-79716667D01*
X99300000Y-79716667D01*
X99366667Y-79750000D01*
X99400000Y-79783333D01*
X99433333Y-79850000D01*
X99433333Y-79916667D01*
X99400000Y-80016667D01*
X99000000Y-80416667D01*
X99433333Y-80416667D01*
D11*
X126292858Y-128292857D02*
X126507144Y-128364286D01*
X126578572Y-128435714D01*
X126650001Y-128578571D01*
X126650001Y-128792857D01*
X126578572Y-128935714D01*
X126507144Y-129007143D01*
X126364286Y-129078571D01*
X125792858Y-129078571D01*
X125792858Y-127578571D01*
X126292858Y-127578571D01*
X126435715Y-127650000D01*
X126507144Y-127721429D01*
X126578572Y-127864286D01*
X126578572Y-128007143D01*
X126507144Y-128150000D01*
X126435715Y-128221429D01*
X126292858Y-128292857D01*
X125792858Y-128292857D01*
X127150001Y-128078571D02*
X127507144Y-129078571D01*
X127864286Y-128078571D02*
X127507144Y-129078571D01*
X127364286Y-129435714D01*
X127292858Y-129507143D01*
X127150001Y-129578571D01*
X128435715Y-128935714D02*
X128507143Y-129007143D01*
X128435715Y-129078571D01*
X128364286Y-129007143D01*
X128435715Y-128935714D01*
X128435715Y-129078571D01*
X128435715Y-128150000D02*
X128507143Y-128221429D01*
X128435715Y-128292857D01*
X128364286Y-128221429D01*
X128435715Y-128150000D01*
X128435715Y-128292857D01*
X130221429Y-129007143D02*
X130435715Y-129078571D01*
X130792858Y-129078571D01*
X130935715Y-129007143D01*
X131007144Y-128935714D01*
X131078572Y-128792857D01*
X131078572Y-128650000D01*
X131007144Y-128507143D01*
X130935715Y-128435714D01*
X130792858Y-128364286D01*
X130507144Y-128292857D01*
X130364286Y-128221429D01*
X130292858Y-128150000D01*
X130221429Y-128007143D01*
X130221429Y-127864286D01*
X130292858Y-127721429D01*
X130364286Y-127650000D01*
X130507144Y-127578571D01*
X130864286Y-127578571D01*
X131078572Y-127650000D01*
X131721429Y-128078571D02*
X131721429Y-129578571D01*
X131721429Y-128150000D02*
X131864286Y-128078571D01*
X132150000Y-128078571D01*
X132292857Y-128150000D01*
X132364286Y-128221429D01*
X132435715Y-128364286D01*
X132435715Y-128792857D01*
X132364286Y-128935714D01*
X132292857Y-129007143D01*
X132150000Y-129078571D01*
X131864286Y-129078571D01*
X131721429Y-129007143D01*
X133650000Y-129007143D02*
X133507143Y-129078571D01*
X133221429Y-129078571D01*
X133078572Y-129007143D01*
X133007143Y-128864286D01*
X133007143Y-128292857D01*
X133078572Y-128150000D01*
X133221429Y-128078571D01*
X133507143Y-128078571D01*
X133650000Y-128150000D01*
X133721429Y-128292857D01*
X133721429Y-128435714D01*
X133007143Y-128578571D01*
X134364286Y-128078571D02*
X134364286Y-129078571D01*
X134364286Y-128221429D02*
X134435714Y-128150000D01*
X134578572Y-128078571D01*
X134792857Y-128078571D01*
X134935714Y-128150000D01*
X135007143Y-128292857D01*
X135007143Y-129078571D01*
X136364286Y-129007143D02*
X136221429Y-129078571D01*
X135935715Y-129078571D01*
X135792857Y-129007143D01*
X135721429Y-128935714D01*
X135650000Y-128792857D01*
X135650000Y-128364286D01*
X135721429Y-128221429D01*
X135792857Y-128150000D01*
X135935715Y-128078571D01*
X136221429Y-128078571D01*
X136364286Y-128150000D01*
X137578571Y-129007143D02*
X137435714Y-129078571D01*
X137150000Y-129078571D01*
X137007143Y-129007143D01*
X136935714Y-128864286D01*
X136935714Y-128292857D01*
X137007143Y-128150000D01*
X137150000Y-128078571D01*
X137435714Y-128078571D01*
X137578571Y-128150000D01*
X137650000Y-128292857D01*
X137650000Y-128435714D01*
X136935714Y-128578571D01*
X138292857Y-129078571D02*
X138292857Y-128078571D01*
X138292857Y-128364286D02*
X138364285Y-128221429D01*
X138435714Y-128150000D01*
X138578571Y-128078571D01*
X138721428Y-128078571D01*
X140221428Y-127578571D02*
X140578571Y-129078571D01*
X140864285Y-128007143D01*
X141149999Y-129078571D01*
X141507142Y-127578571D01*
X142078571Y-129078571D02*
X142078571Y-127578571D01*
X142721428Y-129078571D02*
X142721428Y-128292857D01*
X142649999Y-128150000D01*
X142507142Y-128078571D01*
X142292857Y-128078571D01*
X142149999Y-128150000D01*
X142078571Y-128221429D01*
X143292857Y-128078571D02*
X143650000Y-129078571D01*
X144007142Y-128078571D02*
X143650000Y-129078571D01*
X143507142Y-129435714D01*
X143435714Y-129507143D01*
X143292857Y-129578571D01*
X144364285Y-128078571D02*
X144935714Y-128078571D01*
X144578571Y-127578571D02*
X144578571Y-128864286D01*
X144649999Y-129007143D01*
X144792857Y-129078571D01*
X144935714Y-129078571D01*
X146007142Y-129007143D02*
X145864285Y-129078571D01*
X145578571Y-129078571D01*
X145435714Y-129007143D01*
X145364285Y-128864286D01*
X145364285Y-128292857D01*
X145435714Y-128150000D01*
X145578571Y-128078571D01*
X145864285Y-128078571D01*
X146007142Y-128150000D01*
X146078571Y-128292857D01*
X146078571Y-128435714D01*
X145364285Y-128578571D01*
D10*
X158600000Y-109800000D02*
X158566666Y-109833333D01*
X158466666Y-109866667D01*
X158400000Y-109866667D01*
X158300000Y-109833333D01*
X158233333Y-109766667D01*
X158200000Y-109700000D01*
X158166666Y-109566667D01*
X158166666Y-109466667D01*
X158200000Y-109333333D01*
X158233333Y-109266667D01*
X158300000Y-109200000D01*
X158400000Y-109166667D01*
X158466666Y-109166667D01*
X158566666Y-109200000D01*
X158600000Y-109233333D01*
X158900000Y-109500000D02*
X159133333Y-109500000D01*
X159233333Y-109866667D02*
X158900000Y-109866667D01*
X158900000Y-109166667D01*
X159233333Y-109166667D01*
X159866666Y-109866667D02*
X159533333Y-109866667D01*
X159533333Y-109166667D01*
X160433333Y-109866667D02*
X160100000Y-109866667D01*
X160100000Y-109166667D01*
X161066667Y-109866667D02*
X160833333Y-109533333D01*
X160666667Y-109866667D02*
X160666667Y-109166667D01*
X160933333Y-109166667D01*
X161000000Y-109200000D01*
X161033333Y-109233333D01*
X161066667Y-109300000D01*
X161066667Y-109400000D01*
X161033333Y-109466667D01*
X161000000Y-109500000D01*
X160933333Y-109533333D01*
X160666667Y-109533333D01*
X161300000Y-109166667D02*
X161766667Y-109866667D01*
X161766667Y-109166667D02*
X161300000Y-109866667D01*
X154373810Y-109782143D02*
X154342858Y-109813095D01*
X154250001Y-109844048D01*
X154188096Y-109844048D01*
X154095239Y-109813095D01*
X154033334Y-109751190D01*
X154002382Y-109689286D01*
X153971430Y-109565476D01*
X153971430Y-109472619D01*
X154002382Y-109348810D01*
X154033334Y-109286905D01*
X154095239Y-109225000D01*
X154188096Y-109194048D01*
X154250001Y-109194048D01*
X154342858Y-109225000D01*
X154373810Y-109255952D01*
X154652382Y-109503571D02*
X154869049Y-109503571D01*
X154961906Y-109844048D02*
X154652382Y-109844048D01*
X154652382Y-109194048D01*
X154961906Y-109194048D01*
X155550001Y-109844048D02*
X155240477Y-109844048D01*
X155240477Y-109194048D01*
X156076191Y-109844048D02*
X155766667Y-109844048D01*
X155766667Y-109194048D01*
X156200000Y-109194048D02*
X156571428Y-109194048D01*
X156385714Y-109844048D02*
X156385714Y-109194048D01*
X156726190Y-109194048D02*
X157159523Y-109844048D01*
X157159523Y-109194048D02*
X156726190Y-109844048D01*
D11*
X153000001Y-81207143D02*
X154142858Y-81207143D01*
X153571429Y-81778571D02*
X153571429Y-80635714D01*
X154714287Y-80278571D02*
X155642858Y-80278571D01*
X155142858Y-80850000D01*
X155357144Y-80850000D01*
X155500001Y-80921429D01*
X155571430Y-80992857D01*
X155642858Y-81135714D01*
X155642858Y-81492857D01*
X155571430Y-81635714D01*
X155500001Y-81707143D01*
X155357144Y-81778571D01*
X154928572Y-81778571D01*
X154785715Y-81707143D01*
X154714287Y-81635714D01*
X156285715Y-81635714D02*
X156357143Y-81707143D01*
X156285715Y-81778571D01*
X156214286Y-81707143D01*
X156285715Y-81635714D01*
X156285715Y-81778571D01*
X156857144Y-80278571D02*
X157785715Y-80278571D01*
X157285715Y-80850000D01*
X157500001Y-80850000D01*
X157642858Y-80921429D01*
X157714287Y-80992857D01*
X157785715Y-81135714D01*
X157785715Y-81492857D01*
X157714287Y-81635714D01*
X157642858Y-81707143D01*
X157500001Y-81778571D01*
X157071429Y-81778571D01*
X156928572Y-81707143D01*
X156857144Y-81635714D01*
X158214286Y-80278571D02*
X158714286Y-81778571D01*
X159214286Y-80278571D01*
X155357143Y-70750000D02*
X155214286Y-70678571D01*
X155000000Y-70678571D01*
X154785715Y-70750000D01*
X154642857Y-70892857D01*
X154571429Y-71035714D01*
X154500000Y-71321429D01*
X154500000Y-71535714D01*
X154571429Y-71821429D01*
X154642857Y-71964286D01*
X154785715Y-72107143D01*
X155000000Y-72178571D01*
X155142857Y-72178571D01*
X155357143Y-72107143D01*
X155428572Y-72035714D01*
X155428572Y-71535714D01*
X155142857Y-71535714D01*
X156071429Y-72178571D02*
X156071429Y-70678571D01*
X156928572Y-72178571D01*
X156928572Y-70678571D01*
X157642858Y-72178571D02*
X157642858Y-70678571D01*
X158000001Y-70678571D01*
X158214286Y-70750000D01*
X158357144Y-70892857D01*
X158428572Y-71035714D01*
X158500001Y-71321429D01*
X158500001Y-71535714D01*
X158428572Y-71821429D01*
X158357144Y-71964286D01*
X158214286Y-72107143D01*
X158000001Y-72178571D01*
X157642858Y-72178571D01*
D13*
X146150000Y-96400000D02*
X147150000Y-97400000D01*
X147150000Y-97400000D02*
X145150000Y-97400000D01*
X145150000Y-97400000D02*
X146150000Y-96400000D01*
X110798000Y-109061000D02*
X110798000Y-109061000D01*
X110671000Y-109061000D02*
X110798000Y-109061000D01*
X110798000Y-109061000D02*
X110671000Y-109061000D01*
X117656000Y-115284000D02*
X117656000Y-109061000D01*
X117656000Y-109061000D02*
X114100000Y-109061000D01*
X117656000Y-115284000D02*
X117656000Y-116808000D01*
X117656000Y-116808000D02*
X117656000Y-116808000D01*
X117656000Y-116808000D02*
X117656000Y-116808000D01*
X117656000Y-116808000D02*
X117656000Y-117062000D01*
X117656000Y-117062000D02*
X117656000Y-117062000D01*
X117656000Y-117062000D02*
X117656000Y-117062000D01*
X114100000Y-109061000D02*
X110671000Y-109061000D01*
X110671000Y-109061000D02*
X110671000Y-117062000D01*
X110671000Y-117062000D02*
X117656000Y-117062000D01*
X110848000Y-96561000D02*
X110848000Y-96561000D01*
X110721000Y-96561000D02*
X110848000Y-96561000D01*
X110848000Y-96561000D02*
X110721000Y-96561000D01*
X117706000Y-102784000D02*
X117706000Y-96561000D01*
X117706000Y-96561000D02*
X114150000Y-96561000D01*
X117706000Y-102784000D02*
X117706000Y-104308000D01*
X117706000Y-104308000D02*
X117706000Y-104308000D01*
X117706000Y-104308000D02*
X117706000Y-104308000D01*
X117706000Y-104308000D02*
X117706000Y-104562000D01*
X117706000Y-104562000D02*
X117706000Y-104562000D01*
X117706000Y-104562000D02*
X117706000Y-104562000D01*
X114150000Y-96561000D02*
X110721000Y-96561000D01*
X110721000Y-96561000D02*
X110721000Y-104562000D01*
X110721000Y-104562000D02*
X117706000Y-104562000D01*
X110848000Y-84661000D02*
X110848000Y-84661000D01*
X110721000Y-84661000D02*
X110848000Y-84661000D01*
X110848000Y-84661000D02*
X110721000Y-84661000D01*
X117706000Y-90884000D02*
X117706000Y-84661000D01*
X117706000Y-84661000D02*
X114150000Y-84661000D01*
X117706000Y-90884000D02*
X117706000Y-92408000D01*
X117706000Y-92408000D02*
X117706000Y-92408000D01*
X117706000Y-92408000D02*
X117706000Y-92408000D01*
X117706000Y-92408000D02*
X117706000Y-92662000D01*
X117706000Y-92662000D02*
X117706000Y-92662000D01*
X117706000Y-92662000D02*
X117706000Y-92662000D01*
X114150000Y-84661000D02*
X110721000Y-84661000D01*
X110721000Y-84661000D02*
X110721000Y-92662000D01*
X110721000Y-92662000D02*
X117706000Y-92662000D01*
X141675000Y-80400000D02*
X141675000Y-82400000D01*
X143725000Y-82400000D02*
X143725000Y-80400000D01*
X128650000Y-87350000D02*
X127650000Y-87350000D01*
X127650000Y-89050000D02*
X128650000Y-89050000D01*
X133075000Y-79850000D02*
X133075000Y-81850000D01*
X136025000Y-81850000D02*
X136025000Y-79850000D01*
X157400000Y-119450000D02*
X156400000Y-119450000D01*
X156400000Y-121150000D02*
X157400000Y-121150000D01*
X117750000Y-118500000D02*
X116750000Y-118500000D01*
X116750000Y-120200000D02*
X117750000Y-120200000D01*
X156600000Y-124950000D02*
X157600000Y-124950000D01*
X157600000Y-123250000D02*
X156600000Y-123250000D01*
X116800000Y-123600000D02*
X117800000Y-123600000D01*
X117800000Y-121900000D02*
X116800000Y-121900000D01*
X148700880Y-63599500D02*
X139699120Y-63599500D01*
X148700880Y-60099380D02*
X139699120Y-60099380D01*
X139699120Y-60099380D02*
X139699120Y-74600240D01*
X139699120Y-74600240D02*
X148700880Y-74600240D01*
X148700880Y-74600240D02*
X148700880Y-60099380D01*
X137450000Y-140000000D02*
X137450000Y-138100000D01*
X136350000Y-140000000D02*
X136350000Y-138100000D01*
X136900000Y-139100000D02*
X136900000Y-138650000D01*
X136650000Y-139150000D02*
X137150000Y-139150000D01*
X136900000Y-139150000D02*
X136650000Y-138900000D01*
X136650000Y-138900000D02*
X137150000Y-138900000D01*
X137150000Y-138900000D02*
X136900000Y-139150000D01*
X158850000Y-98450000D02*
X160750000Y-98450000D01*
X158850000Y-97350000D02*
X160750000Y-97350000D01*
X159750000Y-97900000D02*
X160200000Y-97900000D01*
X159700000Y-97650000D02*
X159700000Y-98150000D01*
X159700000Y-97900000D02*
X159950000Y-97650000D01*
X159950000Y-97650000D02*
X159950000Y-98150000D01*
X159950000Y-98150000D02*
X159700000Y-97900000D01*
X151700000Y-63250000D02*
X151700000Y-65150000D01*
X152800000Y-63250000D02*
X152800000Y-65150000D01*
X152250000Y-64150000D02*
X152250000Y-64600000D01*
X152500000Y-64100000D02*
X152000000Y-64100000D01*
X152250000Y-64100000D02*
X152500000Y-64350000D01*
X152500000Y-64350000D02*
X152000000Y-64350000D01*
X152000000Y-64350000D02*
X152250000Y-64100000D01*
X159630000Y-73570000D02*
X159630000Y-81190000D01*
X162170000Y-73570000D02*
X162170000Y-81190000D01*
X162450000Y-70750000D02*
X162450000Y-72300000D01*
X159630000Y-81190000D02*
X162170000Y-81190000D01*
X162170000Y-73570000D02*
X159630000Y-73570000D01*
X159350000Y-72300000D02*
X159350000Y-70750000D01*
X159350000Y-70750000D02*
X162450000Y-70750000D01*
X161320000Y-105820000D02*
X161320000Y-108360000D01*
X161600000Y-103000000D02*
X161600000Y-104550000D01*
X161320000Y-105820000D02*
X158780000Y-105820000D01*
X158500000Y-104550000D02*
X158500000Y-103000000D01*
X158500000Y-103000000D02*
X161600000Y-103000000D01*
X158780000Y-105820000D02*
X158780000Y-108360000D01*
X158780000Y-108360000D02*
X161320000Y-108360000D01*
X154280000Y-105830000D02*
X154280000Y-103290000D01*
X154000000Y-108650000D02*
X154000000Y-107100000D01*
X154280000Y-105830000D02*
X156820000Y-105830000D01*
X157100000Y-107100000D02*
X157100000Y-108650000D01*
X157100000Y-108650000D02*
X154000000Y-108650000D01*
X156820000Y-105830000D02*
X156820000Y-103290000D01*
X156820000Y-103290000D02*
X154280000Y-103290000D01*
X129950000Y-146200000D02*
X122900000Y-147450000D01*
X129600000Y-148300000D02*
X123450000Y-149550000D01*
X129550000Y-150200000D02*
X123950000Y-151400000D01*
X130500000Y-133750000D02*
X130500000Y-151800000D01*
X148950000Y-146200000D02*
X141900000Y-147450000D01*
X148600000Y-148300000D02*
X142450000Y-149550000D01*
X148550000Y-150200000D02*
X142950000Y-151400000D01*
X149500000Y-133750000D02*
X149500000Y-151800000D01*
X125250000Y-81225000D02*
X125750000Y-81225000D01*
X125750000Y-80175000D02*
X125250000Y-80175000D01*
X125250000Y-82825000D02*
X125750000Y-82825000D01*
X125750000Y-81775000D02*
X125250000Y-81775000D01*
X144950000Y-92275000D02*
X144450000Y-92275000D01*
X144450000Y-93325000D02*
X144950000Y-93325000D01*
X139775000Y-135800000D02*
X139775000Y-136800000D01*
X138425000Y-136800000D02*
X138425000Y-135800000D01*
X159350000Y-95575000D02*
X160350000Y-95575000D01*
X160350000Y-96925000D02*
X159350000Y-96925000D01*
X151575000Y-67700000D02*
X151575000Y-66700000D01*
X152925000Y-66700000D02*
X152925000Y-67700000D01*
X128800000Y-86450000D02*
G75*
G03X128800000Y-86450000I-100000J0D01*
G01*
X128050000Y-86200000D02*
X128550000Y-86200000D01*
X128050000Y-83300000D02*
X128050000Y-86200000D01*
X128550000Y-83300000D02*
X128050000Y-83300000D01*
X128550000Y-86200000D02*
X128550000Y-83300000D01*
X146272000Y-83240000D02*
X146272000Y-90860000D01*
X149828000Y-90860000D02*
X149828000Y-83240000D01*
X146272000Y-83240000D02*
X149828000Y-83240000D01*
X149828000Y-90860000D02*
X146272000Y-90860000D01*
X149679210Y-90352000D02*
G75*
G03X149679210Y-90352000I-359210J0D01*
G01*
X147415000Y-90860000D02*
X147415000Y-90098000D01*
X147415000Y-90098000D02*
X148685000Y-90098000D01*
X148685000Y-90098000D02*
X148685000Y-90860000D01*
X160150000Y-84150000D02*
X159150000Y-84150000D01*
X159150000Y-85850000D02*
X160150000Y-85850000D01*
X150950000Y-91850000D02*
G75*
G03X150950000Y-91850000I-100000J0D01*
G01*
X151400000Y-92100000D02*
X150900000Y-92100000D01*
X151400000Y-95000000D02*
X151400000Y-92100000D01*
X150900000Y-95000000D02*
X151400000Y-95000000D01*
X150900000Y-92100000D02*
X150900000Y-95000000D01*
X158175000Y-111625000D02*
X157950000Y-111625000D01*
X158175000Y-114875000D02*
X157950000Y-114875000D01*
X154925000Y-114875000D02*
X155150000Y-114875000D01*
X154925000Y-111625000D02*
X155150000Y-111625000D01*
X158175000Y-111625000D02*
X158175000Y-114875000D01*
X154925000Y-111625000D02*
X154925000Y-114875000D01*
X157950000Y-111625000D02*
X157950000Y-110550000D01*
X105540000Y-122009600D02*
X105540000Y-119469600D01*
X105540000Y-119469600D02*
X102746000Y-119469600D01*
X102746000Y-122009600D02*
X102746000Y-119469600D01*
X105540000Y-122009600D02*
X102746000Y-122009600D01*
X105540000Y-117005800D02*
X105540000Y-114465800D01*
X105540000Y-114465800D02*
X102746000Y-114465800D01*
X102746000Y-117005800D02*
X102746000Y-114465800D01*
X105540000Y-117005800D02*
X102746000Y-117005800D01*
X96777000Y-113145000D02*
X99825000Y-113145000D01*
X96777000Y-113145000D02*
X96777000Y-123330000D01*
X96777000Y-113145000D02*
X96777000Y-112637000D01*
X96777000Y-112637000D02*
X101603000Y-112637000D01*
X101603000Y-112637000D02*
X101349000Y-113145000D01*
X108461000Y-112637000D02*
X108207000Y-113145000D01*
X108207000Y-113145000D02*
X109223000Y-113145000D01*
X106810000Y-112637000D02*
X107064000Y-113145000D01*
X107064000Y-113145000D02*
X108207000Y-113145000D01*
X106810000Y-112637000D02*
X108461000Y-112637000D01*
X109223000Y-117767800D02*
X107318000Y-117767800D01*
X102746000Y-113703800D02*
X107318000Y-113703800D01*
X109223000Y-117767800D02*
X109223000Y-113703800D01*
X109223000Y-113703800D02*
X109223000Y-113145000D01*
X109223000Y-118707600D02*
X107318000Y-118707600D01*
X109223000Y-118707600D02*
X109223000Y-117767800D01*
X102746000Y-122771600D02*
X107318000Y-122771600D01*
X109223000Y-123330000D02*
X109223000Y-122771600D01*
X109223000Y-122771600D02*
X109223000Y-118707600D01*
X107318000Y-117767800D02*
X107318000Y-113703800D01*
X107318000Y-117767800D02*
X102746000Y-117767800D01*
X107318000Y-113703800D02*
X109223000Y-113703800D01*
X107318000Y-118707600D02*
X107318000Y-122771600D01*
X107318000Y-118707600D02*
X102746000Y-118707600D01*
X107318000Y-122771600D02*
X109223000Y-122771600D01*
X106683000Y-114084800D02*
X103508000Y-114084800D01*
X106683000Y-114084800D02*
X106683000Y-117386800D01*
X106683000Y-117386800D02*
X103508000Y-117386800D01*
X106683000Y-119088600D02*
X103508000Y-119088600D01*
X106683000Y-119088600D02*
X106683000Y-122390600D01*
X106683000Y-122390600D02*
X103508000Y-122390600D01*
X103508000Y-122390600D02*
X103508000Y-122009600D01*
X103508000Y-119088600D02*
X103508000Y-119469600D01*
X103508000Y-117386800D02*
X103508000Y-117005800D01*
X103508000Y-114084800D02*
X103508000Y-114465800D01*
X109223000Y-123330000D02*
X102365000Y-123330000D01*
X102365000Y-123330000D02*
X99825000Y-123330000D01*
X101349000Y-113145000D02*
X102365000Y-113145000D01*
X102365000Y-113145000D02*
X107064000Y-113145000D01*
X99825000Y-123330000D02*
X99825000Y-113145000D01*
X99825000Y-123330000D02*
X96777000Y-123330000D01*
X99825000Y-113145000D02*
X101349000Y-113145000D01*
X99571000Y-117767800D02*
X97031000Y-117767800D01*
X97031000Y-117767800D02*
X97031000Y-113703800D01*
X97031000Y-113703800D02*
X99571000Y-113703800D01*
X99571000Y-113703800D02*
X99571000Y-117767800D01*
X99571000Y-118707600D02*
X97031000Y-118707600D01*
X99571000Y-118707600D02*
X99571000Y-122771600D01*
X99571000Y-122771600D02*
X97031000Y-122771600D01*
X97031000Y-118707600D02*
X97031000Y-122771600D01*
X98555000Y-117361400D02*
X97920000Y-114313400D01*
X98682000Y-117234400D02*
X98047000Y-114186400D01*
X98555000Y-122365200D02*
X97920000Y-119314660D01*
X98682000Y-122238200D02*
X98047000Y-119190200D01*
X102746000Y-122771600D02*
X102746000Y-122390600D01*
X102746000Y-118707600D02*
X102746000Y-119088600D01*
X102746000Y-119088600D02*
X102746000Y-122390600D01*
X102365000Y-123330000D02*
X102365000Y-122390600D01*
X102365000Y-122390600D02*
X102365000Y-119088600D01*
X102365000Y-119088600D02*
X102365000Y-117386800D01*
X102365000Y-113145000D02*
X102365000Y-114084800D01*
X102365000Y-114084800D02*
X102365000Y-117386800D01*
X102746000Y-113703800D02*
X102746000Y-114084800D01*
X102746000Y-117767800D02*
X102746000Y-117386800D01*
X102746000Y-117386800D02*
X102746000Y-114084800D01*
X98914570Y-114267028D02*
G75*
G03X97947940Y-114214340I-509430J-452772D01*
G01*
X98834896Y-117209728D02*
G75*
G03X98882660Y-114221960I-1905496J1524728D01*
G01*
X97943156Y-114210589D02*
G75*
G03X97996200Y-117361400I1348444J-1553151D01*
G01*
X97946519Y-117310097D02*
G75*
G03X98872500Y-117168360I407821J431297D01*
G01*
X98917110Y-119270851D02*
G75*
G03X97947940Y-119215600I-511970J-452749D01*
G01*
X98834896Y-122210988D02*
G75*
G03X98882660Y-119223220I-1905496J1524728D01*
G01*
X97938153Y-119208427D02*
G75*
G03X97996200Y-122365200I1353447J-1554033D01*
G01*
X97948981Y-122314520D02*
G75*
G03X98872500Y-122169620I405359J431920D01*
G01*
X105540000Y-107009600D02*
X105540000Y-104469600D01*
X105540000Y-104469600D02*
X102746000Y-104469600D01*
X102746000Y-107009600D02*
X102746000Y-104469600D01*
X105540000Y-107009600D02*
X102746000Y-107009600D01*
X105540000Y-102005800D02*
X105540000Y-99465800D01*
X105540000Y-99465800D02*
X102746000Y-99465800D01*
X102746000Y-102005800D02*
X102746000Y-99465800D01*
X105540000Y-102005800D02*
X102746000Y-102005800D01*
X96777000Y-98145000D02*
X99825000Y-98145000D01*
X96777000Y-98145000D02*
X96777000Y-108330000D01*
X96777000Y-98145000D02*
X96777000Y-97637000D01*
X96777000Y-97637000D02*
X101603000Y-97637000D01*
X101603000Y-97637000D02*
X101349000Y-98145000D01*
X108461000Y-97637000D02*
X108207000Y-98145000D01*
X108207000Y-98145000D02*
X109223000Y-98145000D01*
X106810000Y-97637000D02*
X107064000Y-98145000D01*
X107064000Y-98145000D02*
X108207000Y-98145000D01*
X106810000Y-97637000D02*
X108461000Y-97637000D01*
X109223000Y-102767800D02*
X107318000Y-102767800D01*
X102746000Y-98703800D02*
X107318000Y-98703800D01*
X109223000Y-102767800D02*
X109223000Y-98703800D01*
X109223000Y-98703800D02*
X109223000Y-98145000D01*
X109223000Y-103707600D02*
X107318000Y-103707600D01*
X109223000Y-103707600D02*
X109223000Y-102767800D01*
X102746000Y-107771600D02*
X107318000Y-107771600D01*
X109223000Y-108330000D02*
X109223000Y-107771600D01*
X109223000Y-107771600D02*
X109223000Y-103707600D01*
X107318000Y-102767800D02*
X107318000Y-98703800D01*
X107318000Y-102767800D02*
X102746000Y-102767800D01*
X107318000Y-98703800D02*
X109223000Y-98703800D01*
X107318000Y-103707600D02*
X107318000Y-107771600D01*
X107318000Y-103707600D02*
X102746000Y-103707600D01*
X107318000Y-107771600D02*
X109223000Y-107771600D01*
X106683000Y-99084800D02*
X103508000Y-99084800D01*
X106683000Y-99084800D02*
X106683000Y-102386800D01*
X106683000Y-102386800D02*
X103508000Y-102386800D01*
X106683000Y-104088600D02*
X103508000Y-104088600D01*
X106683000Y-104088600D02*
X106683000Y-107390600D01*
X106683000Y-107390600D02*
X103508000Y-107390600D01*
X103508000Y-107390600D02*
X103508000Y-107009600D01*
X103508000Y-104088600D02*
X103508000Y-104469600D01*
X103508000Y-102386800D02*
X103508000Y-102005800D01*
X103508000Y-99084800D02*
X103508000Y-99465800D01*
X109223000Y-108330000D02*
X102365000Y-108330000D01*
X102365000Y-108330000D02*
X99825000Y-108330000D01*
X101349000Y-98145000D02*
X102365000Y-98145000D01*
X102365000Y-98145000D02*
X107064000Y-98145000D01*
X99825000Y-108330000D02*
X99825000Y-98145000D01*
X99825000Y-108330000D02*
X96777000Y-108330000D01*
X99825000Y-98145000D02*
X101349000Y-98145000D01*
X99571000Y-102767800D02*
X97031000Y-102767800D01*
X97031000Y-102767800D02*
X97031000Y-98703800D01*
X97031000Y-98703800D02*
X99571000Y-98703800D01*
X99571000Y-98703800D02*
X99571000Y-102767800D01*
X99571000Y-103707600D02*
X97031000Y-103707600D01*
X99571000Y-103707600D02*
X99571000Y-107771600D01*
X99571000Y-107771600D02*
X97031000Y-107771600D01*
X97031000Y-103707600D02*
X97031000Y-107771600D01*
X98555000Y-102361400D02*
X97920000Y-99313400D01*
X98682000Y-102234400D02*
X98047000Y-99186400D01*
X98555000Y-107365200D02*
X97920000Y-104314660D01*
X98682000Y-107238200D02*
X98047000Y-104190200D01*
X102746000Y-107771600D02*
X102746000Y-107390600D01*
X102746000Y-103707600D02*
X102746000Y-104088600D01*
X102746000Y-104088600D02*
X102746000Y-107390600D01*
X102365000Y-108330000D02*
X102365000Y-107390600D01*
X102365000Y-107390600D02*
X102365000Y-104088600D01*
X102365000Y-104088600D02*
X102365000Y-102386800D01*
X102365000Y-98145000D02*
X102365000Y-99084800D01*
X102365000Y-99084800D02*
X102365000Y-102386800D01*
X102746000Y-98703800D02*
X102746000Y-99084800D01*
X102746000Y-102767800D02*
X102746000Y-102386800D01*
X102746000Y-102386800D02*
X102746000Y-99084800D01*
X98914570Y-99267028D02*
G75*
G03X97947940Y-99214340I-509430J-452772D01*
G01*
X98834896Y-102209728D02*
G75*
G03X98882660Y-99221960I-1905496J1524728D01*
G01*
X97943156Y-99210589D02*
G75*
G03X97996200Y-102361400I1348444J-1553151D01*
G01*
X97946519Y-102310097D02*
G75*
G03X98872500Y-102168360I407821J431297D01*
G01*
X98917110Y-104270851D02*
G75*
G03X97947940Y-104215600I-511970J-452749D01*
G01*
X98834896Y-107210988D02*
G75*
G03X98882660Y-104223220I-1905496J1524728D01*
G01*
X97938153Y-104208427D02*
G75*
G03X97996200Y-107365200I1353447J-1554033D01*
G01*
X97948981Y-107314520D02*
G75*
G03X98872500Y-107169620I405359J431920D01*
G01*
X105540000Y-91409600D02*
X105540000Y-88869600D01*
X105540000Y-88869600D02*
X102746000Y-88869600D01*
X102746000Y-91409600D02*
X102746000Y-88869600D01*
X105540000Y-91409600D02*
X102746000Y-91409600D01*
X105540000Y-86405800D02*
X105540000Y-83865800D01*
X105540000Y-83865800D02*
X102746000Y-83865800D01*
X102746000Y-86405800D02*
X102746000Y-83865800D01*
X105540000Y-86405800D02*
X102746000Y-86405800D01*
X96777000Y-82545000D02*
X99825000Y-82545000D01*
X96777000Y-82545000D02*
X96777000Y-92730000D01*
X96777000Y-82545000D02*
X96777000Y-82037000D01*
X96777000Y-82037000D02*
X101603000Y-82037000D01*
X101603000Y-82037000D02*
X101349000Y-82545000D01*
X108461000Y-82037000D02*
X108207000Y-82545000D01*
X108207000Y-82545000D02*
X109223000Y-82545000D01*
X106810000Y-82037000D02*
X107064000Y-82545000D01*
X107064000Y-82545000D02*
X108207000Y-82545000D01*
X106810000Y-82037000D02*
X108461000Y-82037000D01*
X109223000Y-87167800D02*
X107318000Y-87167800D01*
X102746000Y-83103800D02*
X107318000Y-83103800D01*
X109223000Y-87167800D02*
X109223000Y-83103800D01*
X109223000Y-83103800D02*
X109223000Y-82545000D01*
X109223000Y-88107600D02*
X107318000Y-88107600D01*
X109223000Y-88107600D02*
X109223000Y-87167800D01*
X102746000Y-92171600D02*
X107318000Y-92171600D01*
X109223000Y-92730000D02*
X109223000Y-92171600D01*
X109223000Y-92171600D02*
X109223000Y-88107600D01*
X107318000Y-87167800D02*
X107318000Y-83103800D01*
X107318000Y-87167800D02*
X102746000Y-87167800D01*
X107318000Y-83103800D02*
X109223000Y-83103800D01*
X107318000Y-88107600D02*
X107318000Y-92171600D01*
X107318000Y-88107600D02*
X102746000Y-88107600D01*
X107318000Y-92171600D02*
X109223000Y-92171600D01*
X106683000Y-83484800D02*
X103508000Y-83484800D01*
X106683000Y-83484800D02*
X106683000Y-86786800D01*
X106683000Y-86786800D02*
X103508000Y-86786800D01*
X106683000Y-88488600D02*
X103508000Y-88488600D01*
X106683000Y-88488600D02*
X106683000Y-91790600D01*
X106683000Y-91790600D02*
X103508000Y-91790600D01*
X103508000Y-91790600D02*
X103508000Y-91409600D01*
X103508000Y-88488600D02*
X103508000Y-88869600D01*
X103508000Y-86786800D02*
X103508000Y-86405800D01*
X103508000Y-83484800D02*
X103508000Y-83865800D01*
X109223000Y-92730000D02*
X102365000Y-92730000D01*
X102365000Y-92730000D02*
X99825000Y-92730000D01*
X101349000Y-82545000D02*
X102365000Y-82545000D01*
X102365000Y-82545000D02*
X107064000Y-82545000D01*
X99825000Y-92730000D02*
X99825000Y-82545000D01*
X99825000Y-92730000D02*
X96777000Y-92730000D01*
X99825000Y-82545000D02*
X101349000Y-82545000D01*
X99571000Y-87167800D02*
X97031000Y-87167800D01*
X97031000Y-87167800D02*
X97031000Y-83103800D01*
X97031000Y-83103800D02*
X99571000Y-83103800D01*
X99571000Y-83103800D02*
X99571000Y-87167800D01*
X99571000Y-88107600D02*
X97031000Y-88107600D01*
X99571000Y-88107600D02*
X99571000Y-92171600D01*
X99571000Y-92171600D02*
X97031000Y-92171600D01*
X97031000Y-88107600D02*
X97031000Y-92171600D01*
X98555000Y-86761400D02*
X97920000Y-83713400D01*
X98682000Y-86634400D02*
X98047000Y-83586400D01*
X98555000Y-91765200D02*
X97920000Y-88714660D01*
X98682000Y-91638200D02*
X98047000Y-88590200D01*
X102746000Y-92171600D02*
X102746000Y-91790600D01*
X102746000Y-88107600D02*
X102746000Y-88488600D01*
X102746000Y-88488600D02*
X102746000Y-91790600D01*
X102365000Y-92730000D02*
X102365000Y-91790600D01*
X102365000Y-91790600D02*
X102365000Y-88488600D01*
X102365000Y-88488600D02*
X102365000Y-86786800D01*
X102365000Y-82545000D02*
X102365000Y-83484800D01*
X102365000Y-83484800D02*
X102365000Y-86786800D01*
X102746000Y-83103800D02*
X102746000Y-83484800D01*
X102746000Y-87167800D02*
X102746000Y-86786800D01*
X102746000Y-86786800D02*
X102746000Y-83484800D01*
X98914570Y-83667028D02*
G75*
G03X97947940Y-83614340I-509430J-452772D01*
G01*
X98834896Y-86609728D02*
G75*
G03X98882660Y-83621960I-1905496J1524728D01*
G01*
X97943156Y-83610589D02*
G75*
G03X97996200Y-86761400I1348444J-1553151D01*
G01*
X97946519Y-86710097D02*
G75*
G03X98872500Y-86568360I407821J431297D01*
G01*
X98917110Y-88670851D02*
G75*
G03X97947940Y-88615600I-511970J-452749D01*
G01*
X98834896Y-91610988D02*
G75*
G03X98882660Y-88623220I-1905496J1524728D01*
G01*
X97938153Y-88608427D02*
G75*
G03X97996200Y-91765200I1353447J-1554033D01*
G01*
X97948981Y-91714520D02*
G75*
G03X98872500Y-91569620I405359J431920D01*
G01*
X158900000Y-94600000D02*
X160800000Y-94600000D01*
X158900000Y-93500000D02*
X160800000Y-93500000D01*
X159800000Y-94050000D02*
X160250000Y-94050000D01*
X159750000Y-93800000D02*
X159750000Y-94300000D01*
X159750000Y-94050000D02*
X160000000Y-93800000D01*
X160000000Y-93800000D02*
X160000000Y-94300000D01*
X160000000Y-94300000D02*
X159750000Y-94050000D01*
X158850000Y-90500000D02*
X160750000Y-90500000D01*
X158850000Y-89400000D02*
X160750000Y-89400000D01*
X159750000Y-89950000D02*
X160200000Y-89950000D01*
X159700000Y-89700000D02*
X159700000Y-90200000D01*
X159700000Y-89950000D02*
X159950000Y-89700000D01*
X159950000Y-89700000D02*
X159950000Y-90200000D01*
X159950000Y-90200000D02*
X159700000Y-89950000D01*
X159400000Y-91725000D02*
X160400000Y-91725000D01*
X160400000Y-93075000D02*
X159400000Y-93075000D01*
X159350000Y-87625000D02*
X160350000Y-87625000D01*
X160350000Y-88975000D02*
X159350000Y-88975000D01*
X158249160Y-92549760D02*
X158200900Y-92549760D01*
X155450180Y-93250800D02*
X155450180Y-92549760D01*
X155450180Y-92549760D02*
X155699100Y-92549760D01*
X158249160Y-92549760D02*
X158449820Y-92549760D01*
X158449820Y-92549760D02*
X158449820Y-93250800D01*
X158199160Y-88474761D02*
X158150900Y-88474761D01*
X155400180Y-89175801D02*
X155400180Y-88474761D01*
X155400180Y-88474761D02*
X155649100Y-88474761D01*
X158199160Y-88474761D02*
X158399820Y-88474761D01*
X158399820Y-88474761D02*
X158399820Y-89175801D01*
X137350240Y-133799160D02*
X137350240Y-133750900D01*
X136649200Y-131000180D02*
X137350240Y-131000180D01*
X137350240Y-131000180D02*
X137350240Y-131249100D01*
X137350240Y-133799160D02*
X137350240Y-133999820D01*
X137350240Y-133999820D02*
X136649200Y-133999820D01*
X158199160Y-96399760D02*
X158150900Y-96399760D01*
X155400180Y-97100800D02*
X155400180Y-96399760D01*
X155400180Y-96399760D02*
X155649100Y-96399760D01*
X158199160Y-96399760D02*
X158399820Y-96399760D01*
X158399820Y-96399760D02*
X158399820Y-97100800D01*
X136438095Y-117152381D02*
X136438095Y-117961905D01*
X136485714Y-118057143D01*
X136533333Y-118104762D01*
X136628571Y-118152381D01*
X136819048Y-118152381D01*
X136914286Y-118104762D01*
X136961905Y-118057143D01*
X137009524Y-117961905D01*
X137009524Y-117152381D01*
X137390476Y-117152381D02*
X138009524Y-117152381D01*
X137676190Y-117533333D01*
X137819048Y-117533333D01*
X137914286Y-117580952D01*
X137961905Y-117628571D01*
X138009524Y-117723810D01*
X138009524Y-117961905D01*
X137961905Y-118057143D01*
X137914286Y-118104762D01*
X137819048Y-118152381D01*
X137533333Y-118152381D01*
X137438095Y-118104762D01*
X137390476Y-118057143D01*
X114004762Y-110596679D02*
X113909524Y-110549060D01*
X113814286Y-110453822D01*
X113671429Y-110310965D01*
X113576190Y-110263346D01*
X113480952Y-110263346D01*
X113528571Y-110501441D02*
X113433333Y-110453822D01*
X113338095Y-110358584D01*
X113290476Y-110168108D01*
X113290476Y-109834774D01*
X113338095Y-109644298D01*
X113433333Y-109549060D01*
X113528571Y-109501441D01*
X113719048Y-109501441D01*
X113814286Y-109549060D01*
X113909524Y-109644298D01*
X113957143Y-109834774D01*
X113957143Y-110168108D01*
X113909524Y-110358584D01*
X113814286Y-110453822D01*
X113719048Y-110501441D01*
X113528571Y-110501441D01*
X114909524Y-110501441D02*
X114338095Y-110501441D01*
X114623809Y-110501441D02*
X114623809Y-109501441D01*
X114528571Y-109644298D01*
X114433333Y-109739536D01*
X114338095Y-109787155D01*
X114054762Y-98096679D02*
X113959524Y-98049060D01*
X113864286Y-97953822D01*
X113721429Y-97810965D01*
X113626190Y-97763346D01*
X113530952Y-97763346D01*
X113578571Y-98001441D02*
X113483333Y-97953822D01*
X113388095Y-97858584D01*
X113340476Y-97668108D01*
X113340476Y-97334774D01*
X113388095Y-97144298D01*
X113483333Y-97049060D01*
X113578571Y-97001441D01*
X113769048Y-97001441D01*
X113864286Y-97049060D01*
X113959524Y-97144298D01*
X114007143Y-97334774D01*
X114007143Y-97668108D01*
X113959524Y-97858584D01*
X113864286Y-97953822D01*
X113769048Y-98001441D01*
X113578571Y-98001441D01*
X114864286Y-97334774D02*
X114864286Y-98001441D01*
X114626190Y-96953822D02*
X114388095Y-97668108D01*
X115007143Y-97668108D01*
X114054762Y-86196679D02*
X113959524Y-86149060D01*
X113864286Y-86053822D01*
X113721429Y-85910965D01*
X113626190Y-85863346D01*
X113530952Y-85863346D01*
X113578571Y-86101441D02*
X113483333Y-86053822D01*
X113388095Y-85958584D01*
X113340476Y-85768108D01*
X113340476Y-85434774D01*
X113388095Y-85244298D01*
X113483333Y-85149060D01*
X113578571Y-85101441D01*
X113769048Y-85101441D01*
X113864286Y-85149060D01*
X113959524Y-85244298D01*
X114007143Y-85434774D01*
X114007143Y-85768108D01*
X113959524Y-85958584D01*
X113864286Y-86053822D01*
X113769048Y-86101441D01*
X113578571Y-86101441D01*
X114911905Y-85101441D02*
X114435714Y-85101441D01*
X114388095Y-85577631D01*
X114435714Y-85530012D01*
X114530952Y-85482393D01*
X114769048Y-85482393D01*
X114864286Y-85530012D01*
X114911905Y-85577631D01*
X114959524Y-85672870D01*
X114959524Y-85910965D01*
X114911905Y-86006203D01*
X114864286Y-86053822D01*
X114769048Y-86101441D01*
X114530952Y-86101441D01*
X114435714Y-86053822D01*
X114388095Y-86006203D01*
X140757143Y-81566666D02*
X140804762Y-81614285D01*
X140852381Y-81757142D01*
X140852381Y-81852380D01*
X140804762Y-81995238D01*
X140709524Y-82090476D01*
X140614286Y-82138095D01*
X140423810Y-82185714D01*
X140280952Y-82185714D01*
X140090476Y-82138095D01*
X139995238Y-82090476D01*
X139900000Y-81995238D01*
X139852381Y-81852380D01*
X139852381Y-81757142D01*
X139900000Y-81614285D01*
X139947619Y-81566666D01*
X140852381Y-80614285D02*
X140852381Y-81185714D01*
X140852381Y-80900000D02*
X139852381Y-80900000D01*
X139995238Y-80995238D01*
X140090476Y-81090476D01*
X140138095Y-81185714D01*
X127983334Y-90457143D02*
X127935715Y-90504762D01*
X127792858Y-90552381D01*
X127697620Y-90552381D01*
X127554762Y-90504762D01*
X127459524Y-90409524D01*
X127411905Y-90314286D01*
X127364286Y-90123810D01*
X127364286Y-89980952D01*
X127411905Y-89790476D01*
X127459524Y-89695238D01*
X127554762Y-89600000D01*
X127697620Y-89552381D01*
X127792858Y-89552381D01*
X127935715Y-89600000D01*
X127983334Y-89647619D01*
X128364286Y-89647619D02*
X128411905Y-89600000D01*
X128507143Y-89552381D01*
X128745239Y-89552381D01*
X128840477Y-89600000D01*
X128888096Y-89647619D01*
X128935715Y-89742857D01*
X128935715Y-89838095D01*
X128888096Y-89980952D01*
X128316667Y-90552381D01*
X128935715Y-90552381D01*
X137607143Y-81066666D02*
X137654762Y-81114285D01*
X137702381Y-81257142D01*
X137702381Y-81352380D01*
X137654762Y-81495238D01*
X137559524Y-81590476D01*
X137464286Y-81638095D01*
X137273810Y-81685714D01*
X137130952Y-81685714D01*
X136940476Y-81638095D01*
X136845238Y-81590476D01*
X136750000Y-81495238D01*
X136702381Y-81352380D01*
X136702381Y-81257142D01*
X136750000Y-81114285D01*
X136797619Y-81066666D01*
X136702381Y-80733333D02*
X136702381Y-80114285D01*
X137083333Y-80447619D01*
X137083333Y-80304761D01*
X137130952Y-80209523D01*
X137178571Y-80161904D01*
X137273810Y-80114285D01*
X137511905Y-80114285D01*
X137607143Y-80161904D01*
X137654762Y-80209523D01*
X137702381Y-80304761D01*
X137702381Y-80590476D01*
X137654762Y-80685714D01*
X137607143Y-80733333D01*
X156733334Y-118557143D02*
X156685715Y-118604762D01*
X156542858Y-118652381D01*
X156447620Y-118652381D01*
X156304762Y-118604762D01*
X156209524Y-118509524D01*
X156161905Y-118414286D01*
X156114286Y-118223810D01*
X156114286Y-118080952D01*
X156161905Y-117890476D01*
X156209524Y-117795238D01*
X156304762Y-117700000D01*
X156447620Y-117652381D01*
X156542858Y-117652381D01*
X156685715Y-117700000D01*
X156733334Y-117747619D01*
X157590477Y-117985714D02*
X157590477Y-118652381D01*
X157352381Y-117604762D02*
X157114286Y-118319048D01*
X157733334Y-118319048D01*
X113933334Y-119707143D02*
X113885715Y-119754762D01*
X113742858Y-119802381D01*
X113647620Y-119802381D01*
X113504762Y-119754762D01*
X113409524Y-119659524D01*
X113361905Y-119564286D01*
X113314286Y-119373810D01*
X113314286Y-119230952D01*
X113361905Y-119040476D01*
X113409524Y-118945238D01*
X113504762Y-118850000D01*
X113647620Y-118802381D01*
X113742858Y-118802381D01*
X113885715Y-118850000D01*
X113933334Y-118897619D01*
X114838096Y-118802381D02*
X114361905Y-118802381D01*
X114314286Y-119278571D01*
X114361905Y-119230952D01*
X114457143Y-119183333D01*
X114695239Y-119183333D01*
X114790477Y-119230952D01*
X114838096Y-119278571D01*
X114885715Y-119373810D01*
X114885715Y-119611905D01*
X114838096Y-119707143D01*
X114790477Y-119754762D01*
X114695239Y-119802381D01*
X114457143Y-119802381D01*
X114361905Y-119754762D01*
X114314286Y-119707143D01*
X156933334Y-126557143D02*
X156885715Y-126604762D01*
X156742858Y-126652381D01*
X156647620Y-126652381D01*
X156504762Y-126604762D01*
X156409524Y-126509524D01*
X156361905Y-126414286D01*
X156314286Y-126223810D01*
X156314286Y-126080952D01*
X156361905Y-125890476D01*
X156409524Y-125795238D01*
X156504762Y-125700000D01*
X156647620Y-125652381D01*
X156742858Y-125652381D01*
X156885715Y-125700000D01*
X156933334Y-125747619D01*
X157790477Y-125652381D02*
X157600000Y-125652381D01*
X157504762Y-125700000D01*
X157457143Y-125747619D01*
X157361905Y-125890476D01*
X157314286Y-126080952D01*
X157314286Y-126461905D01*
X157361905Y-126557143D01*
X157409524Y-126604762D01*
X157504762Y-126652381D01*
X157695239Y-126652381D01*
X157790477Y-126604762D01*
X157838096Y-126557143D01*
X157885715Y-126461905D01*
X157885715Y-126223810D01*
X157838096Y-126128571D01*
X157790477Y-126080952D01*
X157695239Y-126033333D01*
X157504762Y-126033333D01*
X157409524Y-126080952D01*
X157361905Y-126128571D01*
X157314286Y-126223810D01*
X114083334Y-123157143D02*
X114035715Y-123204762D01*
X113892858Y-123252381D01*
X113797620Y-123252381D01*
X113654762Y-123204762D01*
X113559524Y-123109524D01*
X113511905Y-123014286D01*
X113464286Y-122823810D01*
X113464286Y-122680952D01*
X113511905Y-122490476D01*
X113559524Y-122395238D01*
X113654762Y-122300000D01*
X113797620Y-122252381D01*
X113892858Y-122252381D01*
X114035715Y-122300000D01*
X114083334Y-122347619D01*
X114416667Y-122252381D02*
X115083334Y-122252381D01*
X114654762Y-123252381D01*
X142985715Y-78056183D02*
X142938096Y-78103802D01*
X142795239Y-78151421D01*
X142700001Y-78151421D01*
X142557143Y-78103802D01*
X142461905Y-78008564D01*
X142414286Y-77913326D01*
X142366667Y-77722850D01*
X142366667Y-77579992D01*
X142414286Y-77389516D01*
X142461905Y-77294278D01*
X142557143Y-77199040D01*
X142700001Y-77151421D01*
X142795239Y-77151421D01*
X142938096Y-77199040D01*
X142985715Y-77246659D01*
X143604762Y-77151421D02*
X143795239Y-77151421D01*
X143890477Y-77199040D01*
X143985715Y-77294278D01*
X144033334Y-77484754D01*
X144033334Y-77818088D01*
X143985715Y-78008564D01*
X143890477Y-78103802D01*
X143795239Y-78151421D01*
X143604762Y-78151421D01*
X143509524Y-78103802D01*
X143414286Y-78008564D01*
X143366667Y-77818088D01*
X143366667Y-77484754D01*
X143414286Y-77294278D01*
X143509524Y-77199040D01*
X143604762Y-77151421D01*
X144461905Y-78151421D02*
X144461905Y-77151421D01*
X145033334Y-78151421D01*
X145033334Y-77151421D01*
X146033334Y-78151421D02*
X145461905Y-78151421D01*
X145747619Y-78151421D02*
X145747619Y-77151421D01*
X145652381Y-77294278D01*
X145557143Y-77389516D01*
X145461905Y-77437135D01*
X135852381Y-139638095D02*
X134852381Y-139638095D01*
X134852381Y-139400000D01*
X134900000Y-139257142D01*
X134995238Y-139161904D01*
X135090476Y-139114285D01*
X135280952Y-139066666D01*
X135423810Y-139066666D01*
X135614286Y-139114285D01*
X135709524Y-139161904D01*
X135804762Y-139257142D01*
X135852381Y-139400000D01*
X135852381Y-139638095D01*
X135852381Y-138114285D02*
X135852381Y-138685714D01*
X135852381Y-138400000D02*
X134852381Y-138400000D01*
X134995238Y-138495238D01*
X135090476Y-138590476D01*
X135138095Y-138685714D01*
D10*
X161483334Y-96616667D02*
X161483334Y-95916667D01*
X161650000Y-95916667D01*
X161750000Y-95950000D01*
X161816667Y-96016667D01*
X161850000Y-96083333D01*
X161883334Y-96216667D01*
X161883334Y-96316667D01*
X161850000Y-96450000D01*
X161816667Y-96516667D01*
X161750000Y-96583333D01*
X161650000Y-96616667D01*
X161483334Y-96616667D01*
X162150000Y-95983333D02*
X162183334Y-95950000D01*
X162250000Y-95916667D01*
X162416667Y-95916667D01*
X162483334Y-95950000D01*
X162516667Y-95983333D01*
X162550000Y-96050000D01*
X162550000Y-96116667D01*
X162516667Y-96216667D01*
X162116667Y-96616667D01*
X162550000Y-96616667D01*
D13*
X150952381Y-65188095D02*
X149952381Y-65188095D01*
X149952381Y-64950000D01*
X150000000Y-64807142D01*
X150095238Y-64711904D01*
X150190476Y-64664285D01*
X150380952Y-64616666D01*
X150523810Y-64616666D01*
X150714286Y-64664285D01*
X150809524Y-64711904D01*
X150904762Y-64807142D01*
X150952381Y-64950000D01*
X150952381Y-65188095D01*
X149952381Y-64283333D02*
X149952381Y-63664285D01*
X150333333Y-63997619D01*
X150333333Y-63854761D01*
X150380952Y-63759523D01*
X150428571Y-63711904D01*
X150523810Y-63664285D01*
X150761905Y-63664285D01*
X150857143Y-63711904D01*
X150904762Y-63759523D01*
X150952381Y-63854761D01*
X150952381Y-64140476D01*
X150904762Y-64235714D01*
X150857143Y-64283333D01*
X137033334Y-88702381D02*
X136557143Y-88702381D01*
X136557143Y-87702381D01*
X137890477Y-88702381D02*
X137319048Y-88702381D01*
X137604762Y-88702381D02*
X137604762Y-87702381D01*
X137509524Y-87845238D01*
X137414286Y-87940476D01*
X137319048Y-87988095D01*
X152061905Y-73652381D02*
X152061905Y-72652381D01*
X152442858Y-72652381D01*
X152538096Y-72700000D01*
X152585715Y-72747619D01*
X152633334Y-72842857D01*
X152633334Y-72985714D01*
X152585715Y-73080952D01*
X152538096Y-73128571D01*
X152442858Y-73176190D01*
X152061905Y-73176190D01*
X153014286Y-72747619D02*
X153061905Y-72700000D01*
X153157143Y-72652381D01*
X153395239Y-72652381D01*
X153490477Y-72700000D01*
X153538096Y-72747619D01*
X153585715Y-72842857D01*
X153585715Y-72938095D01*
X153538096Y-73080952D01*
X152966667Y-73652381D01*
X153585715Y-73652381D01*
D10*
X158450001Y-102316667D02*
X158450001Y-101616667D01*
X158683334Y-102116667D01*
X158916667Y-101616667D01*
X158916667Y-102316667D01*
X159650001Y-102250000D02*
X159616667Y-102283333D01*
X159516667Y-102316667D01*
X159450001Y-102316667D01*
X159350001Y-102283333D01*
X159283334Y-102216667D01*
X159250001Y-102150000D01*
X159216667Y-102016667D01*
X159216667Y-101916667D01*
X159250001Y-101783333D01*
X159283334Y-101716667D01*
X159350001Y-101650000D01*
X159450001Y-101616667D01*
X159516667Y-101616667D01*
X159616667Y-101650000D01*
X159650001Y-101683333D01*
X159950001Y-101616667D02*
X159950001Y-102183333D01*
X159983334Y-102250000D01*
X160016667Y-102283333D01*
X160083334Y-102316667D01*
X160216667Y-102316667D01*
X160283334Y-102283333D01*
X160316667Y-102250000D01*
X160350001Y-102183333D01*
X160350001Y-101616667D01*
X160583334Y-101616667D02*
X160983334Y-101616667D01*
X160783334Y-102316667D02*
X160783334Y-101616667D01*
X161150000Y-101616667D02*
X161616667Y-102316667D01*
X161616667Y-101616667D02*
X161150000Y-102316667D01*
X153866667Y-102366667D02*
X153866667Y-101666667D01*
X154100000Y-102166667D01*
X154333333Y-101666667D01*
X154333333Y-102366667D01*
X155066667Y-102300000D02*
X155033333Y-102333333D01*
X154933333Y-102366667D01*
X154866667Y-102366667D01*
X154766667Y-102333333D01*
X154700000Y-102266667D01*
X154666667Y-102200000D01*
X154633333Y-102066667D01*
X154633333Y-101966667D01*
X154666667Y-101833333D01*
X154700000Y-101766667D01*
X154766667Y-101700000D01*
X154866667Y-101666667D01*
X154933333Y-101666667D01*
X155033333Y-101700000D01*
X155066667Y-101733333D01*
X155366667Y-101666667D02*
X155366667Y-102233333D01*
X155400000Y-102300000D01*
X155433333Y-102333333D01*
X155500000Y-102366667D01*
X155633333Y-102366667D01*
X155700000Y-102333333D01*
X155733333Y-102300000D01*
X155766667Y-102233333D01*
X155766667Y-101666667D01*
X156500000Y-102366667D02*
X156266666Y-102033333D01*
X156100000Y-102366667D02*
X156100000Y-101666667D01*
X156366666Y-101666667D01*
X156433333Y-101700000D01*
X156466666Y-101733333D01*
X156500000Y-101800000D01*
X156500000Y-101900000D01*
X156466666Y-101966667D01*
X156433333Y-102000000D01*
X156366666Y-102033333D01*
X156100000Y-102033333D01*
X156733333Y-101666667D02*
X157200000Y-102366667D01*
X157200000Y-101666667D02*
X156733333Y-102366667D01*
D13*
X123783334Y-84102381D02*
X123450000Y-83626190D01*
X123211905Y-84102381D02*
X123211905Y-83102381D01*
X123592858Y-83102381D01*
X123688096Y-83150000D01*
X123735715Y-83197619D01*
X123783334Y-83292857D01*
X123783334Y-83435714D01*
X123735715Y-83530952D01*
X123688096Y-83578571D01*
X123592858Y-83626190D01*
X123211905Y-83626190D01*
X124735715Y-84102381D02*
X124164286Y-84102381D01*
X124450000Y-84102381D02*
X124450000Y-83102381D01*
X124354762Y-83245238D01*
X124259524Y-83340476D01*
X124164286Y-83388095D01*
X127033334Y-79802381D02*
X126700000Y-79326190D01*
X126461905Y-79802381D02*
X126461905Y-78802381D01*
X126842858Y-78802381D01*
X126938096Y-78850000D01*
X126985715Y-78897619D01*
X127033334Y-78992857D01*
X127033334Y-79135714D01*
X126985715Y-79230952D01*
X126938096Y-79278571D01*
X126842858Y-79326190D01*
X126461905Y-79326190D01*
X127414286Y-78897619D02*
X127461905Y-78850000D01*
X127557143Y-78802381D01*
X127795239Y-78802381D01*
X127890477Y-78850000D01*
X127938096Y-78897619D01*
X127985715Y-78992857D01*
X127985715Y-79088095D01*
X127938096Y-79230952D01*
X127366667Y-79802381D01*
X127985715Y-79802381D01*
X143033334Y-91952381D02*
X142700000Y-91476190D01*
X142461905Y-91952381D02*
X142461905Y-90952381D01*
X142842858Y-90952381D01*
X142938096Y-91000000D01*
X142985715Y-91047619D01*
X143033334Y-91142857D01*
X143033334Y-91285714D01*
X142985715Y-91380952D01*
X142938096Y-91428571D01*
X142842858Y-91476190D01*
X142461905Y-91476190D01*
X143890477Y-91285714D02*
X143890477Y-91952381D01*
X143652381Y-90904762D02*
X143414286Y-91619048D01*
X144033334Y-91619048D01*
X141252381Y-136916666D02*
X140776190Y-137250000D01*
X141252381Y-137488095D02*
X140252381Y-137488095D01*
X140252381Y-137107142D01*
X140300000Y-137011904D01*
X140347619Y-136964285D01*
X140442857Y-136916666D01*
X140585714Y-136916666D01*
X140680952Y-136964285D01*
X140728571Y-137011904D01*
X140776190Y-137107142D01*
X140776190Y-137488095D01*
X140252381Y-136011904D02*
X140252381Y-136488095D01*
X140728571Y-136535714D01*
X140680952Y-136488095D01*
X140633333Y-136392857D01*
X140633333Y-136154761D01*
X140680952Y-136059523D01*
X140728571Y-136011904D01*
X140823810Y-135964285D01*
X141061905Y-135964285D01*
X141157143Y-136011904D01*
X141204762Y-136059523D01*
X141252381Y-136154761D01*
X141252381Y-136392857D01*
X141204762Y-136488095D01*
X141157143Y-136535714D01*
D10*
X161883334Y-98266667D02*
X161650000Y-97933333D01*
X161483334Y-98266667D02*
X161483334Y-97566667D01*
X161750000Y-97566667D01*
X161816667Y-97600000D01*
X161850000Y-97633333D01*
X161883334Y-97700000D01*
X161883334Y-97800000D01*
X161850000Y-97866667D01*
X161816667Y-97900000D01*
X161750000Y-97933333D01*
X161483334Y-97933333D01*
X162483334Y-97566667D02*
X162350000Y-97566667D01*
X162283334Y-97600000D01*
X162250000Y-97633333D01*
X162183334Y-97733333D01*
X162150000Y-97866667D01*
X162150000Y-98133333D01*
X162183334Y-98200000D01*
X162216667Y-98233333D01*
X162283334Y-98266667D01*
X162416667Y-98266667D01*
X162483334Y-98233333D01*
X162516667Y-98200000D01*
X162550000Y-98133333D01*
X162550000Y-97966667D01*
X162516667Y-97900000D01*
X162483334Y-97866667D01*
X162416667Y-97833333D01*
X162283334Y-97833333D01*
X162216667Y-97866667D01*
X162183334Y-97900000D01*
X162150000Y-97966667D01*
D13*
X150952381Y-67266666D02*
X150476190Y-67600000D01*
X150952381Y-67838095D02*
X149952381Y-67838095D01*
X149952381Y-67457142D01*
X150000000Y-67361904D01*
X150047619Y-67314285D01*
X150142857Y-67266666D01*
X150285714Y-67266666D01*
X150380952Y-67314285D01*
X150428571Y-67361904D01*
X150476190Y-67457142D01*
X150476190Y-67838095D01*
X149952381Y-66933333D02*
X149952381Y-66266666D01*
X150952381Y-66695238D01*
X128738095Y-81952381D02*
X128738095Y-82761905D01*
X128785714Y-82857143D01*
X128833333Y-82904762D01*
X128928571Y-82952381D01*
X129119048Y-82952381D01*
X129214286Y-82904762D01*
X129261905Y-82857143D01*
X129309524Y-82761905D01*
X129309524Y-81952381D01*
X130309524Y-82952381D02*
X129738095Y-82952381D01*
X130023809Y-82952381D02*
X130023809Y-81952381D01*
X129928571Y-82095238D01*
X129833333Y-82190476D01*
X129738095Y-82238095D01*
X146867381Y-87811905D02*
X147676905Y-87811905D01*
X147772143Y-87764286D01*
X147819762Y-87716667D01*
X147867381Y-87621429D01*
X147867381Y-87430952D01*
X147819762Y-87335714D01*
X147772143Y-87288095D01*
X147676905Y-87240476D01*
X146867381Y-87240476D01*
X146962619Y-86811905D02*
X146915000Y-86764286D01*
X146867381Y-86669048D01*
X146867381Y-86430952D01*
X146915000Y-86335714D01*
X146962619Y-86288095D01*
X147057857Y-86240476D01*
X147153095Y-86240476D01*
X147295952Y-86288095D01*
X147867381Y-86859524D01*
X147867381Y-86240476D01*
X156333334Y-85407143D02*
X156285715Y-85454762D01*
X156142858Y-85502381D01*
X156047620Y-85502381D01*
X155904762Y-85454762D01*
X155809524Y-85359524D01*
X155761905Y-85264286D01*
X155714286Y-85073810D01*
X155714286Y-84930952D01*
X155761905Y-84740476D01*
X155809524Y-84645238D01*
X155904762Y-84550000D01*
X156047620Y-84502381D01*
X156142858Y-84502381D01*
X156285715Y-84550000D01*
X156333334Y-84597619D01*
X156904762Y-84930952D02*
X156809524Y-84883333D01*
X156761905Y-84835714D01*
X156714286Y-84740476D01*
X156714286Y-84692857D01*
X156761905Y-84597619D01*
X156809524Y-84550000D01*
X156904762Y-84502381D01*
X157095239Y-84502381D01*
X157190477Y-84550000D01*
X157238096Y-84597619D01*
X157285715Y-84692857D01*
X157285715Y-84740476D01*
X157238096Y-84835714D01*
X157190477Y-84883333D01*
X157095239Y-84930952D01*
X156904762Y-84930952D01*
X156809524Y-84978571D01*
X156761905Y-85026190D01*
X156714286Y-85121429D01*
X156714286Y-85311905D01*
X156761905Y-85407143D01*
X156809524Y-85454762D01*
X156904762Y-85502381D01*
X157095239Y-85502381D01*
X157190477Y-85454762D01*
X157238096Y-85407143D01*
X157285715Y-85311905D01*
X157285715Y-85121429D01*
X157238096Y-85026190D01*
X157190477Y-84978571D01*
X157095239Y-84930952D01*
X150338095Y-95652381D02*
X150338095Y-96461905D01*
X150385714Y-96557143D01*
X150433333Y-96604762D01*
X150528571Y-96652381D01*
X150719048Y-96652381D01*
X150814286Y-96604762D01*
X150861905Y-96557143D01*
X150909524Y-96461905D01*
X150909524Y-95652381D01*
X151814286Y-95985714D02*
X151814286Y-96652381D01*
X151576190Y-95604762D02*
X151338095Y-96319048D01*
X151957143Y-96319048D01*
X158552381Y-114011905D02*
X159361905Y-114011905D01*
X159457143Y-113964286D01*
X159504762Y-113916667D01*
X159552381Y-113821429D01*
X159552381Y-113630952D01*
X159504762Y-113535714D01*
X159457143Y-113488095D01*
X159361905Y-113440476D01*
X158552381Y-113440476D01*
X158552381Y-112488095D02*
X158552381Y-112964286D01*
X159028571Y-113011905D01*
X158980952Y-112964286D01*
X158933333Y-112869048D01*
X158933333Y-112630952D01*
X158980952Y-112535714D01*
X159028571Y-112488095D01*
X159123810Y-112440476D01*
X159361905Y-112440476D01*
X159457143Y-112488095D01*
X159504762Y-112535714D01*
X159552381Y-112630952D01*
X159552381Y-112869048D01*
X159504762Y-112964286D01*
X159457143Y-113011905D01*
X99428571Y-124904762D02*
X99571428Y-124952381D01*
X99809524Y-124952381D01*
X99904762Y-124904762D01*
X99952381Y-124857143D01*
X100000000Y-124761905D01*
X100000000Y-124666667D01*
X99952381Y-124571429D01*
X99904762Y-124523810D01*
X99809524Y-124476190D01*
X99619047Y-124428571D01*
X99523809Y-124380952D01*
X99476190Y-124333333D01*
X99428571Y-124238095D01*
X99428571Y-124142857D01*
X99476190Y-124047619D01*
X99523809Y-124000000D01*
X99619047Y-123952381D01*
X99857143Y-123952381D01*
X100000000Y-124000000D01*
X100333333Y-124285714D02*
X100523809Y-124952381D01*
X100714286Y-124476190D01*
X100904762Y-124952381D01*
X101095238Y-124285714D01*
X101476190Y-124952381D02*
X101476190Y-124285714D01*
X101476190Y-123952381D02*
X101428571Y-124000000D01*
X101476190Y-124047619D01*
X101523809Y-124000000D01*
X101476190Y-123952381D01*
X101476190Y-124047619D01*
X101809523Y-124285714D02*
X102190475Y-124285714D01*
X101952380Y-123952381D02*
X101952380Y-124809524D01*
X101999999Y-124904762D01*
X102095237Y-124952381D01*
X102190475Y-124952381D01*
X102952381Y-124904762D02*
X102857143Y-124952381D01*
X102666666Y-124952381D01*
X102571428Y-124904762D01*
X102523809Y-124857143D01*
X102476190Y-124761905D01*
X102476190Y-124476190D01*
X102523809Y-124380952D01*
X102571428Y-124333333D01*
X102666666Y-124285714D01*
X102857143Y-124285714D01*
X102952381Y-124333333D01*
X103380952Y-124952381D02*
X103380952Y-123952381D01*
X103809524Y-124952381D02*
X103809524Y-124428571D01*
X103761905Y-124333333D01*
X103666667Y-124285714D01*
X103523809Y-124285714D01*
X103428571Y-124333333D01*
X103380952Y-124380952D01*
X105000000Y-124285714D02*
X105714286Y-124285714D01*
X105285714Y-123857143D02*
X105000000Y-125142857D01*
X105619048Y-124714286D02*
X104904762Y-124714286D01*
X105333334Y-125142857D02*
X105619048Y-123857143D01*
X106571429Y-124952381D02*
X106000000Y-124952381D01*
X106285714Y-124952381D02*
X106285714Y-123952381D01*
X106190476Y-124095238D01*
X106095238Y-124190476D01*
X106000000Y-124238095D01*
X99178571Y-110004762D02*
X99321428Y-110052381D01*
X99559524Y-110052381D01*
X99654762Y-110004762D01*
X99702381Y-109957143D01*
X99750000Y-109861905D01*
X99750000Y-109766667D01*
X99702381Y-109671429D01*
X99654762Y-109623810D01*
X99559524Y-109576190D01*
X99369047Y-109528571D01*
X99273809Y-109480952D01*
X99226190Y-109433333D01*
X99178571Y-109338095D01*
X99178571Y-109242857D01*
X99226190Y-109147619D01*
X99273809Y-109100000D01*
X99369047Y-109052381D01*
X99607143Y-109052381D01*
X99750000Y-109100000D01*
X100083333Y-109385714D02*
X100273809Y-110052381D01*
X100464286Y-109576190D01*
X100654762Y-110052381D01*
X100845238Y-109385714D01*
X101226190Y-110052381D02*
X101226190Y-109385714D01*
X101226190Y-109052381D02*
X101178571Y-109100000D01*
X101226190Y-109147619D01*
X101273809Y-109100000D01*
X101226190Y-109052381D01*
X101226190Y-109147619D01*
X101559523Y-109385714D02*
X101940475Y-109385714D01*
X101702380Y-109052381D02*
X101702380Y-109909524D01*
X101749999Y-110004762D01*
X101845237Y-110052381D01*
X101940475Y-110052381D01*
X102702381Y-110004762D02*
X102607143Y-110052381D01*
X102416666Y-110052381D01*
X102321428Y-110004762D01*
X102273809Y-109957143D01*
X102226190Y-109861905D01*
X102226190Y-109576190D01*
X102273809Y-109480952D01*
X102321428Y-109433333D01*
X102416666Y-109385714D01*
X102607143Y-109385714D01*
X102702381Y-109433333D01*
X103130952Y-110052381D02*
X103130952Y-109052381D01*
X103559524Y-110052381D02*
X103559524Y-109528571D01*
X103511905Y-109433333D01*
X103416667Y-109385714D01*
X103273809Y-109385714D01*
X103178571Y-109433333D01*
X103130952Y-109480952D01*
X104750000Y-109385714D02*
X105464286Y-109385714D01*
X105035714Y-108957143D02*
X104750000Y-110242857D01*
X105369048Y-109814286D02*
X104654762Y-109814286D01*
X105083334Y-110242857D02*
X105369048Y-108957143D01*
X105750000Y-109147619D02*
X105797619Y-109100000D01*
X105892857Y-109052381D01*
X106130953Y-109052381D01*
X106226191Y-109100000D01*
X106273810Y-109147619D01*
X106321429Y-109242857D01*
X106321429Y-109338095D01*
X106273810Y-109480952D01*
X105702381Y-110052381D01*
X106321429Y-110052381D01*
X99278571Y-94254762D02*
X99421428Y-94302381D01*
X99659524Y-94302381D01*
X99754762Y-94254762D01*
X99802381Y-94207143D01*
X99850000Y-94111905D01*
X99850000Y-94016667D01*
X99802381Y-93921429D01*
X99754762Y-93873810D01*
X99659524Y-93826190D01*
X99469047Y-93778571D01*
X99373809Y-93730952D01*
X99326190Y-93683333D01*
X99278571Y-93588095D01*
X99278571Y-93492857D01*
X99326190Y-93397619D01*
X99373809Y-93350000D01*
X99469047Y-93302381D01*
X99707143Y-93302381D01*
X99850000Y-93350000D01*
X100183333Y-93635714D02*
X100373809Y-94302381D01*
X100564286Y-93826190D01*
X100754762Y-94302381D01*
X100945238Y-93635714D01*
X101326190Y-94302381D02*
X101326190Y-93635714D01*
X101326190Y-93302381D02*
X101278571Y-93350000D01*
X101326190Y-93397619D01*
X101373809Y-93350000D01*
X101326190Y-93302381D01*
X101326190Y-93397619D01*
X101659523Y-93635714D02*
X102040475Y-93635714D01*
X101802380Y-93302381D02*
X101802380Y-94159524D01*
X101849999Y-94254762D01*
X101945237Y-94302381D01*
X102040475Y-94302381D01*
X102802381Y-94254762D02*
X102707143Y-94302381D01*
X102516666Y-94302381D01*
X102421428Y-94254762D01*
X102373809Y-94207143D01*
X102326190Y-94111905D01*
X102326190Y-93826190D01*
X102373809Y-93730952D01*
X102421428Y-93683333D01*
X102516666Y-93635714D01*
X102707143Y-93635714D01*
X102802381Y-93683333D01*
X103230952Y-94302381D02*
X103230952Y-93302381D01*
X103659524Y-94302381D02*
X103659524Y-93778571D01*
X103611905Y-93683333D01*
X103516667Y-93635714D01*
X103373809Y-93635714D01*
X103278571Y-93683333D01*
X103230952Y-93730952D01*
X104850000Y-93635714D02*
X105564286Y-93635714D01*
X105135714Y-93207143D02*
X104850000Y-94492857D01*
X105469048Y-94064286D02*
X104754762Y-94064286D01*
X105183334Y-94492857D02*
X105469048Y-93207143D01*
X105802381Y-93302381D02*
X106421429Y-93302381D01*
X106088095Y-93683333D01*
X106230953Y-93683333D01*
X106326191Y-93730952D01*
X106373810Y-93778571D01*
X106421429Y-93873810D01*
X106421429Y-94111905D01*
X106373810Y-94207143D01*
X106326191Y-94254762D01*
X106230953Y-94302381D01*
X105945238Y-94302381D01*
X105850000Y-94254762D01*
X105802381Y-94207143D01*
X129511905Y-72352381D02*
X129511905Y-71352381D01*
X129892858Y-71352381D01*
X129988096Y-71400000D01*
X130035715Y-71447619D01*
X130083334Y-71542857D01*
X130083334Y-71685714D01*
X130035715Y-71780952D01*
X129988096Y-71828571D01*
X129892858Y-71876190D01*
X129511905Y-71876190D01*
X130988096Y-71352381D02*
X130511905Y-71352381D01*
X130464286Y-71828571D01*
X130511905Y-71780952D01*
X130607143Y-71733333D01*
X130845239Y-71733333D01*
X130940477Y-71780952D01*
X130988096Y-71828571D01*
X131035715Y-71923810D01*
X131035715Y-72161905D01*
X130988096Y-72257143D01*
X130940477Y-72304762D01*
X130845239Y-72352381D01*
X130607143Y-72352381D01*
X130511905Y-72304762D01*
X130464286Y-72257143D01*
D10*
X161383334Y-92866667D02*
X161383334Y-92166667D01*
X161550000Y-92166667D01*
X161650000Y-92200000D01*
X161716667Y-92266667D01*
X161750000Y-92333333D01*
X161783334Y-92466667D01*
X161783334Y-92566667D01*
X161750000Y-92700000D01*
X161716667Y-92766667D01*
X161650000Y-92833333D01*
X161550000Y-92866667D01*
X161383334Y-92866667D01*
X162383334Y-92400000D02*
X162383334Y-92866667D01*
X162216667Y-92133333D02*
X162050000Y-92633333D01*
X162483334Y-92633333D01*
X161483334Y-90266667D02*
X161483334Y-89566667D01*
X161650000Y-89566667D01*
X161750000Y-89600000D01*
X161816667Y-89666667D01*
X161850000Y-89733333D01*
X161883334Y-89866667D01*
X161883334Y-89966667D01*
X161850000Y-90100000D01*
X161816667Y-90166667D01*
X161750000Y-90233333D01*
X161650000Y-90266667D01*
X161483334Y-90266667D01*
X162516667Y-89566667D02*
X162183334Y-89566667D01*
X162150000Y-89900000D01*
X162183334Y-89866667D01*
X162250000Y-89833333D01*
X162416667Y-89833333D01*
X162483334Y-89866667D01*
X162516667Y-89900000D01*
X162550000Y-89966667D01*
X162550000Y-90133333D01*
X162516667Y-90200000D01*
X162483334Y-90233333D01*
X162416667Y-90266667D01*
X162250000Y-90266667D01*
X162183334Y-90233333D01*
X162150000Y-90200000D01*
X161933334Y-94416667D02*
X161700000Y-94083333D01*
X161533334Y-94416667D02*
X161533334Y-93716667D01*
X161800000Y-93716667D01*
X161866667Y-93750000D01*
X161900000Y-93783333D01*
X161933334Y-93850000D01*
X161933334Y-93950000D01*
X161900000Y-94016667D01*
X161866667Y-94050000D01*
X161800000Y-94083333D01*
X161533334Y-94083333D01*
X162166667Y-93716667D02*
X162600000Y-93716667D01*
X162366667Y-93983333D01*
X162466667Y-93983333D01*
X162533334Y-94016667D01*
X162566667Y-94050000D01*
X162600000Y-94116667D01*
X162600000Y-94283333D01*
X162566667Y-94350000D01*
X162533334Y-94383333D01*
X162466667Y-94416667D01*
X162266667Y-94416667D01*
X162200000Y-94383333D01*
X162166667Y-94350000D01*
X161783334Y-88716667D02*
X161550000Y-88383333D01*
X161383334Y-88716667D02*
X161383334Y-88016667D01*
X161650000Y-88016667D01*
X161716667Y-88050000D01*
X161750000Y-88083333D01*
X161783334Y-88150000D01*
X161783334Y-88250000D01*
X161750000Y-88316667D01*
X161716667Y-88350000D01*
X161650000Y-88383333D01*
X161383334Y-88383333D01*
X162183334Y-88316667D02*
X162116667Y-88283333D01*
X162083334Y-88250000D01*
X162050000Y-88183333D01*
X162050000Y-88150000D01*
X162083334Y-88083333D01*
X162116667Y-88050000D01*
X162183334Y-88016667D01*
X162316667Y-88016667D01*
X162383334Y-88050000D01*
X162416667Y-88083333D01*
X162450000Y-88150000D01*
X162450000Y-88183333D01*
X162416667Y-88250000D01*
X162383334Y-88283333D01*
X162316667Y-88316667D01*
X162183334Y-88316667D01*
X162116667Y-88350000D01*
X162083334Y-88383333D01*
X162050000Y-88450000D01*
X162050000Y-88583333D01*
X162083334Y-88650000D01*
X162116667Y-88683333D01*
X162183334Y-88716667D01*
X162316667Y-88716667D01*
X162383334Y-88683333D01*
X162416667Y-88650000D01*
X162450000Y-88583333D01*
X162450000Y-88450000D01*
X162416667Y-88383333D01*
X162383334Y-88350000D01*
X162316667Y-88316667D01*
D13*
X154004762Y-93747619D02*
X153909524Y-93700000D01*
X153814286Y-93604762D01*
X153671429Y-93461905D01*
X153576190Y-93414286D01*
X153480952Y-93414286D01*
X153528571Y-93652381D02*
X153433333Y-93604762D01*
X153338095Y-93509524D01*
X153290476Y-93319048D01*
X153290476Y-92985714D01*
X153338095Y-92795238D01*
X153433333Y-92700000D01*
X153528571Y-92652381D01*
X153719048Y-92652381D01*
X153814286Y-92700000D01*
X153909524Y-92795238D01*
X153957143Y-92985714D01*
X153957143Y-93319048D01*
X153909524Y-93509524D01*
X153814286Y-93604762D01*
X153719048Y-93652381D01*
X153528571Y-93652381D01*
X154814286Y-92652381D02*
X154623809Y-92652381D01*
X154528571Y-92700000D01*
X154480952Y-92747619D01*
X154385714Y-92890476D01*
X154338095Y-93080952D01*
X154338095Y-93461905D01*
X154385714Y-93557143D01*
X154433333Y-93604762D01*
X154528571Y-93652381D01*
X154719048Y-93652381D01*
X154814286Y-93604762D01*
X154861905Y-93557143D01*
X154909524Y-93461905D01*
X154909524Y-93223810D01*
X154861905Y-93128571D01*
X154814286Y-93080952D01*
X154719048Y-93033333D01*
X154528571Y-93033333D01*
X154433333Y-93080952D01*
X154385714Y-93128571D01*
X154338095Y-93223810D01*
X154004762Y-89547619D02*
X153909524Y-89500000D01*
X153814286Y-89404762D01*
X153671429Y-89261905D01*
X153576190Y-89214286D01*
X153480952Y-89214286D01*
X153528571Y-89452381D02*
X153433333Y-89404762D01*
X153338095Y-89309524D01*
X153290476Y-89119048D01*
X153290476Y-88785714D01*
X153338095Y-88595238D01*
X153433333Y-88500000D01*
X153528571Y-88452381D01*
X153719048Y-88452381D01*
X153814286Y-88500000D01*
X153909524Y-88595238D01*
X153957143Y-88785714D01*
X153957143Y-89119048D01*
X153909524Y-89309524D01*
X153814286Y-89404762D01*
X153719048Y-89452381D01*
X153528571Y-89452381D01*
X154290476Y-88452381D02*
X154957143Y-88452381D01*
X154528571Y-89452381D01*
X139497619Y-132595238D02*
X139450000Y-132690476D01*
X139354762Y-132785714D01*
X139211905Y-132928571D01*
X139164286Y-133023810D01*
X139164286Y-133119048D01*
X139402381Y-133071429D02*
X139354762Y-133166667D01*
X139259524Y-133261905D01*
X139069048Y-133309524D01*
X138735714Y-133309524D01*
X138545238Y-133261905D01*
X138450000Y-133166667D01*
X138402381Y-133071429D01*
X138402381Y-132880952D01*
X138450000Y-132785714D01*
X138545238Y-132690476D01*
X138735714Y-132642857D01*
X139069048Y-132642857D01*
X139259524Y-132690476D01*
X139354762Y-132785714D01*
X139402381Y-132880952D01*
X139402381Y-133071429D01*
X138497619Y-132261905D02*
X138450000Y-132214286D01*
X138402381Y-132119048D01*
X138402381Y-131880952D01*
X138450000Y-131785714D01*
X138497619Y-131738095D01*
X138592857Y-131690476D01*
X138688095Y-131690476D01*
X138830952Y-131738095D01*
X139402381Y-132309524D01*
X139402381Y-131690476D01*
X154004762Y-97447619D02*
X153909524Y-97400000D01*
X153814286Y-97304762D01*
X153671429Y-97161905D01*
X153576190Y-97114286D01*
X153480952Y-97114286D01*
X153528571Y-97352381D02*
X153433333Y-97304762D01*
X153338095Y-97209524D01*
X153290476Y-97019048D01*
X153290476Y-96685714D01*
X153338095Y-96495238D01*
X153433333Y-96400000D01*
X153528571Y-96352381D01*
X153719048Y-96352381D01*
X153814286Y-96400000D01*
X153909524Y-96495238D01*
X153957143Y-96685714D01*
X153957143Y-97019048D01*
X153909524Y-97209524D01*
X153814286Y-97304762D01*
X153719048Y-97352381D01*
X153528571Y-97352381D01*
X154290476Y-96352381D02*
X154909524Y-96352381D01*
X154576190Y-96733333D01*
X154719048Y-96733333D01*
X154814286Y-96780952D01*
X154861905Y-96828571D01*
X154909524Y-96923810D01*
X154909524Y-97161905D01*
X154861905Y-97257143D01*
X154814286Y-97304762D01*
X154719048Y-97352381D01*
X154433333Y-97352381D01*
X154338095Y-97304762D01*
X154290476Y-97257143D01*
M02*
