M48
INCH,TZ
T1C0.016
T2C0.039
T3C0.040
T4C0.052
T5C0.118
%
G90
G05
T1
X33543Y-23858
X40630Y-24331
X40945Y-46614
X41260Y-17480
X41575Y-20630
X42283Y-36063
X42441Y-42205
X42913Y-21024
X44803Y-41811
X44803Y-45354
X46535Y-20945
X46693Y-42677
X47559Y-45276
X48346Y-47795
X48583Y-34567
X52126Y-33701
X53701Y-33622
X55669Y-33622
X56220Y-18346
X57244Y-33622
X57638Y-32677
X57874Y-47559
X57953Y-46299
X58110Y-34488
X58898Y-25591
X59449Y-44803
X60079Y-27480
X60157Y-31890
X60551Y-41969
X60630Y-36693
X60630Y-37480
X62677Y-42835
X62677Y-44331
X65748Y-28976
X65984Y-34252
X67323Y-34252
T3
X53602Y-30305
X53602Y-31305
X54874Y-25591
X55874Y-25591
X56535Y-29291
X56535Y-30291
X56874Y-25591
X57874Y-25591
X60157Y-30709
X61157Y-30709
X62126Y-39606
X62150Y-41260
X63126Y-39606
X63150Y-41260
T4
X32520Y-35984
X32520Y-37953
X32520Y-42126
X32520Y-44094
X32520Y-48031
X32520Y-50000
T5
X45433Y-49764
X48976Y-14961
X60787Y-49764
T2
X32362Y-19292G85X32362Y-20079
G05
X33150Y-21535G85X33937Y-21535
G05
X34724Y-19292G85X34724Y-20079
G05
T0
M30
