G04 #@! TF.FileFunction,Copper,L1,Top,Signal*
%FSLAX46Y46*%
G04 Gerber Fmt 4.6, Leading zero omitted, Abs format (unit mm)*
G04 Created by KiCad (PCBNEW (2015-05-05 BZR 5645)-product) date Wednesday, June 24, 2015 'pmt' 10:47:51 pm*
%MOMM*%
G01*
G04 APERTURE LIST*
%ADD10C,0.100000*%
%ADD11R,1.000000X1.600000*%
%ADD12R,1.000000X1.250000*%
%ADD13R,1.000000X2.500000*%
%ADD14R,3.500120X3.500120*%
%ADD15R,0.797560X0.797560*%
%ADD16R,2.600000X8.200000*%
%ADD17O,3.962400X1.981200*%
%ADD18R,1.727200X2.032000*%
%ADD19O,1.727200X2.032000*%
%ADD20R,2.032000X2.032000*%
%ADD21O,2.032000X2.032000*%
%ADD22R,2.700000X1.350000*%
%ADD23C,1.600200*%
%ADD24R,3.048000X1.651000*%
%ADD25R,6.096000X6.096000*%
%ADD26R,0.599440X1.000760*%
%ADD27R,0.400000X0.600000*%
%ADD28R,0.900000X0.500000*%
%ADD29R,0.500000X0.900000*%
%ADD30R,1.060000X0.650000*%
%ADD31R,1.270000X0.406400*%
%ADD32R,1.800000X0.600000*%
%ADD33R,0.600000X1.800000*%
%ADD34C,0.600000*%
%ADD35C,0.250000*%
%ADD36C,2.000000*%
%ADD37C,0.800000*%
%ADD38C,3.000000*%
%ADD39C,0.600000*%
%ADD40C,0.500000*%
%ADD41C,0.254000*%
G04 APERTURE END LIST*
D10*
D11*
X113100000Y-53200000D03*
X116100000Y-53200000D03*
D12*
X113400000Y-47000000D03*
X115400000Y-47000000D03*
D13*
X100700000Y-52400000D03*
X103700000Y-52400000D03*
D12*
X154800000Y-108800000D03*
X156800000Y-108800000D03*
X113800000Y-108400000D03*
X115800000Y-108400000D03*
X157000000Y-112600000D03*
X155000000Y-112600000D03*
X115800000Y-112800000D03*
X113800000Y-112800000D03*
D14*
X88200140Y-50000000D03*
X82200660Y-50000000D03*
X85200400Y-54699000D03*
D15*
X135800000Y-126650700D03*
X135800000Y-128149300D03*
X167600000Y-83450700D03*
X167600000Y-84949300D03*
X137221443Y-46575000D03*
X135722843Y-46575000D03*
D16*
X122600000Y-48600000D03*
X128200000Y-48600000D03*
D17*
X82600000Y-127000000D03*
X82600000Y-122000000D03*
D18*
X147000000Y-65000000D03*
D19*
X144460000Y-65000000D03*
X141920000Y-65000000D03*
X139380000Y-65000000D03*
D20*
X160400000Y-104800000D03*
D21*
X157860000Y-104800000D03*
D20*
X157800000Y-100600000D03*
D21*
X160340000Y-100600000D03*
D22*
X103200000Y-69540000D03*
X128000000Y-69540000D03*
X128000000Y-64460000D03*
X103200000Y-64460000D03*
X103200000Y-67000000D03*
X128000000Y-67000000D03*
D23*
X122860000Y-123860000D03*
X122860000Y-128940000D03*
X127940000Y-123860000D03*
X127940000Y-128940000D03*
X125400000Y-126400000D03*
X141860000Y-123860000D03*
X141860000Y-128940000D03*
X146940000Y-123860000D03*
X146940000Y-128940000D03*
X144400000Y-126400000D03*
D24*
X104213000Y-126486000D03*
D25*
X97863000Y-124200000D03*
D24*
X104213000Y-121914000D03*
D26*
X135149760Y-121250040D03*
X136450240Y-121250040D03*
X135800000Y-123149960D03*
X166949760Y-75650040D03*
X168250240Y-75650040D03*
X167600000Y-77549960D03*
D27*
X108150000Y-50000000D03*
X109050000Y-50000000D03*
X108150000Y-52200000D03*
X109050000Y-52200000D03*
X146750000Y-69200000D03*
X147650000Y-69200000D03*
X143550000Y-83000000D03*
X144450000Y-83000000D03*
D28*
X138000000Y-125550000D03*
X138000000Y-124050000D03*
X167600000Y-81350000D03*
X167600000Y-79850000D03*
D29*
X139250000Y-46600000D03*
X140750000Y-46600000D03*
D30*
X105900000Y-45050000D03*
X105900000Y-46000000D03*
X105900000Y-46950000D03*
X108100000Y-46950000D03*
X108100000Y-45050000D03*
X108100000Y-46000000D03*
D31*
X159867000Y-69721000D03*
X159867000Y-69086000D03*
X159867000Y-68425600D03*
X159867000Y-67765200D03*
X159867000Y-67130200D03*
X159867000Y-66469800D03*
X159867000Y-65809400D03*
X159867000Y-65174400D03*
X159867000Y-64514000D03*
X159867000Y-63879000D03*
X154533000Y-63879000D03*
X154533000Y-64514000D03*
X154533000Y-65174400D03*
X154533000Y-65809400D03*
X154533000Y-66469800D03*
X154533000Y-67130200D03*
X154533000Y-67765200D03*
X154533000Y-68425600D03*
X154533000Y-69086000D03*
X154533000Y-69721000D03*
D32*
X150900000Y-112200000D03*
X120900000Y-93200000D03*
D33*
X125400000Y-117700000D03*
X145400000Y-87700000D03*
X144400000Y-87700000D03*
X143400000Y-87700000D03*
X142400000Y-87700000D03*
X141400000Y-87700000D03*
X140400000Y-87700000D03*
X139400000Y-87700000D03*
X138400000Y-87700000D03*
X137400000Y-87700000D03*
X136400000Y-87700000D03*
X135400000Y-87700000D03*
X134400000Y-87700000D03*
X133400000Y-87700000D03*
X132400000Y-87700000D03*
X131400000Y-87700000D03*
X130400000Y-87700000D03*
X129400000Y-87700000D03*
X128400000Y-87700000D03*
X127400000Y-87700000D03*
X126400000Y-87700000D03*
X125400000Y-87700000D03*
X126400000Y-117700000D03*
X127400000Y-117700000D03*
X128400000Y-117700000D03*
X129400000Y-117700000D03*
X130400000Y-117700000D03*
X131400000Y-117700000D03*
X132400000Y-117700000D03*
X133400000Y-117700000D03*
X134400000Y-117700000D03*
X135400000Y-117700000D03*
X136400000Y-117700000D03*
X137400000Y-117700000D03*
X138400000Y-117700000D03*
X139400000Y-117700000D03*
X140400000Y-117700000D03*
X141400000Y-117700000D03*
X142400000Y-117700000D03*
X143400000Y-117700000D03*
X144400000Y-117700000D03*
X145400000Y-117700000D03*
D32*
X120900000Y-94200000D03*
X120900000Y-95200000D03*
X120900000Y-96200000D03*
X120900000Y-97200000D03*
X120900000Y-98200000D03*
X120900000Y-99200000D03*
X120900000Y-100200000D03*
X120900000Y-101200000D03*
X120900000Y-102200000D03*
X120900000Y-103200000D03*
X120900000Y-104200000D03*
X120900000Y-105200000D03*
X120900000Y-106200000D03*
X120900000Y-107200000D03*
X120900000Y-108200000D03*
X120900000Y-109200000D03*
X120900000Y-110200000D03*
X120900000Y-111200000D03*
X120900000Y-112200000D03*
X150900000Y-111200000D03*
X150900000Y-110200000D03*
X150900000Y-109200000D03*
X150900000Y-108200000D03*
X150900000Y-107200000D03*
X150900000Y-106200000D03*
X150900000Y-105200000D03*
X150900000Y-104200000D03*
X150900000Y-103200000D03*
X150900000Y-102200000D03*
X150900000Y-101200000D03*
X150900000Y-100200000D03*
X150900000Y-99200000D03*
X150900000Y-98200000D03*
X150900000Y-97200000D03*
X150900000Y-96200000D03*
X150900000Y-95200000D03*
X150900000Y-94200000D03*
X150900000Y-93200000D03*
D20*
X143600000Y-74400000D03*
D21*
X143600000Y-76940000D03*
D20*
X136148333Y-76975000D03*
D21*
X136148333Y-79515000D03*
D17*
X82600000Y-112000000D03*
X82600000Y-107000000D03*
X82600000Y-96400000D03*
X82600000Y-91400000D03*
D20*
X152800000Y-78000000D03*
D21*
X155340000Y-78000000D03*
D24*
X104013000Y-111686000D03*
D25*
X97663000Y-109400000D03*
D24*
X104013000Y-107114000D03*
X103613000Y-96086000D03*
D25*
X97263000Y-93800000D03*
D24*
X103613000Y-91514000D03*
D34*
X171000000Y-87000000D03*
X167600000Y-87000000D03*
X104000000Y-118400000D03*
X107800000Y-107200000D03*
X107400000Y-91600000D03*
X151000000Y-113800000D03*
X159200000Y-112600000D03*
X159200000Y-108800000D03*
X147200000Y-117600000D03*
X147000000Y-120800000D03*
X122800000Y-121400000D03*
X120800000Y-115000000D03*
X118600000Y-108400000D03*
X103200000Y-61800000D03*
X105600000Y-52400000D03*
X118200000Y-53200000D03*
X104800000Y-44400000D03*
X85200000Y-60600000D03*
X109000000Y-53400000D03*
X149600000Y-65000000D03*
X152600000Y-69800000D03*
X152800000Y-81000000D03*
X167000000Y-73600000D03*
X113800000Y-106200000D03*
X113800000Y-115200000D03*
X142800000Y-46600000D03*
X123400000Y-87800000D03*
X132400000Y-85600000D03*
X136400000Y-85400000D03*
X147600000Y-87600000D03*
X145400000Y-85400000D03*
X141400000Y-85400000D03*
X154000000Y-93200000D03*
X154000000Y-95200000D03*
X153800000Y-106600000D03*
X146400000Y-83000000D03*
D35*
X155000000Y-112600000D02*
X153200000Y-112600000D01*
X153200000Y-112600000D02*
X151800000Y-111200000D01*
X151800000Y-111200000D02*
X150900000Y-111200000D01*
X150900000Y-110200000D02*
X151800000Y-110200000D01*
X151800000Y-110200000D02*
X153200000Y-108800000D01*
X153200000Y-108800000D02*
X154800000Y-108800000D01*
X120900000Y-111200000D02*
X118400000Y-111200000D01*
X116800000Y-112800000D02*
X115800000Y-112800000D01*
X118400000Y-111200000D02*
X116800000Y-112800000D01*
X115800000Y-108400000D02*
X116600000Y-108400000D01*
X118400000Y-110200000D02*
X120900000Y-110200000D01*
X116600000Y-108400000D02*
X118400000Y-110200000D01*
X169400000Y-48600000D02*
X171000000Y-50200000D01*
X171000000Y-50200000D02*
X171000000Y-87000000D01*
X167600000Y-87000000D02*
X167600000Y-84949300D01*
X128200000Y-48600000D02*
X169400000Y-48600000D01*
X154800000Y-110600000D02*
X155000000Y-110800000D01*
X155000000Y-110800000D02*
X155000000Y-112600000D01*
X165800000Y-110600000D02*
X154800000Y-110600000D01*
X167600000Y-108800000D02*
X165800000Y-110600000D01*
X167600000Y-87000000D02*
X167600000Y-108800000D01*
X154800000Y-108800000D02*
X154800000Y-110600000D01*
X109900000Y-50000000D02*
X113100000Y-53200000D01*
X109050000Y-50000000D02*
X109900000Y-50000000D01*
D36*
X104213000Y-121914000D02*
X104213000Y-118613000D01*
X104213000Y-118613000D02*
X104000000Y-118400000D01*
X104013000Y-107114000D02*
X107714000Y-107114000D01*
X107714000Y-107114000D02*
X107800000Y-107200000D01*
X103613000Y-91514000D02*
X107314000Y-91514000D01*
X107314000Y-91514000D02*
X107400000Y-91600000D01*
D35*
X150900000Y-113700000D02*
X151000000Y-113800000D01*
X150900000Y-112200000D02*
X150900000Y-113700000D01*
X157000000Y-112600000D02*
X159200000Y-112600000D01*
X156800000Y-108800000D02*
X159200000Y-108800000D01*
X147100000Y-117700000D02*
X147200000Y-117600000D01*
X145400000Y-117700000D02*
X147100000Y-117700000D01*
D36*
X146940000Y-128940000D02*
X146940000Y-123860000D01*
X141860000Y-128940000D02*
X146940000Y-128940000D01*
X141860000Y-123860000D02*
X141860000Y-128940000D01*
X146940000Y-120860000D02*
X147000000Y-120800000D01*
X146940000Y-123860000D02*
X146940000Y-120860000D01*
X122800000Y-123800000D02*
X122800000Y-121400000D01*
X122860000Y-123860000D02*
X122800000Y-123800000D01*
X122860000Y-128940000D02*
X122860000Y-123860000D01*
X127940000Y-128940000D02*
X122860000Y-128940000D01*
X127940000Y-123860000D02*
X127940000Y-128940000D01*
D35*
X128400000Y-123400000D02*
X127940000Y-123860000D01*
X128400000Y-117700000D02*
X128400000Y-123400000D01*
X126400000Y-122320000D02*
X127940000Y-123860000D01*
X126400000Y-117700000D02*
X126400000Y-122320000D01*
X142400000Y-123320000D02*
X141860000Y-123860000D01*
X142400000Y-117700000D02*
X142400000Y-123320000D01*
X143400000Y-122320000D02*
X141860000Y-123860000D01*
X143400000Y-117700000D02*
X143400000Y-122320000D01*
X132539800Y-123860000D02*
X135149760Y-121250040D01*
X127940000Y-123860000D02*
X132539800Y-123860000D01*
X120900000Y-114900000D02*
X120800000Y-115000000D01*
X120900000Y-112200000D02*
X120900000Y-114900000D01*
X119400000Y-109200000D02*
X118600000Y-108400000D01*
X120900000Y-109200000D02*
X119400000Y-109200000D01*
X103200000Y-64460000D02*
X103200000Y-61800000D01*
D37*
X103700000Y-52400000D02*
X105600000Y-52400000D01*
X116100000Y-53200000D02*
X118200000Y-53200000D01*
X105450000Y-45050000D02*
X104800000Y-44400000D01*
X105900000Y-45050000D02*
X105450000Y-45050000D01*
D38*
X85200400Y-60599600D02*
X85200000Y-60600000D01*
X85200400Y-54699000D02*
X85200400Y-60599600D01*
X82200660Y-51699260D02*
X85200400Y-54699000D01*
X82200660Y-50000000D02*
X82200660Y-51699260D01*
D35*
X109050000Y-53350000D02*
X109000000Y-53400000D01*
X109050000Y-52200000D02*
X109050000Y-53350000D01*
X147000000Y-65000000D02*
X149600000Y-65000000D01*
X152679000Y-69721000D02*
X152600000Y-69800000D01*
X154533000Y-69721000D02*
X152679000Y-69721000D01*
X152800000Y-78000000D02*
X152800000Y-81000000D01*
X166949760Y-73650240D02*
X167000000Y-73600000D01*
X166949760Y-75650040D02*
X166949760Y-73650240D01*
X113800000Y-108400000D02*
X113800000Y-106200000D01*
X113800000Y-112800000D02*
X113800000Y-115200000D01*
X140750000Y-46600000D02*
X142800000Y-46600000D01*
X123500000Y-87700000D02*
X123400000Y-87800000D01*
X125400000Y-87700000D02*
X123500000Y-87700000D01*
X132400000Y-87700000D02*
X132400000Y-85600000D01*
X136400000Y-87700000D02*
X136400000Y-85400000D01*
X147500000Y-87700000D02*
X147600000Y-87600000D01*
X145400000Y-87700000D02*
X147500000Y-87700000D01*
X144400000Y-86400000D02*
X145400000Y-85400000D01*
X144400000Y-87700000D02*
X144400000Y-86400000D01*
X141400000Y-87700000D02*
X141400000Y-85400000D01*
X150900000Y-93200000D02*
X154000000Y-93200000D01*
X150900000Y-95200000D02*
X154000000Y-95200000D01*
X152400000Y-108000000D02*
X153800000Y-106600000D01*
X151100000Y-108000000D02*
X152400000Y-108000000D01*
X150900000Y-108200000D02*
X151100000Y-108000000D01*
X150900000Y-109200000D02*
X150900000Y-108200000D01*
X150900000Y-95200000D02*
X150900000Y-96200000D01*
X144450000Y-83000000D02*
X146400000Y-83000000D01*
D39*
X108100000Y-45050000D02*
X111450000Y-45050000D01*
X111450000Y-45050000D02*
X113400000Y-47000000D01*
X105900000Y-46000000D02*
X104000000Y-46000000D01*
X115400000Y-44000000D02*
X115400000Y-47000000D01*
X114400000Y-43000000D02*
X115400000Y-44000000D01*
X104000000Y-43000000D02*
X114400000Y-43000000D01*
X103400000Y-43600000D02*
X104000000Y-43000000D01*
X103400000Y-45400000D02*
X103400000Y-43600000D01*
X104000000Y-46000000D02*
X103400000Y-45400000D01*
X115400000Y-47000000D02*
X118800000Y-47000000D01*
X120400000Y-48600000D02*
X122600000Y-48600000D01*
X118800000Y-47000000D02*
X120400000Y-48600000D01*
D35*
X138000000Y-125550000D02*
X138000000Y-126600000D01*
X137949300Y-126650700D02*
X135800000Y-126650700D01*
X138000000Y-126600000D02*
X137949300Y-126650700D01*
X167600000Y-81350000D02*
X167600000Y-83450700D01*
X139250000Y-46600000D02*
X137246443Y-46600000D01*
X137246443Y-46600000D02*
X137221443Y-46575000D01*
D36*
X82600000Y-122000000D02*
X92200000Y-122000000D01*
X94400000Y-124200000D02*
X97863000Y-124200000D01*
X92200000Y-122000000D02*
X94400000Y-124200000D01*
D35*
X154533000Y-67130200D02*
X156330200Y-67130200D01*
X147650000Y-70950000D02*
X147650000Y-69200000D01*
X147600000Y-71000000D02*
X147650000Y-70950000D01*
X156400000Y-71000000D02*
X147600000Y-71000000D01*
X156400000Y-67200000D02*
X156400000Y-71000000D01*
X156330200Y-67130200D02*
X156400000Y-67200000D01*
X144460000Y-67260000D02*
X144800000Y-67600000D01*
X144800000Y-67600000D02*
X147600000Y-67600000D01*
X147600000Y-67600000D02*
X147650000Y-67650000D01*
X147650000Y-67650000D02*
X147650000Y-69200000D01*
X144460000Y-65000000D02*
X144460000Y-67260000D01*
X141920000Y-62480000D02*
X142200000Y-62200000D01*
X142200000Y-62200000D02*
X151000000Y-62200000D01*
X151000000Y-62200000D02*
X151200000Y-62400000D01*
X151200000Y-62400000D02*
X151200000Y-68000000D01*
X151200000Y-68000000D02*
X151434800Y-67765200D01*
X151434800Y-67765200D02*
X154533000Y-67765200D01*
X141920000Y-65000000D02*
X141920000Y-62480000D01*
X139380000Y-65000000D02*
X139380000Y-73743333D01*
X139380000Y-73743333D02*
X136148333Y-76975000D01*
X143600000Y-76940000D02*
X143940000Y-76940000D01*
X143600000Y-76940000D02*
X136183333Y-76940000D01*
X136183333Y-76940000D02*
X136148333Y-76975000D01*
X147940000Y-76940000D02*
X148800000Y-77800000D01*
X148800000Y-77800000D02*
X148800000Y-83400000D01*
X148800000Y-83400000D02*
X149000000Y-83600000D01*
X149000000Y-83600000D02*
X160000000Y-83600000D01*
X160000000Y-83600000D02*
X159867000Y-83467000D01*
X159867000Y-83467000D02*
X159867000Y-69721000D01*
X143600000Y-76940000D02*
X147940000Y-76940000D01*
X160400000Y-104800000D02*
X164400000Y-104800000D01*
X165565200Y-67765200D02*
X159867000Y-67765200D01*
X165800000Y-68000000D02*
X165565200Y-67765200D01*
X165800000Y-103400000D02*
X165800000Y-68000000D01*
X164400000Y-104800000D02*
X165800000Y-103400000D01*
X150900000Y-105200000D02*
X157460000Y-105200000D01*
X157460000Y-105200000D02*
X157860000Y-104800000D01*
X150900000Y-102200000D02*
X156200000Y-102200000D01*
X156200000Y-102200000D02*
X157800000Y-100600000D01*
X160340000Y-100600000D02*
X162600000Y-100600000D01*
X164774400Y-68425600D02*
X159867000Y-68425600D01*
X164800000Y-68400000D02*
X164774400Y-68425600D01*
X164800000Y-98400000D02*
X164800000Y-68400000D01*
X162600000Y-100600000D02*
X164800000Y-98400000D01*
X103200000Y-69540000D02*
X116460000Y-69540000D01*
X129400000Y-84400000D02*
X129400000Y-87700000D01*
X132600000Y-81200000D02*
X129400000Y-84400000D01*
X132600000Y-62400000D02*
X132600000Y-81200000D01*
X132200000Y-62000000D02*
X132600000Y-62400000D01*
X124000000Y-62000000D02*
X132200000Y-62000000D01*
X116460000Y-69540000D02*
X124000000Y-62000000D01*
X128000000Y-69540000D02*
X128000000Y-82200000D01*
X127400000Y-82800000D02*
X127400000Y-87700000D01*
X128000000Y-82200000D02*
X127400000Y-82800000D01*
X126400000Y-87700000D02*
X126400000Y-83800000D01*
X124200000Y-67200000D02*
X126940000Y-64460000D01*
X124200000Y-81600000D02*
X124200000Y-67200000D01*
X126400000Y-83800000D02*
X124200000Y-81600000D01*
X126940000Y-64460000D02*
X128000000Y-64460000D01*
X128400000Y-87700000D02*
X128400000Y-83600000D01*
X130800000Y-67000000D02*
X128000000Y-67000000D01*
X130800000Y-81200000D02*
X130800000Y-67000000D01*
X128400000Y-83600000D02*
X130800000Y-81200000D01*
X146750000Y-69200000D02*
X143600000Y-69200000D01*
X143600000Y-69200000D02*
X143600000Y-74400000D01*
X136148333Y-79515000D02*
X135885000Y-79515000D01*
X135885000Y-79515000D02*
X131400000Y-84000000D01*
X131400000Y-84000000D02*
X131400000Y-87700000D01*
D40*
X125400000Y-117700000D02*
X125400000Y-126400000D01*
X144400000Y-117700000D02*
X144400000Y-126400000D01*
D35*
X161321000Y-63879000D02*
X163400000Y-61800000D01*
X163400000Y-61800000D02*
X163400000Y-57000000D01*
X163400000Y-57000000D02*
X163200000Y-56800000D01*
X163200000Y-56800000D02*
X98400000Y-56800000D01*
X98400000Y-56800000D02*
X96600000Y-58600000D01*
X96600000Y-58600000D02*
X96600000Y-83000000D01*
X96600000Y-83000000D02*
X99400000Y-85800000D01*
X99400000Y-85800000D02*
X111400000Y-85800000D01*
X111400000Y-85800000D02*
X111800000Y-86200000D01*
X111800000Y-86200000D02*
X111800000Y-118899000D01*
X111800000Y-118899000D02*
X104213000Y-126486000D01*
X159867000Y-63879000D02*
X161321000Y-63879000D01*
X136450240Y-121250040D02*
X136450240Y-117750240D01*
X136450240Y-117750240D02*
X136400000Y-117700000D01*
X136400000Y-121199800D02*
X136450240Y-121250040D01*
X135800000Y-123149960D02*
X137949960Y-123149960D01*
X138000000Y-123200000D02*
X138000000Y-124050000D01*
X137949960Y-123149960D02*
X138000000Y-123200000D01*
X159867000Y-67130200D02*
X166130200Y-67130200D01*
X168250240Y-69250240D02*
X168250240Y-75650040D01*
X166130200Y-67130200D02*
X168250240Y-69250240D01*
X167600000Y-77549960D02*
X167600000Y-79850000D01*
D39*
X108100000Y-46950000D02*
X108100000Y-49950000D01*
X108100000Y-49950000D02*
X108150000Y-50000000D01*
X108150000Y-50000000D02*
X108150000Y-52200000D01*
D35*
X143550000Y-83000000D02*
X143550000Y-87550000D01*
X143550000Y-87550000D02*
X143400000Y-87700000D01*
X150900000Y-104200000D02*
X147400000Y-104200000D01*
X169269800Y-66469800D02*
X159867000Y-66469800D01*
X169400000Y-66600000D02*
X169269800Y-66469800D01*
X169400000Y-111200000D02*
X169400000Y-66600000D01*
X165600000Y-115000000D02*
X169400000Y-111200000D01*
X147600000Y-115000000D02*
X165600000Y-115000000D01*
X147200000Y-114600000D02*
X147600000Y-115000000D01*
X147200000Y-104400000D02*
X147200000Y-114600000D01*
X147400000Y-104200000D02*
X147200000Y-104400000D01*
D36*
X82600000Y-107000000D02*
X91600000Y-107000000D01*
X94000000Y-109400000D02*
X97663000Y-109400000D01*
X91600000Y-107000000D02*
X94000000Y-109400000D01*
X82600000Y-91400000D02*
X89000000Y-91400000D01*
X91400000Y-93800000D02*
X97263000Y-93800000D01*
X89000000Y-91400000D02*
X91400000Y-93800000D01*
D35*
X155340000Y-78000000D02*
X155600000Y-78000000D01*
X155600000Y-78000000D02*
X157200000Y-76400000D01*
X157200000Y-76400000D02*
X157200000Y-69400000D01*
X157200000Y-69400000D02*
X157514000Y-69086000D01*
X157514000Y-69086000D02*
X159867000Y-69086000D01*
X110314000Y-111686000D02*
X111000000Y-111000000D01*
X111000000Y-111000000D02*
X111000000Y-87000000D01*
X111000000Y-87000000D02*
X110600000Y-86600000D01*
X110600000Y-86600000D02*
X98400000Y-86600000D01*
X98400000Y-86600000D02*
X95200000Y-83400000D01*
X95200000Y-83400000D02*
X95200000Y-58400000D01*
X95200000Y-58400000D02*
X97600000Y-56000000D01*
X97600000Y-56000000D02*
X163400000Y-56000000D01*
X163400000Y-56000000D02*
X164200000Y-56800000D01*
X164200000Y-56800000D02*
X164200000Y-62200000D01*
X164200000Y-62200000D02*
X161886000Y-64514000D01*
X161886000Y-64514000D02*
X159867000Y-64514000D01*
X104013000Y-111686000D02*
X110314000Y-111686000D01*
X162425600Y-65174400D02*
X165000000Y-62600000D01*
X165000000Y-62600000D02*
X165000000Y-56800000D01*
X165000000Y-56800000D02*
X163600000Y-55400000D01*
X163600000Y-55400000D02*
X97200000Y-55400000D01*
X97200000Y-55400000D02*
X94600000Y-58000000D01*
X94600000Y-58000000D02*
X94600000Y-84400000D01*
X94600000Y-84400000D02*
X98200000Y-88000000D01*
X98200000Y-88000000D02*
X109400000Y-88000000D01*
X109400000Y-88000000D02*
X109600000Y-88200000D01*
X109600000Y-88200000D02*
X109600000Y-96400000D01*
X109600000Y-96400000D02*
X109286000Y-96086000D01*
X109286000Y-96086000D02*
X103613000Y-96086000D01*
X159867000Y-65174400D02*
X162425600Y-65174400D01*
D39*
X100700000Y-52400000D02*
X94400000Y-52400000D01*
X92000000Y-50000000D02*
X88200140Y-50000000D01*
X94400000Y-52400000D02*
X92000000Y-50000000D01*
D38*
X88200140Y-50000000D02*
X88200140Y-43600140D01*
X88200140Y-43600140D02*
X87800280Y-44000000D01*
X87800280Y-44000000D02*
X77600000Y-44000000D01*
X77600000Y-44000000D02*
X77600000Y-98400000D01*
D36*
X82600000Y-127000000D02*
X77600000Y-127000000D01*
D38*
X77600000Y-127200000D02*
X77600000Y-114400000D01*
D36*
X77600000Y-127000000D02*
X77600000Y-127200000D01*
X82600000Y-112000000D02*
X80000000Y-112000000D01*
X80000000Y-112000000D02*
X77600000Y-114400000D01*
X82600000Y-96400000D02*
X79600000Y-96400000D01*
X79600000Y-96400000D02*
X77600000Y-98400000D01*
D38*
X77600000Y-98400000D02*
X77600000Y-114400000D01*
D39*
X96400140Y-48000000D02*
X96400140Y-49200140D01*
X96400140Y-49200140D02*
X99600000Y-52400000D01*
X99600000Y-52400000D02*
X100700000Y-52400000D01*
D35*
X108100000Y-46000000D02*
X107600000Y-46000000D01*
X107600000Y-46000000D02*
X106650000Y-46950000D01*
X106650000Y-46950000D02*
X105900000Y-46950000D01*
D39*
X96400140Y-48000000D02*
X100600000Y-48000000D01*
X101650000Y-46950000D02*
X105900000Y-46950000D01*
X100600000Y-48000000D02*
X101650000Y-46950000D01*
D41*
G36*
X168640000Y-110885198D02*
X168633780Y-110891418D01*
X168633780Y-85474389D01*
X168633780Y-85235050D01*
X168475030Y-85076300D01*
X167727000Y-85076300D01*
X167727000Y-85824330D01*
X167885750Y-85983080D01*
X168125090Y-85983080D01*
X168358479Y-85886407D01*
X168537107Y-85707778D01*
X168633780Y-85474389D01*
X168633780Y-110891418D01*
X167473000Y-112052198D01*
X167473000Y-85824330D01*
X167473000Y-85076300D01*
X166724970Y-85076300D01*
X166566220Y-85235050D01*
X166566220Y-85474389D01*
X166662893Y-85707778D01*
X166841521Y-85886407D01*
X167074910Y-85983080D01*
X167314250Y-85983080D01*
X167473000Y-85824330D01*
X167473000Y-112052198D01*
X165285198Y-114240000D01*
X160135162Y-114240000D01*
X160135162Y-112414833D01*
X160135162Y-108614833D01*
X159993117Y-108271057D01*
X159730327Y-108007808D01*
X159386799Y-107865162D01*
X159014833Y-107864838D01*
X158671057Y-108006883D01*
X158637882Y-108040000D01*
X157921247Y-108040000D01*
X157900463Y-107932877D01*
X157760673Y-107720073D01*
X157549640Y-107577623D01*
X157300000Y-107527560D01*
X156300000Y-107527560D01*
X156057877Y-107574537D01*
X155845073Y-107714327D01*
X155801662Y-107778637D01*
X155659698Y-107636673D01*
X155426309Y-107540000D01*
X155085750Y-107540000D01*
X154927000Y-107698750D01*
X154927000Y-108673000D01*
X154947000Y-108673000D01*
X154947000Y-108927000D01*
X154927000Y-108927000D01*
X154927000Y-109901250D01*
X155085750Y-110060000D01*
X155426309Y-110060000D01*
X155659698Y-109963327D01*
X155801176Y-109821849D01*
X155839327Y-109879927D01*
X156050360Y-110022377D01*
X156300000Y-110072440D01*
X157300000Y-110072440D01*
X157542123Y-110025463D01*
X157754927Y-109885673D01*
X157897377Y-109674640D01*
X157920366Y-109560000D01*
X158637537Y-109560000D01*
X158669673Y-109592192D01*
X159013201Y-109734838D01*
X159385167Y-109735162D01*
X159728943Y-109593117D01*
X159992192Y-109330327D01*
X160134838Y-108986799D01*
X160135162Y-108614833D01*
X160135162Y-112414833D01*
X159993117Y-112071057D01*
X159730327Y-111807808D01*
X159386799Y-111665162D01*
X159014833Y-111664838D01*
X158671057Y-111806883D01*
X158637882Y-111840000D01*
X158121247Y-111840000D01*
X158100463Y-111732877D01*
X157960673Y-111520073D01*
X157749640Y-111377623D01*
X157500000Y-111327560D01*
X156500000Y-111327560D01*
X156257877Y-111374537D01*
X156045073Y-111514327D01*
X156001662Y-111578637D01*
X155859698Y-111436673D01*
X155626309Y-111340000D01*
X155285750Y-111340000D01*
X155127000Y-111498750D01*
X155127000Y-112473000D01*
X155147000Y-112473000D01*
X155147000Y-112727000D01*
X155127000Y-112727000D01*
X155127000Y-113701250D01*
X155285750Y-113860000D01*
X155626309Y-113860000D01*
X155859698Y-113763327D01*
X156001176Y-113621849D01*
X156039327Y-113679927D01*
X156250360Y-113822377D01*
X156500000Y-113872440D01*
X157500000Y-113872440D01*
X157742123Y-113825463D01*
X157954927Y-113685673D01*
X158097377Y-113474640D01*
X158120366Y-113360000D01*
X158637537Y-113360000D01*
X158669673Y-113392192D01*
X159013201Y-113534838D01*
X159385167Y-113535162D01*
X159728943Y-113393117D01*
X159992192Y-113130327D01*
X160134838Y-112786799D01*
X160135162Y-112414833D01*
X160135162Y-114240000D01*
X154873000Y-114240000D01*
X154873000Y-113701250D01*
X154873000Y-112727000D01*
X154873000Y-112473000D01*
X154873000Y-111498750D01*
X154714250Y-111340000D01*
X154673000Y-111340000D01*
X154673000Y-109901250D01*
X154673000Y-108927000D01*
X154673000Y-108673000D01*
X154673000Y-107698750D01*
X154514250Y-107540000D01*
X154173691Y-107540000D01*
X153940302Y-107636673D01*
X153761673Y-107815301D01*
X153665000Y-108048690D01*
X153665000Y-108301309D01*
X153665000Y-108514250D01*
X153823750Y-108673000D01*
X154673000Y-108673000D01*
X154673000Y-108927000D01*
X153823750Y-108927000D01*
X153665000Y-109085750D01*
X153665000Y-109298691D01*
X153665000Y-109551310D01*
X153761673Y-109784699D01*
X153940302Y-109963327D01*
X154173691Y-110060000D01*
X154514250Y-110060000D01*
X154673000Y-109901250D01*
X154673000Y-111340000D01*
X154373691Y-111340000D01*
X154140302Y-111436673D01*
X153961673Y-111615301D01*
X153865000Y-111848690D01*
X153865000Y-112101309D01*
X153865000Y-112314250D01*
X154023750Y-112473000D01*
X154873000Y-112473000D01*
X154873000Y-112727000D01*
X154023750Y-112727000D01*
X153865000Y-112885750D01*
X153865000Y-113098691D01*
X153865000Y-113351310D01*
X153961673Y-113584699D01*
X154140302Y-113763327D01*
X154373691Y-113860000D01*
X154714250Y-113860000D01*
X154873000Y-113701250D01*
X154873000Y-114240000D01*
X151829699Y-114240000D01*
X151934838Y-113986799D01*
X151935162Y-113614833D01*
X151793117Y-113271057D01*
X151669715Y-113147440D01*
X151800000Y-113147440D01*
X152042123Y-113100463D01*
X152254927Y-112960673D01*
X152397377Y-112749640D01*
X152447440Y-112500000D01*
X152447440Y-111900000D01*
X152407309Y-111693161D01*
X152435000Y-111626310D01*
X152435000Y-111485750D01*
X152435000Y-110914250D01*
X152435000Y-110773690D01*
X152404476Y-110700000D01*
X152435000Y-110626310D01*
X152435000Y-110485750D01*
X152276250Y-110327000D01*
X152075990Y-110327000D01*
X151926309Y-110265000D01*
X151185750Y-110265000D01*
X151123750Y-110327000D01*
X151027000Y-110327000D01*
X151027000Y-110423750D01*
X151027000Y-110976250D01*
X151027000Y-111073000D01*
X151123750Y-111073000D01*
X151185750Y-111135000D01*
X151926309Y-111135000D01*
X152075990Y-111073000D01*
X152276250Y-111073000D01*
X152435000Y-110914250D01*
X152435000Y-111485750D01*
X152276250Y-111327000D01*
X152085753Y-111327000D01*
X152049640Y-111302623D01*
X151800000Y-111252560D01*
X150773000Y-111252560D01*
X150773000Y-111073000D01*
X150773000Y-110976250D01*
X150773000Y-110423750D01*
X150773000Y-110327000D01*
X150676250Y-110327000D01*
X150614250Y-110265000D01*
X149873691Y-110265000D01*
X149724009Y-110327000D01*
X149523750Y-110327000D01*
X149365000Y-110485750D01*
X149365000Y-110626310D01*
X149395523Y-110700000D01*
X149365000Y-110773690D01*
X149365000Y-110914250D01*
X149523750Y-111073000D01*
X149724009Y-111073000D01*
X149873691Y-111135000D01*
X150614250Y-111135000D01*
X150676250Y-111073000D01*
X150773000Y-111073000D01*
X150773000Y-111252560D01*
X150000000Y-111252560D01*
X149757877Y-111299537D01*
X149716069Y-111327000D01*
X149523750Y-111327000D01*
X149365000Y-111485750D01*
X149365000Y-111626310D01*
X149393599Y-111695355D01*
X149352560Y-111900000D01*
X149352560Y-112500000D01*
X149399537Y-112742123D01*
X149539327Y-112954927D01*
X149750360Y-113097377D01*
X150000000Y-113147440D01*
X150140000Y-113147440D01*
X150140000Y-113432971D01*
X150065162Y-113613201D01*
X150064838Y-113985167D01*
X150170132Y-114240000D01*
X147960000Y-114240000D01*
X147960000Y-104960000D01*
X149352560Y-104960000D01*
X149352560Y-105500000D01*
X149392005Y-105703304D01*
X149352560Y-105900000D01*
X149352560Y-106500000D01*
X149392005Y-106703304D01*
X149352560Y-106900000D01*
X149352560Y-107500000D01*
X149392005Y-107703304D01*
X149352560Y-107900000D01*
X149352560Y-108500000D01*
X149392005Y-108703304D01*
X149352560Y-108900000D01*
X149352560Y-109500000D01*
X149392690Y-109706838D01*
X149365000Y-109773690D01*
X149365000Y-109914250D01*
X149523750Y-110073000D01*
X149714246Y-110073000D01*
X149750360Y-110097377D01*
X150000000Y-110147440D01*
X151800000Y-110147440D01*
X152042123Y-110100463D01*
X152083930Y-110073000D01*
X152276250Y-110073000D01*
X152435000Y-109914250D01*
X152435000Y-109773690D01*
X152406400Y-109704644D01*
X152447440Y-109500000D01*
X152447440Y-108900000D01*
X152419523Y-108756116D01*
X152690839Y-108702148D01*
X152937401Y-108537401D01*
X153939679Y-107535122D01*
X153985167Y-107535162D01*
X154328943Y-107393117D01*
X154592192Y-107130327D01*
X154734838Y-106786799D01*
X154735162Y-106414833D01*
X154593117Y-106071057D01*
X154482253Y-105960000D01*
X156665988Y-105960000D01*
X156692567Y-105999778D01*
X157228190Y-106357670D01*
X157860000Y-106483345D01*
X158491810Y-106357670D01*
X158831298Y-106130830D01*
X158923327Y-106270927D01*
X159134360Y-106413377D01*
X159384000Y-106463440D01*
X161416000Y-106463440D01*
X161658123Y-106416463D01*
X161870927Y-106276673D01*
X162013377Y-106065640D01*
X162063440Y-105816000D01*
X162063440Y-105560000D01*
X164400000Y-105560000D01*
X164690839Y-105502148D01*
X164937401Y-105337401D01*
X166337401Y-103937401D01*
X166502148Y-103690839D01*
X166560000Y-103400000D01*
X166560000Y-83881538D01*
X166600757Y-84091603D01*
X166664728Y-84188986D01*
X166662893Y-84190822D01*
X166566220Y-84424211D01*
X166566220Y-84663550D01*
X166724970Y-84822300D01*
X167473000Y-84822300D01*
X167473000Y-84802300D01*
X167727000Y-84802300D01*
X167727000Y-84822300D01*
X168475030Y-84822300D01*
X168633780Y-84663550D01*
X168633780Y-84424211D01*
X168537107Y-84190822D01*
X168535405Y-84189120D01*
X168596157Y-84099120D01*
X168640000Y-83880496D01*
X168640000Y-110885198D01*
X168640000Y-110885198D01*
G37*
X168640000Y-110885198D02*
X168633780Y-110891418D01*
X168633780Y-85474389D01*
X168633780Y-85235050D01*
X168475030Y-85076300D01*
X167727000Y-85076300D01*
X167727000Y-85824330D01*
X167885750Y-85983080D01*
X168125090Y-85983080D01*
X168358479Y-85886407D01*
X168537107Y-85707778D01*
X168633780Y-85474389D01*
X168633780Y-110891418D01*
X167473000Y-112052198D01*
X167473000Y-85824330D01*
X167473000Y-85076300D01*
X166724970Y-85076300D01*
X166566220Y-85235050D01*
X166566220Y-85474389D01*
X166662893Y-85707778D01*
X166841521Y-85886407D01*
X167074910Y-85983080D01*
X167314250Y-85983080D01*
X167473000Y-85824330D01*
X167473000Y-112052198D01*
X165285198Y-114240000D01*
X160135162Y-114240000D01*
X160135162Y-112414833D01*
X160135162Y-108614833D01*
X159993117Y-108271057D01*
X159730327Y-108007808D01*
X159386799Y-107865162D01*
X159014833Y-107864838D01*
X158671057Y-108006883D01*
X158637882Y-108040000D01*
X157921247Y-108040000D01*
X157900463Y-107932877D01*
X157760673Y-107720073D01*
X157549640Y-107577623D01*
X157300000Y-107527560D01*
X156300000Y-107527560D01*
X156057877Y-107574537D01*
X155845073Y-107714327D01*
X155801662Y-107778637D01*
X155659698Y-107636673D01*
X155426309Y-107540000D01*
X155085750Y-107540000D01*
X154927000Y-107698750D01*
X154927000Y-108673000D01*
X154947000Y-108673000D01*
X154947000Y-108927000D01*
X154927000Y-108927000D01*
X154927000Y-109901250D01*
X155085750Y-110060000D01*
X155426309Y-110060000D01*
X155659698Y-109963327D01*
X155801176Y-109821849D01*
X155839327Y-109879927D01*
X156050360Y-110022377D01*
X156300000Y-110072440D01*
X157300000Y-110072440D01*
X157542123Y-110025463D01*
X157754927Y-109885673D01*
X157897377Y-109674640D01*
X157920366Y-109560000D01*
X158637537Y-109560000D01*
X158669673Y-109592192D01*
X159013201Y-109734838D01*
X159385167Y-109735162D01*
X159728943Y-109593117D01*
X159992192Y-109330327D01*
X160134838Y-108986799D01*
X160135162Y-108614833D01*
X160135162Y-112414833D01*
X159993117Y-112071057D01*
X159730327Y-111807808D01*
X159386799Y-111665162D01*
X159014833Y-111664838D01*
X158671057Y-111806883D01*
X158637882Y-111840000D01*
X158121247Y-111840000D01*
X158100463Y-111732877D01*
X157960673Y-111520073D01*
X157749640Y-111377623D01*
X157500000Y-111327560D01*
X156500000Y-111327560D01*
X156257877Y-111374537D01*
X156045073Y-111514327D01*
X156001662Y-111578637D01*
X155859698Y-111436673D01*
X155626309Y-111340000D01*
X155285750Y-111340000D01*
X155127000Y-111498750D01*
X155127000Y-112473000D01*
X155147000Y-112473000D01*
X155147000Y-112727000D01*
X155127000Y-112727000D01*
X155127000Y-113701250D01*
X155285750Y-113860000D01*
X155626309Y-113860000D01*
X155859698Y-113763327D01*
X156001176Y-113621849D01*
X156039327Y-113679927D01*
X156250360Y-113822377D01*
X156500000Y-113872440D01*
X157500000Y-113872440D01*
X157742123Y-113825463D01*
X157954927Y-113685673D01*
X158097377Y-113474640D01*
X158120366Y-113360000D01*
X158637537Y-113360000D01*
X158669673Y-113392192D01*
X159013201Y-113534838D01*
X159385167Y-113535162D01*
X159728943Y-113393117D01*
X159992192Y-113130327D01*
X160134838Y-112786799D01*
X160135162Y-112414833D01*
X160135162Y-114240000D01*
X154873000Y-114240000D01*
X154873000Y-113701250D01*
X154873000Y-112727000D01*
X154873000Y-112473000D01*
X154873000Y-111498750D01*
X154714250Y-111340000D01*
X154673000Y-111340000D01*
X154673000Y-109901250D01*
X154673000Y-108927000D01*
X154673000Y-108673000D01*
X154673000Y-107698750D01*
X154514250Y-107540000D01*
X154173691Y-107540000D01*
X153940302Y-107636673D01*
X153761673Y-107815301D01*
X153665000Y-108048690D01*
X153665000Y-108301309D01*
X153665000Y-108514250D01*
X153823750Y-108673000D01*
X154673000Y-108673000D01*
X154673000Y-108927000D01*
X153823750Y-108927000D01*
X153665000Y-109085750D01*
X153665000Y-109298691D01*
X153665000Y-109551310D01*
X153761673Y-109784699D01*
X153940302Y-109963327D01*
X154173691Y-110060000D01*
X154514250Y-110060000D01*
X154673000Y-109901250D01*
X154673000Y-111340000D01*
X154373691Y-111340000D01*
X154140302Y-111436673D01*
X153961673Y-111615301D01*
X153865000Y-111848690D01*
X153865000Y-112101309D01*
X153865000Y-112314250D01*
X154023750Y-112473000D01*
X154873000Y-112473000D01*
X154873000Y-112727000D01*
X154023750Y-112727000D01*
X153865000Y-112885750D01*
X153865000Y-113098691D01*
X153865000Y-113351310D01*
X153961673Y-113584699D01*
X154140302Y-113763327D01*
X154373691Y-113860000D01*
X154714250Y-113860000D01*
X154873000Y-113701250D01*
X154873000Y-114240000D01*
X151829699Y-114240000D01*
X151934838Y-113986799D01*
X151935162Y-113614833D01*
X151793117Y-113271057D01*
X151669715Y-113147440D01*
X151800000Y-113147440D01*
X152042123Y-113100463D01*
X152254927Y-112960673D01*
X152397377Y-112749640D01*
X152447440Y-112500000D01*
X152447440Y-111900000D01*
X152407309Y-111693161D01*
X152435000Y-111626310D01*
X152435000Y-111485750D01*
X152435000Y-110914250D01*
X152435000Y-110773690D01*
X152404476Y-110700000D01*
X152435000Y-110626310D01*
X152435000Y-110485750D01*
X152276250Y-110327000D01*
X152075990Y-110327000D01*
X151926309Y-110265000D01*
X151185750Y-110265000D01*
X151123750Y-110327000D01*
X151027000Y-110327000D01*
X151027000Y-110423750D01*
X151027000Y-110976250D01*
X151027000Y-111073000D01*
X151123750Y-111073000D01*
X151185750Y-111135000D01*
X151926309Y-111135000D01*
X152075990Y-111073000D01*
X152276250Y-111073000D01*
X152435000Y-110914250D01*
X152435000Y-111485750D01*
X152276250Y-111327000D01*
X152085753Y-111327000D01*
X152049640Y-111302623D01*
X151800000Y-111252560D01*
X150773000Y-111252560D01*
X150773000Y-111073000D01*
X150773000Y-110976250D01*
X150773000Y-110423750D01*
X150773000Y-110327000D01*
X150676250Y-110327000D01*
X150614250Y-110265000D01*
X149873691Y-110265000D01*
X149724009Y-110327000D01*
X149523750Y-110327000D01*
X149365000Y-110485750D01*
X149365000Y-110626310D01*
X149395523Y-110700000D01*
X149365000Y-110773690D01*
X149365000Y-110914250D01*
X149523750Y-111073000D01*
X149724009Y-111073000D01*
X149873691Y-111135000D01*
X150614250Y-111135000D01*
X150676250Y-111073000D01*
X150773000Y-111073000D01*
X150773000Y-111252560D01*
X150000000Y-111252560D01*
X149757877Y-111299537D01*
X149716069Y-111327000D01*
X149523750Y-111327000D01*
X149365000Y-111485750D01*
X149365000Y-111626310D01*
X149393599Y-111695355D01*
X149352560Y-111900000D01*
X149352560Y-112500000D01*
X149399537Y-112742123D01*
X149539327Y-112954927D01*
X149750360Y-113097377D01*
X150000000Y-113147440D01*
X150140000Y-113147440D01*
X150140000Y-113432971D01*
X150065162Y-113613201D01*
X150064838Y-113985167D01*
X150170132Y-114240000D01*
X147960000Y-114240000D01*
X147960000Y-104960000D01*
X149352560Y-104960000D01*
X149352560Y-105500000D01*
X149392005Y-105703304D01*
X149352560Y-105900000D01*
X149352560Y-106500000D01*
X149392005Y-106703304D01*
X149352560Y-106900000D01*
X149352560Y-107500000D01*
X149392005Y-107703304D01*
X149352560Y-107900000D01*
X149352560Y-108500000D01*
X149392005Y-108703304D01*
X149352560Y-108900000D01*
X149352560Y-109500000D01*
X149392690Y-109706838D01*
X149365000Y-109773690D01*
X149365000Y-109914250D01*
X149523750Y-110073000D01*
X149714246Y-110073000D01*
X149750360Y-110097377D01*
X150000000Y-110147440D01*
X151800000Y-110147440D01*
X152042123Y-110100463D01*
X152083930Y-110073000D01*
X152276250Y-110073000D01*
X152435000Y-109914250D01*
X152435000Y-109773690D01*
X152406400Y-109704644D01*
X152447440Y-109500000D01*
X152447440Y-108900000D01*
X152419523Y-108756116D01*
X152690839Y-108702148D01*
X152937401Y-108537401D01*
X153939679Y-107535122D01*
X153985167Y-107535162D01*
X154328943Y-107393117D01*
X154592192Y-107130327D01*
X154734838Y-106786799D01*
X154735162Y-106414833D01*
X154593117Y-106071057D01*
X154482253Y-105960000D01*
X156665988Y-105960000D01*
X156692567Y-105999778D01*
X157228190Y-106357670D01*
X157860000Y-106483345D01*
X158491810Y-106357670D01*
X158831298Y-106130830D01*
X158923327Y-106270927D01*
X159134360Y-106413377D01*
X159384000Y-106463440D01*
X161416000Y-106463440D01*
X161658123Y-106416463D01*
X161870927Y-106276673D01*
X162013377Y-106065640D01*
X162063440Y-105816000D01*
X162063440Y-105560000D01*
X164400000Y-105560000D01*
X164690839Y-105502148D01*
X164937401Y-105337401D01*
X166337401Y-103937401D01*
X166502148Y-103690839D01*
X166560000Y-103400000D01*
X166560000Y-83881538D01*
X166600757Y-84091603D01*
X166664728Y-84188986D01*
X166662893Y-84190822D01*
X166566220Y-84424211D01*
X166566220Y-84663550D01*
X166724970Y-84822300D01*
X167473000Y-84822300D01*
X167473000Y-84802300D01*
X167727000Y-84802300D01*
X167727000Y-84822300D01*
X168475030Y-84822300D01*
X168633780Y-84663550D01*
X168633780Y-84424211D01*
X168537107Y-84190822D01*
X168535405Y-84189120D01*
X168596157Y-84099120D01*
X168640000Y-83880496D01*
X168640000Y-110885198D01*
G36*
X173690000Y-131690000D02*
X170160000Y-131690000D01*
X170160000Y-111200000D01*
X170160000Y-66600000D01*
X170102148Y-66309161D01*
X169937401Y-66062599D01*
X169807201Y-65932399D01*
X169560639Y-65767652D01*
X169269800Y-65709800D01*
X162965002Y-65709800D01*
X165537401Y-63137401D01*
X165702148Y-62890840D01*
X165702148Y-62890839D01*
X165760000Y-62600000D01*
X165760000Y-56800000D01*
X165702148Y-56509161D01*
X165537401Y-56262599D01*
X164137401Y-54862599D01*
X163890839Y-54697852D01*
X163600000Y-54640000D01*
X143735162Y-54640000D01*
X143735162Y-46414833D01*
X143593117Y-46071057D01*
X143330327Y-45807808D01*
X142986799Y-45665162D01*
X142614833Y-45664838D01*
X142271057Y-45806883D01*
X142237882Y-45840000D01*
X141555874Y-45840000D01*
X141460673Y-45695073D01*
X141249640Y-45552623D01*
X141000000Y-45502560D01*
X140500000Y-45502560D01*
X140257877Y-45549537D01*
X140045073Y-45689327D01*
X140000386Y-45755528D01*
X139960673Y-45695073D01*
X139749640Y-45552623D01*
X139500000Y-45502560D01*
X139000000Y-45502560D01*
X138757877Y-45549537D01*
X138545073Y-45689327D01*
X138443366Y-45840000D01*
X138158874Y-45840000D01*
X138080896Y-45721293D01*
X137869863Y-45578843D01*
X137620223Y-45528780D01*
X136822663Y-45528780D01*
X136580540Y-45575757D01*
X136483156Y-45639728D01*
X136481321Y-45637893D01*
X136247932Y-45541220D01*
X136008593Y-45541220D01*
X135849843Y-45699970D01*
X135849843Y-46448000D01*
X135869843Y-46448000D01*
X135869843Y-46702000D01*
X135849843Y-46702000D01*
X135849843Y-47450030D01*
X136008593Y-47608780D01*
X136247932Y-47608780D01*
X136481321Y-47512107D01*
X136483022Y-47510405D01*
X136573023Y-47571157D01*
X136822663Y-47621220D01*
X137620223Y-47621220D01*
X137862346Y-47574243D01*
X138075150Y-47434453D01*
X138125406Y-47360000D01*
X138444125Y-47360000D01*
X138539327Y-47504927D01*
X138750360Y-47647377D01*
X139000000Y-47697440D01*
X139500000Y-47697440D01*
X139742123Y-47650463D01*
X139954927Y-47510673D01*
X139999613Y-47444471D01*
X140039327Y-47504927D01*
X140250360Y-47647377D01*
X140500000Y-47697440D01*
X141000000Y-47697440D01*
X141242123Y-47650463D01*
X141454927Y-47510673D01*
X141556633Y-47360000D01*
X142237537Y-47360000D01*
X142269673Y-47392192D01*
X142613201Y-47534838D01*
X142985167Y-47535162D01*
X143328943Y-47393117D01*
X143592192Y-47130327D01*
X143734838Y-46786799D01*
X143735162Y-46414833D01*
X143735162Y-54640000D01*
X135595843Y-54640000D01*
X135595843Y-47450030D01*
X135595843Y-46702000D01*
X135595843Y-46448000D01*
X135595843Y-45699970D01*
X135437093Y-45541220D01*
X135197754Y-45541220D01*
X134964365Y-45637893D01*
X134785736Y-45816521D01*
X134689063Y-46049910D01*
X134689063Y-46289250D01*
X134847813Y-46448000D01*
X135595843Y-46448000D01*
X135595843Y-46702000D01*
X134847813Y-46702000D01*
X134689063Y-46860750D01*
X134689063Y-47100090D01*
X134785736Y-47333479D01*
X134964365Y-47512107D01*
X135197754Y-47608780D01*
X135437093Y-47608780D01*
X135595843Y-47450030D01*
X135595843Y-54640000D01*
X130135000Y-54640000D01*
X130135000Y-52826310D01*
X130135000Y-52573691D01*
X130135000Y-48885750D01*
X130135000Y-48314250D01*
X130135000Y-44626309D01*
X130135000Y-44373690D01*
X130038327Y-44140301D01*
X129859698Y-43961673D01*
X129626309Y-43865000D01*
X128485750Y-43865000D01*
X128327000Y-44023750D01*
X128327000Y-48473000D01*
X129976250Y-48473000D01*
X130135000Y-48314250D01*
X130135000Y-48885750D01*
X129976250Y-48727000D01*
X128327000Y-48727000D01*
X128327000Y-53176250D01*
X128485750Y-53335000D01*
X129626309Y-53335000D01*
X129859698Y-53238327D01*
X130038327Y-53059699D01*
X130135000Y-52826310D01*
X130135000Y-54640000D01*
X128073000Y-54640000D01*
X128073000Y-53176250D01*
X128073000Y-48727000D01*
X128073000Y-48473000D01*
X128073000Y-44023750D01*
X127914250Y-43865000D01*
X126773691Y-43865000D01*
X126540302Y-43961673D01*
X126535370Y-43966604D01*
X126535370Y-37577185D01*
X126211020Y-36792200D01*
X125610959Y-36191091D01*
X124826541Y-35865372D01*
X123977185Y-35864630D01*
X123192200Y-36188980D01*
X122591091Y-36789041D01*
X122265372Y-37573459D01*
X122264630Y-38422815D01*
X122588980Y-39207800D01*
X123189041Y-39808909D01*
X123973459Y-40134628D01*
X124822815Y-40135370D01*
X125607800Y-39811020D01*
X126208909Y-39210959D01*
X126534628Y-38426541D01*
X126535370Y-37577185D01*
X126535370Y-43966604D01*
X126361673Y-44140301D01*
X126265000Y-44373690D01*
X126265000Y-44626309D01*
X126265000Y-48314250D01*
X126423750Y-48473000D01*
X128073000Y-48473000D01*
X128073000Y-48727000D01*
X126423750Y-48727000D01*
X126265000Y-48885750D01*
X126265000Y-52573691D01*
X126265000Y-52826310D01*
X126361673Y-53059699D01*
X126540302Y-53238327D01*
X126773691Y-53335000D01*
X127914250Y-53335000D01*
X128073000Y-53176250D01*
X128073000Y-54640000D01*
X124547440Y-54640000D01*
X124547440Y-52700000D01*
X124547440Y-44500000D01*
X124500463Y-44257877D01*
X124360673Y-44045073D01*
X124149640Y-43902623D01*
X123900000Y-43852560D01*
X121300000Y-43852560D01*
X121057877Y-43899537D01*
X120845073Y-44039327D01*
X120702623Y-44250360D01*
X120652560Y-44500000D01*
X120652560Y-47530270D01*
X119461145Y-46338855D01*
X119157809Y-46136173D01*
X118800000Y-46065000D01*
X116455874Y-46065000D01*
X116360673Y-45920073D01*
X116335000Y-45902743D01*
X116335000Y-44000005D01*
X116335000Y-44000000D01*
X116335001Y-44000000D01*
X116275635Y-43701556D01*
X116263827Y-43642192D01*
X116263827Y-43642191D01*
X116061145Y-43338855D01*
X115061145Y-42338855D01*
X114757809Y-42136173D01*
X114400000Y-42065000D01*
X104000000Y-42065000D01*
X103642191Y-42136173D01*
X103338855Y-42338855D01*
X102738855Y-42938855D01*
X102536173Y-43242191D01*
X102465000Y-43600000D01*
X102465000Y-45400000D01*
X102536173Y-45757809D01*
X102708021Y-46015000D01*
X101650000Y-46015000D01*
X101292191Y-46086173D01*
X100988855Y-46288855D01*
X100212710Y-47065000D01*
X96400140Y-47065000D01*
X96042331Y-47136173D01*
X95738995Y-47338855D01*
X95536313Y-47642191D01*
X95465140Y-48000000D01*
X95465140Y-49200140D01*
X95536313Y-49557949D01*
X95738995Y-49861285D01*
X97342710Y-51465000D01*
X94787290Y-51465000D01*
X92661145Y-49338855D01*
X92357809Y-49136173D01*
X92000000Y-49065000D01*
X90597640Y-49065000D01*
X90597640Y-48249940D01*
X90550663Y-48007817D01*
X90410873Y-47795013D01*
X90335140Y-47743892D01*
X90335140Y-43600140D01*
X90172623Y-42783111D01*
X89709813Y-42090467D01*
X89017169Y-41627657D01*
X88200140Y-41465140D01*
X87383110Y-41627657D01*
X87027901Y-41865000D01*
X77600000Y-41865000D01*
X76782971Y-42027517D01*
X76090327Y-42490327D01*
X75627517Y-43182971D01*
X75465000Y-44000000D01*
X75465000Y-98400000D01*
X75465000Y-114400000D01*
X75465000Y-127200000D01*
X75627517Y-128017029D01*
X76090327Y-128709673D01*
X76782971Y-129172483D01*
X77600000Y-129335000D01*
X78417029Y-129172483D01*
X79109673Y-128709673D01*
X79159567Y-128635000D01*
X82600000Y-128635000D01*
X82647256Y-128625600D01*
X83641854Y-128625600D01*
X84263944Y-128501859D01*
X84791327Y-128149473D01*
X85143713Y-127622090D01*
X85267454Y-127000000D01*
X85143713Y-126377910D01*
X84791327Y-125850527D01*
X84263944Y-125498141D01*
X83641854Y-125374400D01*
X82647256Y-125374400D01*
X82600000Y-125365000D01*
X79735000Y-125365000D01*
X79735000Y-114577239D01*
X80677239Y-113635000D01*
X82600000Y-113635000D01*
X82647256Y-113625600D01*
X83641854Y-113625600D01*
X84263944Y-113501859D01*
X84791327Y-113149473D01*
X85143713Y-112622090D01*
X85267454Y-112000000D01*
X85143713Y-111377910D01*
X84791327Y-110850527D01*
X84263944Y-110498141D01*
X83641854Y-110374400D01*
X82647256Y-110374400D01*
X82600000Y-110365000D01*
X80000005Y-110365000D01*
X80000000Y-110364999D01*
X79735000Y-110417711D01*
X79735000Y-98577239D01*
X80277239Y-98035000D01*
X82600000Y-98035000D01*
X82647256Y-98025600D01*
X83641854Y-98025600D01*
X84263944Y-97901859D01*
X84791327Y-97549473D01*
X85143713Y-97022090D01*
X85267454Y-96400000D01*
X85143713Y-95777910D01*
X84791327Y-95250527D01*
X84263944Y-94898141D01*
X83641854Y-94774400D01*
X82647256Y-94774400D01*
X82600000Y-94765000D01*
X79735000Y-94765000D01*
X79735000Y-46135000D01*
X86065140Y-46135000D01*
X86065140Y-47743292D01*
X85995153Y-47789267D01*
X85852703Y-48000300D01*
X85802640Y-48249940D01*
X85802640Y-51750060D01*
X85849617Y-51992183D01*
X85989407Y-52204987D01*
X86132386Y-52301500D01*
X85822245Y-52301500D01*
X84598160Y-51077414D01*
X84598160Y-48249940D01*
X84551183Y-48007817D01*
X84411393Y-47795013D01*
X84200360Y-47652563D01*
X83950720Y-47602500D01*
X80450600Y-47602500D01*
X80208477Y-47649477D01*
X79995673Y-47789267D01*
X79853223Y-48000300D01*
X79803160Y-48249940D01*
X79803160Y-51750060D01*
X79850137Y-51992183D01*
X79989927Y-52204987D01*
X80193602Y-52342470D01*
X80228177Y-52516289D01*
X80690987Y-53208933D01*
X82802900Y-55320846D01*
X82802900Y-56449060D01*
X82849877Y-56691183D01*
X82989667Y-56903987D01*
X83065400Y-56955107D01*
X83065400Y-60597989D01*
X83065000Y-60600000D01*
X83227517Y-61417029D01*
X83690327Y-62109673D01*
X84382971Y-62572483D01*
X85200000Y-62735000D01*
X86017029Y-62572483D01*
X86709673Y-62109673D01*
X86710073Y-62109273D01*
X87172883Y-61416629D01*
X87335400Y-60599600D01*
X87335400Y-56955707D01*
X87405387Y-56909733D01*
X87547837Y-56698700D01*
X87597900Y-56449060D01*
X87597900Y-52948940D01*
X87550923Y-52706817D01*
X87411133Y-52494013D01*
X87268153Y-52397500D01*
X89950200Y-52397500D01*
X90192323Y-52350523D01*
X90405127Y-52210733D01*
X90547577Y-51999700D01*
X90597640Y-51750060D01*
X90597640Y-50935000D01*
X91612710Y-50935000D01*
X93738855Y-53061145D01*
X94042191Y-53263827D01*
X94042192Y-53263827D01*
X94101556Y-53275635D01*
X94400000Y-53335001D01*
X94400000Y-53335000D01*
X94400005Y-53335000D01*
X99552560Y-53335000D01*
X99552560Y-53650000D01*
X99599537Y-53892123D01*
X99739327Y-54104927D01*
X99950360Y-54247377D01*
X100200000Y-54297440D01*
X101200000Y-54297440D01*
X101442123Y-54250463D01*
X101654927Y-54110673D01*
X101797377Y-53899640D01*
X101847440Y-53650000D01*
X101847440Y-51150000D01*
X101800463Y-50907877D01*
X101660673Y-50695073D01*
X101449640Y-50552623D01*
X101200000Y-50502560D01*
X100200000Y-50502560D01*
X99957877Y-50549537D01*
X99745073Y-50689327D01*
X99602623Y-50900360D01*
X99572559Y-51050269D01*
X97457290Y-48935000D01*
X100600000Y-48935000D01*
X100957809Y-48863827D01*
X101261145Y-48661145D01*
X102037290Y-47885000D01*
X105183304Y-47885000D01*
X105370000Y-47922440D01*
X106430000Y-47922440D01*
X106672123Y-47875463D01*
X106884927Y-47735673D01*
X106941692Y-47651577D01*
X107022424Y-47597634D01*
X107109327Y-47729927D01*
X107165000Y-47767506D01*
X107165000Y-49950000D01*
X107215000Y-50201365D01*
X107215000Y-52200000D01*
X107286173Y-52557809D01*
X107325071Y-52616024D01*
X107349537Y-52742123D01*
X107489327Y-52954927D01*
X107700360Y-53097377D01*
X107950000Y-53147440D01*
X108092468Y-53147440D01*
X108065162Y-53213201D01*
X108064838Y-53585167D01*
X108206883Y-53928943D01*
X108469673Y-54192192D01*
X108813201Y-54334838D01*
X109185167Y-54335162D01*
X109528943Y-54193117D01*
X109792192Y-53930327D01*
X109934838Y-53586799D01*
X109935162Y-53214833D01*
X109810000Y-52911917D01*
X109810000Y-52805012D01*
X109847377Y-52749640D01*
X109897440Y-52500000D01*
X109897440Y-51900000D01*
X109885000Y-51835883D01*
X109850463Y-51657877D01*
X109710673Y-51445073D01*
X109499640Y-51302623D01*
X109250000Y-51252560D01*
X109085000Y-51252560D01*
X109085000Y-50935000D01*
X109177002Y-50935000D01*
X109177002Y-50803252D01*
X109308750Y-50935000D01*
X109376309Y-50935000D01*
X109609698Y-50838327D01*
X109788327Y-50659699D01*
X109885000Y-50426310D01*
X109885000Y-50285750D01*
X109885000Y-49714250D01*
X109885000Y-49573690D01*
X109788327Y-49340301D01*
X109609698Y-49161673D01*
X109376309Y-49065000D01*
X109308750Y-49065000D01*
X109150000Y-49223750D01*
X109150000Y-49873000D01*
X109726250Y-49873000D01*
X109885000Y-49714250D01*
X109885000Y-50285750D01*
X109726250Y-50127000D01*
X109150000Y-50127000D01*
X109150000Y-50147000D01*
X109085000Y-50147000D01*
X109085000Y-50000000D01*
X109035000Y-49748634D01*
X109035000Y-47768469D01*
X109084927Y-47735673D01*
X109227377Y-47524640D01*
X109277440Y-47275000D01*
X109277440Y-46625000D01*
X109247855Y-46472521D01*
X109277440Y-46325000D01*
X109277440Y-45985000D01*
X111062710Y-45985000D01*
X112252560Y-47174850D01*
X112252560Y-47625000D01*
X112299537Y-47867123D01*
X112439327Y-48079927D01*
X112650360Y-48222377D01*
X112900000Y-48272440D01*
X113900000Y-48272440D01*
X114142123Y-48225463D01*
X114354927Y-48085673D01*
X114399613Y-48019471D01*
X114439327Y-48079927D01*
X114650360Y-48222377D01*
X114900000Y-48272440D01*
X115900000Y-48272440D01*
X116142123Y-48225463D01*
X116354927Y-48085673D01*
X116456633Y-47935000D01*
X118412710Y-47935000D01*
X119738855Y-49261145D01*
X120042191Y-49463827D01*
X120400000Y-49535000D01*
X120652560Y-49535000D01*
X120652560Y-52700000D01*
X120699537Y-52942123D01*
X120839327Y-53154927D01*
X121050360Y-53297377D01*
X121300000Y-53347440D01*
X123900000Y-53347440D01*
X124142123Y-53300463D01*
X124354927Y-53160673D01*
X124497377Y-52949640D01*
X124547440Y-52700000D01*
X124547440Y-54640000D01*
X116638346Y-54640000D01*
X116842123Y-54600463D01*
X117054927Y-54460673D01*
X117197377Y-54249640D01*
X117200312Y-54235000D01*
X118200000Y-54235000D01*
X118596077Y-54156215D01*
X118931856Y-53931856D01*
X119156215Y-53596077D01*
X119235000Y-53200000D01*
X119156215Y-52803923D01*
X118931856Y-52468144D01*
X118596077Y-52243785D01*
X118200000Y-52165000D01*
X117201845Y-52165000D01*
X117200463Y-52157877D01*
X117060673Y-51945073D01*
X116849640Y-51802623D01*
X116600000Y-51752560D01*
X115600000Y-51752560D01*
X115357877Y-51799537D01*
X115145073Y-51939327D01*
X115002623Y-52150360D01*
X114952560Y-52400000D01*
X114952560Y-54000000D01*
X114999537Y-54242123D01*
X115139327Y-54454927D01*
X115350360Y-54597377D01*
X115562900Y-54640000D01*
X114235000Y-54640000D01*
X114235000Y-54126310D01*
X114235000Y-53873691D01*
X114235000Y-53485750D01*
X114235000Y-52914250D01*
X114235000Y-52526309D01*
X114235000Y-52273690D01*
X114138327Y-52040301D01*
X113959698Y-51861673D01*
X113726309Y-51765000D01*
X113385750Y-51765000D01*
X113227000Y-51923750D01*
X113227000Y-53073000D01*
X114076250Y-53073000D01*
X114235000Y-52914250D01*
X114235000Y-53485750D01*
X114076250Y-53327000D01*
X113227000Y-53327000D01*
X113227000Y-54476250D01*
X113385750Y-54635000D01*
X113726309Y-54635000D01*
X113959698Y-54538327D01*
X114138327Y-54359699D01*
X114235000Y-54126310D01*
X114235000Y-54640000D01*
X112973000Y-54640000D01*
X112973000Y-54476250D01*
X112973000Y-53327000D01*
X112973000Y-53073000D01*
X112973000Y-51923750D01*
X112814250Y-51765000D01*
X112473691Y-51765000D01*
X112240302Y-51861673D01*
X112061673Y-52040301D01*
X111965000Y-52273690D01*
X111965000Y-52526309D01*
X111965000Y-52914250D01*
X112123750Y-53073000D01*
X112973000Y-53073000D01*
X112973000Y-53327000D01*
X112123750Y-53327000D01*
X111965000Y-53485750D01*
X111965000Y-53873691D01*
X111965000Y-54126310D01*
X112061673Y-54359699D01*
X112240302Y-54538327D01*
X112473691Y-54635000D01*
X112814250Y-54635000D01*
X112973000Y-54476250D01*
X112973000Y-54640000D01*
X106635000Y-54640000D01*
X106635000Y-52400000D01*
X106556215Y-52003923D01*
X106331856Y-51668144D01*
X105996077Y-51443785D01*
X105600000Y-51365000D01*
X104847440Y-51365000D01*
X104847440Y-51150000D01*
X104800463Y-50907877D01*
X104660673Y-50695073D01*
X104449640Y-50552623D01*
X104200000Y-50502560D01*
X103200000Y-50502560D01*
X102957877Y-50549537D01*
X102745073Y-50689327D01*
X102602623Y-50900360D01*
X102552560Y-51150000D01*
X102552560Y-53650000D01*
X102599537Y-53892123D01*
X102739327Y-54104927D01*
X102950360Y-54247377D01*
X103200000Y-54297440D01*
X104200000Y-54297440D01*
X104442123Y-54250463D01*
X104654927Y-54110673D01*
X104797377Y-53899640D01*
X104847440Y-53650000D01*
X104847440Y-53435000D01*
X105600000Y-53435000D01*
X105996077Y-53356215D01*
X106331856Y-53131856D01*
X106556215Y-52796077D01*
X106635000Y-52400000D01*
X106635000Y-54640000D01*
X97200000Y-54640000D01*
X96909160Y-54697852D01*
X96662599Y-54862599D01*
X94062599Y-57462599D01*
X93897852Y-57709161D01*
X93840000Y-58000000D01*
X93840000Y-84400000D01*
X93897852Y-84690839D01*
X94062599Y-84937401D01*
X97662599Y-88537401D01*
X97909161Y-88702148D01*
X98200000Y-88760000D01*
X108840000Y-88760000D01*
X108840000Y-90868738D01*
X108556119Y-90443880D01*
X108470120Y-90357880D01*
X107939688Y-90003457D01*
X107314000Y-89878999D01*
X107313994Y-89879000D01*
X103613000Y-89879000D01*
X102987313Y-90003457D01*
X102931035Y-90041060D01*
X102089000Y-90041060D01*
X101846877Y-90088037D01*
X101634073Y-90227827D01*
X101491623Y-90438860D01*
X101441560Y-90688500D01*
X101441560Y-92339500D01*
X101488537Y-92581623D01*
X101628327Y-92794427D01*
X101839360Y-92936877D01*
X102089000Y-92986940D01*
X102931035Y-92986940D01*
X102987313Y-93024543D01*
X103613000Y-93149000D01*
X106967651Y-93149000D01*
X107400000Y-93235000D01*
X108025687Y-93110542D01*
X108556119Y-92756119D01*
X108840000Y-92331260D01*
X108840000Y-95326000D01*
X105784440Y-95326000D01*
X105784440Y-95260500D01*
X105737463Y-95018377D01*
X105597673Y-94805573D01*
X105386640Y-94663123D01*
X105137000Y-94613060D01*
X102089000Y-94613060D01*
X101846877Y-94660037D01*
X101634073Y-94799827D01*
X101491623Y-95010860D01*
X101441560Y-95260500D01*
X101441560Y-96911500D01*
X101488537Y-97153623D01*
X101628327Y-97366427D01*
X101839360Y-97508877D01*
X102089000Y-97558940D01*
X105137000Y-97558940D01*
X105379123Y-97511963D01*
X105591927Y-97372173D01*
X105734377Y-97161140D01*
X105784440Y-96911500D01*
X105784440Y-96846000D01*
X108971198Y-96846000D01*
X109062599Y-96937401D01*
X109309161Y-97102148D01*
X109600000Y-97160000D01*
X109890839Y-97102148D01*
X110137401Y-96937401D01*
X110240000Y-96783850D01*
X110240000Y-110685197D01*
X109999197Y-110926000D01*
X109435000Y-110926000D01*
X109435000Y-107200000D01*
X109310542Y-106574312D01*
X108956119Y-106043880D01*
X108870120Y-105957880D01*
X108339688Y-105603457D01*
X107714000Y-105478999D01*
X107713994Y-105479000D01*
X104013000Y-105479000D01*
X103387313Y-105603457D01*
X103331035Y-105641060D01*
X102489000Y-105641060D01*
X102246877Y-105688037D01*
X102034073Y-105827827D01*
X101891623Y-106038860D01*
X101841560Y-106288500D01*
X101841560Y-107939500D01*
X101888537Y-108181623D01*
X102028327Y-108394427D01*
X102239360Y-108536877D01*
X102489000Y-108586940D01*
X103331035Y-108586940D01*
X103387313Y-108624543D01*
X104013000Y-108749000D01*
X107367651Y-108749000D01*
X107800000Y-108835000D01*
X108425687Y-108710542D01*
X108956119Y-108356119D01*
X109310542Y-107825687D01*
X109435000Y-107200000D01*
X109435000Y-110926000D01*
X106184440Y-110926000D01*
X106184440Y-110860500D01*
X106137463Y-110618377D01*
X105997673Y-110405573D01*
X105786640Y-110263123D01*
X105537000Y-110213060D01*
X102489000Y-110213060D01*
X102246877Y-110260037D01*
X102034073Y-110399827D01*
X101891623Y-110610860D01*
X101841560Y-110860500D01*
X101841560Y-112511500D01*
X101888537Y-112753623D01*
X102028327Y-112966427D01*
X102239360Y-113108877D01*
X102489000Y-113158940D01*
X105537000Y-113158940D01*
X105779123Y-113111963D01*
X105991927Y-112972173D01*
X106134377Y-112761140D01*
X106184440Y-112511500D01*
X106184440Y-112446000D01*
X110314000Y-112446000D01*
X110604839Y-112388148D01*
X110851401Y-112223401D01*
X111040000Y-112034802D01*
X111040000Y-118584198D01*
X106384440Y-123239758D01*
X106384440Y-122739500D01*
X106384440Y-121088500D01*
X106337463Y-120846377D01*
X106197673Y-120633573D01*
X105986640Y-120491123D01*
X105848000Y-120463320D01*
X105848000Y-118613000D01*
X105723543Y-117987313D01*
X105723542Y-117987312D01*
X105369120Y-117456880D01*
X105369116Y-117456877D01*
X105156120Y-117243880D01*
X104625688Y-116889457D01*
X104000000Y-116764999D01*
X103374312Y-116889457D01*
X102843880Y-117243880D01*
X102489457Y-117774312D01*
X102364999Y-118400000D01*
X102489457Y-119025688D01*
X102578000Y-119158202D01*
X102578000Y-120462596D01*
X102446877Y-120488037D01*
X102234073Y-120627827D01*
X102091623Y-120838860D01*
X102041560Y-121088500D01*
X102041560Y-122739500D01*
X102088537Y-122981623D01*
X102228327Y-123194427D01*
X102439360Y-123336877D01*
X102689000Y-123386940D01*
X103531035Y-123386940D01*
X103587313Y-123424543D01*
X104213000Y-123549000D01*
X104838687Y-123424543D01*
X104894964Y-123386940D01*
X105737000Y-123386940D01*
X105979123Y-123339963D01*
X106191927Y-123200173D01*
X106334377Y-122989140D01*
X106384440Y-122739500D01*
X106384440Y-123239758D01*
X104611138Y-125013060D01*
X102689000Y-125013060D01*
X102446877Y-125060037D01*
X102234073Y-125199827D01*
X102091623Y-125410860D01*
X102041560Y-125660500D01*
X102041560Y-127311500D01*
X102088537Y-127553623D01*
X102228327Y-127766427D01*
X102439360Y-127908877D01*
X102689000Y-127958940D01*
X105737000Y-127958940D01*
X105979123Y-127911963D01*
X106191927Y-127772173D01*
X106334377Y-127561140D01*
X106384440Y-127311500D01*
X106384440Y-125660500D01*
X106340381Y-125433420D01*
X112337401Y-119436401D01*
X112502148Y-119189840D01*
X112502148Y-119189839D01*
X112560000Y-118899000D01*
X112560000Y-86200000D01*
X112511746Y-85957413D01*
X112502148Y-85909161D01*
X112502148Y-85909160D01*
X112337401Y-85662599D01*
X111937401Y-85262599D01*
X111690839Y-85097852D01*
X111400000Y-85040000D01*
X99714802Y-85040000D01*
X97360000Y-82685198D01*
X97360000Y-58914802D01*
X98714802Y-57560000D01*
X162640000Y-57560000D01*
X162640000Y-61485198D01*
X161006198Y-63119000D01*
X160811752Y-63119000D01*
X160751640Y-63078423D01*
X160502000Y-63028360D01*
X159232000Y-63028360D01*
X158989877Y-63075337D01*
X158777073Y-63215127D01*
X158634623Y-63426160D01*
X158584560Y-63675800D01*
X158584560Y-64082200D01*
X158607103Y-64198388D01*
X158584560Y-64310800D01*
X158584560Y-64717200D01*
X158609607Y-64846298D01*
X158584560Y-64971200D01*
X158584560Y-65377600D01*
X158607103Y-65493788D01*
X158584560Y-65606200D01*
X158584560Y-66012600D01*
X158609607Y-66141698D01*
X158584560Y-66266600D01*
X158584560Y-66673000D01*
X158609607Y-66802098D01*
X158584560Y-66927000D01*
X158584560Y-67333400D01*
X158607103Y-67449588D01*
X158584560Y-67562000D01*
X158584560Y-67968400D01*
X158609607Y-68097498D01*
X158584560Y-68222400D01*
X158584560Y-68326000D01*
X157514000Y-68326000D01*
X157223161Y-68383852D01*
X157160000Y-68426054D01*
X157160000Y-67200000D01*
X157102148Y-66909161D01*
X156937401Y-66662599D01*
X156867601Y-66592799D01*
X156621039Y-66428052D01*
X156330200Y-66370200D01*
X155815440Y-66370200D01*
X155815440Y-66266600D01*
X155790392Y-66137501D01*
X155815440Y-66012600D01*
X155815440Y-65606200D01*
X155792896Y-65490011D01*
X155815440Y-65377600D01*
X155815440Y-64971200D01*
X155790392Y-64842101D01*
X155815440Y-64717200D01*
X155815440Y-64310800D01*
X155792896Y-64194611D01*
X155815440Y-64082200D01*
X155815440Y-63675800D01*
X155768463Y-63433677D01*
X155628673Y-63220873D01*
X155417640Y-63078423D01*
X155168000Y-63028360D01*
X153898000Y-63028360D01*
X153655877Y-63075337D01*
X153443073Y-63215127D01*
X153300623Y-63426160D01*
X153250560Y-63675800D01*
X153250560Y-64082200D01*
X153273103Y-64198388D01*
X153250560Y-64310800D01*
X153250560Y-64717200D01*
X153275607Y-64846298D01*
X153250560Y-64971200D01*
X153250560Y-65377600D01*
X153273103Y-65493788D01*
X153250560Y-65606200D01*
X153250560Y-66012600D01*
X153275607Y-66141698D01*
X153250560Y-66266600D01*
X153250560Y-66673000D01*
X153275607Y-66802098D01*
X153250560Y-66927000D01*
X153250560Y-67005200D01*
X151960000Y-67005200D01*
X151960000Y-62400000D01*
X151902148Y-62109161D01*
X151737401Y-61862599D01*
X151537401Y-61662599D01*
X151290839Y-61497852D01*
X151000000Y-61440000D01*
X142200000Y-61440000D01*
X141909161Y-61497852D01*
X141662599Y-61662599D01*
X141382599Y-61942599D01*
X141217852Y-62189161D01*
X141160000Y-62480000D01*
X141160000Y-63555351D01*
X140860330Y-63755585D01*
X140650000Y-64070365D01*
X140439670Y-63755585D01*
X139953489Y-63430729D01*
X139380000Y-63316655D01*
X138806511Y-63430729D01*
X138320330Y-63755585D01*
X137995474Y-64241766D01*
X137881400Y-64815255D01*
X137881400Y-65184745D01*
X137995474Y-65758234D01*
X138320330Y-66244415D01*
X138620000Y-66444648D01*
X138620000Y-73428531D01*
X136736971Y-75311560D01*
X135132333Y-75311560D01*
X134890210Y-75358537D01*
X134677406Y-75498327D01*
X134534956Y-75709360D01*
X134484893Y-75959000D01*
X134484893Y-77991000D01*
X134531870Y-78233123D01*
X134671660Y-78445927D01*
X134817193Y-78544163D01*
X134590663Y-78883190D01*
X134464988Y-79515000D01*
X134522262Y-79802935D01*
X133360000Y-80965198D01*
X133360000Y-62400000D01*
X133311746Y-62157413D01*
X133302148Y-62109161D01*
X133302148Y-62109160D01*
X133137401Y-61862599D01*
X132737401Y-61462599D01*
X132490839Y-61297852D01*
X132200000Y-61240000D01*
X124000000Y-61240000D01*
X123709160Y-61297852D01*
X123462599Y-61462599D01*
X116145198Y-68780000D01*
X105180948Y-68780000D01*
X105150463Y-68622877D01*
X105010673Y-68410073D01*
X104801818Y-68269093D01*
X105004927Y-68135673D01*
X105147377Y-67924640D01*
X105197440Y-67675000D01*
X105197440Y-66325000D01*
X105150463Y-66082877D01*
X105010673Y-65870073D01*
X104801818Y-65729093D01*
X105004927Y-65595673D01*
X105147377Y-65384640D01*
X105197440Y-65135000D01*
X105197440Y-63785000D01*
X105150463Y-63542877D01*
X105010673Y-63330073D01*
X104799640Y-63187623D01*
X104550000Y-63137560D01*
X103960000Y-63137560D01*
X103960000Y-62362462D01*
X103992192Y-62330327D01*
X104134838Y-61986799D01*
X104135162Y-61614833D01*
X103993117Y-61271057D01*
X103730327Y-61007808D01*
X103386799Y-60865162D01*
X103014833Y-60864838D01*
X102671057Y-61006883D01*
X102407808Y-61269673D01*
X102265162Y-61613201D01*
X102264838Y-61985167D01*
X102406883Y-62328943D01*
X102440000Y-62362117D01*
X102440000Y-63137560D01*
X101850000Y-63137560D01*
X101607877Y-63184537D01*
X101395073Y-63324327D01*
X101252623Y-63535360D01*
X101202560Y-63785000D01*
X101202560Y-65135000D01*
X101249537Y-65377123D01*
X101389327Y-65589927D01*
X101598181Y-65730906D01*
X101395073Y-65864327D01*
X101252623Y-66075360D01*
X101202560Y-66325000D01*
X101202560Y-67675000D01*
X101249537Y-67917123D01*
X101389327Y-68129927D01*
X101598181Y-68270906D01*
X101395073Y-68404327D01*
X101252623Y-68615360D01*
X101202560Y-68865000D01*
X101202560Y-70215000D01*
X101249537Y-70457123D01*
X101389327Y-70669927D01*
X101600360Y-70812377D01*
X101850000Y-70862440D01*
X104550000Y-70862440D01*
X104792123Y-70815463D01*
X105004927Y-70675673D01*
X105147377Y-70464640D01*
X105180394Y-70300000D01*
X116460000Y-70300000D01*
X116750839Y-70242148D01*
X116997401Y-70077401D01*
X124314802Y-62760000D01*
X131840000Y-62760000D01*
X131840000Y-80885198D01*
X131560000Y-81165198D01*
X131560000Y-67000000D01*
X131502148Y-66709161D01*
X131337401Y-66462599D01*
X131090839Y-66297852D01*
X130800000Y-66240000D01*
X129980948Y-66240000D01*
X129950463Y-66082877D01*
X129810673Y-65870073D01*
X129601818Y-65729093D01*
X129804927Y-65595673D01*
X129947377Y-65384640D01*
X129997440Y-65135000D01*
X129997440Y-63785000D01*
X129950463Y-63542877D01*
X129810673Y-63330073D01*
X129599640Y-63187623D01*
X129350000Y-63137560D01*
X126650000Y-63137560D01*
X126407877Y-63184537D01*
X126195073Y-63324327D01*
X126052623Y-63535360D01*
X126002560Y-63785000D01*
X126002560Y-64322638D01*
X123662599Y-66662599D01*
X123497852Y-66909161D01*
X123440000Y-67200000D01*
X123440000Y-81600000D01*
X123497852Y-81890839D01*
X123662599Y-82137401D01*
X125640000Y-84114802D01*
X125640000Y-86152560D01*
X125100000Y-86152560D01*
X124857877Y-86199537D01*
X124645073Y-86339327D01*
X124502623Y-86550360D01*
X124452560Y-86800000D01*
X124452560Y-86940000D01*
X123767028Y-86940000D01*
X123586799Y-86865162D01*
X123214833Y-86864838D01*
X122871057Y-87006883D01*
X122607808Y-87269673D01*
X122465162Y-87613201D01*
X122464838Y-87985167D01*
X122606883Y-88328943D01*
X122869673Y-88592192D01*
X123213201Y-88734838D01*
X123585167Y-88735162D01*
X123928943Y-88593117D01*
X124062292Y-88460000D01*
X124452560Y-88460000D01*
X124452560Y-88600000D01*
X124499537Y-88842123D01*
X124639327Y-89054927D01*
X124850360Y-89197377D01*
X125100000Y-89247440D01*
X125700000Y-89247440D01*
X125903304Y-89207994D01*
X126100000Y-89247440D01*
X126700000Y-89247440D01*
X126903304Y-89207994D01*
X127100000Y-89247440D01*
X127700000Y-89247440D01*
X127903304Y-89207994D01*
X128100000Y-89247440D01*
X128700000Y-89247440D01*
X128903304Y-89207994D01*
X129100000Y-89247440D01*
X129700000Y-89247440D01*
X129903304Y-89207994D01*
X130100000Y-89247440D01*
X130700000Y-89247440D01*
X130903304Y-89207994D01*
X131100000Y-89247440D01*
X131700000Y-89247440D01*
X131903304Y-89207994D01*
X132100000Y-89247440D01*
X132700000Y-89247440D01*
X132903304Y-89207994D01*
X133100000Y-89247440D01*
X133700000Y-89247440D01*
X133903304Y-89207994D01*
X134100000Y-89247440D01*
X134700000Y-89247440D01*
X134903304Y-89207994D01*
X135100000Y-89247440D01*
X135700000Y-89247440D01*
X135903304Y-89207994D01*
X136100000Y-89247440D01*
X136700000Y-89247440D01*
X136903304Y-89207994D01*
X137100000Y-89247440D01*
X137700000Y-89247440D01*
X137903304Y-89207994D01*
X138100000Y-89247440D01*
X138700000Y-89247440D01*
X138903304Y-89207994D01*
X139100000Y-89247440D01*
X139700000Y-89247440D01*
X139903304Y-89207994D01*
X140100000Y-89247440D01*
X140700000Y-89247440D01*
X140903304Y-89207994D01*
X141100000Y-89247440D01*
X141700000Y-89247440D01*
X141903304Y-89207994D01*
X142100000Y-89247440D01*
X142700000Y-89247440D01*
X142903304Y-89207994D01*
X143100000Y-89247440D01*
X143700000Y-89247440D01*
X143903304Y-89207994D01*
X144100000Y-89247440D01*
X144700000Y-89247440D01*
X144903304Y-89207994D01*
X145100000Y-89247440D01*
X145700000Y-89247440D01*
X145942123Y-89200463D01*
X146154927Y-89060673D01*
X146297377Y-88849640D01*
X146347440Y-88600000D01*
X146347440Y-88460000D01*
X147232971Y-88460000D01*
X147413201Y-88534838D01*
X147785167Y-88535162D01*
X148128943Y-88393117D01*
X148392192Y-88130327D01*
X148534838Y-87786799D01*
X148535162Y-87414833D01*
X148393117Y-87071057D01*
X148130327Y-86807808D01*
X147786799Y-86665162D01*
X147414833Y-86664838D01*
X147071057Y-86806883D01*
X146937707Y-86940000D01*
X146347440Y-86940000D01*
X146347440Y-86800000D01*
X146300463Y-86557877D01*
X146160673Y-86345073D01*
X145949640Y-86202623D01*
X145920217Y-86196722D01*
X145928943Y-86193117D01*
X146192192Y-85930327D01*
X146334838Y-85586799D01*
X146335162Y-85214833D01*
X146193117Y-84871057D01*
X145930327Y-84607808D01*
X145586799Y-84465162D01*
X145214833Y-84464838D01*
X144871057Y-84606883D01*
X144607808Y-84869673D01*
X144465162Y-85213201D01*
X144465121Y-85260076D01*
X144310000Y-85415198D01*
X144310000Y-83947440D01*
X144650000Y-83947440D01*
X144892123Y-83900463D01*
X145104927Y-83760673D01*
X145105381Y-83760000D01*
X145837537Y-83760000D01*
X145869673Y-83792192D01*
X146213201Y-83934838D01*
X146585167Y-83935162D01*
X146928943Y-83793117D01*
X147192192Y-83530327D01*
X147334838Y-83186799D01*
X147335162Y-82814833D01*
X147193117Y-82471057D01*
X146930327Y-82207808D01*
X146586799Y-82065162D01*
X146214833Y-82064838D01*
X145871057Y-82206883D01*
X145837882Y-82240000D01*
X145103157Y-82240000D01*
X144899640Y-82102623D01*
X144650000Y-82052560D01*
X144250000Y-82052560D01*
X144007877Y-82099537D01*
X144001385Y-82103801D01*
X143999640Y-82102623D01*
X143750000Y-82052560D01*
X143350000Y-82052560D01*
X143107877Y-82099537D01*
X142895073Y-82239327D01*
X142752623Y-82450360D01*
X142702560Y-82700000D01*
X142702560Y-83300000D01*
X142749537Y-83542123D01*
X142790000Y-83603720D01*
X142790000Y-86170608D01*
X142700000Y-86152560D01*
X142160000Y-86152560D01*
X142160000Y-85962462D01*
X142192192Y-85930327D01*
X142334838Y-85586799D01*
X142335162Y-85214833D01*
X142193117Y-84871057D01*
X141930327Y-84607808D01*
X141586799Y-84465162D01*
X141214833Y-84464838D01*
X140871057Y-84606883D01*
X140607808Y-84869673D01*
X140465162Y-85213201D01*
X140464838Y-85585167D01*
X140606883Y-85928943D01*
X140640000Y-85962117D01*
X140640000Y-86152560D01*
X140100000Y-86152560D01*
X139896695Y-86192005D01*
X139700000Y-86152560D01*
X139100000Y-86152560D01*
X138896695Y-86192005D01*
X138700000Y-86152560D01*
X138100000Y-86152560D01*
X137896695Y-86192005D01*
X137700000Y-86152560D01*
X137160000Y-86152560D01*
X137160000Y-85962462D01*
X137192192Y-85930327D01*
X137334838Y-85586799D01*
X137335162Y-85214833D01*
X137193117Y-84871057D01*
X136930327Y-84607808D01*
X136586799Y-84465162D01*
X136214833Y-84464838D01*
X135871057Y-84606883D01*
X135607808Y-84869673D01*
X135465162Y-85213201D01*
X135464838Y-85585167D01*
X135606883Y-85928943D01*
X135640000Y-85962117D01*
X135640000Y-86152560D01*
X135100000Y-86152560D01*
X134896695Y-86192005D01*
X134700000Y-86152560D01*
X134100000Y-86152560D01*
X133896695Y-86192005D01*
X133700000Y-86152560D01*
X133169920Y-86152560D01*
X133192192Y-86130327D01*
X133334838Y-85786799D01*
X133335162Y-85414833D01*
X133193117Y-85071057D01*
X132930327Y-84807808D01*
X132586799Y-84665162D01*
X132214833Y-84664838D01*
X132160000Y-84687494D01*
X132160000Y-84314802D01*
X135454384Y-81020417D01*
X135484178Y-81040325D01*
X136115988Y-81166000D01*
X136180678Y-81166000D01*
X136812488Y-81040325D01*
X137348111Y-80682433D01*
X137706003Y-80146810D01*
X137831678Y-79515000D01*
X137706003Y-78883190D01*
X137479163Y-78543701D01*
X137619260Y-78451673D01*
X137761710Y-78240640D01*
X137811773Y-77991000D01*
X137811773Y-77700000D01*
X142127983Y-77700000D01*
X142400222Y-78107433D01*
X142935845Y-78465325D01*
X143567655Y-78591000D01*
X143632345Y-78591000D01*
X144264155Y-78465325D01*
X144799778Y-78107433D01*
X145072016Y-77700000D01*
X147625198Y-77700000D01*
X148040000Y-78114802D01*
X148040000Y-83400000D01*
X148097852Y-83690839D01*
X148262599Y-83937401D01*
X148462599Y-84137401D01*
X148709161Y-84302148D01*
X149000000Y-84360000D01*
X160000000Y-84360000D01*
X160000000Y-84359999D01*
X160290839Y-84302148D01*
X160537401Y-84137401D01*
X160702148Y-83890839D01*
X160759999Y-83600000D01*
X160760000Y-83600000D01*
X160711746Y-83357413D01*
X160702148Y-83309161D01*
X160702148Y-83309160D01*
X160627000Y-83196693D01*
X160627000Y-70547387D01*
X160744123Y-70524663D01*
X160956927Y-70384873D01*
X161099377Y-70173840D01*
X161149440Y-69924200D01*
X161149440Y-69517800D01*
X161126896Y-69401611D01*
X161149440Y-69289200D01*
X161149440Y-69185600D01*
X164040000Y-69185600D01*
X164040000Y-98085198D01*
X162285198Y-99840000D01*
X161801283Y-99840000D01*
X161507433Y-99400222D01*
X160971810Y-99042330D01*
X160340000Y-98916655D01*
X159708190Y-99042330D01*
X159368701Y-99269169D01*
X159276673Y-99129073D01*
X159065640Y-98986623D01*
X158816000Y-98936560D01*
X156784000Y-98936560D01*
X156541877Y-98983537D01*
X156329073Y-99123327D01*
X156186623Y-99334360D01*
X156136560Y-99584000D01*
X156136560Y-101188638D01*
X155885198Y-101440000D01*
X152447440Y-101440000D01*
X152447440Y-100900000D01*
X152407994Y-100696695D01*
X152447440Y-100500000D01*
X152447440Y-99900000D01*
X152407994Y-99696695D01*
X152447440Y-99500000D01*
X152447440Y-98900000D01*
X152407994Y-98696695D01*
X152447440Y-98500000D01*
X152447440Y-97900000D01*
X152407994Y-97696695D01*
X152447440Y-97500000D01*
X152447440Y-96900000D01*
X152407994Y-96696695D01*
X152447440Y-96500000D01*
X152447440Y-95960000D01*
X153437537Y-95960000D01*
X153469673Y-95992192D01*
X153813201Y-96134838D01*
X154185167Y-96135162D01*
X154528943Y-95993117D01*
X154792192Y-95730327D01*
X154934838Y-95386799D01*
X154935162Y-95014833D01*
X154793117Y-94671057D01*
X154530327Y-94407808D01*
X154186799Y-94265162D01*
X153814833Y-94264838D01*
X153471057Y-94406883D01*
X153437882Y-94440000D01*
X152447440Y-94440000D01*
X152447440Y-93960000D01*
X153437537Y-93960000D01*
X153469673Y-93992192D01*
X153813201Y-94134838D01*
X154185167Y-94135162D01*
X154528943Y-93993117D01*
X154792192Y-93730327D01*
X154934838Y-93386799D01*
X154935162Y-93014833D01*
X154793117Y-92671057D01*
X154530327Y-92407808D01*
X154186799Y-92265162D01*
X153814833Y-92264838D01*
X153471057Y-92406883D01*
X153437882Y-92440000D01*
X152253157Y-92440000D01*
X152049640Y-92302623D01*
X151800000Y-92252560D01*
X150000000Y-92252560D01*
X149757877Y-92299537D01*
X149545073Y-92439327D01*
X149402623Y-92650360D01*
X149352560Y-92900000D01*
X149352560Y-93500000D01*
X149392005Y-93703304D01*
X149352560Y-93900000D01*
X149352560Y-94500000D01*
X149392005Y-94703304D01*
X149352560Y-94900000D01*
X149352560Y-95500000D01*
X149392005Y-95703304D01*
X149352560Y-95900000D01*
X149352560Y-96500000D01*
X149392005Y-96703304D01*
X149352560Y-96900000D01*
X149352560Y-97500000D01*
X149392005Y-97703304D01*
X149352560Y-97900000D01*
X149352560Y-98500000D01*
X149392005Y-98703304D01*
X149352560Y-98900000D01*
X149352560Y-99500000D01*
X149392005Y-99703304D01*
X149352560Y-99900000D01*
X149352560Y-100500000D01*
X149392005Y-100703304D01*
X149352560Y-100900000D01*
X149352560Y-101500000D01*
X149392005Y-101703304D01*
X149352560Y-101900000D01*
X149352560Y-102500000D01*
X149392005Y-102703304D01*
X149352560Y-102900000D01*
X149352560Y-103440000D01*
X147400000Y-103440000D01*
X147109161Y-103497852D01*
X146862599Y-103662599D01*
X146662599Y-103862599D01*
X146497852Y-104109161D01*
X146440000Y-104400000D01*
X146440000Y-114600000D01*
X146497852Y-114890839D01*
X146662599Y-115137401D01*
X147062599Y-115537401D01*
X147309160Y-115702148D01*
X147309161Y-115702148D01*
X147357413Y-115711746D01*
X147600000Y-115760000D01*
X165600000Y-115760000D01*
X165890839Y-115702148D01*
X166137401Y-115537401D01*
X169937401Y-111737401D01*
X170102148Y-111490839D01*
X170160000Y-111200000D01*
X170160000Y-131690000D01*
X156535370Y-131690000D01*
X156535370Y-125977185D01*
X156211020Y-125192200D01*
X155610959Y-124591091D01*
X154826541Y-124265372D01*
X153977185Y-124264630D01*
X153192200Y-124588980D01*
X152591091Y-125189041D01*
X152265372Y-125973459D01*
X152264630Y-126822815D01*
X152588980Y-127607800D01*
X153189041Y-128208909D01*
X153973459Y-128534628D01*
X154822815Y-128535370D01*
X155607800Y-128211020D01*
X156208909Y-127610959D01*
X156534628Y-126826541D01*
X156535370Y-125977185D01*
X156535370Y-131690000D01*
X148635001Y-131690000D01*
X148635001Y-120800000D01*
X148510543Y-120174312D01*
X148156120Y-119643880D01*
X147625688Y-119289457D01*
X147000000Y-119164999D01*
X146374312Y-119289457D01*
X145843881Y-119643880D01*
X145783880Y-119703880D01*
X145429457Y-120234312D01*
X145304999Y-120860000D01*
X145305000Y-120860005D01*
X145305000Y-123860000D01*
X145305000Y-125275269D01*
X145285000Y-125255234D01*
X145285000Y-119247440D01*
X145700000Y-119247440D01*
X145942123Y-119200463D01*
X146154927Y-119060673D01*
X146297377Y-118849640D01*
X146347440Y-118600000D01*
X146347440Y-118460000D01*
X146832971Y-118460000D01*
X147013201Y-118534838D01*
X147385167Y-118535162D01*
X147728943Y-118393117D01*
X147992192Y-118130327D01*
X148134838Y-117786799D01*
X148135162Y-117414833D01*
X147993117Y-117071057D01*
X147730327Y-116807808D01*
X147386799Y-116665162D01*
X147014833Y-116664838D01*
X146671057Y-116806883D01*
X146537707Y-116940000D01*
X146347440Y-116940000D01*
X146347440Y-116800000D01*
X146300463Y-116557877D01*
X146160673Y-116345073D01*
X145949640Y-116202623D01*
X145700000Y-116152560D01*
X145100000Y-116152560D01*
X144896695Y-116192005D01*
X144700000Y-116152560D01*
X144100000Y-116152560D01*
X143896695Y-116192005D01*
X143700000Y-116152560D01*
X143100000Y-116152560D01*
X142896695Y-116192005D01*
X142700000Y-116152560D01*
X142100000Y-116152560D01*
X141896695Y-116192005D01*
X141700000Y-116152560D01*
X141100000Y-116152560D01*
X140896695Y-116192005D01*
X140700000Y-116152560D01*
X140100000Y-116152560D01*
X139896695Y-116192005D01*
X139700000Y-116152560D01*
X139100000Y-116152560D01*
X138896695Y-116192005D01*
X138700000Y-116152560D01*
X138100000Y-116152560D01*
X137896695Y-116192005D01*
X137700000Y-116152560D01*
X137100000Y-116152560D01*
X136896695Y-116192005D01*
X136700000Y-116152560D01*
X136100000Y-116152560D01*
X135896695Y-116192005D01*
X135700000Y-116152560D01*
X135100000Y-116152560D01*
X134896695Y-116192005D01*
X134700000Y-116152560D01*
X134100000Y-116152560D01*
X133896695Y-116192005D01*
X133700000Y-116152560D01*
X133100000Y-116152560D01*
X132896695Y-116192005D01*
X132700000Y-116152560D01*
X132100000Y-116152560D01*
X131896695Y-116192005D01*
X131700000Y-116152560D01*
X131100000Y-116152560D01*
X130896695Y-116192005D01*
X130700000Y-116152560D01*
X130100000Y-116152560D01*
X129896695Y-116192005D01*
X129700000Y-116152560D01*
X129100000Y-116152560D01*
X128896695Y-116192005D01*
X128700000Y-116152560D01*
X128100000Y-116152560D01*
X127896695Y-116192005D01*
X127700000Y-116152560D01*
X127100000Y-116152560D01*
X126896695Y-116192005D01*
X126700000Y-116152560D01*
X126100000Y-116152560D01*
X125896695Y-116192005D01*
X125700000Y-116152560D01*
X125100000Y-116152560D01*
X124857877Y-116199537D01*
X124645073Y-116339327D01*
X124502623Y-116550360D01*
X124452560Y-116800000D01*
X124452560Y-118600000D01*
X124499537Y-118842123D01*
X124515000Y-118865662D01*
X124515000Y-125255687D01*
X124495000Y-125275652D01*
X124495000Y-123860005D01*
X124495000Y-123860000D01*
X124495001Y-123860000D01*
X124435000Y-123558359D01*
X124435000Y-123558356D01*
X124435000Y-121400000D01*
X124310543Y-120774313D01*
X123956120Y-120243880D01*
X123425687Y-119889457D01*
X122800000Y-119765000D01*
X122447440Y-119835128D01*
X122447440Y-112500000D01*
X122447440Y-111900000D01*
X122447440Y-109500000D01*
X122447440Y-108900000D01*
X122407994Y-108696695D01*
X122447440Y-108500000D01*
X122447440Y-107900000D01*
X122407994Y-107696695D01*
X122447440Y-107500000D01*
X122447440Y-106900000D01*
X122407994Y-106696695D01*
X122447440Y-106500000D01*
X122447440Y-105900000D01*
X122407994Y-105696695D01*
X122447440Y-105500000D01*
X122447440Y-104900000D01*
X122407994Y-104696695D01*
X122447440Y-104500000D01*
X122447440Y-103900000D01*
X122407994Y-103696695D01*
X122447440Y-103500000D01*
X122447440Y-102900000D01*
X122407994Y-102696695D01*
X122447440Y-102500000D01*
X122447440Y-101900000D01*
X122407994Y-101696695D01*
X122447440Y-101500000D01*
X122447440Y-100900000D01*
X122407994Y-100696695D01*
X122447440Y-100500000D01*
X122447440Y-99900000D01*
X122407994Y-99696695D01*
X122447440Y-99500000D01*
X122447440Y-98900000D01*
X122407994Y-98696695D01*
X122447440Y-98500000D01*
X122447440Y-97900000D01*
X122407994Y-97696695D01*
X122447440Y-97500000D01*
X122447440Y-96900000D01*
X122407994Y-96696695D01*
X122447440Y-96500000D01*
X122447440Y-95900000D01*
X122407994Y-95696695D01*
X122447440Y-95500000D01*
X122447440Y-94900000D01*
X122407994Y-94696695D01*
X122447440Y-94500000D01*
X122447440Y-93900000D01*
X122407994Y-93696695D01*
X122447440Y-93500000D01*
X122447440Y-92900000D01*
X122400463Y-92657877D01*
X122260673Y-92445073D01*
X122049640Y-92302623D01*
X121800000Y-92252560D01*
X120000000Y-92252560D01*
X119757877Y-92299537D01*
X119545073Y-92439327D01*
X119402623Y-92650360D01*
X119352560Y-92900000D01*
X119352560Y-93500000D01*
X119392005Y-93703304D01*
X119352560Y-93900000D01*
X119352560Y-94500000D01*
X119392005Y-94703304D01*
X119352560Y-94900000D01*
X119352560Y-95500000D01*
X119392005Y-95703304D01*
X119352560Y-95900000D01*
X119352560Y-96500000D01*
X119392005Y-96703304D01*
X119352560Y-96900000D01*
X119352560Y-97500000D01*
X119392005Y-97703304D01*
X119352560Y-97900000D01*
X119352560Y-98500000D01*
X119392005Y-98703304D01*
X119352560Y-98900000D01*
X119352560Y-99500000D01*
X119392005Y-99703304D01*
X119352560Y-99900000D01*
X119352560Y-100500000D01*
X119392005Y-100703304D01*
X119352560Y-100900000D01*
X119352560Y-101500000D01*
X119392005Y-101703304D01*
X119352560Y-101900000D01*
X119352560Y-102500000D01*
X119392005Y-102703304D01*
X119352560Y-102900000D01*
X119352560Y-103500000D01*
X119392005Y-103703304D01*
X119352560Y-103900000D01*
X119352560Y-104500000D01*
X119392005Y-104703304D01*
X119352560Y-104900000D01*
X119352560Y-105500000D01*
X119392005Y-105703304D01*
X119352560Y-105900000D01*
X119352560Y-106500000D01*
X119392005Y-106703304D01*
X119352560Y-106900000D01*
X119352560Y-107500000D01*
X119392005Y-107703304D01*
X119364177Y-107842067D01*
X119130327Y-107607808D01*
X118786799Y-107465162D01*
X118414833Y-107464838D01*
X118071057Y-107606883D01*
X117807808Y-107869673D01*
X117665162Y-108213201D01*
X117664838Y-108585167D01*
X117806883Y-108928943D01*
X118069673Y-109192192D01*
X118413201Y-109334838D01*
X118460076Y-109334878D01*
X118862599Y-109737401D01*
X119109161Y-109902148D01*
X119365000Y-109953038D01*
X119400000Y-109960000D01*
X119410750Y-109960000D01*
X119523750Y-110073000D01*
X119714246Y-110073000D01*
X119750360Y-110097377D01*
X120000000Y-110147440D01*
X121800000Y-110147440D01*
X122042123Y-110100463D01*
X122083930Y-110073000D01*
X122276250Y-110073000D01*
X122435000Y-109914250D01*
X122435000Y-109773690D01*
X122406400Y-109704644D01*
X122447440Y-109500000D01*
X122447440Y-111900000D01*
X122407309Y-111693161D01*
X122435000Y-111626310D01*
X122435000Y-111485750D01*
X122435000Y-110914250D01*
X122435000Y-110773690D01*
X122404476Y-110700000D01*
X122435000Y-110626310D01*
X122435000Y-110485750D01*
X122276250Y-110327000D01*
X122075990Y-110327000D01*
X121926309Y-110265000D01*
X121185750Y-110265000D01*
X121123750Y-110327000D01*
X121027000Y-110327000D01*
X121027000Y-110423750D01*
X121027000Y-110976250D01*
X121027000Y-111073000D01*
X121123750Y-111073000D01*
X121185750Y-111135000D01*
X121926309Y-111135000D01*
X122075990Y-111073000D01*
X122276250Y-111073000D01*
X122435000Y-110914250D01*
X122435000Y-111485750D01*
X122276250Y-111327000D01*
X122085753Y-111327000D01*
X122049640Y-111302623D01*
X121800000Y-111252560D01*
X120773000Y-111252560D01*
X120773000Y-111073000D01*
X120773000Y-110976250D01*
X120773000Y-110423750D01*
X120773000Y-110327000D01*
X120676250Y-110327000D01*
X120614250Y-110265000D01*
X119873691Y-110265000D01*
X119724009Y-110327000D01*
X119523750Y-110327000D01*
X119365000Y-110485750D01*
X119365000Y-110626310D01*
X119395523Y-110700000D01*
X119365000Y-110773690D01*
X119365000Y-110914250D01*
X119523750Y-111073000D01*
X119724009Y-111073000D01*
X119873691Y-111135000D01*
X120614250Y-111135000D01*
X120676250Y-111073000D01*
X120773000Y-111073000D01*
X120773000Y-111252560D01*
X120000000Y-111252560D01*
X119757877Y-111299537D01*
X119716069Y-111327000D01*
X119523750Y-111327000D01*
X119365000Y-111485750D01*
X119365000Y-111626310D01*
X119393599Y-111695355D01*
X119352560Y-111900000D01*
X119352560Y-112500000D01*
X119399537Y-112742123D01*
X119539327Y-112954927D01*
X119750360Y-113097377D01*
X120000000Y-113147440D01*
X120140000Y-113147440D01*
X120140000Y-114337711D01*
X120007808Y-114469673D01*
X119865162Y-114813201D01*
X119864838Y-115185167D01*
X120006883Y-115528943D01*
X120269673Y-115792192D01*
X120613201Y-115934838D01*
X120985167Y-115935162D01*
X121328943Y-115793117D01*
X121592192Y-115530327D01*
X121734838Y-115186799D01*
X121735162Y-114814833D01*
X121660000Y-114632926D01*
X121660000Y-113147440D01*
X121800000Y-113147440D01*
X122042123Y-113100463D01*
X122254927Y-112960673D01*
X122397377Y-112749640D01*
X122447440Y-112500000D01*
X122447440Y-119835128D01*
X122174313Y-119889457D01*
X121643880Y-120243880D01*
X121289457Y-120774313D01*
X121165000Y-121400000D01*
X121165000Y-123799994D01*
X121164999Y-123800000D01*
X121225000Y-124101643D01*
X121225000Y-128940000D01*
X121349457Y-129565687D01*
X121703880Y-130096120D01*
X122234313Y-130450543D01*
X122860000Y-130575000D01*
X127940000Y-130575000D01*
X128565687Y-130450543D01*
X129096120Y-130096120D01*
X129450543Y-129565687D01*
X129575000Y-128940000D01*
X129575000Y-124620000D01*
X132539800Y-124620000D01*
X132830639Y-124562148D01*
X133077201Y-124397401D01*
X134859818Y-122614783D01*
X134852840Y-122649580D01*
X134852840Y-123650340D01*
X134899817Y-123892463D01*
X135039607Y-124105267D01*
X135250640Y-124247717D01*
X135500280Y-124297780D01*
X136099720Y-124297780D01*
X136341843Y-124250803D01*
X136554647Y-124111013D01*
X136690360Y-123909960D01*
X136902560Y-123909960D01*
X136902560Y-124300000D01*
X136949537Y-124542123D01*
X137089327Y-124754927D01*
X137155528Y-124799613D01*
X137095073Y-124839327D01*
X136952623Y-125050360D01*
X136902560Y-125300000D01*
X136902560Y-125800000D01*
X136920157Y-125890700D01*
X136721008Y-125890700D01*
X136659453Y-125796993D01*
X136448420Y-125654543D01*
X136198780Y-125604480D01*
X135401220Y-125604480D01*
X135159097Y-125651457D01*
X134946293Y-125791247D01*
X134803843Y-126002280D01*
X134753780Y-126251920D01*
X134753780Y-127049480D01*
X134800757Y-127291603D01*
X134864728Y-127388986D01*
X134862893Y-127390822D01*
X134766220Y-127624211D01*
X134766220Y-127863550D01*
X134924970Y-128022300D01*
X135673000Y-128022300D01*
X135673000Y-128002300D01*
X135927000Y-128002300D01*
X135927000Y-128022300D01*
X136675030Y-128022300D01*
X136833780Y-127863550D01*
X136833780Y-127624211D01*
X136745340Y-127410700D01*
X137949300Y-127410700D01*
X138240139Y-127352848D01*
X138486701Y-127188101D01*
X138537401Y-127137401D01*
X138702148Y-126890839D01*
X138760000Y-126600000D01*
X138760000Y-126355874D01*
X138904927Y-126260673D01*
X139047377Y-126049640D01*
X139097440Y-125800000D01*
X139097440Y-125300000D01*
X139050463Y-125057877D01*
X138910673Y-124845073D01*
X138844471Y-124800386D01*
X138904927Y-124760673D01*
X139047377Y-124549640D01*
X139097440Y-124300000D01*
X139097440Y-123800000D01*
X139050463Y-123557877D01*
X138910673Y-123345073D01*
X138760000Y-123243366D01*
X138760000Y-123200000D01*
X138702148Y-122909161D01*
X138702148Y-122909160D01*
X138537401Y-122662599D01*
X138487361Y-122612559D01*
X138240799Y-122447812D01*
X137949960Y-122389960D01*
X136790677Y-122389960D01*
X136992083Y-122350883D01*
X137204887Y-122211093D01*
X137347337Y-122000060D01*
X137397400Y-121750420D01*
X137397400Y-120749660D01*
X137350423Y-120507537D01*
X137210633Y-120294733D01*
X137210240Y-120294467D01*
X137210240Y-119247440D01*
X137700000Y-119247440D01*
X137903304Y-119207994D01*
X138100000Y-119247440D01*
X138700000Y-119247440D01*
X138903304Y-119207994D01*
X139100000Y-119247440D01*
X139700000Y-119247440D01*
X139903304Y-119207994D01*
X140100000Y-119247440D01*
X140700000Y-119247440D01*
X140903304Y-119207994D01*
X141100000Y-119247440D01*
X141640000Y-119247440D01*
X141640000Y-122268760D01*
X141234313Y-122349457D01*
X140703880Y-122703880D01*
X140349457Y-123234313D01*
X140225000Y-123860000D01*
X140225000Y-128940000D01*
X140349457Y-129565687D01*
X140703880Y-130096120D01*
X141234313Y-130450543D01*
X141860000Y-130575000D01*
X146940000Y-130575000D01*
X147565687Y-130450543D01*
X148096120Y-130096120D01*
X148450543Y-129565687D01*
X148575000Y-128940000D01*
X148575000Y-123860000D01*
X148575000Y-121101643D01*
X148635001Y-120800000D01*
X148635001Y-131690000D01*
X136833780Y-131690000D01*
X136833780Y-128674389D01*
X136833780Y-128435050D01*
X136675030Y-128276300D01*
X135927000Y-128276300D01*
X135927000Y-129024330D01*
X136085750Y-129183080D01*
X136325090Y-129183080D01*
X136558479Y-129086407D01*
X136737107Y-128907778D01*
X136833780Y-128674389D01*
X136833780Y-131690000D01*
X135673000Y-131690000D01*
X135673000Y-129024330D01*
X135673000Y-128276300D01*
X134924970Y-128276300D01*
X134766220Y-128435050D01*
X134766220Y-128674389D01*
X134862893Y-128907778D01*
X135041521Y-129086407D01*
X135274910Y-129183080D01*
X135514250Y-129183080D01*
X135673000Y-129024330D01*
X135673000Y-131690000D01*
X117535370Y-131690000D01*
X117535370Y-125977185D01*
X117211020Y-125192200D01*
X116935000Y-124915697D01*
X116935000Y-113551310D01*
X116935000Y-113298691D01*
X116935000Y-113085750D01*
X116935000Y-112514250D01*
X116935000Y-112301309D01*
X116935000Y-112048690D01*
X116935000Y-109151310D01*
X116935000Y-108898691D01*
X116935000Y-108685750D01*
X116935000Y-108114250D01*
X116935000Y-107901309D01*
X116935000Y-107648690D01*
X116838327Y-107415301D01*
X116659698Y-107236673D01*
X116426309Y-107140000D01*
X116085750Y-107140000D01*
X115927000Y-107298750D01*
X115927000Y-108273000D01*
X116776250Y-108273000D01*
X116935000Y-108114250D01*
X116935000Y-108685750D01*
X116776250Y-108527000D01*
X115927000Y-108527000D01*
X115927000Y-109501250D01*
X116085750Y-109660000D01*
X116426309Y-109660000D01*
X116659698Y-109563327D01*
X116838327Y-109384699D01*
X116935000Y-109151310D01*
X116935000Y-112048690D01*
X116838327Y-111815301D01*
X116659698Y-111636673D01*
X116426309Y-111540000D01*
X116085750Y-111540000D01*
X115927000Y-111698750D01*
X115927000Y-112673000D01*
X116776250Y-112673000D01*
X116935000Y-112514250D01*
X116935000Y-113085750D01*
X116776250Y-112927000D01*
X115927000Y-112927000D01*
X115927000Y-113901250D01*
X116085750Y-114060000D01*
X116426309Y-114060000D01*
X116659698Y-113963327D01*
X116838327Y-113784699D01*
X116935000Y-113551310D01*
X116935000Y-124915697D01*
X116610959Y-124591091D01*
X115826541Y-124265372D01*
X115673000Y-124265237D01*
X115673000Y-113901250D01*
X115673000Y-112927000D01*
X115653000Y-112927000D01*
X115653000Y-112673000D01*
X115673000Y-112673000D01*
X115673000Y-111698750D01*
X115673000Y-109501250D01*
X115673000Y-108527000D01*
X115653000Y-108527000D01*
X115653000Y-108273000D01*
X115673000Y-108273000D01*
X115673000Y-107298750D01*
X115514250Y-107140000D01*
X115173691Y-107140000D01*
X114940302Y-107236673D01*
X114798823Y-107378150D01*
X114760673Y-107320073D01*
X114560000Y-107184616D01*
X114560000Y-106762462D01*
X114592192Y-106730327D01*
X114734838Y-106386799D01*
X114735162Y-106014833D01*
X114593117Y-105671057D01*
X114330327Y-105407808D01*
X113986799Y-105265162D01*
X113614833Y-105264838D01*
X113271057Y-105406883D01*
X113007808Y-105669673D01*
X112865162Y-106013201D01*
X112864838Y-106385167D01*
X113006883Y-106728943D01*
X113040000Y-106762117D01*
X113040000Y-107186280D01*
X112845073Y-107314327D01*
X112702623Y-107525360D01*
X112652560Y-107775000D01*
X112652560Y-109025000D01*
X112699537Y-109267123D01*
X112839327Y-109479927D01*
X113050360Y-109622377D01*
X113300000Y-109672440D01*
X114300000Y-109672440D01*
X114542123Y-109625463D01*
X114754927Y-109485673D01*
X114798337Y-109421362D01*
X114940302Y-109563327D01*
X115173691Y-109660000D01*
X115514250Y-109660000D01*
X115673000Y-109501250D01*
X115673000Y-111698750D01*
X115514250Y-111540000D01*
X115173691Y-111540000D01*
X114940302Y-111636673D01*
X114798823Y-111778150D01*
X114760673Y-111720073D01*
X114549640Y-111577623D01*
X114300000Y-111527560D01*
X113300000Y-111527560D01*
X113057877Y-111574537D01*
X112845073Y-111714327D01*
X112702623Y-111925360D01*
X112652560Y-112175000D01*
X112652560Y-113425000D01*
X112699537Y-113667123D01*
X112839327Y-113879927D01*
X113040000Y-114015383D01*
X113040000Y-114637537D01*
X113007808Y-114669673D01*
X112865162Y-115013201D01*
X112864838Y-115385167D01*
X113006883Y-115728943D01*
X113269673Y-115992192D01*
X113613201Y-116134838D01*
X113985167Y-116135162D01*
X114328943Y-115993117D01*
X114592192Y-115730327D01*
X114734838Y-115386799D01*
X114735162Y-115014833D01*
X114593117Y-114671057D01*
X114560000Y-114637882D01*
X114560000Y-114013719D01*
X114754927Y-113885673D01*
X114798337Y-113821362D01*
X114940302Y-113963327D01*
X115173691Y-114060000D01*
X115514250Y-114060000D01*
X115673000Y-113901250D01*
X115673000Y-124265237D01*
X114977185Y-124264630D01*
X114192200Y-124588980D01*
X113591091Y-125189041D01*
X113265372Y-125973459D01*
X113264630Y-126822815D01*
X113588980Y-127607800D01*
X114189041Y-128208909D01*
X114973459Y-128534628D01*
X115822815Y-128535370D01*
X116607800Y-128211020D01*
X117208909Y-127610959D01*
X117534628Y-126826541D01*
X117535370Y-125977185D01*
X117535370Y-131690000D01*
X101558440Y-131690000D01*
X101558440Y-127248000D01*
X101558440Y-121152000D01*
X101511463Y-120909877D01*
X101371673Y-120697073D01*
X101358440Y-120688140D01*
X101358440Y-112448000D01*
X101358440Y-106352000D01*
X101311463Y-106109877D01*
X101171673Y-105897073D01*
X100960640Y-105754623D01*
X100958440Y-105754181D01*
X100958440Y-96848000D01*
X100958440Y-90752000D01*
X100911463Y-90509877D01*
X100771673Y-90297073D01*
X100560640Y-90154623D01*
X100311000Y-90104560D01*
X94215000Y-90104560D01*
X93972877Y-90151537D01*
X93760073Y-90291327D01*
X93617623Y-90502360D01*
X93567560Y-90752000D01*
X93567560Y-92165000D01*
X92077239Y-92165000D01*
X90156120Y-90243880D01*
X89625688Y-89889457D01*
X89000000Y-89764999D01*
X88999994Y-89765000D01*
X82600000Y-89765000D01*
X82552743Y-89774400D01*
X81558146Y-89774400D01*
X80936056Y-89898141D01*
X80408673Y-90250527D01*
X80056287Y-90777910D01*
X79932546Y-91400000D01*
X80056287Y-92022090D01*
X80408673Y-92549473D01*
X80936056Y-92901859D01*
X81558146Y-93025600D01*
X82552743Y-93025600D01*
X82600000Y-93035000D01*
X88322760Y-93035000D01*
X90243877Y-94956116D01*
X90243880Y-94956120D01*
X90243881Y-94956120D01*
X90774313Y-95310543D01*
X91400000Y-95435001D01*
X91400000Y-95435000D01*
X91400005Y-95435000D01*
X93567560Y-95435000D01*
X93567560Y-96848000D01*
X93614537Y-97090123D01*
X93754327Y-97302927D01*
X93965360Y-97445377D01*
X94215000Y-97495440D01*
X100311000Y-97495440D01*
X100553123Y-97448463D01*
X100765927Y-97308673D01*
X100908377Y-97097640D01*
X100958440Y-96848000D01*
X100958440Y-105754181D01*
X100711000Y-105704560D01*
X94615000Y-105704560D01*
X94372877Y-105751537D01*
X94160073Y-105891327D01*
X94017623Y-106102360D01*
X93967560Y-106352000D01*
X93967560Y-107055320D01*
X92756120Y-105843880D01*
X92225688Y-105489457D01*
X91600000Y-105364999D01*
X91599994Y-105365000D01*
X82600000Y-105365000D01*
X82552743Y-105374400D01*
X81558146Y-105374400D01*
X80936056Y-105498141D01*
X80408673Y-105850527D01*
X80056287Y-106377910D01*
X79932546Y-107000000D01*
X80056287Y-107622090D01*
X80408673Y-108149473D01*
X80936056Y-108501859D01*
X81558146Y-108625600D01*
X82552743Y-108625600D01*
X82600000Y-108635000D01*
X90922760Y-108635000D01*
X92843877Y-110556116D01*
X92843880Y-110556120D01*
X92843881Y-110556120D01*
X93374313Y-110910543D01*
X93967560Y-111028548D01*
X93967560Y-112448000D01*
X94014537Y-112690123D01*
X94154327Y-112902927D01*
X94365360Y-113045377D01*
X94615000Y-113095440D01*
X100711000Y-113095440D01*
X100953123Y-113048463D01*
X101165927Y-112908673D01*
X101308377Y-112697640D01*
X101358440Y-112448000D01*
X101358440Y-120688140D01*
X101160640Y-120554623D01*
X100911000Y-120504560D01*
X94815000Y-120504560D01*
X94572877Y-120551537D01*
X94360073Y-120691327D01*
X94217623Y-120902360D01*
X94167560Y-121152000D01*
X94167560Y-121655320D01*
X93356120Y-120843880D01*
X92825688Y-120489457D01*
X92200000Y-120364999D01*
X92199994Y-120365000D01*
X82600000Y-120365000D01*
X82552743Y-120374400D01*
X81558146Y-120374400D01*
X80936056Y-120498141D01*
X80408673Y-120850527D01*
X80056287Y-121377910D01*
X79932546Y-122000000D01*
X80056287Y-122622090D01*
X80408673Y-123149473D01*
X80936056Y-123501859D01*
X81558146Y-123625600D01*
X82552743Y-123625600D01*
X82600000Y-123635000D01*
X91522760Y-123635000D01*
X93243877Y-125356116D01*
X93243880Y-125356120D01*
X93243881Y-125356120D01*
X93509096Y-125533331D01*
X93774312Y-125710543D01*
X93774313Y-125710543D01*
X94167560Y-125788765D01*
X94167560Y-127248000D01*
X94214537Y-127490123D01*
X94354327Y-127702927D01*
X94565360Y-127845377D01*
X94815000Y-127895440D01*
X100911000Y-127895440D01*
X101153123Y-127848463D01*
X101365927Y-127708673D01*
X101508377Y-127497640D01*
X101558440Y-127248000D01*
X101558440Y-131690000D01*
X75110000Y-131690000D01*
X75110000Y-33110000D01*
X173690000Y-33110000D01*
X173690000Y-131690000D01*
X173690000Y-131690000D01*
G37*
X173690000Y-131690000D02*
X170160000Y-131690000D01*
X170160000Y-111200000D01*
X170160000Y-66600000D01*
X170102148Y-66309161D01*
X169937401Y-66062599D01*
X169807201Y-65932399D01*
X169560639Y-65767652D01*
X169269800Y-65709800D01*
X162965002Y-65709800D01*
X165537401Y-63137401D01*
X165702148Y-62890840D01*
X165702148Y-62890839D01*
X165760000Y-62600000D01*
X165760000Y-56800000D01*
X165702148Y-56509161D01*
X165537401Y-56262599D01*
X164137401Y-54862599D01*
X163890839Y-54697852D01*
X163600000Y-54640000D01*
X143735162Y-54640000D01*
X143735162Y-46414833D01*
X143593117Y-46071057D01*
X143330327Y-45807808D01*
X142986799Y-45665162D01*
X142614833Y-45664838D01*
X142271057Y-45806883D01*
X142237882Y-45840000D01*
X141555874Y-45840000D01*
X141460673Y-45695073D01*
X141249640Y-45552623D01*
X141000000Y-45502560D01*
X140500000Y-45502560D01*
X140257877Y-45549537D01*
X140045073Y-45689327D01*
X140000386Y-45755528D01*
X139960673Y-45695073D01*
X139749640Y-45552623D01*
X139500000Y-45502560D01*
X139000000Y-45502560D01*
X138757877Y-45549537D01*
X138545073Y-45689327D01*
X138443366Y-45840000D01*
X138158874Y-45840000D01*
X138080896Y-45721293D01*
X137869863Y-45578843D01*
X137620223Y-45528780D01*
X136822663Y-45528780D01*
X136580540Y-45575757D01*
X136483156Y-45639728D01*
X136481321Y-45637893D01*
X136247932Y-45541220D01*
X136008593Y-45541220D01*
X135849843Y-45699970D01*
X135849843Y-46448000D01*
X135869843Y-46448000D01*
X135869843Y-46702000D01*
X135849843Y-46702000D01*
X135849843Y-47450030D01*
X136008593Y-47608780D01*
X136247932Y-47608780D01*
X136481321Y-47512107D01*
X136483022Y-47510405D01*
X136573023Y-47571157D01*
X136822663Y-47621220D01*
X137620223Y-47621220D01*
X137862346Y-47574243D01*
X138075150Y-47434453D01*
X138125406Y-47360000D01*
X138444125Y-47360000D01*
X138539327Y-47504927D01*
X138750360Y-47647377D01*
X139000000Y-47697440D01*
X139500000Y-47697440D01*
X139742123Y-47650463D01*
X139954927Y-47510673D01*
X139999613Y-47444471D01*
X140039327Y-47504927D01*
X140250360Y-47647377D01*
X140500000Y-47697440D01*
X141000000Y-47697440D01*
X141242123Y-47650463D01*
X141454927Y-47510673D01*
X141556633Y-47360000D01*
X142237537Y-47360000D01*
X142269673Y-47392192D01*
X142613201Y-47534838D01*
X142985167Y-47535162D01*
X143328943Y-47393117D01*
X143592192Y-47130327D01*
X143734838Y-46786799D01*
X143735162Y-46414833D01*
X143735162Y-54640000D01*
X135595843Y-54640000D01*
X135595843Y-47450030D01*
X135595843Y-46702000D01*
X135595843Y-46448000D01*
X135595843Y-45699970D01*
X135437093Y-45541220D01*
X135197754Y-45541220D01*
X134964365Y-45637893D01*
X134785736Y-45816521D01*
X134689063Y-46049910D01*
X134689063Y-46289250D01*
X134847813Y-46448000D01*
X135595843Y-46448000D01*
X135595843Y-46702000D01*
X134847813Y-46702000D01*
X134689063Y-46860750D01*
X134689063Y-47100090D01*
X134785736Y-47333479D01*
X134964365Y-47512107D01*
X135197754Y-47608780D01*
X135437093Y-47608780D01*
X135595843Y-47450030D01*
X135595843Y-54640000D01*
X130135000Y-54640000D01*
X130135000Y-52826310D01*
X130135000Y-52573691D01*
X130135000Y-48885750D01*
X130135000Y-48314250D01*
X130135000Y-44626309D01*
X130135000Y-44373690D01*
X130038327Y-44140301D01*
X129859698Y-43961673D01*
X129626309Y-43865000D01*
X128485750Y-43865000D01*
X128327000Y-44023750D01*
X128327000Y-48473000D01*
X129976250Y-48473000D01*
X130135000Y-48314250D01*
X130135000Y-48885750D01*
X129976250Y-48727000D01*
X128327000Y-48727000D01*
X128327000Y-53176250D01*
X128485750Y-53335000D01*
X129626309Y-53335000D01*
X129859698Y-53238327D01*
X130038327Y-53059699D01*
X130135000Y-52826310D01*
X130135000Y-54640000D01*
X128073000Y-54640000D01*
X128073000Y-53176250D01*
X128073000Y-48727000D01*
X128073000Y-48473000D01*
X128073000Y-44023750D01*
X127914250Y-43865000D01*
X126773691Y-43865000D01*
X126540302Y-43961673D01*
X126535370Y-43966604D01*
X126535370Y-37577185D01*
X126211020Y-36792200D01*
X125610959Y-36191091D01*
X124826541Y-35865372D01*
X123977185Y-35864630D01*
X123192200Y-36188980D01*
X122591091Y-36789041D01*
X122265372Y-37573459D01*
X122264630Y-38422815D01*
X122588980Y-39207800D01*
X123189041Y-39808909D01*
X123973459Y-40134628D01*
X124822815Y-40135370D01*
X125607800Y-39811020D01*
X126208909Y-39210959D01*
X126534628Y-38426541D01*
X126535370Y-37577185D01*
X126535370Y-43966604D01*
X126361673Y-44140301D01*
X126265000Y-44373690D01*
X126265000Y-44626309D01*
X126265000Y-48314250D01*
X126423750Y-48473000D01*
X128073000Y-48473000D01*
X128073000Y-48727000D01*
X126423750Y-48727000D01*
X126265000Y-48885750D01*
X126265000Y-52573691D01*
X126265000Y-52826310D01*
X126361673Y-53059699D01*
X126540302Y-53238327D01*
X126773691Y-53335000D01*
X127914250Y-53335000D01*
X128073000Y-53176250D01*
X128073000Y-54640000D01*
X124547440Y-54640000D01*
X124547440Y-52700000D01*
X124547440Y-44500000D01*
X124500463Y-44257877D01*
X124360673Y-44045073D01*
X124149640Y-43902623D01*
X123900000Y-43852560D01*
X121300000Y-43852560D01*
X121057877Y-43899537D01*
X120845073Y-44039327D01*
X120702623Y-44250360D01*
X120652560Y-44500000D01*
X120652560Y-47530270D01*
X119461145Y-46338855D01*
X119157809Y-46136173D01*
X118800000Y-46065000D01*
X116455874Y-46065000D01*
X116360673Y-45920073D01*
X116335000Y-45902743D01*
X116335000Y-44000005D01*
X116335000Y-44000000D01*
X116335001Y-44000000D01*
X116275635Y-43701556D01*
X116263827Y-43642192D01*
X116263827Y-43642191D01*
X116061145Y-43338855D01*
X115061145Y-42338855D01*
X114757809Y-42136173D01*
X114400000Y-42065000D01*
X104000000Y-42065000D01*
X103642191Y-42136173D01*
X103338855Y-42338855D01*
X102738855Y-42938855D01*
X102536173Y-43242191D01*
X102465000Y-43600000D01*
X102465000Y-45400000D01*
X102536173Y-45757809D01*
X102708021Y-46015000D01*
X101650000Y-46015000D01*
X101292191Y-46086173D01*
X100988855Y-46288855D01*
X100212710Y-47065000D01*
X96400140Y-47065000D01*
X96042331Y-47136173D01*
X95738995Y-47338855D01*
X95536313Y-47642191D01*
X95465140Y-48000000D01*
X95465140Y-49200140D01*
X95536313Y-49557949D01*
X95738995Y-49861285D01*
X97342710Y-51465000D01*
X94787290Y-51465000D01*
X92661145Y-49338855D01*
X92357809Y-49136173D01*
X92000000Y-49065000D01*
X90597640Y-49065000D01*
X90597640Y-48249940D01*
X90550663Y-48007817D01*
X90410873Y-47795013D01*
X90335140Y-47743892D01*
X90335140Y-43600140D01*
X90172623Y-42783111D01*
X89709813Y-42090467D01*
X89017169Y-41627657D01*
X88200140Y-41465140D01*
X87383110Y-41627657D01*
X87027901Y-41865000D01*
X77600000Y-41865000D01*
X76782971Y-42027517D01*
X76090327Y-42490327D01*
X75627517Y-43182971D01*
X75465000Y-44000000D01*
X75465000Y-98400000D01*
X75465000Y-114400000D01*
X75465000Y-127200000D01*
X75627517Y-128017029D01*
X76090327Y-128709673D01*
X76782971Y-129172483D01*
X77600000Y-129335000D01*
X78417029Y-129172483D01*
X79109673Y-128709673D01*
X79159567Y-128635000D01*
X82600000Y-128635000D01*
X82647256Y-128625600D01*
X83641854Y-128625600D01*
X84263944Y-128501859D01*
X84791327Y-128149473D01*
X85143713Y-127622090D01*
X85267454Y-127000000D01*
X85143713Y-126377910D01*
X84791327Y-125850527D01*
X84263944Y-125498141D01*
X83641854Y-125374400D01*
X82647256Y-125374400D01*
X82600000Y-125365000D01*
X79735000Y-125365000D01*
X79735000Y-114577239D01*
X80677239Y-113635000D01*
X82600000Y-113635000D01*
X82647256Y-113625600D01*
X83641854Y-113625600D01*
X84263944Y-113501859D01*
X84791327Y-113149473D01*
X85143713Y-112622090D01*
X85267454Y-112000000D01*
X85143713Y-111377910D01*
X84791327Y-110850527D01*
X84263944Y-110498141D01*
X83641854Y-110374400D01*
X82647256Y-110374400D01*
X82600000Y-110365000D01*
X80000005Y-110365000D01*
X80000000Y-110364999D01*
X79735000Y-110417711D01*
X79735000Y-98577239D01*
X80277239Y-98035000D01*
X82600000Y-98035000D01*
X82647256Y-98025600D01*
X83641854Y-98025600D01*
X84263944Y-97901859D01*
X84791327Y-97549473D01*
X85143713Y-97022090D01*
X85267454Y-96400000D01*
X85143713Y-95777910D01*
X84791327Y-95250527D01*
X84263944Y-94898141D01*
X83641854Y-94774400D01*
X82647256Y-94774400D01*
X82600000Y-94765000D01*
X79735000Y-94765000D01*
X79735000Y-46135000D01*
X86065140Y-46135000D01*
X86065140Y-47743292D01*
X85995153Y-47789267D01*
X85852703Y-48000300D01*
X85802640Y-48249940D01*
X85802640Y-51750060D01*
X85849617Y-51992183D01*
X85989407Y-52204987D01*
X86132386Y-52301500D01*
X85822245Y-52301500D01*
X84598160Y-51077414D01*
X84598160Y-48249940D01*
X84551183Y-48007817D01*
X84411393Y-47795013D01*
X84200360Y-47652563D01*
X83950720Y-47602500D01*
X80450600Y-47602500D01*
X80208477Y-47649477D01*
X79995673Y-47789267D01*
X79853223Y-48000300D01*
X79803160Y-48249940D01*
X79803160Y-51750060D01*
X79850137Y-51992183D01*
X79989927Y-52204987D01*
X80193602Y-52342470D01*
X80228177Y-52516289D01*
X80690987Y-53208933D01*
X82802900Y-55320846D01*
X82802900Y-56449060D01*
X82849877Y-56691183D01*
X82989667Y-56903987D01*
X83065400Y-56955107D01*
X83065400Y-60597989D01*
X83065000Y-60600000D01*
X83227517Y-61417029D01*
X83690327Y-62109673D01*
X84382971Y-62572483D01*
X85200000Y-62735000D01*
X86017029Y-62572483D01*
X86709673Y-62109673D01*
X86710073Y-62109273D01*
X87172883Y-61416629D01*
X87335400Y-60599600D01*
X87335400Y-56955707D01*
X87405387Y-56909733D01*
X87547837Y-56698700D01*
X87597900Y-56449060D01*
X87597900Y-52948940D01*
X87550923Y-52706817D01*
X87411133Y-52494013D01*
X87268153Y-52397500D01*
X89950200Y-52397500D01*
X90192323Y-52350523D01*
X90405127Y-52210733D01*
X90547577Y-51999700D01*
X90597640Y-51750060D01*
X90597640Y-50935000D01*
X91612710Y-50935000D01*
X93738855Y-53061145D01*
X94042191Y-53263827D01*
X94042192Y-53263827D01*
X94101556Y-53275635D01*
X94400000Y-53335001D01*
X94400000Y-53335000D01*
X94400005Y-53335000D01*
X99552560Y-53335000D01*
X99552560Y-53650000D01*
X99599537Y-53892123D01*
X99739327Y-54104927D01*
X99950360Y-54247377D01*
X100200000Y-54297440D01*
X101200000Y-54297440D01*
X101442123Y-54250463D01*
X101654927Y-54110673D01*
X101797377Y-53899640D01*
X101847440Y-53650000D01*
X101847440Y-51150000D01*
X101800463Y-50907877D01*
X101660673Y-50695073D01*
X101449640Y-50552623D01*
X101200000Y-50502560D01*
X100200000Y-50502560D01*
X99957877Y-50549537D01*
X99745073Y-50689327D01*
X99602623Y-50900360D01*
X99572559Y-51050269D01*
X97457290Y-48935000D01*
X100600000Y-48935000D01*
X100957809Y-48863827D01*
X101261145Y-48661145D01*
X102037290Y-47885000D01*
X105183304Y-47885000D01*
X105370000Y-47922440D01*
X106430000Y-47922440D01*
X106672123Y-47875463D01*
X106884927Y-47735673D01*
X106941692Y-47651577D01*
X107022424Y-47597634D01*
X107109327Y-47729927D01*
X107165000Y-47767506D01*
X107165000Y-49950000D01*
X107215000Y-50201365D01*
X107215000Y-52200000D01*
X107286173Y-52557809D01*
X107325071Y-52616024D01*
X107349537Y-52742123D01*
X107489327Y-52954927D01*
X107700360Y-53097377D01*
X107950000Y-53147440D01*
X108092468Y-53147440D01*
X108065162Y-53213201D01*
X108064838Y-53585167D01*
X108206883Y-53928943D01*
X108469673Y-54192192D01*
X108813201Y-54334838D01*
X109185167Y-54335162D01*
X109528943Y-54193117D01*
X109792192Y-53930327D01*
X109934838Y-53586799D01*
X109935162Y-53214833D01*
X109810000Y-52911917D01*
X109810000Y-52805012D01*
X109847377Y-52749640D01*
X109897440Y-52500000D01*
X109897440Y-51900000D01*
X109885000Y-51835883D01*
X109850463Y-51657877D01*
X109710673Y-51445073D01*
X109499640Y-51302623D01*
X109250000Y-51252560D01*
X109085000Y-51252560D01*
X109085000Y-50935000D01*
X109177002Y-50935000D01*
X109177002Y-50803252D01*
X109308750Y-50935000D01*
X109376309Y-50935000D01*
X109609698Y-50838327D01*
X109788327Y-50659699D01*
X109885000Y-50426310D01*
X109885000Y-50285750D01*
X109885000Y-49714250D01*
X109885000Y-49573690D01*
X109788327Y-49340301D01*
X109609698Y-49161673D01*
X109376309Y-49065000D01*
X109308750Y-49065000D01*
X109150000Y-49223750D01*
X109150000Y-49873000D01*
X109726250Y-49873000D01*
X109885000Y-49714250D01*
X109885000Y-50285750D01*
X109726250Y-50127000D01*
X109150000Y-50127000D01*
X109150000Y-50147000D01*
X109085000Y-50147000D01*
X109085000Y-50000000D01*
X109035000Y-49748634D01*
X109035000Y-47768469D01*
X109084927Y-47735673D01*
X109227377Y-47524640D01*
X109277440Y-47275000D01*
X109277440Y-46625000D01*
X109247855Y-46472521D01*
X109277440Y-46325000D01*
X109277440Y-45985000D01*
X111062710Y-45985000D01*
X112252560Y-47174850D01*
X112252560Y-47625000D01*
X112299537Y-47867123D01*
X112439327Y-48079927D01*
X112650360Y-48222377D01*
X112900000Y-48272440D01*
X113900000Y-48272440D01*
X114142123Y-48225463D01*
X114354927Y-48085673D01*
X114399613Y-48019471D01*
X114439327Y-48079927D01*
X114650360Y-48222377D01*
X114900000Y-48272440D01*
X115900000Y-48272440D01*
X116142123Y-48225463D01*
X116354927Y-48085673D01*
X116456633Y-47935000D01*
X118412710Y-47935000D01*
X119738855Y-49261145D01*
X120042191Y-49463827D01*
X120400000Y-49535000D01*
X120652560Y-49535000D01*
X120652560Y-52700000D01*
X120699537Y-52942123D01*
X120839327Y-53154927D01*
X121050360Y-53297377D01*
X121300000Y-53347440D01*
X123900000Y-53347440D01*
X124142123Y-53300463D01*
X124354927Y-53160673D01*
X124497377Y-52949640D01*
X124547440Y-52700000D01*
X124547440Y-54640000D01*
X116638346Y-54640000D01*
X116842123Y-54600463D01*
X117054927Y-54460673D01*
X117197377Y-54249640D01*
X117200312Y-54235000D01*
X118200000Y-54235000D01*
X118596077Y-54156215D01*
X118931856Y-53931856D01*
X119156215Y-53596077D01*
X119235000Y-53200000D01*
X119156215Y-52803923D01*
X118931856Y-52468144D01*
X118596077Y-52243785D01*
X118200000Y-52165000D01*
X117201845Y-52165000D01*
X117200463Y-52157877D01*
X117060673Y-51945073D01*
X116849640Y-51802623D01*
X116600000Y-51752560D01*
X115600000Y-51752560D01*
X115357877Y-51799537D01*
X115145073Y-51939327D01*
X115002623Y-52150360D01*
X114952560Y-52400000D01*
X114952560Y-54000000D01*
X114999537Y-54242123D01*
X115139327Y-54454927D01*
X115350360Y-54597377D01*
X115562900Y-54640000D01*
X114235000Y-54640000D01*
X114235000Y-54126310D01*
X114235000Y-53873691D01*
X114235000Y-53485750D01*
X114235000Y-52914250D01*
X114235000Y-52526309D01*
X114235000Y-52273690D01*
X114138327Y-52040301D01*
X113959698Y-51861673D01*
X113726309Y-51765000D01*
X113385750Y-51765000D01*
X113227000Y-51923750D01*
X113227000Y-53073000D01*
X114076250Y-53073000D01*
X114235000Y-52914250D01*
X114235000Y-53485750D01*
X114076250Y-53327000D01*
X113227000Y-53327000D01*
X113227000Y-54476250D01*
X113385750Y-54635000D01*
X113726309Y-54635000D01*
X113959698Y-54538327D01*
X114138327Y-54359699D01*
X114235000Y-54126310D01*
X114235000Y-54640000D01*
X112973000Y-54640000D01*
X112973000Y-54476250D01*
X112973000Y-53327000D01*
X112973000Y-53073000D01*
X112973000Y-51923750D01*
X112814250Y-51765000D01*
X112473691Y-51765000D01*
X112240302Y-51861673D01*
X112061673Y-52040301D01*
X111965000Y-52273690D01*
X111965000Y-52526309D01*
X111965000Y-52914250D01*
X112123750Y-53073000D01*
X112973000Y-53073000D01*
X112973000Y-53327000D01*
X112123750Y-53327000D01*
X111965000Y-53485750D01*
X111965000Y-53873691D01*
X111965000Y-54126310D01*
X112061673Y-54359699D01*
X112240302Y-54538327D01*
X112473691Y-54635000D01*
X112814250Y-54635000D01*
X112973000Y-54476250D01*
X112973000Y-54640000D01*
X106635000Y-54640000D01*
X106635000Y-52400000D01*
X106556215Y-52003923D01*
X106331856Y-51668144D01*
X105996077Y-51443785D01*
X105600000Y-51365000D01*
X104847440Y-51365000D01*
X104847440Y-51150000D01*
X104800463Y-50907877D01*
X104660673Y-50695073D01*
X104449640Y-50552623D01*
X104200000Y-50502560D01*
X103200000Y-50502560D01*
X102957877Y-50549537D01*
X102745073Y-50689327D01*
X102602623Y-50900360D01*
X102552560Y-51150000D01*
X102552560Y-53650000D01*
X102599537Y-53892123D01*
X102739327Y-54104927D01*
X102950360Y-54247377D01*
X103200000Y-54297440D01*
X104200000Y-54297440D01*
X104442123Y-54250463D01*
X104654927Y-54110673D01*
X104797377Y-53899640D01*
X104847440Y-53650000D01*
X104847440Y-53435000D01*
X105600000Y-53435000D01*
X105996077Y-53356215D01*
X106331856Y-53131856D01*
X106556215Y-52796077D01*
X106635000Y-52400000D01*
X106635000Y-54640000D01*
X97200000Y-54640000D01*
X96909160Y-54697852D01*
X96662599Y-54862599D01*
X94062599Y-57462599D01*
X93897852Y-57709161D01*
X93840000Y-58000000D01*
X93840000Y-84400000D01*
X93897852Y-84690839D01*
X94062599Y-84937401D01*
X97662599Y-88537401D01*
X97909161Y-88702148D01*
X98200000Y-88760000D01*
X108840000Y-88760000D01*
X108840000Y-90868738D01*
X108556119Y-90443880D01*
X108470120Y-90357880D01*
X107939688Y-90003457D01*
X107314000Y-89878999D01*
X107313994Y-89879000D01*
X103613000Y-89879000D01*
X102987313Y-90003457D01*
X102931035Y-90041060D01*
X102089000Y-90041060D01*
X101846877Y-90088037D01*
X101634073Y-90227827D01*
X101491623Y-90438860D01*
X101441560Y-90688500D01*
X101441560Y-92339500D01*
X101488537Y-92581623D01*
X101628327Y-92794427D01*
X101839360Y-92936877D01*
X102089000Y-92986940D01*
X102931035Y-92986940D01*
X102987313Y-93024543D01*
X103613000Y-93149000D01*
X106967651Y-93149000D01*
X107400000Y-93235000D01*
X108025687Y-93110542D01*
X108556119Y-92756119D01*
X108840000Y-92331260D01*
X108840000Y-95326000D01*
X105784440Y-95326000D01*
X105784440Y-95260500D01*
X105737463Y-95018377D01*
X105597673Y-94805573D01*
X105386640Y-94663123D01*
X105137000Y-94613060D01*
X102089000Y-94613060D01*
X101846877Y-94660037D01*
X101634073Y-94799827D01*
X101491623Y-95010860D01*
X101441560Y-95260500D01*
X101441560Y-96911500D01*
X101488537Y-97153623D01*
X101628327Y-97366427D01*
X101839360Y-97508877D01*
X102089000Y-97558940D01*
X105137000Y-97558940D01*
X105379123Y-97511963D01*
X105591927Y-97372173D01*
X105734377Y-97161140D01*
X105784440Y-96911500D01*
X105784440Y-96846000D01*
X108971198Y-96846000D01*
X109062599Y-96937401D01*
X109309161Y-97102148D01*
X109600000Y-97160000D01*
X109890839Y-97102148D01*
X110137401Y-96937401D01*
X110240000Y-96783850D01*
X110240000Y-110685197D01*
X109999197Y-110926000D01*
X109435000Y-110926000D01*
X109435000Y-107200000D01*
X109310542Y-106574312D01*
X108956119Y-106043880D01*
X108870120Y-105957880D01*
X108339688Y-105603457D01*
X107714000Y-105478999D01*
X107713994Y-105479000D01*
X104013000Y-105479000D01*
X103387313Y-105603457D01*
X103331035Y-105641060D01*
X102489000Y-105641060D01*
X102246877Y-105688037D01*
X102034073Y-105827827D01*
X101891623Y-106038860D01*
X101841560Y-106288500D01*
X101841560Y-107939500D01*
X101888537Y-108181623D01*
X102028327Y-108394427D01*
X102239360Y-108536877D01*
X102489000Y-108586940D01*
X103331035Y-108586940D01*
X103387313Y-108624543D01*
X104013000Y-108749000D01*
X107367651Y-108749000D01*
X107800000Y-108835000D01*
X108425687Y-108710542D01*
X108956119Y-108356119D01*
X109310542Y-107825687D01*
X109435000Y-107200000D01*
X109435000Y-110926000D01*
X106184440Y-110926000D01*
X106184440Y-110860500D01*
X106137463Y-110618377D01*
X105997673Y-110405573D01*
X105786640Y-110263123D01*
X105537000Y-110213060D01*
X102489000Y-110213060D01*
X102246877Y-110260037D01*
X102034073Y-110399827D01*
X101891623Y-110610860D01*
X101841560Y-110860500D01*
X101841560Y-112511500D01*
X101888537Y-112753623D01*
X102028327Y-112966427D01*
X102239360Y-113108877D01*
X102489000Y-113158940D01*
X105537000Y-113158940D01*
X105779123Y-113111963D01*
X105991927Y-112972173D01*
X106134377Y-112761140D01*
X106184440Y-112511500D01*
X106184440Y-112446000D01*
X110314000Y-112446000D01*
X110604839Y-112388148D01*
X110851401Y-112223401D01*
X111040000Y-112034802D01*
X111040000Y-118584198D01*
X106384440Y-123239758D01*
X106384440Y-122739500D01*
X106384440Y-121088500D01*
X106337463Y-120846377D01*
X106197673Y-120633573D01*
X105986640Y-120491123D01*
X105848000Y-120463320D01*
X105848000Y-118613000D01*
X105723543Y-117987313D01*
X105723542Y-117987312D01*
X105369120Y-117456880D01*
X105369116Y-117456877D01*
X105156120Y-117243880D01*
X104625688Y-116889457D01*
X104000000Y-116764999D01*
X103374312Y-116889457D01*
X102843880Y-117243880D01*
X102489457Y-117774312D01*
X102364999Y-118400000D01*
X102489457Y-119025688D01*
X102578000Y-119158202D01*
X102578000Y-120462596D01*
X102446877Y-120488037D01*
X102234073Y-120627827D01*
X102091623Y-120838860D01*
X102041560Y-121088500D01*
X102041560Y-122739500D01*
X102088537Y-122981623D01*
X102228327Y-123194427D01*
X102439360Y-123336877D01*
X102689000Y-123386940D01*
X103531035Y-123386940D01*
X103587313Y-123424543D01*
X104213000Y-123549000D01*
X104838687Y-123424543D01*
X104894964Y-123386940D01*
X105737000Y-123386940D01*
X105979123Y-123339963D01*
X106191927Y-123200173D01*
X106334377Y-122989140D01*
X106384440Y-122739500D01*
X106384440Y-123239758D01*
X104611138Y-125013060D01*
X102689000Y-125013060D01*
X102446877Y-125060037D01*
X102234073Y-125199827D01*
X102091623Y-125410860D01*
X102041560Y-125660500D01*
X102041560Y-127311500D01*
X102088537Y-127553623D01*
X102228327Y-127766427D01*
X102439360Y-127908877D01*
X102689000Y-127958940D01*
X105737000Y-127958940D01*
X105979123Y-127911963D01*
X106191927Y-127772173D01*
X106334377Y-127561140D01*
X106384440Y-127311500D01*
X106384440Y-125660500D01*
X106340381Y-125433420D01*
X112337401Y-119436401D01*
X112502148Y-119189840D01*
X112502148Y-119189839D01*
X112560000Y-118899000D01*
X112560000Y-86200000D01*
X112511746Y-85957413D01*
X112502148Y-85909161D01*
X112502148Y-85909160D01*
X112337401Y-85662599D01*
X111937401Y-85262599D01*
X111690839Y-85097852D01*
X111400000Y-85040000D01*
X99714802Y-85040000D01*
X97360000Y-82685198D01*
X97360000Y-58914802D01*
X98714802Y-57560000D01*
X162640000Y-57560000D01*
X162640000Y-61485198D01*
X161006198Y-63119000D01*
X160811752Y-63119000D01*
X160751640Y-63078423D01*
X160502000Y-63028360D01*
X159232000Y-63028360D01*
X158989877Y-63075337D01*
X158777073Y-63215127D01*
X158634623Y-63426160D01*
X158584560Y-63675800D01*
X158584560Y-64082200D01*
X158607103Y-64198388D01*
X158584560Y-64310800D01*
X158584560Y-64717200D01*
X158609607Y-64846298D01*
X158584560Y-64971200D01*
X158584560Y-65377600D01*
X158607103Y-65493788D01*
X158584560Y-65606200D01*
X158584560Y-66012600D01*
X158609607Y-66141698D01*
X158584560Y-66266600D01*
X158584560Y-66673000D01*
X158609607Y-66802098D01*
X158584560Y-66927000D01*
X158584560Y-67333400D01*
X158607103Y-67449588D01*
X158584560Y-67562000D01*
X158584560Y-67968400D01*
X158609607Y-68097498D01*
X158584560Y-68222400D01*
X158584560Y-68326000D01*
X157514000Y-68326000D01*
X157223161Y-68383852D01*
X157160000Y-68426054D01*
X157160000Y-67200000D01*
X157102148Y-66909161D01*
X156937401Y-66662599D01*
X156867601Y-66592799D01*
X156621039Y-66428052D01*
X156330200Y-66370200D01*
X155815440Y-66370200D01*
X155815440Y-66266600D01*
X155790392Y-66137501D01*
X155815440Y-66012600D01*
X155815440Y-65606200D01*
X155792896Y-65490011D01*
X155815440Y-65377600D01*
X155815440Y-64971200D01*
X155790392Y-64842101D01*
X155815440Y-64717200D01*
X155815440Y-64310800D01*
X155792896Y-64194611D01*
X155815440Y-64082200D01*
X155815440Y-63675800D01*
X155768463Y-63433677D01*
X155628673Y-63220873D01*
X155417640Y-63078423D01*
X155168000Y-63028360D01*
X153898000Y-63028360D01*
X153655877Y-63075337D01*
X153443073Y-63215127D01*
X153300623Y-63426160D01*
X153250560Y-63675800D01*
X153250560Y-64082200D01*
X153273103Y-64198388D01*
X153250560Y-64310800D01*
X153250560Y-64717200D01*
X153275607Y-64846298D01*
X153250560Y-64971200D01*
X153250560Y-65377600D01*
X153273103Y-65493788D01*
X153250560Y-65606200D01*
X153250560Y-66012600D01*
X153275607Y-66141698D01*
X153250560Y-66266600D01*
X153250560Y-66673000D01*
X153275607Y-66802098D01*
X153250560Y-66927000D01*
X153250560Y-67005200D01*
X151960000Y-67005200D01*
X151960000Y-62400000D01*
X151902148Y-62109161D01*
X151737401Y-61862599D01*
X151537401Y-61662599D01*
X151290839Y-61497852D01*
X151000000Y-61440000D01*
X142200000Y-61440000D01*
X141909161Y-61497852D01*
X141662599Y-61662599D01*
X141382599Y-61942599D01*
X141217852Y-62189161D01*
X141160000Y-62480000D01*
X141160000Y-63555351D01*
X140860330Y-63755585D01*
X140650000Y-64070365D01*
X140439670Y-63755585D01*
X139953489Y-63430729D01*
X139380000Y-63316655D01*
X138806511Y-63430729D01*
X138320330Y-63755585D01*
X137995474Y-64241766D01*
X137881400Y-64815255D01*
X137881400Y-65184745D01*
X137995474Y-65758234D01*
X138320330Y-66244415D01*
X138620000Y-66444648D01*
X138620000Y-73428531D01*
X136736971Y-75311560D01*
X135132333Y-75311560D01*
X134890210Y-75358537D01*
X134677406Y-75498327D01*
X134534956Y-75709360D01*
X134484893Y-75959000D01*
X134484893Y-77991000D01*
X134531870Y-78233123D01*
X134671660Y-78445927D01*
X134817193Y-78544163D01*
X134590663Y-78883190D01*
X134464988Y-79515000D01*
X134522262Y-79802935D01*
X133360000Y-80965198D01*
X133360000Y-62400000D01*
X133311746Y-62157413D01*
X133302148Y-62109161D01*
X133302148Y-62109160D01*
X133137401Y-61862599D01*
X132737401Y-61462599D01*
X132490839Y-61297852D01*
X132200000Y-61240000D01*
X124000000Y-61240000D01*
X123709160Y-61297852D01*
X123462599Y-61462599D01*
X116145198Y-68780000D01*
X105180948Y-68780000D01*
X105150463Y-68622877D01*
X105010673Y-68410073D01*
X104801818Y-68269093D01*
X105004927Y-68135673D01*
X105147377Y-67924640D01*
X105197440Y-67675000D01*
X105197440Y-66325000D01*
X105150463Y-66082877D01*
X105010673Y-65870073D01*
X104801818Y-65729093D01*
X105004927Y-65595673D01*
X105147377Y-65384640D01*
X105197440Y-65135000D01*
X105197440Y-63785000D01*
X105150463Y-63542877D01*
X105010673Y-63330073D01*
X104799640Y-63187623D01*
X104550000Y-63137560D01*
X103960000Y-63137560D01*
X103960000Y-62362462D01*
X103992192Y-62330327D01*
X104134838Y-61986799D01*
X104135162Y-61614833D01*
X103993117Y-61271057D01*
X103730327Y-61007808D01*
X103386799Y-60865162D01*
X103014833Y-60864838D01*
X102671057Y-61006883D01*
X102407808Y-61269673D01*
X102265162Y-61613201D01*
X102264838Y-61985167D01*
X102406883Y-62328943D01*
X102440000Y-62362117D01*
X102440000Y-63137560D01*
X101850000Y-63137560D01*
X101607877Y-63184537D01*
X101395073Y-63324327D01*
X101252623Y-63535360D01*
X101202560Y-63785000D01*
X101202560Y-65135000D01*
X101249537Y-65377123D01*
X101389327Y-65589927D01*
X101598181Y-65730906D01*
X101395073Y-65864327D01*
X101252623Y-66075360D01*
X101202560Y-66325000D01*
X101202560Y-67675000D01*
X101249537Y-67917123D01*
X101389327Y-68129927D01*
X101598181Y-68270906D01*
X101395073Y-68404327D01*
X101252623Y-68615360D01*
X101202560Y-68865000D01*
X101202560Y-70215000D01*
X101249537Y-70457123D01*
X101389327Y-70669927D01*
X101600360Y-70812377D01*
X101850000Y-70862440D01*
X104550000Y-70862440D01*
X104792123Y-70815463D01*
X105004927Y-70675673D01*
X105147377Y-70464640D01*
X105180394Y-70300000D01*
X116460000Y-70300000D01*
X116750839Y-70242148D01*
X116997401Y-70077401D01*
X124314802Y-62760000D01*
X131840000Y-62760000D01*
X131840000Y-80885198D01*
X131560000Y-81165198D01*
X131560000Y-67000000D01*
X131502148Y-66709161D01*
X131337401Y-66462599D01*
X131090839Y-66297852D01*
X130800000Y-66240000D01*
X129980948Y-66240000D01*
X129950463Y-66082877D01*
X129810673Y-65870073D01*
X129601818Y-65729093D01*
X129804927Y-65595673D01*
X129947377Y-65384640D01*
X129997440Y-65135000D01*
X129997440Y-63785000D01*
X129950463Y-63542877D01*
X129810673Y-63330073D01*
X129599640Y-63187623D01*
X129350000Y-63137560D01*
X126650000Y-63137560D01*
X126407877Y-63184537D01*
X126195073Y-63324327D01*
X126052623Y-63535360D01*
X126002560Y-63785000D01*
X126002560Y-64322638D01*
X123662599Y-66662599D01*
X123497852Y-66909161D01*
X123440000Y-67200000D01*
X123440000Y-81600000D01*
X123497852Y-81890839D01*
X123662599Y-82137401D01*
X125640000Y-84114802D01*
X125640000Y-86152560D01*
X125100000Y-86152560D01*
X124857877Y-86199537D01*
X124645073Y-86339327D01*
X124502623Y-86550360D01*
X124452560Y-86800000D01*
X124452560Y-86940000D01*
X123767028Y-86940000D01*
X123586799Y-86865162D01*
X123214833Y-86864838D01*
X122871057Y-87006883D01*
X122607808Y-87269673D01*
X122465162Y-87613201D01*
X122464838Y-87985167D01*
X122606883Y-88328943D01*
X122869673Y-88592192D01*
X123213201Y-88734838D01*
X123585167Y-88735162D01*
X123928943Y-88593117D01*
X124062292Y-88460000D01*
X124452560Y-88460000D01*
X124452560Y-88600000D01*
X124499537Y-88842123D01*
X124639327Y-89054927D01*
X124850360Y-89197377D01*
X125100000Y-89247440D01*
X125700000Y-89247440D01*
X125903304Y-89207994D01*
X126100000Y-89247440D01*
X126700000Y-89247440D01*
X126903304Y-89207994D01*
X127100000Y-89247440D01*
X127700000Y-89247440D01*
X127903304Y-89207994D01*
X128100000Y-89247440D01*
X128700000Y-89247440D01*
X128903304Y-89207994D01*
X129100000Y-89247440D01*
X129700000Y-89247440D01*
X129903304Y-89207994D01*
X130100000Y-89247440D01*
X130700000Y-89247440D01*
X130903304Y-89207994D01*
X131100000Y-89247440D01*
X131700000Y-89247440D01*
X131903304Y-89207994D01*
X132100000Y-89247440D01*
X132700000Y-89247440D01*
X132903304Y-89207994D01*
X133100000Y-89247440D01*
X133700000Y-89247440D01*
X133903304Y-89207994D01*
X134100000Y-89247440D01*
X134700000Y-89247440D01*
X134903304Y-89207994D01*
X135100000Y-89247440D01*
X135700000Y-89247440D01*
X135903304Y-89207994D01*
X136100000Y-89247440D01*
X136700000Y-89247440D01*
X136903304Y-89207994D01*
X137100000Y-89247440D01*
X137700000Y-89247440D01*
X137903304Y-89207994D01*
X138100000Y-89247440D01*
X138700000Y-89247440D01*
X138903304Y-89207994D01*
X139100000Y-89247440D01*
X139700000Y-89247440D01*
X139903304Y-89207994D01*
X140100000Y-89247440D01*
X140700000Y-89247440D01*
X140903304Y-89207994D01*
X141100000Y-89247440D01*
X141700000Y-89247440D01*
X141903304Y-89207994D01*
X142100000Y-89247440D01*
X142700000Y-89247440D01*
X142903304Y-89207994D01*
X143100000Y-89247440D01*
X143700000Y-89247440D01*
X143903304Y-89207994D01*
X144100000Y-89247440D01*
X144700000Y-89247440D01*
X144903304Y-89207994D01*
X145100000Y-89247440D01*
X145700000Y-89247440D01*
X145942123Y-89200463D01*
X146154927Y-89060673D01*
X146297377Y-88849640D01*
X146347440Y-88600000D01*
X146347440Y-88460000D01*
X147232971Y-88460000D01*
X147413201Y-88534838D01*
X147785167Y-88535162D01*
X148128943Y-88393117D01*
X148392192Y-88130327D01*
X148534838Y-87786799D01*
X148535162Y-87414833D01*
X148393117Y-87071057D01*
X148130327Y-86807808D01*
X147786799Y-86665162D01*
X147414833Y-86664838D01*
X147071057Y-86806883D01*
X146937707Y-86940000D01*
X146347440Y-86940000D01*
X146347440Y-86800000D01*
X146300463Y-86557877D01*
X146160673Y-86345073D01*
X145949640Y-86202623D01*
X145920217Y-86196722D01*
X145928943Y-86193117D01*
X146192192Y-85930327D01*
X146334838Y-85586799D01*
X146335162Y-85214833D01*
X146193117Y-84871057D01*
X145930327Y-84607808D01*
X145586799Y-84465162D01*
X145214833Y-84464838D01*
X144871057Y-84606883D01*
X144607808Y-84869673D01*
X144465162Y-85213201D01*
X144465121Y-85260076D01*
X144310000Y-85415198D01*
X144310000Y-83947440D01*
X144650000Y-83947440D01*
X144892123Y-83900463D01*
X145104927Y-83760673D01*
X145105381Y-83760000D01*
X145837537Y-83760000D01*
X145869673Y-83792192D01*
X146213201Y-83934838D01*
X146585167Y-83935162D01*
X146928943Y-83793117D01*
X147192192Y-83530327D01*
X147334838Y-83186799D01*
X147335162Y-82814833D01*
X147193117Y-82471057D01*
X146930327Y-82207808D01*
X146586799Y-82065162D01*
X146214833Y-82064838D01*
X145871057Y-82206883D01*
X145837882Y-82240000D01*
X145103157Y-82240000D01*
X144899640Y-82102623D01*
X144650000Y-82052560D01*
X144250000Y-82052560D01*
X144007877Y-82099537D01*
X144001385Y-82103801D01*
X143999640Y-82102623D01*
X143750000Y-82052560D01*
X143350000Y-82052560D01*
X143107877Y-82099537D01*
X142895073Y-82239327D01*
X142752623Y-82450360D01*
X142702560Y-82700000D01*
X142702560Y-83300000D01*
X142749537Y-83542123D01*
X142790000Y-83603720D01*
X142790000Y-86170608D01*
X142700000Y-86152560D01*
X142160000Y-86152560D01*
X142160000Y-85962462D01*
X142192192Y-85930327D01*
X142334838Y-85586799D01*
X142335162Y-85214833D01*
X142193117Y-84871057D01*
X141930327Y-84607808D01*
X141586799Y-84465162D01*
X141214833Y-84464838D01*
X140871057Y-84606883D01*
X140607808Y-84869673D01*
X140465162Y-85213201D01*
X140464838Y-85585167D01*
X140606883Y-85928943D01*
X140640000Y-85962117D01*
X140640000Y-86152560D01*
X140100000Y-86152560D01*
X139896695Y-86192005D01*
X139700000Y-86152560D01*
X139100000Y-86152560D01*
X138896695Y-86192005D01*
X138700000Y-86152560D01*
X138100000Y-86152560D01*
X137896695Y-86192005D01*
X137700000Y-86152560D01*
X137160000Y-86152560D01*
X137160000Y-85962462D01*
X137192192Y-85930327D01*
X137334838Y-85586799D01*
X137335162Y-85214833D01*
X137193117Y-84871057D01*
X136930327Y-84607808D01*
X136586799Y-84465162D01*
X136214833Y-84464838D01*
X135871057Y-84606883D01*
X135607808Y-84869673D01*
X135465162Y-85213201D01*
X135464838Y-85585167D01*
X135606883Y-85928943D01*
X135640000Y-85962117D01*
X135640000Y-86152560D01*
X135100000Y-86152560D01*
X134896695Y-86192005D01*
X134700000Y-86152560D01*
X134100000Y-86152560D01*
X133896695Y-86192005D01*
X133700000Y-86152560D01*
X133169920Y-86152560D01*
X133192192Y-86130327D01*
X133334838Y-85786799D01*
X133335162Y-85414833D01*
X133193117Y-85071057D01*
X132930327Y-84807808D01*
X132586799Y-84665162D01*
X132214833Y-84664838D01*
X132160000Y-84687494D01*
X132160000Y-84314802D01*
X135454384Y-81020417D01*
X135484178Y-81040325D01*
X136115988Y-81166000D01*
X136180678Y-81166000D01*
X136812488Y-81040325D01*
X137348111Y-80682433D01*
X137706003Y-80146810D01*
X137831678Y-79515000D01*
X137706003Y-78883190D01*
X137479163Y-78543701D01*
X137619260Y-78451673D01*
X137761710Y-78240640D01*
X137811773Y-77991000D01*
X137811773Y-77700000D01*
X142127983Y-77700000D01*
X142400222Y-78107433D01*
X142935845Y-78465325D01*
X143567655Y-78591000D01*
X143632345Y-78591000D01*
X144264155Y-78465325D01*
X144799778Y-78107433D01*
X145072016Y-77700000D01*
X147625198Y-77700000D01*
X148040000Y-78114802D01*
X148040000Y-83400000D01*
X148097852Y-83690839D01*
X148262599Y-83937401D01*
X148462599Y-84137401D01*
X148709161Y-84302148D01*
X149000000Y-84360000D01*
X160000000Y-84360000D01*
X160000000Y-84359999D01*
X160290839Y-84302148D01*
X160537401Y-84137401D01*
X160702148Y-83890839D01*
X160759999Y-83600000D01*
X160760000Y-83600000D01*
X160711746Y-83357413D01*
X160702148Y-83309161D01*
X160702148Y-83309160D01*
X160627000Y-83196693D01*
X160627000Y-70547387D01*
X160744123Y-70524663D01*
X160956927Y-70384873D01*
X161099377Y-70173840D01*
X161149440Y-69924200D01*
X161149440Y-69517800D01*
X161126896Y-69401611D01*
X161149440Y-69289200D01*
X161149440Y-69185600D01*
X164040000Y-69185600D01*
X164040000Y-98085198D01*
X162285198Y-99840000D01*
X161801283Y-99840000D01*
X161507433Y-99400222D01*
X160971810Y-99042330D01*
X160340000Y-98916655D01*
X159708190Y-99042330D01*
X159368701Y-99269169D01*
X159276673Y-99129073D01*
X159065640Y-98986623D01*
X158816000Y-98936560D01*
X156784000Y-98936560D01*
X156541877Y-98983537D01*
X156329073Y-99123327D01*
X156186623Y-99334360D01*
X156136560Y-99584000D01*
X156136560Y-101188638D01*
X155885198Y-101440000D01*
X152447440Y-101440000D01*
X152447440Y-100900000D01*
X152407994Y-100696695D01*
X152447440Y-100500000D01*
X152447440Y-99900000D01*
X152407994Y-99696695D01*
X152447440Y-99500000D01*
X152447440Y-98900000D01*
X152407994Y-98696695D01*
X152447440Y-98500000D01*
X152447440Y-97900000D01*
X152407994Y-97696695D01*
X152447440Y-97500000D01*
X152447440Y-96900000D01*
X152407994Y-96696695D01*
X152447440Y-96500000D01*
X152447440Y-95960000D01*
X153437537Y-95960000D01*
X153469673Y-95992192D01*
X153813201Y-96134838D01*
X154185167Y-96135162D01*
X154528943Y-95993117D01*
X154792192Y-95730327D01*
X154934838Y-95386799D01*
X154935162Y-95014833D01*
X154793117Y-94671057D01*
X154530327Y-94407808D01*
X154186799Y-94265162D01*
X153814833Y-94264838D01*
X153471057Y-94406883D01*
X153437882Y-94440000D01*
X152447440Y-94440000D01*
X152447440Y-93960000D01*
X153437537Y-93960000D01*
X153469673Y-93992192D01*
X153813201Y-94134838D01*
X154185167Y-94135162D01*
X154528943Y-93993117D01*
X154792192Y-93730327D01*
X154934838Y-93386799D01*
X154935162Y-93014833D01*
X154793117Y-92671057D01*
X154530327Y-92407808D01*
X154186799Y-92265162D01*
X153814833Y-92264838D01*
X153471057Y-92406883D01*
X153437882Y-92440000D01*
X152253157Y-92440000D01*
X152049640Y-92302623D01*
X151800000Y-92252560D01*
X150000000Y-92252560D01*
X149757877Y-92299537D01*
X149545073Y-92439327D01*
X149402623Y-92650360D01*
X149352560Y-92900000D01*
X149352560Y-93500000D01*
X149392005Y-93703304D01*
X149352560Y-93900000D01*
X149352560Y-94500000D01*
X149392005Y-94703304D01*
X149352560Y-94900000D01*
X149352560Y-95500000D01*
X149392005Y-95703304D01*
X149352560Y-95900000D01*
X149352560Y-96500000D01*
X149392005Y-96703304D01*
X149352560Y-96900000D01*
X149352560Y-97500000D01*
X149392005Y-97703304D01*
X149352560Y-97900000D01*
X149352560Y-98500000D01*
X149392005Y-98703304D01*
X149352560Y-98900000D01*
X149352560Y-99500000D01*
X149392005Y-99703304D01*
X149352560Y-99900000D01*
X149352560Y-100500000D01*
X149392005Y-100703304D01*
X149352560Y-100900000D01*
X149352560Y-101500000D01*
X149392005Y-101703304D01*
X149352560Y-101900000D01*
X149352560Y-102500000D01*
X149392005Y-102703304D01*
X149352560Y-102900000D01*
X149352560Y-103440000D01*
X147400000Y-103440000D01*
X147109161Y-103497852D01*
X146862599Y-103662599D01*
X146662599Y-103862599D01*
X146497852Y-104109161D01*
X146440000Y-104400000D01*
X146440000Y-114600000D01*
X146497852Y-114890839D01*
X146662599Y-115137401D01*
X147062599Y-115537401D01*
X147309160Y-115702148D01*
X147309161Y-115702148D01*
X147357413Y-115711746D01*
X147600000Y-115760000D01*
X165600000Y-115760000D01*
X165890839Y-115702148D01*
X166137401Y-115537401D01*
X169937401Y-111737401D01*
X170102148Y-111490839D01*
X170160000Y-111200000D01*
X170160000Y-131690000D01*
X156535370Y-131690000D01*
X156535370Y-125977185D01*
X156211020Y-125192200D01*
X155610959Y-124591091D01*
X154826541Y-124265372D01*
X153977185Y-124264630D01*
X153192200Y-124588980D01*
X152591091Y-125189041D01*
X152265372Y-125973459D01*
X152264630Y-126822815D01*
X152588980Y-127607800D01*
X153189041Y-128208909D01*
X153973459Y-128534628D01*
X154822815Y-128535370D01*
X155607800Y-128211020D01*
X156208909Y-127610959D01*
X156534628Y-126826541D01*
X156535370Y-125977185D01*
X156535370Y-131690000D01*
X148635001Y-131690000D01*
X148635001Y-120800000D01*
X148510543Y-120174312D01*
X148156120Y-119643880D01*
X147625688Y-119289457D01*
X147000000Y-119164999D01*
X146374312Y-119289457D01*
X145843881Y-119643880D01*
X145783880Y-119703880D01*
X145429457Y-120234312D01*
X145304999Y-120860000D01*
X145305000Y-120860005D01*
X145305000Y-123860000D01*
X145305000Y-125275269D01*
X145285000Y-125255234D01*
X145285000Y-119247440D01*
X145700000Y-119247440D01*
X145942123Y-119200463D01*
X146154927Y-119060673D01*
X146297377Y-118849640D01*
X146347440Y-118600000D01*
X146347440Y-118460000D01*
X146832971Y-118460000D01*
X147013201Y-118534838D01*
X147385167Y-118535162D01*
X147728943Y-118393117D01*
X147992192Y-118130327D01*
X148134838Y-117786799D01*
X148135162Y-117414833D01*
X147993117Y-117071057D01*
X147730327Y-116807808D01*
X147386799Y-116665162D01*
X147014833Y-116664838D01*
X146671057Y-116806883D01*
X146537707Y-116940000D01*
X146347440Y-116940000D01*
X146347440Y-116800000D01*
X146300463Y-116557877D01*
X146160673Y-116345073D01*
X145949640Y-116202623D01*
X145700000Y-116152560D01*
X145100000Y-116152560D01*
X144896695Y-116192005D01*
X144700000Y-116152560D01*
X144100000Y-116152560D01*
X143896695Y-116192005D01*
X143700000Y-116152560D01*
X143100000Y-116152560D01*
X142896695Y-116192005D01*
X142700000Y-116152560D01*
X142100000Y-116152560D01*
X141896695Y-116192005D01*
X141700000Y-116152560D01*
X141100000Y-116152560D01*
X140896695Y-116192005D01*
X140700000Y-116152560D01*
X140100000Y-116152560D01*
X139896695Y-116192005D01*
X139700000Y-116152560D01*
X139100000Y-116152560D01*
X138896695Y-116192005D01*
X138700000Y-116152560D01*
X138100000Y-116152560D01*
X137896695Y-116192005D01*
X137700000Y-116152560D01*
X137100000Y-116152560D01*
X136896695Y-116192005D01*
X136700000Y-116152560D01*
X136100000Y-116152560D01*
X135896695Y-116192005D01*
X135700000Y-116152560D01*
X135100000Y-116152560D01*
X134896695Y-116192005D01*
X134700000Y-116152560D01*
X134100000Y-116152560D01*
X133896695Y-116192005D01*
X133700000Y-116152560D01*
X133100000Y-116152560D01*
X132896695Y-116192005D01*
X132700000Y-116152560D01*
X132100000Y-116152560D01*
X131896695Y-116192005D01*
X131700000Y-116152560D01*
X131100000Y-116152560D01*
X130896695Y-116192005D01*
X130700000Y-116152560D01*
X130100000Y-116152560D01*
X129896695Y-116192005D01*
X129700000Y-116152560D01*
X129100000Y-116152560D01*
X128896695Y-116192005D01*
X128700000Y-116152560D01*
X128100000Y-116152560D01*
X127896695Y-116192005D01*
X127700000Y-116152560D01*
X127100000Y-116152560D01*
X126896695Y-116192005D01*
X126700000Y-116152560D01*
X126100000Y-116152560D01*
X125896695Y-116192005D01*
X125700000Y-116152560D01*
X125100000Y-116152560D01*
X124857877Y-116199537D01*
X124645073Y-116339327D01*
X124502623Y-116550360D01*
X124452560Y-116800000D01*
X124452560Y-118600000D01*
X124499537Y-118842123D01*
X124515000Y-118865662D01*
X124515000Y-125255687D01*
X124495000Y-125275652D01*
X124495000Y-123860005D01*
X124495000Y-123860000D01*
X124495001Y-123860000D01*
X124435000Y-123558359D01*
X124435000Y-123558356D01*
X124435000Y-121400000D01*
X124310543Y-120774313D01*
X123956120Y-120243880D01*
X123425687Y-119889457D01*
X122800000Y-119765000D01*
X122447440Y-119835128D01*
X122447440Y-112500000D01*
X122447440Y-111900000D01*
X122447440Y-109500000D01*
X122447440Y-108900000D01*
X122407994Y-108696695D01*
X122447440Y-108500000D01*
X122447440Y-107900000D01*
X122407994Y-107696695D01*
X122447440Y-107500000D01*
X122447440Y-106900000D01*
X122407994Y-106696695D01*
X122447440Y-106500000D01*
X122447440Y-105900000D01*
X122407994Y-105696695D01*
X122447440Y-105500000D01*
X122447440Y-104900000D01*
X122407994Y-104696695D01*
X122447440Y-104500000D01*
X122447440Y-103900000D01*
X122407994Y-103696695D01*
X122447440Y-103500000D01*
X122447440Y-102900000D01*
X122407994Y-102696695D01*
X122447440Y-102500000D01*
X122447440Y-101900000D01*
X122407994Y-101696695D01*
X122447440Y-101500000D01*
X122447440Y-100900000D01*
X122407994Y-100696695D01*
X122447440Y-100500000D01*
X122447440Y-99900000D01*
X122407994Y-99696695D01*
X122447440Y-99500000D01*
X122447440Y-98900000D01*
X122407994Y-98696695D01*
X122447440Y-98500000D01*
X122447440Y-97900000D01*
X122407994Y-97696695D01*
X122447440Y-97500000D01*
X122447440Y-96900000D01*
X122407994Y-96696695D01*
X122447440Y-96500000D01*
X122447440Y-95900000D01*
X122407994Y-95696695D01*
X122447440Y-95500000D01*
X122447440Y-94900000D01*
X122407994Y-94696695D01*
X122447440Y-94500000D01*
X122447440Y-93900000D01*
X122407994Y-93696695D01*
X122447440Y-93500000D01*
X122447440Y-92900000D01*
X122400463Y-92657877D01*
X122260673Y-92445073D01*
X122049640Y-92302623D01*
X121800000Y-92252560D01*
X120000000Y-92252560D01*
X119757877Y-92299537D01*
X119545073Y-92439327D01*
X119402623Y-92650360D01*
X119352560Y-92900000D01*
X119352560Y-93500000D01*
X119392005Y-93703304D01*
X119352560Y-93900000D01*
X119352560Y-94500000D01*
X119392005Y-94703304D01*
X119352560Y-94900000D01*
X119352560Y-95500000D01*
X119392005Y-95703304D01*
X119352560Y-95900000D01*
X119352560Y-96500000D01*
X119392005Y-96703304D01*
X119352560Y-96900000D01*
X119352560Y-97500000D01*
X119392005Y-97703304D01*
X119352560Y-97900000D01*
X119352560Y-98500000D01*
X119392005Y-98703304D01*
X119352560Y-98900000D01*
X119352560Y-99500000D01*
X119392005Y-99703304D01*
X119352560Y-99900000D01*
X119352560Y-100500000D01*
X119392005Y-100703304D01*
X119352560Y-100900000D01*
X119352560Y-101500000D01*
X119392005Y-101703304D01*
X119352560Y-101900000D01*
X119352560Y-102500000D01*
X119392005Y-102703304D01*
X119352560Y-102900000D01*
X119352560Y-103500000D01*
X119392005Y-103703304D01*
X119352560Y-103900000D01*
X119352560Y-104500000D01*
X119392005Y-104703304D01*
X119352560Y-104900000D01*
X119352560Y-105500000D01*
X119392005Y-105703304D01*
X119352560Y-105900000D01*
X119352560Y-106500000D01*
X119392005Y-106703304D01*
X119352560Y-106900000D01*
X119352560Y-107500000D01*
X119392005Y-107703304D01*
X119364177Y-107842067D01*
X119130327Y-107607808D01*
X118786799Y-107465162D01*
X118414833Y-107464838D01*
X118071057Y-107606883D01*
X117807808Y-107869673D01*
X117665162Y-108213201D01*
X117664838Y-108585167D01*
X117806883Y-108928943D01*
X118069673Y-109192192D01*
X118413201Y-109334838D01*
X118460076Y-109334878D01*
X118862599Y-109737401D01*
X119109161Y-109902148D01*
X119365000Y-109953038D01*
X119400000Y-109960000D01*
X119410750Y-109960000D01*
X119523750Y-110073000D01*
X119714246Y-110073000D01*
X119750360Y-110097377D01*
X120000000Y-110147440D01*
X121800000Y-110147440D01*
X122042123Y-110100463D01*
X122083930Y-110073000D01*
X122276250Y-110073000D01*
X122435000Y-109914250D01*
X122435000Y-109773690D01*
X122406400Y-109704644D01*
X122447440Y-109500000D01*
X122447440Y-111900000D01*
X122407309Y-111693161D01*
X122435000Y-111626310D01*
X122435000Y-111485750D01*
X122435000Y-110914250D01*
X122435000Y-110773690D01*
X122404476Y-110700000D01*
X122435000Y-110626310D01*
X122435000Y-110485750D01*
X122276250Y-110327000D01*
X122075990Y-110327000D01*
X121926309Y-110265000D01*
X121185750Y-110265000D01*
X121123750Y-110327000D01*
X121027000Y-110327000D01*
X121027000Y-110423750D01*
X121027000Y-110976250D01*
X121027000Y-111073000D01*
X121123750Y-111073000D01*
X121185750Y-111135000D01*
X121926309Y-111135000D01*
X122075990Y-111073000D01*
X122276250Y-111073000D01*
X122435000Y-110914250D01*
X122435000Y-111485750D01*
X122276250Y-111327000D01*
X122085753Y-111327000D01*
X122049640Y-111302623D01*
X121800000Y-111252560D01*
X120773000Y-111252560D01*
X120773000Y-111073000D01*
X120773000Y-110976250D01*
X120773000Y-110423750D01*
X120773000Y-110327000D01*
X120676250Y-110327000D01*
X120614250Y-110265000D01*
X119873691Y-110265000D01*
X119724009Y-110327000D01*
X119523750Y-110327000D01*
X119365000Y-110485750D01*
X119365000Y-110626310D01*
X119395523Y-110700000D01*
X119365000Y-110773690D01*
X119365000Y-110914250D01*
X119523750Y-111073000D01*
X119724009Y-111073000D01*
X119873691Y-111135000D01*
X120614250Y-111135000D01*
X120676250Y-111073000D01*
X120773000Y-111073000D01*
X120773000Y-111252560D01*
X120000000Y-111252560D01*
X119757877Y-111299537D01*
X119716069Y-111327000D01*
X119523750Y-111327000D01*
X119365000Y-111485750D01*
X119365000Y-111626310D01*
X119393599Y-111695355D01*
X119352560Y-111900000D01*
X119352560Y-112500000D01*
X119399537Y-112742123D01*
X119539327Y-112954927D01*
X119750360Y-113097377D01*
X120000000Y-113147440D01*
X120140000Y-113147440D01*
X120140000Y-114337711D01*
X120007808Y-114469673D01*
X119865162Y-114813201D01*
X119864838Y-115185167D01*
X120006883Y-115528943D01*
X120269673Y-115792192D01*
X120613201Y-115934838D01*
X120985167Y-115935162D01*
X121328943Y-115793117D01*
X121592192Y-115530327D01*
X121734838Y-115186799D01*
X121735162Y-114814833D01*
X121660000Y-114632926D01*
X121660000Y-113147440D01*
X121800000Y-113147440D01*
X122042123Y-113100463D01*
X122254927Y-112960673D01*
X122397377Y-112749640D01*
X122447440Y-112500000D01*
X122447440Y-119835128D01*
X122174313Y-119889457D01*
X121643880Y-120243880D01*
X121289457Y-120774313D01*
X121165000Y-121400000D01*
X121165000Y-123799994D01*
X121164999Y-123800000D01*
X121225000Y-124101643D01*
X121225000Y-128940000D01*
X121349457Y-129565687D01*
X121703880Y-130096120D01*
X122234313Y-130450543D01*
X122860000Y-130575000D01*
X127940000Y-130575000D01*
X128565687Y-130450543D01*
X129096120Y-130096120D01*
X129450543Y-129565687D01*
X129575000Y-128940000D01*
X129575000Y-124620000D01*
X132539800Y-124620000D01*
X132830639Y-124562148D01*
X133077201Y-124397401D01*
X134859818Y-122614783D01*
X134852840Y-122649580D01*
X134852840Y-123650340D01*
X134899817Y-123892463D01*
X135039607Y-124105267D01*
X135250640Y-124247717D01*
X135500280Y-124297780D01*
X136099720Y-124297780D01*
X136341843Y-124250803D01*
X136554647Y-124111013D01*
X136690360Y-123909960D01*
X136902560Y-123909960D01*
X136902560Y-124300000D01*
X136949537Y-124542123D01*
X137089327Y-124754927D01*
X137155528Y-124799613D01*
X137095073Y-124839327D01*
X136952623Y-125050360D01*
X136902560Y-125300000D01*
X136902560Y-125800000D01*
X136920157Y-125890700D01*
X136721008Y-125890700D01*
X136659453Y-125796993D01*
X136448420Y-125654543D01*
X136198780Y-125604480D01*
X135401220Y-125604480D01*
X135159097Y-125651457D01*
X134946293Y-125791247D01*
X134803843Y-126002280D01*
X134753780Y-126251920D01*
X134753780Y-127049480D01*
X134800757Y-127291603D01*
X134864728Y-127388986D01*
X134862893Y-127390822D01*
X134766220Y-127624211D01*
X134766220Y-127863550D01*
X134924970Y-128022300D01*
X135673000Y-128022300D01*
X135673000Y-128002300D01*
X135927000Y-128002300D01*
X135927000Y-128022300D01*
X136675030Y-128022300D01*
X136833780Y-127863550D01*
X136833780Y-127624211D01*
X136745340Y-127410700D01*
X137949300Y-127410700D01*
X138240139Y-127352848D01*
X138486701Y-127188101D01*
X138537401Y-127137401D01*
X138702148Y-126890839D01*
X138760000Y-126600000D01*
X138760000Y-126355874D01*
X138904927Y-126260673D01*
X139047377Y-126049640D01*
X139097440Y-125800000D01*
X139097440Y-125300000D01*
X139050463Y-125057877D01*
X138910673Y-124845073D01*
X138844471Y-124800386D01*
X138904927Y-124760673D01*
X139047377Y-124549640D01*
X139097440Y-124300000D01*
X139097440Y-123800000D01*
X139050463Y-123557877D01*
X138910673Y-123345073D01*
X138760000Y-123243366D01*
X138760000Y-123200000D01*
X138702148Y-122909161D01*
X138702148Y-122909160D01*
X138537401Y-122662599D01*
X138487361Y-122612559D01*
X138240799Y-122447812D01*
X137949960Y-122389960D01*
X136790677Y-122389960D01*
X136992083Y-122350883D01*
X137204887Y-122211093D01*
X137347337Y-122000060D01*
X137397400Y-121750420D01*
X137397400Y-120749660D01*
X137350423Y-120507537D01*
X137210633Y-120294733D01*
X137210240Y-120294467D01*
X137210240Y-119247440D01*
X137700000Y-119247440D01*
X137903304Y-119207994D01*
X138100000Y-119247440D01*
X138700000Y-119247440D01*
X138903304Y-119207994D01*
X139100000Y-119247440D01*
X139700000Y-119247440D01*
X139903304Y-119207994D01*
X140100000Y-119247440D01*
X140700000Y-119247440D01*
X140903304Y-119207994D01*
X141100000Y-119247440D01*
X141640000Y-119247440D01*
X141640000Y-122268760D01*
X141234313Y-122349457D01*
X140703880Y-122703880D01*
X140349457Y-123234313D01*
X140225000Y-123860000D01*
X140225000Y-128940000D01*
X140349457Y-129565687D01*
X140703880Y-130096120D01*
X141234313Y-130450543D01*
X141860000Y-130575000D01*
X146940000Y-130575000D01*
X147565687Y-130450543D01*
X148096120Y-130096120D01*
X148450543Y-129565687D01*
X148575000Y-128940000D01*
X148575000Y-123860000D01*
X148575000Y-121101643D01*
X148635001Y-120800000D01*
X148635001Y-131690000D01*
X136833780Y-131690000D01*
X136833780Y-128674389D01*
X136833780Y-128435050D01*
X136675030Y-128276300D01*
X135927000Y-128276300D01*
X135927000Y-129024330D01*
X136085750Y-129183080D01*
X136325090Y-129183080D01*
X136558479Y-129086407D01*
X136737107Y-128907778D01*
X136833780Y-128674389D01*
X136833780Y-131690000D01*
X135673000Y-131690000D01*
X135673000Y-129024330D01*
X135673000Y-128276300D01*
X134924970Y-128276300D01*
X134766220Y-128435050D01*
X134766220Y-128674389D01*
X134862893Y-128907778D01*
X135041521Y-129086407D01*
X135274910Y-129183080D01*
X135514250Y-129183080D01*
X135673000Y-129024330D01*
X135673000Y-131690000D01*
X117535370Y-131690000D01*
X117535370Y-125977185D01*
X117211020Y-125192200D01*
X116935000Y-124915697D01*
X116935000Y-113551310D01*
X116935000Y-113298691D01*
X116935000Y-113085750D01*
X116935000Y-112514250D01*
X116935000Y-112301309D01*
X116935000Y-112048690D01*
X116935000Y-109151310D01*
X116935000Y-108898691D01*
X116935000Y-108685750D01*
X116935000Y-108114250D01*
X116935000Y-107901309D01*
X116935000Y-107648690D01*
X116838327Y-107415301D01*
X116659698Y-107236673D01*
X116426309Y-107140000D01*
X116085750Y-107140000D01*
X115927000Y-107298750D01*
X115927000Y-108273000D01*
X116776250Y-108273000D01*
X116935000Y-108114250D01*
X116935000Y-108685750D01*
X116776250Y-108527000D01*
X115927000Y-108527000D01*
X115927000Y-109501250D01*
X116085750Y-109660000D01*
X116426309Y-109660000D01*
X116659698Y-109563327D01*
X116838327Y-109384699D01*
X116935000Y-109151310D01*
X116935000Y-112048690D01*
X116838327Y-111815301D01*
X116659698Y-111636673D01*
X116426309Y-111540000D01*
X116085750Y-111540000D01*
X115927000Y-111698750D01*
X115927000Y-112673000D01*
X116776250Y-112673000D01*
X116935000Y-112514250D01*
X116935000Y-113085750D01*
X116776250Y-112927000D01*
X115927000Y-112927000D01*
X115927000Y-113901250D01*
X116085750Y-114060000D01*
X116426309Y-114060000D01*
X116659698Y-113963327D01*
X116838327Y-113784699D01*
X116935000Y-113551310D01*
X116935000Y-124915697D01*
X116610959Y-124591091D01*
X115826541Y-124265372D01*
X115673000Y-124265237D01*
X115673000Y-113901250D01*
X115673000Y-112927000D01*
X115653000Y-112927000D01*
X115653000Y-112673000D01*
X115673000Y-112673000D01*
X115673000Y-111698750D01*
X115673000Y-109501250D01*
X115673000Y-108527000D01*
X115653000Y-108527000D01*
X115653000Y-108273000D01*
X115673000Y-108273000D01*
X115673000Y-107298750D01*
X115514250Y-107140000D01*
X115173691Y-107140000D01*
X114940302Y-107236673D01*
X114798823Y-107378150D01*
X114760673Y-107320073D01*
X114560000Y-107184616D01*
X114560000Y-106762462D01*
X114592192Y-106730327D01*
X114734838Y-106386799D01*
X114735162Y-106014833D01*
X114593117Y-105671057D01*
X114330327Y-105407808D01*
X113986799Y-105265162D01*
X113614833Y-105264838D01*
X113271057Y-105406883D01*
X113007808Y-105669673D01*
X112865162Y-106013201D01*
X112864838Y-106385167D01*
X113006883Y-106728943D01*
X113040000Y-106762117D01*
X113040000Y-107186280D01*
X112845073Y-107314327D01*
X112702623Y-107525360D01*
X112652560Y-107775000D01*
X112652560Y-109025000D01*
X112699537Y-109267123D01*
X112839327Y-109479927D01*
X113050360Y-109622377D01*
X113300000Y-109672440D01*
X114300000Y-109672440D01*
X114542123Y-109625463D01*
X114754927Y-109485673D01*
X114798337Y-109421362D01*
X114940302Y-109563327D01*
X115173691Y-109660000D01*
X115514250Y-109660000D01*
X115673000Y-109501250D01*
X115673000Y-111698750D01*
X115514250Y-111540000D01*
X115173691Y-111540000D01*
X114940302Y-111636673D01*
X114798823Y-111778150D01*
X114760673Y-111720073D01*
X114549640Y-111577623D01*
X114300000Y-111527560D01*
X113300000Y-111527560D01*
X113057877Y-111574537D01*
X112845073Y-111714327D01*
X112702623Y-111925360D01*
X112652560Y-112175000D01*
X112652560Y-113425000D01*
X112699537Y-113667123D01*
X112839327Y-113879927D01*
X113040000Y-114015383D01*
X113040000Y-114637537D01*
X113007808Y-114669673D01*
X112865162Y-115013201D01*
X112864838Y-115385167D01*
X113006883Y-115728943D01*
X113269673Y-115992192D01*
X113613201Y-116134838D01*
X113985167Y-116135162D01*
X114328943Y-115993117D01*
X114592192Y-115730327D01*
X114734838Y-115386799D01*
X114735162Y-115014833D01*
X114593117Y-114671057D01*
X114560000Y-114637882D01*
X114560000Y-114013719D01*
X114754927Y-113885673D01*
X114798337Y-113821362D01*
X114940302Y-113963327D01*
X115173691Y-114060000D01*
X115514250Y-114060000D01*
X115673000Y-113901250D01*
X115673000Y-124265237D01*
X114977185Y-124264630D01*
X114192200Y-124588980D01*
X113591091Y-125189041D01*
X113265372Y-125973459D01*
X113264630Y-126822815D01*
X113588980Y-127607800D01*
X114189041Y-128208909D01*
X114973459Y-128534628D01*
X115822815Y-128535370D01*
X116607800Y-128211020D01*
X117208909Y-127610959D01*
X117534628Y-126826541D01*
X117535370Y-125977185D01*
X117535370Y-131690000D01*
X101558440Y-131690000D01*
X101558440Y-127248000D01*
X101558440Y-121152000D01*
X101511463Y-120909877D01*
X101371673Y-120697073D01*
X101358440Y-120688140D01*
X101358440Y-112448000D01*
X101358440Y-106352000D01*
X101311463Y-106109877D01*
X101171673Y-105897073D01*
X100960640Y-105754623D01*
X100958440Y-105754181D01*
X100958440Y-96848000D01*
X100958440Y-90752000D01*
X100911463Y-90509877D01*
X100771673Y-90297073D01*
X100560640Y-90154623D01*
X100311000Y-90104560D01*
X94215000Y-90104560D01*
X93972877Y-90151537D01*
X93760073Y-90291327D01*
X93617623Y-90502360D01*
X93567560Y-90752000D01*
X93567560Y-92165000D01*
X92077239Y-92165000D01*
X90156120Y-90243880D01*
X89625688Y-89889457D01*
X89000000Y-89764999D01*
X88999994Y-89765000D01*
X82600000Y-89765000D01*
X82552743Y-89774400D01*
X81558146Y-89774400D01*
X80936056Y-89898141D01*
X80408673Y-90250527D01*
X80056287Y-90777910D01*
X79932546Y-91400000D01*
X80056287Y-92022090D01*
X80408673Y-92549473D01*
X80936056Y-92901859D01*
X81558146Y-93025600D01*
X82552743Y-93025600D01*
X82600000Y-93035000D01*
X88322760Y-93035000D01*
X90243877Y-94956116D01*
X90243880Y-94956120D01*
X90243881Y-94956120D01*
X90774313Y-95310543D01*
X91400000Y-95435001D01*
X91400000Y-95435000D01*
X91400005Y-95435000D01*
X93567560Y-95435000D01*
X93567560Y-96848000D01*
X93614537Y-97090123D01*
X93754327Y-97302927D01*
X93965360Y-97445377D01*
X94215000Y-97495440D01*
X100311000Y-97495440D01*
X100553123Y-97448463D01*
X100765927Y-97308673D01*
X100908377Y-97097640D01*
X100958440Y-96848000D01*
X100958440Y-105754181D01*
X100711000Y-105704560D01*
X94615000Y-105704560D01*
X94372877Y-105751537D01*
X94160073Y-105891327D01*
X94017623Y-106102360D01*
X93967560Y-106352000D01*
X93967560Y-107055320D01*
X92756120Y-105843880D01*
X92225688Y-105489457D01*
X91600000Y-105364999D01*
X91599994Y-105365000D01*
X82600000Y-105365000D01*
X82552743Y-105374400D01*
X81558146Y-105374400D01*
X80936056Y-105498141D01*
X80408673Y-105850527D01*
X80056287Y-106377910D01*
X79932546Y-107000000D01*
X80056287Y-107622090D01*
X80408673Y-108149473D01*
X80936056Y-108501859D01*
X81558146Y-108625600D01*
X82552743Y-108625600D01*
X82600000Y-108635000D01*
X90922760Y-108635000D01*
X92843877Y-110556116D01*
X92843880Y-110556120D01*
X92843881Y-110556120D01*
X93374313Y-110910543D01*
X93967560Y-111028548D01*
X93967560Y-112448000D01*
X94014537Y-112690123D01*
X94154327Y-112902927D01*
X94365360Y-113045377D01*
X94615000Y-113095440D01*
X100711000Y-113095440D01*
X100953123Y-113048463D01*
X101165927Y-112908673D01*
X101308377Y-112697640D01*
X101358440Y-112448000D01*
X101358440Y-120688140D01*
X101160640Y-120554623D01*
X100911000Y-120504560D01*
X94815000Y-120504560D01*
X94572877Y-120551537D01*
X94360073Y-120691327D01*
X94217623Y-120902360D01*
X94167560Y-121152000D01*
X94167560Y-121655320D01*
X93356120Y-120843880D01*
X92825688Y-120489457D01*
X92200000Y-120364999D01*
X92199994Y-120365000D01*
X82600000Y-120365000D01*
X82552743Y-120374400D01*
X81558146Y-120374400D01*
X80936056Y-120498141D01*
X80408673Y-120850527D01*
X80056287Y-121377910D01*
X79932546Y-122000000D01*
X80056287Y-122622090D01*
X80408673Y-123149473D01*
X80936056Y-123501859D01*
X81558146Y-123625600D01*
X82552743Y-123625600D01*
X82600000Y-123635000D01*
X91522760Y-123635000D01*
X93243877Y-125356116D01*
X93243880Y-125356120D01*
X93243881Y-125356120D01*
X93509096Y-125533331D01*
X93774312Y-125710543D01*
X93774313Y-125710543D01*
X94167560Y-125788765D01*
X94167560Y-127248000D01*
X94214537Y-127490123D01*
X94354327Y-127702927D01*
X94565360Y-127845377D01*
X94815000Y-127895440D01*
X100911000Y-127895440D01*
X101153123Y-127848463D01*
X101365927Y-127708673D01*
X101508377Y-127497640D01*
X101558440Y-127248000D01*
X101558440Y-131690000D01*
X75110000Y-131690000D01*
X75110000Y-33110000D01*
X173690000Y-33110000D01*
X173690000Y-131690000D01*
M02*
