G04 #@! TF.FileFunction,Legend,Top*
%FSLAX46Y46*%
G04 Gerber Fmt 4.6, Leading zero omitted, Abs format (unit mm)*
G04 Created by KiCad (PCBNEW (2015-05-05 BZR 5645)-product) date Wednesday, June 24, 2015 'pmt' 10:47:51 pm*
%MOMM*%
G01*
G04 APERTURE LIST*
%ADD10C,0.100000*%
%ADD11C,0.300000*%
%ADD12C,0.150000*%
G04 APERTURE END LIST*
D10*
D11*
X151542857Y-40135714D02*
X151471428Y-40207143D01*
X151257142Y-40278571D01*
X151114285Y-40278571D01*
X150900000Y-40207143D01*
X150757142Y-40064286D01*
X150685714Y-39921429D01*
X150614285Y-39635714D01*
X150614285Y-39421429D01*
X150685714Y-39135714D01*
X150757142Y-38992857D01*
X150900000Y-38850000D01*
X151114285Y-38778571D01*
X151257142Y-38778571D01*
X151471428Y-38850000D01*
X151542857Y-38921429D01*
X152400000Y-40278571D02*
X152257142Y-40207143D01*
X152185714Y-40135714D01*
X152114285Y-39992857D01*
X152114285Y-39564286D01*
X152185714Y-39421429D01*
X152257142Y-39350000D01*
X152400000Y-39278571D01*
X152614285Y-39278571D01*
X152757142Y-39350000D01*
X152828571Y-39421429D01*
X152900000Y-39564286D01*
X152900000Y-39992857D01*
X152828571Y-40135714D01*
X152757142Y-40207143D01*
X152614285Y-40278571D01*
X152400000Y-40278571D01*
X153328571Y-39278571D02*
X153900000Y-39278571D01*
X153542857Y-38778571D02*
X153542857Y-40064286D01*
X153614285Y-40207143D01*
X153757143Y-40278571D01*
X153900000Y-40278571D01*
X154185714Y-39278571D02*
X154757143Y-39278571D01*
X154400000Y-38778571D02*
X154400000Y-40064286D01*
X154471428Y-40207143D01*
X154614286Y-40278571D01*
X154757143Y-40278571D01*
X155900000Y-40278571D02*
X155900000Y-39492857D01*
X155828571Y-39350000D01*
X155685714Y-39278571D01*
X155400000Y-39278571D01*
X155257143Y-39350000D01*
X155900000Y-40207143D02*
X155757143Y-40278571D01*
X155400000Y-40278571D01*
X155257143Y-40207143D01*
X155185714Y-40064286D01*
X155185714Y-39921429D01*
X155257143Y-39778571D01*
X155400000Y-39707143D01*
X155757143Y-39707143D01*
X155900000Y-39635714D01*
X157257143Y-39278571D02*
X157257143Y-40492857D01*
X157185714Y-40635714D01*
X157114286Y-40707143D01*
X156971429Y-40778571D01*
X156757143Y-40778571D01*
X156614286Y-40707143D01*
X157257143Y-40207143D02*
X157114286Y-40278571D01*
X156828572Y-40278571D01*
X156685714Y-40207143D01*
X156614286Y-40135714D01*
X156542857Y-39992857D01*
X156542857Y-39564286D01*
X156614286Y-39421429D01*
X156685714Y-39350000D01*
X156828572Y-39278571D01*
X157114286Y-39278571D01*
X157257143Y-39350000D01*
X158542857Y-40207143D02*
X158400000Y-40278571D01*
X158114286Y-40278571D01*
X157971429Y-40207143D01*
X157900000Y-40064286D01*
X157900000Y-39492857D01*
X157971429Y-39350000D01*
X158114286Y-39278571D01*
X158400000Y-39278571D01*
X158542857Y-39350000D01*
X158614286Y-39492857D01*
X158614286Y-39635714D01*
X157900000Y-39778571D01*
X159257143Y-40278571D02*
X159257143Y-38778571D01*
X160114286Y-40278571D01*
X160114286Y-38778571D01*
X161042858Y-40278571D02*
X160900000Y-40207143D01*
X160828572Y-40135714D01*
X160757143Y-39992857D01*
X160757143Y-39564286D01*
X160828572Y-39421429D01*
X160900000Y-39350000D01*
X161042858Y-39278571D01*
X161257143Y-39278571D01*
X161400000Y-39350000D01*
X161471429Y-39421429D01*
X161542858Y-39564286D01*
X161542858Y-39992857D01*
X161471429Y-40135714D01*
X161400000Y-40207143D01*
X161257143Y-40278571D01*
X161042858Y-40278571D01*
X162828572Y-40278571D02*
X162828572Y-38778571D01*
X162828572Y-40207143D02*
X162685715Y-40278571D01*
X162400001Y-40278571D01*
X162257143Y-40207143D01*
X162185715Y-40135714D01*
X162114286Y-39992857D01*
X162114286Y-39564286D01*
X162185715Y-39421429D01*
X162257143Y-39350000D01*
X162400001Y-39278571D01*
X162685715Y-39278571D01*
X162828572Y-39350000D01*
X164114286Y-40207143D02*
X163971429Y-40278571D01*
X163685715Y-40278571D01*
X163542858Y-40207143D01*
X163471429Y-40064286D01*
X163471429Y-39492857D01*
X163542858Y-39350000D01*
X163685715Y-39278571D01*
X163971429Y-39278571D01*
X164114286Y-39350000D01*
X164185715Y-39492857D01*
X164185715Y-39635714D01*
X163471429Y-39778571D01*
X155364287Y-42678571D02*
X154864287Y-41964286D01*
X154507144Y-42678571D02*
X154507144Y-41178571D01*
X155078572Y-41178571D01*
X155221430Y-41250000D01*
X155292858Y-41321429D01*
X155364287Y-41464286D01*
X155364287Y-41678571D01*
X155292858Y-41821429D01*
X155221430Y-41892857D01*
X155078572Y-41964286D01*
X154507144Y-41964286D01*
X156578572Y-42607143D02*
X156435715Y-42678571D01*
X156150001Y-42678571D01*
X156007144Y-42607143D01*
X155935715Y-42464286D01*
X155935715Y-41892857D01*
X156007144Y-41750000D01*
X156150001Y-41678571D01*
X156435715Y-41678571D01*
X156578572Y-41750000D01*
X156650001Y-41892857D01*
X156650001Y-42035714D01*
X155935715Y-42178571D01*
X157150001Y-41678571D02*
X157507144Y-42678571D01*
X157864286Y-41678571D01*
X160364286Y-42678571D02*
X159507143Y-42678571D01*
X159935715Y-42678571D02*
X159935715Y-41178571D01*
X159792858Y-41392857D01*
X159650000Y-41535714D01*
X159507143Y-41607143D01*
X147792858Y-44292857D02*
X148007144Y-44364286D01*
X148078572Y-44435714D01*
X148150001Y-44578571D01*
X148150001Y-44792857D01*
X148078572Y-44935714D01*
X148007144Y-45007143D01*
X147864286Y-45078571D01*
X147292858Y-45078571D01*
X147292858Y-43578571D01*
X147792858Y-43578571D01*
X147935715Y-43650000D01*
X148007144Y-43721429D01*
X148078572Y-43864286D01*
X148078572Y-44007143D01*
X148007144Y-44150000D01*
X147935715Y-44221429D01*
X147792858Y-44292857D01*
X147292858Y-44292857D01*
X148650001Y-44078571D02*
X149007144Y-45078571D01*
X149364286Y-44078571D02*
X149007144Y-45078571D01*
X148864286Y-45435714D01*
X148792858Y-45507143D01*
X148650001Y-45578571D01*
X149935715Y-44935714D02*
X150007143Y-45007143D01*
X149935715Y-45078571D01*
X149864286Y-45007143D01*
X149935715Y-44935714D01*
X149935715Y-45078571D01*
X149935715Y-44150000D02*
X150007143Y-44221429D01*
X149935715Y-44292857D01*
X149864286Y-44221429D01*
X149935715Y-44150000D01*
X149935715Y-44292857D01*
X151721429Y-45007143D02*
X151935715Y-45078571D01*
X152292858Y-45078571D01*
X152435715Y-45007143D01*
X152507144Y-44935714D01*
X152578572Y-44792857D01*
X152578572Y-44650000D01*
X152507144Y-44507143D01*
X152435715Y-44435714D01*
X152292858Y-44364286D01*
X152007144Y-44292857D01*
X151864286Y-44221429D01*
X151792858Y-44150000D01*
X151721429Y-44007143D01*
X151721429Y-43864286D01*
X151792858Y-43721429D01*
X151864286Y-43650000D01*
X152007144Y-43578571D01*
X152364286Y-43578571D01*
X152578572Y-43650000D01*
X153221429Y-44078571D02*
X153221429Y-45578571D01*
X153221429Y-44150000D02*
X153364286Y-44078571D01*
X153650000Y-44078571D01*
X153792857Y-44150000D01*
X153864286Y-44221429D01*
X153935715Y-44364286D01*
X153935715Y-44792857D01*
X153864286Y-44935714D01*
X153792857Y-45007143D01*
X153650000Y-45078571D01*
X153364286Y-45078571D01*
X153221429Y-45007143D01*
X155150000Y-45007143D02*
X155007143Y-45078571D01*
X154721429Y-45078571D01*
X154578572Y-45007143D01*
X154507143Y-44864286D01*
X154507143Y-44292857D01*
X154578572Y-44150000D01*
X154721429Y-44078571D01*
X155007143Y-44078571D01*
X155150000Y-44150000D01*
X155221429Y-44292857D01*
X155221429Y-44435714D01*
X154507143Y-44578571D01*
X155864286Y-44078571D02*
X155864286Y-45078571D01*
X155864286Y-44221429D02*
X155935714Y-44150000D01*
X156078572Y-44078571D01*
X156292857Y-44078571D01*
X156435714Y-44150000D01*
X156507143Y-44292857D01*
X156507143Y-45078571D01*
X157864286Y-45007143D02*
X157721429Y-45078571D01*
X157435715Y-45078571D01*
X157292857Y-45007143D01*
X157221429Y-44935714D01*
X157150000Y-44792857D01*
X157150000Y-44364286D01*
X157221429Y-44221429D01*
X157292857Y-44150000D01*
X157435715Y-44078571D01*
X157721429Y-44078571D01*
X157864286Y-44150000D01*
X159078571Y-45007143D02*
X158935714Y-45078571D01*
X158650000Y-45078571D01*
X158507143Y-45007143D01*
X158435714Y-44864286D01*
X158435714Y-44292857D01*
X158507143Y-44150000D01*
X158650000Y-44078571D01*
X158935714Y-44078571D01*
X159078571Y-44150000D01*
X159150000Y-44292857D01*
X159150000Y-44435714D01*
X158435714Y-44578571D01*
X159792857Y-45078571D02*
X159792857Y-44078571D01*
X159792857Y-44364286D02*
X159864285Y-44221429D01*
X159935714Y-44150000D01*
X160078571Y-44078571D01*
X160221428Y-44078571D01*
X161721428Y-43578571D02*
X162078571Y-45078571D01*
X162364285Y-44007143D01*
X162649999Y-45078571D01*
X163007142Y-43578571D01*
X163578571Y-45078571D02*
X163578571Y-43578571D01*
X164221428Y-45078571D02*
X164221428Y-44292857D01*
X164149999Y-44150000D01*
X164007142Y-44078571D01*
X163792857Y-44078571D01*
X163649999Y-44150000D01*
X163578571Y-44221429D01*
X164792857Y-44078571D02*
X165150000Y-45078571D01*
X165507142Y-44078571D02*
X165150000Y-45078571D01*
X165007142Y-45435714D01*
X164935714Y-45507143D01*
X164792857Y-45578571D01*
X165864285Y-44078571D02*
X166435714Y-44078571D01*
X166078571Y-43578571D02*
X166078571Y-44864286D01*
X166149999Y-45007143D01*
X166292857Y-45078571D01*
X166435714Y-45078571D01*
X167507142Y-45007143D02*
X167364285Y-45078571D01*
X167078571Y-45078571D01*
X166935714Y-45007143D01*
X166864285Y-44864286D01*
X166864285Y-44292857D01*
X166935714Y-44150000D01*
X167078571Y-44078571D01*
X167364285Y-44078571D01*
X167507142Y-44150000D01*
X167578571Y-44292857D01*
X167578571Y-44435714D01*
X166864285Y-44578571D01*
D12*
X115600000Y-52175000D02*
X113600000Y-52175000D01*
X113600000Y-54225000D02*
X115600000Y-54225000D01*
X114900000Y-46150000D02*
X113900000Y-46150000D01*
X113900000Y-47850000D02*
X114900000Y-47850000D01*
X103200000Y-50925000D02*
X101200000Y-50925000D01*
X101200000Y-53875000D02*
X103200000Y-53875000D01*
X156300000Y-107950000D02*
X155300000Y-107950000D01*
X155300000Y-109650000D02*
X156300000Y-109650000D01*
X115300000Y-107550000D02*
X114300000Y-107550000D01*
X114300000Y-109250000D02*
X115300000Y-109250000D01*
X155500000Y-113450000D02*
X156500000Y-113450000D01*
X156500000Y-111750000D02*
X155500000Y-111750000D01*
X114300000Y-113650000D02*
X115300000Y-113650000D01*
X115300000Y-111950000D02*
X114300000Y-111950000D01*
X77999500Y-45499120D02*
X77999500Y-54500880D01*
X74499380Y-45499120D02*
X74499380Y-54500880D01*
X74499380Y-54500880D02*
X89000240Y-54500880D01*
X89000240Y-54500880D02*
X89000240Y-45499120D01*
X89000240Y-45499120D02*
X74499380Y-45499120D01*
X135350420Y-127849580D02*
X136249580Y-127849580D01*
X136249580Y-127849580D02*
X136249580Y-128248360D01*
X135350420Y-128248360D02*
X136249580Y-128248360D01*
X135350420Y-127849580D02*
X135350420Y-128248360D01*
X135350420Y-126551640D02*
X136249580Y-126551640D01*
X136249580Y-126551640D02*
X136249580Y-126950420D01*
X135350420Y-126950420D02*
X136249580Y-126950420D01*
X135350420Y-126551640D02*
X135350420Y-126950420D01*
X135350420Y-127400000D02*
X135500280Y-127400000D01*
X135500280Y-127400000D02*
X135500280Y-127699720D01*
X135350420Y-127699720D02*
X135500280Y-127699720D01*
X135350420Y-127400000D02*
X135350420Y-127699720D01*
X136099720Y-127400000D02*
X136249580Y-127400000D01*
X136249580Y-127400000D02*
X136249580Y-127699720D01*
X136099720Y-127699720D02*
X136249580Y-127699720D01*
X136099720Y-127400000D02*
X136099720Y-127699720D01*
X135650140Y-127400000D02*
X135949860Y-127400000D01*
X135949860Y-127400000D02*
X135949860Y-127699720D01*
X135650140Y-127699720D02*
X135949860Y-127699720D01*
X135650140Y-127400000D02*
X135650140Y-127699720D01*
X135401220Y-127849580D02*
X135401220Y-126950420D01*
X136198780Y-127849580D02*
X136198780Y-126950420D01*
X167150420Y-84649580D02*
X168049580Y-84649580D01*
X168049580Y-84649580D02*
X168049580Y-85048360D01*
X167150420Y-85048360D02*
X168049580Y-85048360D01*
X167150420Y-84649580D02*
X167150420Y-85048360D01*
X167150420Y-83351640D02*
X168049580Y-83351640D01*
X168049580Y-83351640D02*
X168049580Y-83750420D01*
X167150420Y-83750420D02*
X168049580Y-83750420D01*
X167150420Y-83351640D02*
X167150420Y-83750420D01*
X167150420Y-84200000D02*
X167300280Y-84200000D01*
X167300280Y-84200000D02*
X167300280Y-84499720D01*
X167150420Y-84499720D02*
X167300280Y-84499720D01*
X167150420Y-84200000D02*
X167150420Y-84499720D01*
X167899720Y-84200000D02*
X168049580Y-84200000D01*
X168049580Y-84200000D02*
X168049580Y-84499720D01*
X167899720Y-84499720D02*
X168049580Y-84499720D01*
X167899720Y-84200000D02*
X167899720Y-84499720D01*
X167450140Y-84200000D02*
X167749860Y-84200000D01*
X167749860Y-84200000D02*
X167749860Y-84499720D01*
X167450140Y-84499720D02*
X167749860Y-84499720D01*
X167450140Y-84200000D02*
X167450140Y-84499720D01*
X167201220Y-84649580D02*
X167201220Y-83750420D01*
X167998780Y-84649580D02*
X167998780Y-83750420D01*
X136022563Y-46125420D02*
X136022563Y-47024580D01*
X136022563Y-47024580D02*
X135623783Y-47024580D01*
X135623783Y-46125420D02*
X135623783Y-47024580D01*
X136022563Y-46125420D02*
X135623783Y-46125420D01*
X137320503Y-46125420D02*
X137320503Y-47024580D01*
X137320503Y-47024580D02*
X136921723Y-47024580D01*
X136921723Y-46125420D02*
X136921723Y-47024580D01*
X137320503Y-46125420D02*
X136921723Y-46125420D01*
X136472143Y-46125420D02*
X136472143Y-46275280D01*
X136472143Y-46275280D02*
X136172423Y-46275280D01*
X136172423Y-46125420D02*
X136172423Y-46275280D01*
X136472143Y-46125420D02*
X136172423Y-46125420D01*
X136472143Y-46874720D02*
X136472143Y-47024580D01*
X136472143Y-47024580D02*
X136172423Y-47024580D01*
X136172423Y-46874720D02*
X136172423Y-47024580D01*
X136472143Y-46874720D02*
X136172423Y-46874720D01*
X136472143Y-46425140D02*
X136472143Y-46724860D01*
X136472143Y-46724860D02*
X136172423Y-46724860D01*
X136172423Y-46425140D02*
X136172423Y-46724860D01*
X136472143Y-46425140D02*
X136172423Y-46425140D01*
X136022563Y-46176220D02*
X136921723Y-46176220D01*
X136022563Y-46973780D02*
X136921723Y-46973780D01*
X85140000Y-128259600D02*
X85140000Y-125719600D01*
X85140000Y-125719600D02*
X82346000Y-125719600D01*
X82346000Y-128259600D02*
X82346000Y-125719600D01*
X85140000Y-128259600D02*
X82346000Y-128259600D01*
X85140000Y-123255800D02*
X85140000Y-120715800D01*
X85140000Y-120715800D02*
X82346000Y-120715800D01*
X82346000Y-123255800D02*
X82346000Y-120715800D01*
X85140000Y-123255800D02*
X82346000Y-123255800D01*
X76377000Y-119395000D02*
X79425000Y-119395000D01*
X76377000Y-119395000D02*
X76377000Y-129580000D01*
X76377000Y-119395000D02*
X76377000Y-118887000D01*
X76377000Y-118887000D02*
X81203000Y-118887000D01*
X81203000Y-118887000D02*
X80949000Y-119395000D01*
X88061000Y-118887000D02*
X87807000Y-119395000D01*
X87807000Y-119395000D02*
X88823000Y-119395000D01*
X86410000Y-118887000D02*
X86664000Y-119395000D01*
X86664000Y-119395000D02*
X87807000Y-119395000D01*
X86410000Y-118887000D02*
X88061000Y-118887000D01*
X88823000Y-124017800D02*
X86918000Y-124017800D01*
X82346000Y-119953800D02*
X86918000Y-119953800D01*
X88823000Y-124017800D02*
X88823000Y-119953800D01*
X88823000Y-119953800D02*
X88823000Y-119395000D01*
X88823000Y-124957600D02*
X86918000Y-124957600D01*
X88823000Y-124957600D02*
X88823000Y-124017800D01*
X82346000Y-129021600D02*
X86918000Y-129021600D01*
X88823000Y-129580000D02*
X88823000Y-129021600D01*
X88823000Y-129021600D02*
X88823000Y-124957600D01*
X86918000Y-124017800D02*
X86918000Y-119953800D01*
X86918000Y-124017800D02*
X82346000Y-124017800D01*
X86918000Y-119953800D02*
X88823000Y-119953800D01*
X86918000Y-124957600D02*
X86918000Y-129021600D01*
X86918000Y-124957600D02*
X82346000Y-124957600D01*
X86918000Y-129021600D02*
X88823000Y-129021600D01*
X86283000Y-120334800D02*
X83108000Y-120334800D01*
X86283000Y-120334800D02*
X86283000Y-123636800D01*
X86283000Y-123636800D02*
X83108000Y-123636800D01*
X86283000Y-125338600D02*
X83108000Y-125338600D01*
X86283000Y-125338600D02*
X86283000Y-128640600D01*
X86283000Y-128640600D02*
X83108000Y-128640600D01*
X83108000Y-128640600D02*
X83108000Y-128259600D01*
X83108000Y-125338600D02*
X83108000Y-125719600D01*
X83108000Y-123636800D02*
X83108000Y-123255800D01*
X83108000Y-120334800D02*
X83108000Y-120715800D01*
X88823000Y-129580000D02*
X81965000Y-129580000D01*
X81965000Y-129580000D02*
X79425000Y-129580000D01*
X80949000Y-119395000D02*
X81965000Y-119395000D01*
X81965000Y-119395000D02*
X86664000Y-119395000D01*
X79425000Y-129580000D02*
X79425000Y-119395000D01*
X79425000Y-129580000D02*
X76377000Y-129580000D01*
X79425000Y-119395000D02*
X80949000Y-119395000D01*
X79171000Y-124017800D02*
X76631000Y-124017800D01*
X76631000Y-124017800D02*
X76631000Y-119953800D01*
X76631000Y-119953800D02*
X79171000Y-119953800D01*
X79171000Y-119953800D02*
X79171000Y-124017800D01*
X79171000Y-124957600D02*
X76631000Y-124957600D01*
X79171000Y-124957600D02*
X79171000Y-129021600D01*
X79171000Y-129021600D02*
X76631000Y-129021600D01*
X76631000Y-124957600D02*
X76631000Y-129021600D01*
X78155000Y-123611400D02*
X77520000Y-120563400D01*
X78282000Y-123484400D02*
X77647000Y-120436400D01*
X78155000Y-128615200D02*
X77520000Y-125564660D01*
X78282000Y-128488200D02*
X77647000Y-125440200D01*
X82346000Y-129021600D02*
X82346000Y-128640600D01*
X82346000Y-124957600D02*
X82346000Y-125338600D01*
X82346000Y-125338600D02*
X82346000Y-128640600D01*
X81965000Y-129580000D02*
X81965000Y-128640600D01*
X81965000Y-128640600D02*
X81965000Y-125338600D01*
X81965000Y-125338600D02*
X81965000Y-123636800D01*
X81965000Y-119395000D02*
X81965000Y-120334800D01*
X81965000Y-120334800D02*
X81965000Y-123636800D01*
X82346000Y-119953800D02*
X82346000Y-120334800D01*
X82346000Y-124017800D02*
X82346000Y-123636800D01*
X82346000Y-123636800D02*
X82346000Y-120334800D01*
X78514570Y-120517028D02*
G75*
G03X77547940Y-120464340I-509430J-452772D01*
G01*
X78434896Y-123459728D02*
G75*
G03X78482660Y-120471960I-1905496J1524728D01*
G01*
X77543156Y-120460589D02*
G75*
G03X77596200Y-123611400I1348444J-1553151D01*
G01*
X77546519Y-123560097D02*
G75*
G03X78472500Y-123418360I407821J431297D01*
G01*
X78517110Y-125520851D02*
G75*
G03X77547940Y-125465600I-511970J-452749D01*
G01*
X78434896Y-128460988D02*
G75*
G03X78482660Y-125473220I-1905496J1524728D01*
G01*
X77538153Y-125458427D02*
G75*
G03X77596200Y-128615200I1353447J-1554033D01*
G01*
X77548981Y-128564520D02*
G75*
G03X78472500Y-128419620I405359J431920D01*
G01*
X145730000Y-63730000D02*
X138110000Y-63730000D01*
X145730000Y-66270000D02*
X138110000Y-66270000D01*
X148550000Y-66550000D02*
X147000000Y-66550000D01*
X138110000Y-63730000D02*
X138110000Y-66270000D01*
X145730000Y-66270000D02*
X145730000Y-63730000D01*
X147000000Y-63450000D02*
X148550000Y-63450000D01*
X148550000Y-63450000D02*
X148550000Y-66550000D01*
X159130000Y-106070000D02*
X156590000Y-106070000D01*
X161950000Y-106350000D02*
X160400000Y-106350000D01*
X159130000Y-106070000D02*
X159130000Y-103530000D01*
X160400000Y-103250000D02*
X161950000Y-103250000D01*
X161950000Y-103250000D02*
X161950000Y-106350000D01*
X159130000Y-103530000D02*
X156590000Y-103530000D01*
X156590000Y-103530000D02*
X156590000Y-106070000D01*
X159070000Y-99330000D02*
X161610000Y-99330000D01*
X156250000Y-99050000D02*
X157800000Y-99050000D01*
X159070000Y-99330000D02*
X159070000Y-101870000D01*
X157800000Y-102150000D02*
X156250000Y-102150000D01*
X156250000Y-102150000D02*
X156250000Y-99050000D01*
X159070000Y-101870000D02*
X161610000Y-101870000D01*
X161610000Y-101870000D02*
X161610000Y-99330000D01*
X129150000Y-80200000D02*
X99100000Y-80150000D01*
X128950000Y-59500000D02*
X99000000Y-59500000D01*
X98200000Y-70300000D02*
X101200000Y-73850000D01*
X128850000Y-134700000D02*
X121800000Y-135950000D01*
X128500000Y-136800000D02*
X122350000Y-138050000D01*
X128450000Y-138700000D02*
X122850000Y-139900000D01*
X129400000Y-122250000D02*
X129400000Y-140300000D01*
X147850000Y-134700000D02*
X140800000Y-135950000D01*
X147500000Y-136800000D02*
X141350000Y-138050000D01*
X147450000Y-138700000D02*
X141850000Y-139900000D01*
X148400000Y-122250000D02*
X148400000Y-140300000D01*
X102689000Y-120898000D02*
X102689000Y-120898000D01*
X102689000Y-120771000D02*
X102689000Y-120898000D01*
X102689000Y-120898000D02*
X102689000Y-120771000D01*
X96466000Y-127756000D02*
X102689000Y-127756000D01*
X102689000Y-127756000D02*
X102689000Y-124200000D01*
X96466000Y-127756000D02*
X94942000Y-127756000D01*
X94942000Y-127756000D02*
X94942000Y-127756000D01*
X94942000Y-127756000D02*
X94942000Y-127756000D01*
X94942000Y-127756000D02*
X94688000Y-127756000D01*
X94688000Y-127756000D02*
X94688000Y-127756000D01*
X94688000Y-127756000D02*
X94688000Y-127756000D01*
X102689000Y-124200000D02*
X102689000Y-120771000D01*
X102689000Y-120771000D02*
X94688000Y-120771000D01*
X94688000Y-120771000D02*
X94688000Y-127756000D01*
X136054000Y-122708000D02*
X136689000Y-122708000D01*
X136689000Y-122708000D02*
X136689000Y-121692000D01*
X134911000Y-121692000D02*
X134911000Y-122708000D01*
X134911000Y-122708000D02*
X135546000Y-122708000D01*
X136054000Y-122835000D02*
X136054000Y-122708000D01*
X135546000Y-122708000D02*
X135546000Y-122835000D01*
X136689000Y-121692000D02*
X134911000Y-121692000D01*
X135546000Y-122835000D02*
X136054000Y-122835000D01*
X167854000Y-77108000D02*
X168489000Y-77108000D01*
X168489000Y-77108000D02*
X168489000Y-76092000D01*
X166711000Y-76092000D02*
X166711000Y-77108000D01*
X166711000Y-77108000D02*
X167346000Y-77108000D01*
X167854000Y-77235000D02*
X167854000Y-77108000D01*
X167346000Y-77108000D02*
X167346000Y-77235000D01*
X168489000Y-76092000D02*
X166711000Y-76092000D01*
X167346000Y-77235000D02*
X167854000Y-77235000D01*
X108850000Y-49475000D02*
X108350000Y-49475000D01*
X108350000Y-50525000D02*
X108850000Y-50525000D01*
X108850000Y-51675000D02*
X108350000Y-51675000D01*
X108350000Y-52725000D02*
X108850000Y-52725000D01*
X147450000Y-68675000D02*
X146950000Y-68675000D01*
X146950000Y-69725000D02*
X147450000Y-69725000D01*
X144250000Y-82475000D02*
X143750000Y-82475000D01*
X143750000Y-83525000D02*
X144250000Y-83525000D01*
X138675000Y-124300000D02*
X138675000Y-125300000D01*
X137325000Y-125300000D02*
X137325000Y-124300000D01*
X168275000Y-80100000D02*
X168275000Y-81100000D01*
X166925000Y-81100000D02*
X166925000Y-80100000D01*
X140500000Y-47275000D02*
X139500000Y-47275000D01*
X139500000Y-45925000D02*
X140500000Y-45925000D01*
X106700000Y-44300000D02*
G75*
G03X106700000Y-44300000I-100000J0D01*
G01*
X107250000Y-44550000D02*
X106750000Y-44550000D01*
X107250000Y-47450000D02*
X107250000Y-44550000D01*
X106750000Y-47450000D02*
X107250000Y-47450000D01*
X106750000Y-44550000D02*
X106750000Y-47450000D01*
X155422000Y-62990000D02*
X155422000Y-70610000D01*
X158978000Y-70610000D02*
X158978000Y-62990000D01*
X155422000Y-62990000D02*
X158978000Y-62990000D01*
X158978000Y-70610000D02*
X155422000Y-70610000D01*
X158829210Y-70102000D02*
G75*
G03X158829210Y-70102000I-359210J0D01*
G01*
X156565000Y-70610000D02*
X156565000Y-69848000D01*
X156565000Y-69848000D02*
X157835000Y-69848000D01*
X157835000Y-69848000D02*
X157835000Y-70610000D01*
X145400000Y-89200000D02*
X146400000Y-90200000D01*
X146400000Y-90200000D02*
X144400000Y-90200000D01*
X144400000Y-90200000D02*
X145400000Y-89200000D01*
X144870000Y-75670000D02*
X144870000Y-78210000D01*
X145150000Y-72850000D02*
X145150000Y-74400000D01*
X144870000Y-75670000D02*
X142330000Y-75670000D01*
X142050000Y-74400000D02*
X142050000Y-72850000D01*
X142050000Y-72850000D02*
X145150000Y-72850000D01*
X142330000Y-75670000D02*
X142330000Y-78210000D01*
X142330000Y-78210000D02*
X144870000Y-78210000D01*
X137418333Y-78245000D02*
X137418333Y-80785000D01*
X137698333Y-75425000D02*
X137698333Y-76975000D01*
X137418333Y-78245000D02*
X134878333Y-78245000D01*
X134598333Y-76975000D02*
X134598333Y-75425000D01*
X134598333Y-75425000D02*
X137698333Y-75425000D01*
X134878333Y-78245000D02*
X134878333Y-80785000D01*
X134878333Y-80785000D02*
X137418333Y-80785000D01*
X85140000Y-113259600D02*
X85140000Y-110719600D01*
X85140000Y-110719600D02*
X82346000Y-110719600D01*
X82346000Y-113259600D02*
X82346000Y-110719600D01*
X85140000Y-113259600D02*
X82346000Y-113259600D01*
X85140000Y-108255800D02*
X85140000Y-105715800D01*
X85140000Y-105715800D02*
X82346000Y-105715800D01*
X82346000Y-108255800D02*
X82346000Y-105715800D01*
X85140000Y-108255800D02*
X82346000Y-108255800D01*
X76377000Y-104395000D02*
X79425000Y-104395000D01*
X76377000Y-104395000D02*
X76377000Y-114580000D01*
X76377000Y-104395000D02*
X76377000Y-103887000D01*
X76377000Y-103887000D02*
X81203000Y-103887000D01*
X81203000Y-103887000D02*
X80949000Y-104395000D01*
X88061000Y-103887000D02*
X87807000Y-104395000D01*
X87807000Y-104395000D02*
X88823000Y-104395000D01*
X86410000Y-103887000D02*
X86664000Y-104395000D01*
X86664000Y-104395000D02*
X87807000Y-104395000D01*
X86410000Y-103887000D02*
X88061000Y-103887000D01*
X88823000Y-109017800D02*
X86918000Y-109017800D01*
X82346000Y-104953800D02*
X86918000Y-104953800D01*
X88823000Y-109017800D02*
X88823000Y-104953800D01*
X88823000Y-104953800D02*
X88823000Y-104395000D01*
X88823000Y-109957600D02*
X86918000Y-109957600D01*
X88823000Y-109957600D02*
X88823000Y-109017800D01*
X82346000Y-114021600D02*
X86918000Y-114021600D01*
X88823000Y-114580000D02*
X88823000Y-114021600D01*
X88823000Y-114021600D02*
X88823000Y-109957600D01*
X86918000Y-109017800D02*
X86918000Y-104953800D01*
X86918000Y-109017800D02*
X82346000Y-109017800D01*
X86918000Y-104953800D02*
X88823000Y-104953800D01*
X86918000Y-109957600D02*
X86918000Y-114021600D01*
X86918000Y-109957600D02*
X82346000Y-109957600D01*
X86918000Y-114021600D02*
X88823000Y-114021600D01*
X86283000Y-105334800D02*
X83108000Y-105334800D01*
X86283000Y-105334800D02*
X86283000Y-108636800D01*
X86283000Y-108636800D02*
X83108000Y-108636800D01*
X86283000Y-110338600D02*
X83108000Y-110338600D01*
X86283000Y-110338600D02*
X86283000Y-113640600D01*
X86283000Y-113640600D02*
X83108000Y-113640600D01*
X83108000Y-113640600D02*
X83108000Y-113259600D01*
X83108000Y-110338600D02*
X83108000Y-110719600D01*
X83108000Y-108636800D02*
X83108000Y-108255800D01*
X83108000Y-105334800D02*
X83108000Y-105715800D01*
X88823000Y-114580000D02*
X81965000Y-114580000D01*
X81965000Y-114580000D02*
X79425000Y-114580000D01*
X80949000Y-104395000D02*
X81965000Y-104395000D01*
X81965000Y-104395000D02*
X86664000Y-104395000D01*
X79425000Y-114580000D02*
X79425000Y-104395000D01*
X79425000Y-114580000D02*
X76377000Y-114580000D01*
X79425000Y-104395000D02*
X80949000Y-104395000D01*
X79171000Y-109017800D02*
X76631000Y-109017800D01*
X76631000Y-109017800D02*
X76631000Y-104953800D01*
X76631000Y-104953800D02*
X79171000Y-104953800D01*
X79171000Y-104953800D02*
X79171000Y-109017800D01*
X79171000Y-109957600D02*
X76631000Y-109957600D01*
X79171000Y-109957600D02*
X79171000Y-114021600D01*
X79171000Y-114021600D02*
X76631000Y-114021600D01*
X76631000Y-109957600D02*
X76631000Y-114021600D01*
X78155000Y-108611400D02*
X77520000Y-105563400D01*
X78282000Y-108484400D02*
X77647000Y-105436400D01*
X78155000Y-113615200D02*
X77520000Y-110564660D01*
X78282000Y-113488200D02*
X77647000Y-110440200D01*
X82346000Y-114021600D02*
X82346000Y-113640600D01*
X82346000Y-109957600D02*
X82346000Y-110338600D01*
X82346000Y-110338600D02*
X82346000Y-113640600D01*
X81965000Y-114580000D02*
X81965000Y-113640600D01*
X81965000Y-113640600D02*
X81965000Y-110338600D01*
X81965000Y-110338600D02*
X81965000Y-108636800D01*
X81965000Y-104395000D02*
X81965000Y-105334800D01*
X81965000Y-105334800D02*
X81965000Y-108636800D01*
X82346000Y-104953800D02*
X82346000Y-105334800D01*
X82346000Y-109017800D02*
X82346000Y-108636800D01*
X82346000Y-108636800D02*
X82346000Y-105334800D01*
X78514570Y-105517028D02*
G75*
G03X77547940Y-105464340I-509430J-452772D01*
G01*
X78434896Y-108459728D02*
G75*
G03X78482660Y-105471960I-1905496J1524728D01*
G01*
X77543156Y-105460589D02*
G75*
G03X77596200Y-108611400I1348444J-1553151D01*
G01*
X77546519Y-108560097D02*
G75*
G03X78472500Y-108418360I407821J431297D01*
G01*
X78517110Y-110520851D02*
G75*
G03X77547940Y-110465600I-511970J-452749D01*
G01*
X78434896Y-113460988D02*
G75*
G03X78482660Y-110473220I-1905496J1524728D01*
G01*
X77538153Y-110458427D02*
G75*
G03X77596200Y-113615200I1353447J-1554033D01*
G01*
X77548981Y-113564520D02*
G75*
G03X78472500Y-113419620I405359J431920D01*
G01*
X85140000Y-97659600D02*
X85140000Y-95119600D01*
X85140000Y-95119600D02*
X82346000Y-95119600D01*
X82346000Y-97659600D02*
X82346000Y-95119600D01*
X85140000Y-97659600D02*
X82346000Y-97659600D01*
X85140000Y-92655800D02*
X85140000Y-90115800D01*
X85140000Y-90115800D02*
X82346000Y-90115800D01*
X82346000Y-92655800D02*
X82346000Y-90115800D01*
X85140000Y-92655800D02*
X82346000Y-92655800D01*
X76377000Y-88795000D02*
X79425000Y-88795000D01*
X76377000Y-88795000D02*
X76377000Y-98980000D01*
X76377000Y-88795000D02*
X76377000Y-88287000D01*
X76377000Y-88287000D02*
X81203000Y-88287000D01*
X81203000Y-88287000D02*
X80949000Y-88795000D01*
X88061000Y-88287000D02*
X87807000Y-88795000D01*
X87807000Y-88795000D02*
X88823000Y-88795000D01*
X86410000Y-88287000D02*
X86664000Y-88795000D01*
X86664000Y-88795000D02*
X87807000Y-88795000D01*
X86410000Y-88287000D02*
X88061000Y-88287000D01*
X88823000Y-93417800D02*
X86918000Y-93417800D01*
X82346000Y-89353800D02*
X86918000Y-89353800D01*
X88823000Y-93417800D02*
X88823000Y-89353800D01*
X88823000Y-89353800D02*
X88823000Y-88795000D01*
X88823000Y-94357600D02*
X86918000Y-94357600D01*
X88823000Y-94357600D02*
X88823000Y-93417800D01*
X82346000Y-98421600D02*
X86918000Y-98421600D01*
X88823000Y-98980000D02*
X88823000Y-98421600D01*
X88823000Y-98421600D02*
X88823000Y-94357600D01*
X86918000Y-93417800D02*
X86918000Y-89353800D01*
X86918000Y-93417800D02*
X82346000Y-93417800D01*
X86918000Y-89353800D02*
X88823000Y-89353800D01*
X86918000Y-94357600D02*
X86918000Y-98421600D01*
X86918000Y-94357600D02*
X82346000Y-94357600D01*
X86918000Y-98421600D02*
X88823000Y-98421600D01*
X86283000Y-89734800D02*
X83108000Y-89734800D01*
X86283000Y-89734800D02*
X86283000Y-93036800D01*
X86283000Y-93036800D02*
X83108000Y-93036800D01*
X86283000Y-94738600D02*
X83108000Y-94738600D01*
X86283000Y-94738600D02*
X86283000Y-98040600D01*
X86283000Y-98040600D02*
X83108000Y-98040600D01*
X83108000Y-98040600D02*
X83108000Y-97659600D01*
X83108000Y-94738600D02*
X83108000Y-95119600D01*
X83108000Y-93036800D02*
X83108000Y-92655800D01*
X83108000Y-89734800D02*
X83108000Y-90115800D01*
X88823000Y-98980000D02*
X81965000Y-98980000D01*
X81965000Y-98980000D02*
X79425000Y-98980000D01*
X80949000Y-88795000D02*
X81965000Y-88795000D01*
X81965000Y-88795000D02*
X86664000Y-88795000D01*
X79425000Y-98980000D02*
X79425000Y-88795000D01*
X79425000Y-98980000D02*
X76377000Y-98980000D01*
X79425000Y-88795000D02*
X80949000Y-88795000D01*
X79171000Y-93417800D02*
X76631000Y-93417800D01*
X76631000Y-93417800D02*
X76631000Y-89353800D01*
X76631000Y-89353800D02*
X79171000Y-89353800D01*
X79171000Y-89353800D02*
X79171000Y-93417800D01*
X79171000Y-94357600D02*
X76631000Y-94357600D01*
X79171000Y-94357600D02*
X79171000Y-98421600D01*
X79171000Y-98421600D02*
X76631000Y-98421600D01*
X76631000Y-94357600D02*
X76631000Y-98421600D01*
X78155000Y-93011400D02*
X77520000Y-89963400D01*
X78282000Y-92884400D02*
X77647000Y-89836400D01*
X78155000Y-98015200D02*
X77520000Y-94964660D01*
X78282000Y-97888200D02*
X77647000Y-94840200D01*
X82346000Y-98421600D02*
X82346000Y-98040600D01*
X82346000Y-94357600D02*
X82346000Y-94738600D01*
X82346000Y-94738600D02*
X82346000Y-98040600D01*
X81965000Y-98980000D02*
X81965000Y-98040600D01*
X81965000Y-98040600D02*
X81965000Y-94738600D01*
X81965000Y-94738600D02*
X81965000Y-93036800D01*
X81965000Y-88795000D02*
X81965000Y-89734800D01*
X81965000Y-89734800D02*
X81965000Y-93036800D01*
X82346000Y-89353800D02*
X82346000Y-89734800D01*
X82346000Y-93417800D02*
X82346000Y-93036800D01*
X82346000Y-93036800D02*
X82346000Y-89734800D01*
X78514570Y-89917028D02*
G75*
G03X77547940Y-89864340I-509430J-452772D01*
G01*
X78434896Y-92859728D02*
G75*
G03X78482660Y-89871960I-1905496J1524728D01*
G01*
X77543156Y-89860589D02*
G75*
G03X77596200Y-93011400I1348444J-1553151D01*
G01*
X77546519Y-92960097D02*
G75*
G03X78472500Y-92818360I407821J431297D01*
G01*
X78517110Y-94920851D02*
G75*
G03X77547940Y-94865600I-511970J-452749D01*
G01*
X78434896Y-97860988D02*
G75*
G03X78482660Y-94873220I-1905496J1524728D01*
G01*
X77538153Y-94858427D02*
G75*
G03X77596200Y-98015200I1353447J-1554033D01*
G01*
X77548981Y-97964520D02*
G75*
G03X78472500Y-97819620I405359J431920D01*
G01*
X154070000Y-76730000D02*
X156610000Y-76730000D01*
X151250000Y-76450000D02*
X152800000Y-76450000D01*
X154070000Y-76730000D02*
X154070000Y-79270000D01*
X152800000Y-79550000D02*
X151250000Y-79550000D01*
X151250000Y-79550000D02*
X151250000Y-76450000D01*
X154070000Y-79270000D02*
X156610000Y-79270000D01*
X156610000Y-79270000D02*
X156610000Y-76730000D01*
X102489000Y-106098000D02*
X102489000Y-106098000D01*
X102489000Y-105971000D02*
X102489000Y-106098000D01*
X102489000Y-106098000D02*
X102489000Y-105971000D01*
X96266000Y-112956000D02*
X102489000Y-112956000D01*
X102489000Y-112956000D02*
X102489000Y-109400000D01*
X96266000Y-112956000D02*
X94742000Y-112956000D01*
X94742000Y-112956000D02*
X94742000Y-112956000D01*
X94742000Y-112956000D02*
X94742000Y-112956000D01*
X94742000Y-112956000D02*
X94488000Y-112956000D01*
X94488000Y-112956000D02*
X94488000Y-112956000D01*
X94488000Y-112956000D02*
X94488000Y-112956000D01*
X102489000Y-109400000D02*
X102489000Y-105971000D01*
X102489000Y-105971000D02*
X94488000Y-105971000D01*
X94488000Y-105971000D02*
X94488000Y-112956000D01*
X102089000Y-90498000D02*
X102089000Y-90498000D01*
X102089000Y-90371000D02*
X102089000Y-90498000D01*
X102089000Y-90498000D02*
X102089000Y-90371000D01*
X95866000Y-97356000D02*
X102089000Y-97356000D01*
X102089000Y-97356000D02*
X102089000Y-93800000D01*
X95866000Y-97356000D02*
X94342000Y-97356000D01*
X94342000Y-97356000D02*
X94342000Y-97356000D01*
X94342000Y-97356000D02*
X94342000Y-97356000D01*
X94342000Y-97356000D02*
X94088000Y-97356000D01*
X94088000Y-97356000D02*
X94088000Y-97356000D01*
X94088000Y-97356000D02*
X94088000Y-97356000D01*
X102089000Y-93800000D02*
X102089000Y-90371000D01*
X102089000Y-90371000D02*
X94088000Y-90371000D01*
X94088000Y-90371000D02*
X94088000Y-97356000D01*
D10*
X115399999Y-122399500D02*
X115399998Y-122399499D01*
X115399998Y-122399500D02*
X115399998Y-122399499D01*
X115399999Y-122399499D01*
X115399999Y-122399499D01*
X115399999Y-122399499D01*
X115399999Y-122399499D01*
X115399999Y-122399499D01*
X115399999Y-122399499D01*
X115399999Y-122399499D01*
X115399999Y-122399499D01*
X115399998Y-122399499D01*
X115399999Y-122399499D02*
X115400000Y-122399499D01*
X115400000Y-122399500D02*
X115399999Y-122399500D01*
X115399999Y-122399499D01*
X115400000Y-122399499D01*
X115400001Y-122399499D02*
X115400000Y-122399499D01*
X115400000Y-122399500D02*
X115400000Y-122399499D01*
X115400001Y-122399499D01*
X115400001Y-122399499D02*
X115400001Y-122399499D01*
X115400001Y-122399499D02*
X115400001Y-122399499D01*
X115400002Y-122399499D01*
X115400001Y-122399499D02*
X115400001Y-122399499D01*
X115400002Y-122399499D01*
X115400002Y-122399499D02*
X115400002Y-122399499D01*
X115400002Y-122399499D02*
X115400002Y-122399499D01*
X115400003Y-122399499D01*
X115400002Y-122399499D02*
X115400002Y-122399499D01*
X115400003Y-122399499D01*
D12*
D10*
X154399999Y-122399500D02*
X154399998Y-122399499D01*
X154399998Y-122399500D02*
X154399998Y-122399499D01*
X154399999Y-122399499D01*
X154399999Y-122399499D01*
X154399999Y-122399499D01*
X154399999Y-122399499D01*
X154399999Y-122399499D01*
X154399999Y-122399499D01*
X154399999Y-122399499D01*
X154399999Y-122399499D01*
X154399998Y-122399499D01*
X154399999Y-122399499D02*
X154400000Y-122399499D01*
X154400000Y-122399500D02*
X154399999Y-122399500D01*
X154399999Y-122399499D01*
X154400000Y-122399499D01*
X154400001Y-122399499D02*
X154400000Y-122399499D01*
X154400000Y-122399500D02*
X154400000Y-122399499D01*
X154400001Y-122399499D01*
X154400001Y-122399499D02*
X154400001Y-122399499D01*
X154400001Y-122399499D02*
X154400001Y-122399499D01*
X154400002Y-122399499D01*
X154400001Y-122399499D02*
X154400001Y-122399499D01*
X154400002Y-122399499D01*
X154400002Y-122399499D02*
X154400002Y-122399499D01*
X154400002Y-122399499D02*
X154400002Y-122399499D01*
X154400003Y-122399499D01*
X154400002Y-122399499D02*
X154400002Y-122399499D01*
X154400003Y-122399499D01*
D12*
X114433334Y-51257143D02*
X114385715Y-51304762D01*
X114242858Y-51352381D01*
X114147620Y-51352381D01*
X114004762Y-51304762D01*
X113909524Y-51209524D01*
X113861905Y-51114286D01*
X113814286Y-50923810D01*
X113814286Y-50780952D01*
X113861905Y-50590476D01*
X113909524Y-50495238D01*
X114004762Y-50400000D01*
X114147620Y-50352381D01*
X114242858Y-50352381D01*
X114385715Y-50400000D01*
X114433334Y-50447619D01*
X115385715Y-51352381D02*
X114814286Y-51352381D01*
X115100000Y-51352381D02*
X115100000Y-50352381D01*
X115004762Y-50495238D01*
X114909524Y-50590476D01*
X114814286Y-50638095D01*
X114233334Y-45257143D02*
X114185715Y-45304762D01*
X114042858Y-45352381D01*
X113947620Y-45352381D01*
X113804762Y-45304762D01*
X113709524Y-45209524D01*
X113661905Y-45114286D01*
X113614286Y-44923810D01*
X113614286Y-44780952D01*
X113661905Y-44590476D01*
X113709524Y-44495238D01*
X113804762Y-44400000D01*
X113947620Y-44352381D01*
X114042858Y-44352381D01*
X114185715Y-44400000D01*
X114233334Y-44447619D01*
X114614286Y-44447619D02*
X114661905Y-44400000D01*
X114757143Y-44352381D01*
X114995239Y-44352381D01*
X115090477Y-44400000D01*
X115138096Y-44447619D01*
X115185715Y-44542857D01*
X115185715Y-44638095D01*
X115138096Y-44780952D01*
X114566667Y-45352381D01*
X115185715Y-45352381D01*
X102033334Y-50057143D02*
X101985715Y-50104762D01*
X101842858Y-50152381D01*
X101747620Y-50152381D01*
X101604762Y-50104762D01*
X101509524Y-50009524D01*
X101461905Y-49914286D01*
X101414286Y-49723810D01*
X101414286Y-49580952D01*
X101461905Y-49390476D01*
X101509524Y-49295238D01*
X101604762Y-49200000D01*
X101747620Y-49152381D01*
X101842858Y-49152381D01*
X101985715Y-49200000D01*
X102033334Y-49247619D01*
X102366667Y-49152381D02*
X102985715Y-49152381D01*
X102652381Y-49533333D01*
X102795239Y-49533333D01*
X102890477Y-49580952D01*
X102938096Y-49628571D01*
X102985715Y-49723810D01*
X102985715Y-49961905D01*
X102938096Y-50057143D01*
X102890477Y-50104762D01*
X102795239Y-50152381D01*
X102509524Y-50152381D01*
X102414286Y-50104762D01*
X102366667Y-50057143D01*
X155633334Y-107557143D02*
X155585715Y-107604762D01*
X155442858Y-107652381D01*
X155347620Y-107652381D01*
X155204762Y-107604762D01*
X155109524Y-107509524D01*
X155061905Y-107414286D01*
X155014286Y-107223810D01*
X155014286Y-107080952D01*
X155061905Y-106890476D01*
X155109524Y-106795238D01*
X155204762Y-106700000D01*
X155347620Y-106652381D01*
X155442858Y-106652381D01*
X155585715Y-106700000D01*
X155633334Y-106747619D01*
X156490477Y-106985714D02*
X156490477Y-107652381D01*
X156252381Y-106604762D02*
X156014286Y-107319048D01*
X156633334Y-107319048D01*
X114633334Y-106657143D02*
X114585715Y-106704762D01*
X114442858Y-106752381D01*
X114347620Y-106752381D01*
X114204762Y-106704762D01*
X114109524Y-106609524D01*
X114061905Y-106514286D01*
X114014286Y-106323810D01*
X114014286Y-106180952D01*
X114061905Y-105990476D01*
X114109524Y-105895238D01*
X114204762Y-105800000D01*
X114347620Y-105752381D01*
X114442858Y-105752381D01*
X114585715Y-105800000D01*
X114633334Y-105847619D01*
X115538096Y-105752381D02*
X115061905Y-105752381D01*
X115014286Y-106228571D01*
X115061905Y-106180952D01*
X115157143Y-106133333D01*
X115395239Y-106133333D01*
X115490477Y-106180952D01*
X115538096Y-106228571D01*
X115585715Y-106323810D01*
X115585715Y-106561905D01*
X115538096Y-106657143D01*
X115490477Y-106704762D01*
X115395239Y-106752381D01*
X115157143Y-106752381D01*
X115061905Y-106704762D01*
X115014286Y-106657143D01*
X155833334Y-115057143D02*
X155785715Y-115104762D01*
X155642858Y-115152381D01*
X155547620Y-115152381D01*
X155404762Y-115104762D01*
X155309524Y-115009524D01*
X155261905Y-114914286D01*
X155214286Y-114723810D01*
X155214286Y-114580952D01*
X155261905Y-114390476D01*
X155309524Y-114295238D01*
X155404762Y-114200000D01*
X155547620Y-114152381D01*
X155642858Y-114152381D01*
X155785715Y-114200000D01*
X155833334Y-114247619D01*
X156690477Y-114152381D02*
X156500000Y-114152381D01*
X156404762Y-114200000D01*
X156357143Y-114247619D01*
X156261905Y-114390476D01*
X156214286Y-114580952D01*
X156214286Y-114961905D01*
X156261905Y-115057143D01*
X156309524Y-115104762D01*
X156404762Y-115152381D01*
X156595239Y-115152381D01*
X156690477Y-115104762D01*
X156738096Y-115057143D01*
X156785715Y-114961905D01*
X156785715Y-114723810D01*
X156738096Y-114628571D01*
X156690477Y-114580952D01*
X156595239Y-114533333D01*
X156404762Y-114533333D01*
X156309524Y-114580952D01*
X156261905Y-114628571D01*
X156214286Y-114723810D01*
X114633334Y-115257143D02*
X114585715Y-115304762D01*
X114442858Y-115352381D01*
X114347620Y-115352381D01*
X114204762Y-115304762D01*
X114109524Y-115209524D01*
X114061905Y-115114286D01*
X114014286Y-114923810D01*
X114014286Y-114780952D01*
X114061905Y-114590476D01*
X114109524Y-114495238D01*
X114204762Y-114400000D01*
X114347620Y-114352381D01*
X114442858Y-114352381D01*
X114585715Y-114400000D01*
X114633334Y-114447619D01*
X114966667Y-114352381D02*
X115633334Y-114352381D01*
X115204762Y-115352381D01*
X92456183Y-51214285D02*
X92503802Y-51261904D01*
X92551421Y-51404761D01*
X92551421Y-51499999D01*
X92503802Y-51642857D01*
X92408564Y-51738095D01*
X92313326Y-51785714D01*
X92122850Y-51833333D01*
X91979992Y-51833333D01*
X91789516Y-51785714D01*
X91694278Y-51738095D01*
X91599040Y-51642857D01*
X91551421Y-51499999D01*
X91551421Y-51404761D01*
X91599040Y-51261904D01*
X91646659Y-51214285D01*
X91551421Y-50595238D02*
X91551421Y-50404761D01*
X91599040Y-50309523D01*
X91694278Y-50214285D01*
X91884754Y-50166666D01*
X92218088Y-50166666D01*
X92408564Y-50214285D01*
X92503802Y-50309523D01*
X92551421Y-50404761D01*
X92551421Y-50595238D01*
X92503802Y-50690476D01*
X92408564Y-50785714D01*
X92218088Y-50833333D01*
X91884754Y-50833333D01*
X91694278Y-50785714D01*
X91599040Y-50690476D01*
X91551421Y-50595238D01*
X92551421Y-49738095D02*
X91551421Y-49738095D01*
X92551421Y-49166666D01*
X91551421Y-49166666D01*
X92551421Y-48166666D02*
X92551421Y-48738095D01*
X92551421Y-48452381D02*
X91551421Y-48452381D01*
X91694278Y-48547619D01*
X91789516Y-48642857D01*
X91837135Y-48738095D01*
X135102381Y-128138095D02*
X134102381Y-128138095D01*
X134102381Y-127900000D01*
X134150000Y-127757142D01*
X134245238Y-127661904D01*
X134340476Y-127614285D01*
X134530952Y-127566666D01*
X134673810Y-127566666D01*
X134864286Y-127614285D01*
X134959524Y-127661904D01*
X135054762Y-127757142D01*
X135102381Y-127900000D01*
X135102381Y-128138095D01*
X135102381Y-126614285D02*
X135102381Y-127185714D01*
X135102381Y-126900000D02*
X134102381Y-126900000D01*
X134245238Y-126995238D01*
X134340476Y-127090476D01*
X134388095Y-127185714D01*
X166902381Y-84938095D02*
X165902381Y-84938095D01*
X165902381Y-84700000D01*
X165950000Y-84557142D01*
X166045238Y-84461904D01*
X166140476Y-84414285D01*
X166330952Y-84366666D01*
X166473810Y-84366666D01*
X166664286Y-84414285D01*
X166759524Y-84461904D01*
X166854762Y-84557142D01*
X166902381Y-84700000D01*
X166902381Y-84938095D01*
X165997619Y-83985714D02*
X165950000Y-83938095D01*
X165902381Y-83842857D01*
X165902381Y-83604761D01*
X165950000Y-83509523D01*
X165997619Y-83461904D01*
X166092857Y-83414285D01*
X166188095Y-83414285D01*
X166330952Y-83461904D01*
X166902381Y-84033333D01*
X166902381Y-83414285D01*
X135734048Y-45877381D02*
X135734048Y-44877381D01*
X135972143Y-44877381D01*
X136115001Y-44925000D01*
X136210239Y-45020238D01*
X136257858Y-45115476D01*
X136305477Y-45305952D01*
X136305477Y-45448810D01*
X136257858Y-45639286D01*
X136210239Y-45734524D01*
X136115001Y-45829762D01*
X135972143Y-45877381D01*
X135734048Y-45877381D01*
X136638810Y-44877381D02*
X137257858Y-44877381D01*
X136924524Y-45258333D01*
X137067382Y-45258333D01*
X137162620Y-45305952D01*
X137210239Y-45353571D01*
X137257858Y-45448810D01*
X137257858Y-45686905D01*
X137210239Y-45782143D01*
X137162620Y-45829762D01*
X137067382Y-45877381D01*
X136781667Y-45877381D01*
X136686429Y-45829762D01*
X136638810Y-45782143D01*
X125233334Y-54652381D02*
X124757143Y-54652381D01*
X124757143Y-53652381D01*
X126090477Y-54652381D02*
X125519048Y-54652381D01*
X125804762Y-54652381D02*
X125804762Y-53652381D01*
X125709524Y-53795238D01*
X125614286Y-53890476D01*
X125519048Y-53938095D01*
X76067381Y-129658095D02*
X75067381Y-129658095D01*
X75067381Y-129277142D01*
X75115000Y-129181904D01*
X75162619Y-129134285D01*
X75257857Y-129086666D01*
X75400714Y-129086666D01*
X75495952Y-129134285D01*
X75543571Y-129181904D01*
X75591190Y-129277142D01*
X75591190Y-129658095D01*
X76067381Y-128134285D02*
X76067381Y-128705714D01*
X76067381Y-128420000D02*
X75067381Y-128420000D01*
X75210238Y-128515238D01*
X75305476Y-128610476D01*
X75353095Y-128705714D01*
X137252381Y-65738095D02*
X136252381Y-65738095D01*
X136252381Y-65357142D01*
X136300000Y-65261904D01*
X136347619Y-65214285D01*
X136442857Y-65166666D01*
X136585714Y-65166666D01*
X136680952Y-65214285D01*
X136728571Y-65261904D01*
X136776190Y-65357142D01*
X136776190Y-65738095D01*
X136347619Y-64785714D02*
X136300000Y-64738095D01*
X136252381Y-64642857D01*
X136252381Y-64404761D01*
X136300000Y-64309523D01*
X136347619Y-64261904D01*
X136442857Y-64214285D01*
X136538095Y-64214285D01*
X136680952Y-64261904D01*
X137252381Y-64833333D01*
X137252381Y-64214285D01*
X163852381Y-105938095D02*
X162852381Y-105938095D01*
X162852381Y-105557142D01*
X162900000Y-105461904D01*
X162947619Y-105414285D01*
X163042857Y-105366666D01*
X163185714Y-105366666D01*
X163280952Y-105414285D01*
X163328571Y-105461904D01*
X163376190Y-105557142D01*
X163376190Y-105938095D01*
X162852381Y-105033333D02*
X162852381Y-104414285D01*
X163233333Y-104747619D01*
X163233333Y-104604761D01*
X163280952Y-104509523D01*
X163328571Y-104461904D01*
X163423810Y-104414285D01*
X163661905Y-104414285D01*
X163757143Y-104461904D01*
X163804762Y-104509523D01*
X163852381Y-104604761D01*
X163852381Y-104890476D01*
X163804762Y-104985714D01*
X163757143Y-105033333D01*
X155852381Y-101338095D02*
X154852381Y-101338095D01*
X154852381Y-100957142D01*
X154900000Y-100861904D01*
X154947619Y-100814285D01*
X155042857Y-100766666D01*
X155185714Y-100766666D01*
X155280952Y-100814285D01*
X155328571Y-100861904D01*
X155376190Y-100957142D01*
X155376190Y-101338095D01*
X155185714Y-99909523D02*
X155852381Y-99909523D01*
X154804762Y-100147619D02*
X155519048Y-100385714D01*
X155519048Y-99766666D01*
X115261905Y-78802381D02*
X115261905Y-77802381D01*
X115642858Y-77802381D01*
X115738096Y-77850000D01*
X115785715Y-77897619D01*
X115833334Y-77992857D01*
X115833334Y-78135714D01*
X115785715Y-78230952D01*
X115738096Y-78278571D01*
X115642858Y-78326190D01*
X115261905Y-78326190D01*
X116738096Y-77802381D02*
X116261905Y-77802381D01*
X116214286Y-78278571D01*
X116261905Y-78230952D01*
X116357143Y-78183333D01*
X116595239Y-78183333D01*
X116690477Y-78230952D01*
X116738096Y-78278571D01*
X116785715Y-78373810D01*
X116785715Y-78611905D01*
X116738096Y-78707143D01*
X116690477Y-78754762D01*
X116595239Y-78802381D01*
X116357143Y-78802381D01*
X116261905Y-78754762D01*
X116214286Y-78707143D01*
X125852381Y-129738095D02*
X124852381Y-129738095D01*
X124852381Y-129357142D01*
X124900000Y-129261904D01*
X124947619Y-129214285D01*
X125042857Y-129166666D01*
X125185714Y-129166666D01*
X125280952Y-129214285D01*
X125328571Y-129261904D01*
X125376190Y-129357142D01*
X125376190Y-129738095D01*
X125280952Y-128595238D02*
X125233333Y-128690476D01*
X125185714Y-128738095D01*
X125090476Y-128785714D01*
X125042857Y-128785714D01*
X124947619Y-128738095D01*
X124900000Y-128690476D01*
X124852381Y-128595238D01*
X124852381Y-128404761D01*
X124900000Y-128309523D01*
X124947619Y-128261904D01*
X125042857Y-128214285D01*
X125090476Y-128214285D01*
X125185714Y-128261904D01*
X125233333Y-128309523D01*
X125280952Y-128404761D01*
X125280952Y-128595238D01*
X125328571Y-128690476D01*
X125376190Y-128738095D01*
X125471429Y-128785714D01*
X125661905Y-128785714D01*
X125757143Y-128738095D01*
X125804762Y-128690476D01*
X125852381Y-128595238D01*
X125852381Y-128404761D01*
X125804762Y-128309523D01*
X125757143Y-128261904D01*
X125661905Y-128214285D01*
X125471429Y-128214285D01*
X125376190Y-128261904D01*
X125328571Y-128309523D01*
X125280952Y-128404761D01*
X144852381Y-130138095D02*
X143852381Y-130138095D01*
X143852381Y-129757142D01*
X143900000Y-129661904D01*
X143947619Y-129614285D01*
X144042857Y-129566666D01*
X144185714Y-129566666D01*
X144280952Y-129614285D01*
X144328571Y-129661904D01*
X144376190Y-129757142D01*
X144376190Y-130138095D01*
X144852381Y-129090476D02*
X144852381Y-128900000D01*
X144804762Y-128804761D01*
X144757143Y-128757142D01*
X144614286Y-128661904D01*
X144423810Y-128614285D01*
X144042857Y-128614285D01*
X143947619Y-128661904D01*
X143900000Y-128709523D01*
X143852381Y-128804761D01*
X143852381Y-128995238D01*
X143900000Y-129090476D01*
X143947619Y-129138095D01*
X144042857Y-129185714D01*
X144280952Y-129185714D01*
X144376190Y-129138095D01*
X144423810Y-129090476D01*
X144471429Y-128995238D01*
X144471429Y-128804761D01*
X144423810Y-128709523D01*
X144376190Y-128661904D01*
X144280952Y-128614285D01*
X102248559Y-124295238D02*
X102200940Y-124390476D01*
X102105702Y-124485714D01*
X101962845Y-124628571D01*
X101915226Y-124723810D01*
X101915226Y-124819048D01*
X102153321Y-124771429D02*
X102105702Y-124866667D01*
X102010464Y-124961905D01*
X101819988Y-125009524D01*
X101486654Y-125009524D01*
X101296178Y-124961905D01*
X101200940Y-124866667D01*
X101153321Y-124771429D01*
X101153321Y-124580952D01*
X101200940Y-124485714D01*
X101296178Y-124390476D01*
X101486654Y-124342857D01*
X101819988Y-124342857D01*
X102010464Y-124390476D01*
X102105702Y-124485714D01*
X102153321Y-124580952D01*
X102153321Y-124771429D01*
X102153321Y-123390476D02*
X102153321Y-123961905D01*
X102153321Y-123676191D02*
X101153321Y-123676191D01*
X101296178Y-123771429D01*
X101391416Y-123866667D01*
X101439035Y-123961905D01*
X133104762Y-121747619D02*
X133009524Y-121700000D01*
X132914286Y-121604762D01*
X132771429Y-121461905D01*
X132676190Y-121414286D01*
X132580952Y-121414286D01*
X132628571Y-121652381D02*
X132533333Y-121604762D01*
X132438095Y-121509524D01*
X132390476Y-121319048D01*
X132390476Y-120985714D01*
X132438095Y-120795238D01*
X132533333Y-120700000D01*
X132628571Y-120652381D01*
X132819048Y-120652381D01*
X132914286Y-120700000D01*
X133009524Y-120795238D01*
X133057143Y-120985714D01*
X133057143Y-121319048D01*
X133009524Y-121509524D01*
X132914286Y-121604762D01*
X132819048Y-121652381D01*
X132628571Y-121652381D01*
X133438095Y-120747619D02*
X133485714Y-120700000D01*
X133580952Y-120652381D01*
X133819048Y-120652381D01*
X133914286Y-120700000D01*
X133961905Y-120747619D01*
X134009524Y-120842857D01*
X134009524Y-120938095D01*
X133961905Y-121080952D01*
X133390476Y-121652381D01*
X134009524Y-121652381D01*
X167631762Y-75115619D02*
X167536524Y-75068000D01*
X167441286Y-74972762D01*
X167298429Y-74829905D01*
X167203190Y-74782286D01*
X167107952Y-74782286D01*
X167155571Y-75020381D02*
X167060333Y-74972762D01*
X166965095Y-74877524D01*
X166917476Y-74687048D01*
X166917476Y-74353714D01*
X166965095Y-74163238D01*
X167060333Y-74068000D01*
X167155571Y-74020381D01*
X167346048Y-74020381D01*
X167441286Y-74068000D01*
X167536524Y-74163238D01*
X167584143Y-74353714D01*
X167584143Y-74687048D01*
X167536524Y-74877524D01*
X167441286Y-74972762D01*
X167346048Y-75020381D01*
X167155571Y-75020381D01*
X167917476Y-74020381D02*
X168536524Y-74020381D01*
X168203190Y-74401333D01*
X168346048Y-74401333D01*
X168441286Y-74448952D01*
X168488905Y-74496571D01*
X168536524Y-74591810D01*
X168536524Y-74829905D01*
X168488905Y-74925143D01*
X168441286Y-74972762D01*
X168346048Y-75020381D01*
X168060333Y-75020381D01*
X167965095Y-74972762D01*
X167917476Y-74925143D01*
X108433334Y-49052381D02*
X108100000Y-48576190D01*
X107861905Y-49052381D02*
X107861905Y-48052381D01*
X108242858Y-48052381D01*
X108338096Y-48100000D01*
X108385715Y-48147619D01*
X108433334Y-48242857D01*
X108433334Y-48385714D01*
X108385715Y-48480952D01*
X108338096Y-48528571D01*
X108242858Y-48576190D01*
X107861905Y-48576190D01*
X109385715Y-49052381D02*
X108814286Y-49052381D01*
X109100000Y-49052381D02*
X109100000Y-48052381D01*
X109004762Y-48195238D01*
X108909524Y-48290476D01*
X108814286Y-48338095D01*
X108433334Y-54252381D02*
X108100000Y-53776190D01*
X107861905Y-54252381D02*
X107861905Y-53252381D01*
X108242858Y-53252381D01*
X108338096Y-53300000D01*
X108385715Y-53347619D01*
X108433334Y-53442857D01*
X108433334Y-53585714D01*
X108385715Y-53680952D01*
X108338096Y-53728571D01*
X108242858Y-53776190D01*
X107861905Y-53776190D01*
X108814286Y-53347619D02*
X108861905Y-53300000D01*
X108957143Y-53252381D01*
X109195239Y-53252381D01*
X109290477Y-53300000D01*
X109338096Y-53347619D01*
X109385715Y-53442857D01*
X109385715Y-53538095D01*
X109338096Y-53680952D01*
X108766667Y-54252381D01*
X109385715Y-54252381D01*
X147033334Y-71252381D02*
X146700000Y-70776190D01*
X146461905Y-71252381D02*
X146461905Y-70252381D01*
X146842858Y-70252381D01*
X146938096Y-70300000D01*
X146985715Y-70347619D01*
X147033334Y-70442857D01*
X147033334Y-70585714D01*
X146985715Y-70680952D01*
X146938096Y-70728571D01*
X146842858Y-70776190D01*
X146461905Y-70776190D01*
X147366667Y-70252381D02*
X147985715Y-70252381D01*
X147652381Y-70633333D01*
X147795239Y-70633333D01*
X147890477Y-70680952D01*
X147938096Y-70728571D01*
X147985715Y-70823810D01*
X147985715Y-71061905D01*
X147938096Y-71157143D01*
X147890477Y-71204762D01*
X147795239Y-71252381D01*
X147509524Y-71252381D01*
X147414286Y-71204762D01*
X147366667Y-71157143D01*
X143833334Y-81652381D02*
X143500000Y-81176190D01*
X143261905Y-81652381D02*
X143261905Y-80652381D01*
X143642858Y-80652381D01*
X143738096Y-80700000D01*
X143785715Y-80747619D01*
X143833334Y-80842857D01*
X143833334Y-80985714D01*
X143785715Y-81080952D01*
X143738096Y-81128571D01*
X143642858Y-81176190D01*
X143261905Y-81176190D01*
X144690477Y-80985714D02*
X144690477Y-81652381D01*
X144452381Y-80604762D02*
X144214286Y-81319048D01*
X144833334Y-81319048D01*
X136552381Y-124966666D02*
X136076190Y-125300000D01*
X136552381Y-125538095D02*
X135552381Y-125538095D01*
X135552381Y-125157142D01*
X135600000Y-125061904D01*
X135647619Y-125014285D01*
X135742857Y-124966666D01*
X135885714Y-124966666D01*
X135980952Y-125014285D01*
X136028571Y-125061904D01*
X136076190Y-125157142D01*
X136076190Y-125538095D01*
X135552381Y-124061904D02*
X135552381Y-124538095D01*
X136028571Y-124585714D01*
X135980952Y-124538095D01*
X135933333Y-124442857D01*
X135933333Y-124204761D01*
X135980952Y-124109523D01*
X136028571Y-124061904D01*
X136123810Y-124014285D01*
X136361905Y-124014285D01*
X136457143Y-124061904D01*
X136504762Y-124109523D01*
X136552381Y-124204761D01*
X136552381Y-124442857D01*
X136504762Y-124538095D01*
X136457143Y-124585714D01*
X166152381Y-80766666D02*
X165676190Y-81100000D01*
X166152381Y-81338095D02*
X165152381Y-81338095D01*
X165152381Y-80957142D01*
X165200000Y-80861904D01*
X165247619Y-80814285D01*
X165342857Y-80766666D01*
X165485714Y-80766666D01*
X165580952Y-80814285D01*
X165628571Y-80861904D01*
X165676190Y-80957142D01*
X165676190Y-81338095D01*
X165152381Y-79909523D02*
X165152381Y-80100000D01*
X165200000Y-80195238D01*
X165247619Y-80242857D01*
X165390476Y-80338095D01*
X165580952Y-80385714D01*
X165961905Y-80385714D01*
X166057143Y-80338095D01*
X166104762Y-80290476D01*
X166152381Y-80195238D01*
X166152381Y-80004761D01*
X166104762Y-79909523D01*
X166057143Y-79861904D01*
X165961905Y-79814285D01*
X165723810Y-79814285D01*
X165628571Y-79861904D01*
X165580952Y-79909523D01*
X165533333Y-80004761D01*
X165533333Y-80195238D01*
X165580952Y-80290476D01*
X165628571Y-80338095D01*
X165723810Y-80385714D01*
X139833334Y-45152381D02*
X139500000Y-44676190D01*
X139261905Y-45152381D02*
X139261905Y-44152381D01*
X139642858Y-44152381D01*
X139738096Y-44200000D01*
X139785715Y-44247619D01*
X139833334Y-44342857D01*
X139833334Y-44485714D01*
X139785715Y-44580952D01*
X139738096Y-44628571D01*
X139642858Y-44676190D01*
X139261905Y-44676190D01*
X140166667Y-44152381D02*
X140833334Y-44152381D01*
X140404762Y-45152381D01*
X106238095Y-42552381D02*
X106238095Y-43361905D01*
X106285714Y-43457143D01*
X106333333Y-43504762D01*
X106428571Y-43552381D01*
X106619048Y-43552381D01*
X106714286Y-43504762D01*
X106761905Y-43457143D01*
X106809524Y-43361905D01*
X106809524Y-42552381D01*
X107809524Y-43552381D02*
X107238095Y-43552381D01*
X107523809Y-43552381D02*
X107523809Y-42552381D01*
X107428571Y-42695238D01*
X107333333Y-42790476D01*
X107238095Y-42838095D01*
X156017381Y-67561905D02*
X156826905Y-67561905D01*
X156922143Y-67514286D01*
X156969762Y-67466667D01*
X157017381Y-67371429D01*
X157017381Y-67180952D01*
X156969762Y-67085714D01*
X156922143Y-67038095D01*
X156826905Y-66990476D01*
X156017381Y-66990476D01*
X156112619Y-66561905D02*
X156065000Y-66514286D01*
X156017381Y-66419048D01*
X156017381Y-66180952D01*
X156065000Y-66085714D01*
X156112619Y-66038095D01*
X156207857Y-65990476D01*
X156303095Y-65990476D01*
X156445952Y-66038095D01*
X157017381Y-66609524D01*
X157017381Y-65990476D01*
X135688095Y-109952381D02*
X135688095Y-110761905D01*
X135735714Y-110857143D01*
X135783333Y-110904762D01*
X135878571Y-110952381D01*
X136069048Y-110952381D01*
X136164286Y-110904762D01*
X136211905Y-110857143D01*
X136259524Y-110761905D01*
X136259524Y-109952381D01*
X136640476Y-109952381D02*
X137259524Y-109952381D01*
X136926190Y-110333333D01*
X137069048Y-110333333D01*
X137164286Y-110380952D01*
X137211905Y-110428571D01*
X137259524Y-110523810D01*
X137259524Y-110761905D01*
X137211905Y-110857143D01*
X137164286Y-110904762D01*
X137069048Y-110952381D01*
X136783333Y-110952381D01*
X136688095Y-110904762D01*
X136640476Y-110857143D01*
X142861905Y-72252381D02*
X142861905Y-71252381D01*
X143242858Y-71252381D01*
X143338096Y-71300000D01*
X143385715Y-71347619D01*
X143433334Y-71442857D01*
X143433334Y-71585714D01*
X143385715Y-71680952D01*
X143338096Y-71728571D01*
X143242858Y-71776190D01*
X142861905Y-71776190D01*
X144290477Y-71252381D02*
X144100000Y-71252381D01*
X144004762Y-71300000D01*
X143957143Y-71347619D01*
X143861905Y-71490476D01*
X143814286Y-71680952D01*
X143814286Y-72061905D01*
X143861905Y-72157143D01*
X143909524Y-72204762D01*
X144004762Y-72252381D01*
X144195239Y-72252381D01*
X144290477Y-72204762D01*
X144338096Y-72157143D01*
X144385715Y-72061905D01*
X144385715Y-71823810D01*
X144338096Y-71728571D01*
X144290477Y-71680952D01*
X144195239Y-71633333D01*
X144004762Y-71633333D01*
X143909524Y-71680952D01*
X143861905Y-71728571D01*
X143814286Y-71823810D01*
X135461905Y-74652381D02*
X135461905Y-73652381D01*
X135842858Y-73652381D01*
X135938096Y-73700000D01*
X135985715Y-73747619D01*
X136033334Y-73842857D01*
X136033334Y-73985714D01*
X135985715Y-74080952D01*
X135938096Y-74128571D01*
X135842858Y-74176190D01*
X135461905Y-74176190D01*
X136366667Y-73652381D02*
X137033334Y-73652381D01*
X136604762Y-74652381D01*
X76067381Y-115134286D02*
X75067381Y-115134286D01*
X75067381Y-114753333D01*
X75115000Y-114658095D01*
X75162619Y-114610476D01*
X75257857Y-114562857D01*
X75400714Y-114562857D01*
X75495952Y-114610476D01*
X75543571Y-114658095D01*
X75591190Y-114753333D01*
X75591190Y-115134286D01*
X76067381Y-113610476D02*
X76067381Y-114181905D01*
X76067381Y-113896191D02*
X75067381Y-113896191D01*
X75210238Y-113991429D01*
X75305476Y-114086667D01*
X75353095Y-114181905D01*
X75067381Y-112991429D02*
X75067381Y-112896190D01*
X75115000Y-112800952D01*
X75162619Y-112753333D01*
X75257857Y-112705714D01*
X75448333Y-112658095D01*
X75686429Y-112658095D01*
X75876905Y-112705714D01*
X75972143Y-112753333D01*
X76019762Y-112800952D01*
X76067381Y-112896190D01*
X76067381Y-112991429D01*
X76019762Y-113086667D01*
X75972143Y-113134286D01*
X75876905Y-113181905D01*
X75686429Y-113229524D01*
X75448333Y-113229524D01*
X75257857Y-113181905D01*
X75162619Y-113134286D01*
X75115000Y-113086667D01*
X75067381Y-112991429D01*
X76067381Y-99534286D02*
X75067381Y-99534286D01*
X75067381Y-99153333D01*
X75115000Y-99058095D01*
X75162619Y-99010476D01*
X75257857Y-98962857D01*
X75400714Y-98962857D01*
X75495952Y-99010476D01*
X75543571Y-99058095D01*
X75591190Y-99153333D01*
X75591190Y-99534286D01*
X76067381Y-98010476D02*
X76067381Y-98581905D01*
X76067381Y-98296191D02*
X75067381Y-98296191D01*
X75210238Y-98391429D01*
X75305476Y-98486667D01*
X75353095Y-98581905D01*
X76067381Y-97058095D02*
X76067381Y-97629524D01*
X76067381Y-97343810D02*
X75067381Y-97343810D01*
X75210238Y-97439048D01*
X75305476Y-97534286D01*
X75353095Y-97629524D01*
X148152381Y-79214286D02*
X147152381Y-79214286D01*
X147152381Y-78833333D01*
X147200000Y-78738095D01*
X147247619Y-78690476D01*
X147342857Y-78642857D01*
X147485714Y-78642857D01*
X147580952Y-78690476D01*
X147628571Y-78738095D01*
X147676190Y-78833333D01*
X147676190Y-79214286D01*
X148152381Y-77690476D02*
X148152381Y-78261905D01*
X148152381Y-77976191D02*
X147152381Y-77976191D01*
X147295238Y-78071429D01*
X147390476Y-78166667D01*
X147438095Y-78261905D01*
X147247619Y-77309524D02*
X147200000Y-77261905D01*
X147152381Y-77166667D01*
X147152381Y-76928571D01*
X147200000Y-76833333D01*
X147247619Y-76785714D01*
X147342857Y-76738095D01*
X147438095Y-76738095D01*
X147580952Y-76785714D01*
X148152381Y-77357143D01*
X148152381Y-76738095D01*
X102048559Y-109495238D02*
X102000940Y-109590476D01*
X101905702Y-109685714D01*
X101762845Y-109828571D01*
X101715226Y-109923810D01*
X101715226Y-110019048D01*
X101953321Y-109971429D02*
X101905702Y-110066667D01*
X101810464Y-110161905D01*
X101619988Y-110209524D01*
X101286654Y-110209524D01*
X101096178Y-110161905D01*
X101000940Y-110066667D01*
X100953321Y-109971429D01*
X100953321Y-109780952D01*
X101000940Y-109685714D01*
X101096178Y-109590476D01*
X101286654Y-109542857D01*
X101619988Y-109542857D01*
X101810464Y-109590476D01*
X101905702Y-109685714D01*
X101953321Y-109780952D01*
X101953321Y-109971429D01*
X101286654Y-108685714D02*
X101953321Y-108685714D01*
X100905702Y-108923810D02*
X101619988Y-109161905D01*
X101619988Y-108542857D01*
X101648559Y-93895238D02*
X101600940Y-93990476D01*
X101505702Y-94085714D01*
X101362845Y-94228571D01*
X101315226Y-94323810D01*
X101315226Y-94419048D01*
X101553321Y-94371429D02*
X101505702Y-94466667D01*
X101410464Y-94561905D01*
X101219988Y-94609524D01*
X100886654Y-94609524D01*
X100696178Y-94561905D01*
X100600940Y-94466667D01*
X100553321Y-94371429D01*
X100553321Y-94180952D01*
X100600940Y-94085714D01*
X100696178Y-93990476D01*
X100886654Y-93942857D01*
X101219988Y-93942857D01*
X101410464Y-93990476D01*
X101505702Y-94085714D01*
X101553321Y-94180952D01*
X101553321Y-94371429D01*
X100553321Y-93038095D02*
X100553321Y-93514286D01*
X101029511Y-93561905D01*
X100981892Y-93514286D01*
X100934273Y-93419048D01*
X100934273Y-93180952D01*
X100981892Y-93085714D01*
X101029511Y-93038095D01*
X101124750Y-92990476D01*
X101362845Y-92990476D01*
X101458083Y-93038095D01*
X101505702Y-93085714D01*
X101553321Y-93180952D01*
X101553321Y-93419048D01*
X101505702Y-93514286D01*
X101458083Y-93561905D01*
D10*
X124399999Y-33999500D02*
X124399998Y-33999499D01*
X124399998Y-33999500D02*
X124399998Y-33999499D01*
X124399999Y-33999499D01*
X124399999Y-33999499D01*
X124399999Y-33999499D01*
X124399999Y-33999499D01*
X124399999Y-33999499D01*
X124399999Y-33999499D01*
X124399999Y-33999499D01*
X124399999Y-33999499D01*
X124399998Y-33999499D01*
X124399999Y-33999499D02*
X124400000Y-33999499D01*
X124400000Y-33999500D02*
X124399999Y-33999500D01*
X124399999Y-33999499D01*
X124400000Y-33999499D01*
X124400001Y-33999499D02*
X124400000Y-33999499D01*
X124400000Y-33999500D02*
X124400000Y-33999499D01*
X124400001Y-33999499D01*
X124400001Y-33999499D02*
X124400001Y-33999499D01*
X124400001Y-33999499D02*
X124400001Y-33999499D01*
X124400002Y-33999499D01*
X124400001Y-33999499D02*
X124400001Y-33999499D01*
X124400002Y-33999499D01*
X124400002Y-33999499D02*
X124400002Y-33999499D01*
X124400002Y-33999499D02*
X124400002Y-33999499D01*
X124400003Y-33999499D01*
X124400002Y-33999499D02*
X124400002Y-33999499D01*
X124400003Y-33999499D01*
D12*
M02*
